<svg xmlns="http://www.w3.org/2000/svg" xmlns:xlink="http://www.w3.org/1999/xlink" viewBox="0 0 227.68 155.46"><defs><style>.a,.b{fill:none;stroke-miterlimit:10;}.a{stroke:url(#a);}.b{stroke:url(#b);}.c{fill:url(#c);}.d{fill:url(#d);}.e{fill:url(#e);}.f{fill:url(#f);}.g{fill:url(#g);}.h{fill:url(#h);}</style><linearGradient id="a" x1="193.13" y1="203.65" x2="34.55" y2="98.47" gradientTransform="matrix(1, 0, 0, -1, 0, 158)" gradientUnits="userSpaceOnUse"><stop offset="0" stop-color="#00baff"/><stop offset="1" stop-color="#670a88"/></linearGradient><linearGradient id="b" x1="193.13" y1="62.9" x2="34.55" y2="-42.28" xlink:href="#a"/><linearGradient id="c" x1="21" y1="15.44" x2="212.32" y2="149.91" gradientTransform="matrix(1, 0, 0, -1, 0, 158)" gradientUnits="userSpaceOnUse"><stop offset="0" stop-color="#e78323"/><stop offset="1" stop-color="#ffef00"/></linearGradient><radialGradient id="d" cx="164.12" cy="-7608.74" r="40.13" gradientTransform="matrix(1.12, 0, 0, -0.1, -5.42, -625.15)" gradientUnits="userSpaceOnUse"><stop offset="0" stop-color="#fff400"/><stop offset="0.15" stop-color="#ccc400" stop-opacity="0.8"/><stop offset="0.39" stop-color="#857f00" stop-opacity="0.52"/><stop offset="0.6" stop-color="#4c4800" stop-opacity="0.3"/><stop offset="0.77" stop-color="#232100" stop-opacity="0.14"/><stop offset="0.92" stop-color="#090900" stop-opacity="0.04"/><stop offset="1" stop-opacity="0"/></radialGradient><radialGradient id="e" cx="297.41" cy="-7715" r="17.26" gradientTransform="matrix(0.83, 0, 0, -0.1, -134.84, -625.15)" xlink:href="#d"/><radialGradient id="f" cx="106.18" cy="-5407.24" r="49.16" gradientTransform="matrix(1.12, 0, 0, -0.12, -5.42, -649.24)" gradientUnits="userSpaceOnUse"><stop offset="0" stop-color="#00c9ff"/><stop offset="0.15" stop-color="#00a1cc" stop-opacity="0.8"/><stop offset="0.39" stop-color="#006985" stop-opacity="0.52"/><stop offset="0.6" stop-color="#003c4c" stop-opacity="0.3"/><stop offset="0.77" stop-color="#001b23" stop-opacity="0.14"/><stop offset="0.92" stop-color="#000709" stop-opacity="0.04"/><stop offset="1" stop-opacity="0"/></radialGradient><radialGradient id="g" cx="-53.71" cy="-4639.5" r="27.83" gradientTransform="matrix(1.51, 0, 0, -0.17, 170.91, -645.69)" gradientUnits="userSpaceOnUse"><stop offset="0" stop-color="#ba53ff"/><stop offset="0.15" stop-color="#9543cc" stop-opacity="0.8"/><stop offset="0.39" stop-color="#612b85" stop-opacity="0.52"/><stop offset="0.6" stop-color="#37194c" stop-opacity="0.3"/><stop offset="0.77" stop-color="#190b23" stop-opacity="0.14"/><stop offset="0.92" stop-color="#070309" stop-opacity="0.04"/><stop offset="1" stop-opacity="0"/></radialGradient><radialGradient id="h" cx="220.09" cy="-10577.64" r="40.71" gradientTransform="matrix(1.02, 0, 0, -0.07, -46.45, -711.81)" xlink:href="#d"/></defs><title>highScoresBg</title><path class="a" d="M0,6.94H227.68"/><path class="b" d="M227.68,147.69H0"/><path class="c" d="M225,11.45H132.17l-8.6-8.6h0l-.67-.66-1-1-1.06-1L120.67,0H107l-2.83,2.85-8.61,8.6H2.64l-.78.77h94l9.38-9.37h17.19l9.38,9.37h94Zm.73,131-.77.76h-92.8l-8.6,8.61-2.86,2.87H107l-.1-.12-1.06-1-1-1-.68-.66h0l-8.61-8.61H2.66l-.76-.76h94l9.38,9.37h17.19l9.38-9.37Z"/><ellipse class="d" cx="177.6" cy="142.88" rx="44.79" ry="4.09"/><path class="e" d="M127.35,153.7c0,1-6.45,1.76-14.4,1.76s-14.39-.79-14.39-1.76,6.44-1.76,14.39-1.76S127.35,152.73,127.35,153.7Z"/><ellipse class="f" cx="112.93" cy="8.3" rx="54.88" ry="6.07"/><ellipse class="g" cx="90.04" cy="147.69" rx="42.11" ry="4.78"/><path class="h" d="M219.06,11.66c0,1.5-18.56,2.71-41.45,2.71s-41.44-1.21-41.44-2.71,18.56-2.72,41.45-2.72S219.06,10.16,219.06,11.66Z"/></svg>