<svg xmlns="http://www.w3.org/2000/svg" viewBox="0 0 1231.72 160.94"><defs><style>.a{fill:#101010;}.b,.c{fill:#69c9d0;}.b{fill-rule:evenodd;}</style></defs><title>footerImgArrow</title><rect class="a" y="24.18" width="1231.72" height="136.76"/><path class="b" d="M130.3,56.19c-.58-1.78-1.12-3.45-1.65-5s-1-2.85-1.44-4-.83-2-1.12-2.62-.5-.93-.59-.88h0c-.08,0,0,.41.14,1.07.26.94.57,1.87.92,2.78.42,1.17,1,2.56,1.61,4.1Z"/><path class="b" d="M131.07,55.37a34.56,34.56,0,0,1,3.42-4.47c1.18-1.31,2.3-2.44,3.29-3.44,2.08-2.24,3.31-3.73,3.16-3.88s-1.64,1.07-3.91,3.11a33,33,0,0,0-3,3.36,25.74,25.74,0,0,0-3,4.64Z"/><path class="a" d="M69.76,22.66a7.33,7.33,0,0,1-1.39.72,15.76,15.76,0,0,1-3.63,1,13.45,13.45,0,0,1-6.68-.72,10.44,10.44,0,0,1-6-6.09,11.7,11.7,0,0,1-.85-4.45,12.14,12.14,0,0,1,.91-4.76,11.34,11.34,0,0,1,2.53-3.7,10.85,10.85,0,0,1,3.69-2.44,11.43,11.43,0,0,1,4.47-.85,12.22,12.22,0,0,1,3.4.45A11.67,11.67,0,0,1,69.06,3l-.57,1.41a10.41,10.41,0,0,0-1.7-.77,12.32,12.32,0,0,0-1.9-.49,10.36,10.36,0,0,0-6,.57A9.79,9.79,0,0,0,53.53,9.1a11,11,0,0,0,0,7.92,9.84,9.84,0,0,0,2,3.13,9.27,9.27,0,0,0,3.17,2.11,10.89,10.89,0,0,0,4.11.75,13.19,13.19,0,0,0,2.86-.37,8.93,8.93,0,0,0,2.55-.91v-6.3h-5.1V13.94h6.67Z"/><path class="a" d="M81,24.5a6.84,6.84,0,0,1-3.4-.85,6.21,6.21,0,0,1-2.34-2.35,6.57,6.57,0,0,1-.85-3.3,6.26,6.26,0,0,1,.9-3.32,6.7,6.7,0,0,1,2.4-2.39,6.51,6.51,0,0,1,3.4-.85,5.42,5.42,0,0,1,3.64,1.25,7.19,7.19,0,0,1,2.19,3.4L76,20.32l-.44-1.09,10-3.9-.32.46a6.06,6.06,0,0,0-1.64-2.21,4.08,4.08,0,0,0-2.7-.92,4.78,4.78,0,0,0-2.55.7,5.25,5.25,0,0,0-2.55,4.56,5.45,5.45,0,0,0,.66,2.62A5.27,5.27,0,0,0,83,22.83a6.61,6.61,0,0,0,1.7-1l.76,1.08a8.17,8.17,0,0,1-2.06,1.15A6.8,6.8,0,0,1,81,24.5Z"/><path class="a" d="M92.31,6.28h1.53v5.65H97.7v1.21H93.84v11.1H92.31V13.14H89.67V11.93h2.64Z"/><path class="a" d="M110.91,7.17a.93.93,0,0,1,.36-.74,1.08,1.08,0,0,1,.76-.31,1.11,1.11,0,0,1,.77.31,1,1,0,0,1,.31.74,1,1,0,0,1-.9,1.09H112a1.07,1.07,0,0,1-.76-.32A1,1,0,0,1,110.91,7.17Zm.32,4.6h1.5V24.24h-1.5Z"/><path class="a" d="M119.72,11.77l.16,3.92-.2-.76a4.72,4.72,0,0,1,2.06-2.55,6.2,6.2,0,0,1,3.4-1,4,4,0,0,1,2.8,1,3.69,3.69,0,0,1,1.13,2.69v9.1h-1.53V15.56a3,3,0,0,0-.78-2,2.83,2.83,0,0,0-2.13-.85,4.54,4.54,0,0,0-2.33.61,4.48,4.48,0,0,0-1.7,1.7,4.86,4.86,0,0,0-.66,2.55v6.7h-1.5V11.77Z"/><path class="a" d="M145.78,6.28h1.53v5.65h3.87v1.21h-3.87v11.1h-1.53V13.14h-2.65V11.93h2.65Z"/><path class="a" d="M153.69,17.93a6.45,6.45,0,0,1,.85-3.32,6.52,6.52,0,0,1,2.4-2.38,7.08,7.08,0,0,1,6.8,0,6.33,6.33,0,0,1,2.36,2.43,6.8,6.8,0,0,1,0,6.63,6.37,6.37,0,0,1-2.38,2.37,6.64,6.64,0,0,1-3.4.85,6.74,6.74,0,0,1-3.4-.85,6.34,6.34,0,0,1-2.38-2.33A6.51,6.51,0,0,1,153.69,17.93Zm1.5,0a5.13,5.13,0,0,0,7.74,4.55,5.36,5.36,0,0,0,0-9.13,5,5,0,0,0-5.24,0,5.58,5.58,0,0,0-1.83,2,5.22,5.22,0,0,0-.67,2.62Z"/><path class="a" d="M175.38,24.59a3.69,3.69,0,0,1-3.92-3.42v-9.4H173v8.65a3.2,3.2,0,0,0,.78,2,2.9,2.9,0,0,0,2.16.85,4.32,4.32,0,0,0,2.27-.63,5.12,5.12,0,0,0,1.7-1.7,4.8,4.8,0,0,0,.65-2.51V11.8H182V24.24h-1.34l-.16-3.92.23.85a4.36,4.36,0,0,1-1.14,1.7,5.85,5.85,0,0,1-1.91,1.23A6.08,6.08,0,0,1,175.38,24.59Z"/><path class="a" d="M197.33,23a6.63,6.63,0,0,1-1.94,1.09,7.1,7.1,0,0,1-5.67-.47,6.45,6.45,0,0,1-2.36-2.31,6.56,6.56,0,0,1-.85-3.36,6.36,6.36,0,0,1,.85-3.35,6.51,6.51,0,0,1,2.38-2.31,6.33,6.33,0,0,1,3.24-.85,7.38,7.38,0,0,1,2.42.38,5.93,5.93,0,0,1,1.95,1.08l-.8,1A5.87,5.87,0,0,0,195,13a5,5,0,0,0-1.92-.35,4.87,4.87,0,0,0-2.55.7,5.39,5.39,0,0,0-1.85,7.19,5.07,5.07,0,0,0,1.89,1.9,5.32,5.32,0,0,0,4.44.4,5.51,5.51,0,0,0,1.51-.81Z"/><path class="a" d="M201.51,24.24V0H203V15.09l-.1-.55a5.58,5.58,0,0,1,2.1-2.21,5.82,5.82,0,0,1,3.27-.91,3.91,3.91,0,0,1,2.84,1,3.63,3.63,0,0,1,1.11,2.69v9.1h-1.53V15.56a2.91,2.91,0,0,0-.76-2,2.83,2.83,0,0,0-2.13-.85,4.44,4.44,0,0,0-2.33.64,4.83,4.83,0,0,0-1.75,1.7A4.7,4.7,0,0,0,203,17.5v6.7Z"/><path class="a" d="M218.21,23.52a1.21,1.21,0,0,1-.85-.31,1.1,1.1,0,0,1-.35-.85,1.08,1.08,0,0,1,.35-.79,1.28,1.28,0,0,1,.85-.33,1.17,1.17,0,0,1,.85.33,1.18,1.18,0,0,1,0,1.64A1.21,1.21,0,0,1,218.21,23.52ZM217.48.17h1.37V18.66h-1.37Z"/><path class="c" d="M130.33,49.92a11,11,0,0,0,.38-5.48A7.44,7.44,0,0,0,127.84,40a5.26,5.26,0,0,0-1.14-.73l-.59-.33c-.2-.09-.42-.16-.63-.24-.43-.16-.84-.35-1.28-.47l-1.34-.31c-1.8-.38-3.66-.62-5.5-.85-7.42-.84-14.92-1.15-22.39-1.51S80,35,72.5,34.68l-5.63-.23a25.77,25.77,0,0,1-5.73-.86,15.11,15.11,0,0,1-5.29-2.52A9.15,9.15,0,0,1,53.8,29a6.47,6.47,0,0,1-1.17-2.62,9.48,9.48,0,0,0,3.89,3.72,17.77,17.77,0,0,0,5,1.78,33.82,33.82,0,0,0,5.4.61l5.61.24c7.5.3,15,.62,22.49,1.09s15,1.08,22.45,2.12A53.5,53.5,0,0,1,123.09,37l1.38.41c.46.14.89.37,1.34.55l.66.3.62.38a5.82,5.82,0,0,1,1.19.84,8,8,0,0,1,2.85,4.93,10.75,10.75,0,0,1-.72,5.58Z"/></svg>