<svg id="Layer_1" data-name="Layer 1" xmlns="http://www.w3.org/2000/svg" viewBox="0 0 646.47 147.95"><defs><style>.cls-1{fill:#080808;}.cls-2,.cls-3{fill:#69c9d0;}.cls-2{fill-rule:evenodd;}</style></defs><title>footerImgMobile</title><rect class="cls-1" y="11.19" width="646.47" height="136.76"/><path class="cls-1" d="M292.87,10.5a3.44,3.44,0,0,1-.66.34,7.46,7.46,0,0,1-1.68.46,6.07,6.07,0,0,1-.85.06,5.78,5.78,0,0,1-2.25-.4,4.83,4.83,0,0,1-2.77-2.76,5.45,5.45,0,0,1-.4-2.07,5.74,5.74,0,0,1,.42-2.2,5.12,5.12,0,0,1,1.18-1.73,5,5,0,0,1,1.7-1.13,5.85,5.85,0,0,1,3.65-.18,5.2,5.2,0,0,1,1.31.55l-.26.66a5.63,5.63,0,0,0-.79-.36,6.7,6.7,0,0,0-.88-.23,4.9,4.9,0,0,0-2.78.27,4.53,4.53,0,0,0-2.48,2.42,5.05,5.05,0,0,0,0,3.67,4.21,4.21,0,0,0,2.39,2.45,5,5,0,0,0,1.91.35,6.44,6.44,0,0,0,1.31-.17,3.75,3.75,0,0,0,1.17-.43V7.2h-2.36V6.5h3.09Z"/><path class="cls-1" d="M298.07,11.36a3.19,3.19,0,0,1-1.57-.4,3,3,0,0,1-1.09-1.09A3.18,3.18,0,0,1,295,8.33a2.88,2.88,0,0,1,.42-1.54,3.11,3.11,0,0,1,1.11-1.11,3,3,0,0,1,1.58-.39,2.51,2.51,0,0,1,1.68.58,3.35,3.35,0,0,1,1,1.58l-5.07,2-.17-.5,4.58-1.83-.15.22a2.67,2.67,0,0,0-.76-1A1.9,1.9,0,0,0,298,5.91a2.21,2.21,0,0,0-1.18.33,2.43,2.43,0,0,0-1.18,2.11,2.62,2.62,0,0,0,.3,1.22A2.35,2.35,0,0,0,298,10.8a2.26,2.26,0,0,0,.93-.17,3.44,3.44,0,0,0,.78-.47l.36.5a3.64,3.64,0,0,1-2.05.77Z"/><path class="cls-1" d="M303.32,2.92h.7V5.53h1.79V6.1H304v5.1h-.7V6.09h-1.19V5.53h1.22Z"/><path class="cls-1" d="M312,3.33a.48.48,0,0,1,.16-.35.51.51,0,0,1,.71,0,.43.43,0,0,1,.14.35.45.45,0,0,1-.4.5h-.11a.47.47,0,0,1-.35-.15A.44.44,0,0,1,312,3.33Zm.14,2.13h.7V11.2h-.71Z"/><path class="cls-1" d="M316,5.46l.07,1.81L316,6.92a2.25,2.25,0,0,1,1-1.15,2.91,2.91,0,0,1,1.57-.44,1.86,1.86,0,0,1,1.31.47A1.65,1.65,0,0,1,320.38,7v4.22h-.71V7.2a1.36,1.36,0,0,0-.36-.92,1.33,1.33,0,0,0-1-.4A2.16,2.16,0,0,0,316.45,7a2.25,2.25,0,0,0-.31,1.19v3.1h-.7V5.46Z"/><path class="cls-1" d="M328.09,2.92h.7V5.53h1.8V6.1h-1.8v5.1h-.7V6.09h-1.23V5.53h1.23Z"/><path class="cls-1" d="M331.75,8.31a3,3,0,0,1,1.51-2.62,3.27,3.27,0,0,1,3.15,0,2.92,2.92,0,0,1,1.07,1.11,3.16,3.16,0,0,1,0,3.07,2.81,2.81,0,0,1-1.1,1.09,3.12,3.12,0,0,1-1.58.4,3.09,3.09,0,0,1-1.57-.4,2.83,2.83,0,0,1-1.1-1.07A3,3,0,0,1,331.75,8.31Zm.7,0a2.38,2.38,0,0,0,2.31,2.44h0a2.52,2.52,0,0,0,1.26-.33A2.46,2.46,0,0,0,336.85,7h0A2.47,2.47,0,0,0,336,6.2a2.29,2.29,0,0,0-2.42,0,2.62,2.62,0,0,0-.86.92,2.45,2.45,0,0,0-.3,1.22Z"/><path class="cls-1" d="M341.8,11.39A1.7,1.7,0,0,1,340,9.81h0V5.46h.72v4a1.46,1.46,0,0,0,.36.93,1.34,1.34,0,0,0,1,.4,2,2,0,0,0,1.05-.3,2.45,2.45,0,0,0,.79-.78,2.29,2.29,0,0,0,.3-1.17V5.47h.65V11.2h-.62l-.07-1.81.11.39a2.24,2.24,0,0,1-.53.79,3,3,0,0,1-2,.79Z"/><path class="cls-1" d="M352,10.67a3.08,3.08,0,0,1-.9.51,3.32,3.32,0,0,1-2.62-.22A2.9,2.9,0,0,1,347,8.34a3,3,0,0,1,.4-1.56,2.8,2.8,0,0,1,1.1-1.06,2.91,2.91,0,0,1,1.5-.4,3.55,3.55,0,0,1,1.12.18,2.84,2.84,0,0,1,.9.5l-.37.46a2.35,2.35,0,0,0-.72-.41,2.42,2.42,0,0,0-2.07.16A2.48,2.48,0,0,0,348,9.53a2.3,2.3,0,0,0,.87.88,2.48,2.48,0,0,0,2.06.19,2.64,2.64,0,0,0,.7-.38Z"/><path class="cls-1" d="M353.9,11.2V0h.7V7l-.05-.25a2.61,2.61,0,0,1,.95-1A2.71,2.71,0,0,1,357,5.32a1.86,1.86,0,0,1,1.31.47A1.65,1.65,0,0,1,358.84,7V11.2h-.71v-4a1.28,1.28,0,0,0-1.24-1.32h-.1a2,2,0,0,0-1.07.3A2.17,2.17,0,0,0,354.6,8.1v3.1Z"/><path class="cls-1" d="M361.64,10.9a.62.62,0,0,1-.39-.14.5.5,0,0,1-.16-.4.48.48,0,0,1,.16-.36.57.57,0,0,1,.39-.16.54.54,0,0,1,.55.53h0a.51.51,0,0,1-.15.39A.63.63,0,0,1,361.64,10.9ZM361.3.08h.7V8.65h-.66Z"/><path id="path2991-4" class="cls-2" d="M330.5,31.2c-.35-1.08-.68-2.09-1-3s-.6-1.73-.87-2.42-.5-1.21-.68-1.59-.3-.56-.35-.53h0c-.05,0,0,.25.08.65a16.54,16.54,0,0,0,.56,1.68c.25.71.6,1.55,1,2.48Z"/><path id="path2991-4-2" class="cls-2" d="M331,30.68A20.36,20.36,0,0,1,333,28c.72-.79,1.4-1.47,2-2.08a10,10,0,0,0,1.92-2.34c-.1-.1-1,.64-2.37,1.88a18.51,18.51,0,0,0-1.86,2,14.78,14.78,0,0,0-1.82,2.8Z"/><path class="cls-3" d="M330.52,27.38a6.53,6.53,0,0,0,.22-3.31,4.48,4.48,0,0,0-1.73-2.7c-1.78-1.31-4.13-1.46-6.34-1.77-4.49-.51-9-.69-13.54-.92s-9.05-.37-13.59-.53l-3.4-.12a16.27,16.27,0,0,1-3.47-.53A9,9,0,0,1,285.48,16a4.84,4.84,0,0,1-2-2.86,5.69,5.69,0,0,0,2.35,2.26,11.41,11.41,0,0,0,3.05,1.07,21.13,21.13,0,0,0,3.26.37l3.4.15c4.53.2,9.06.4,13.6.66s9.06.65,13.57,1.27a32,32,0,0,1,3.38.64,8.11,8.11,0,0,1,3.13,1.5A4.83,4.83,0,0,1,331,24a6.62,6.62,0,0,1-.44,3.38Z"/></svg>