<svg id="Layer_1" data-name="Layer 1" xmlns="http://www.w3.org/2000/svg" viewBox="0 0 68.67 57.69"><defs><style>.cls-1{fill:#69c9d0;}</style></defs><title>hamburgerIcon</title><path d="M65.91,46.63H5.06a2.62,2.62,0,0,0-1.94.82,2.67,2.67,0,0,0-.83,1.95v5.53a2.65,2.65,0,0,0,.83,1.94,2.62,2.62,0,0,0,1.94.82H65.91a2.8,2.8,0,0,0,2.76-2.76V49.4a2.66,2.66,0,0,0-.82-1.95A2.62,2.62,0,0,0,65.91,46.63Z"/><path d="M67.85,3.2a2.62,2.62,0,0,0-1.94-.82H5.06a2.62,2.62,0,0,0-1.94.82,2.65,2.65,0,0,0-.83,1.94v5.53a2.67,2.67,0,0,0,.83,1.95,2.62,2.62,0,0,0,1.94.82H65.91a2.62,2.62,0,0,0,1.94-.82,2.66,2.66,0,0,0,.82-1.95V5.14A2.64,2.64,0,0,0,67.85,3.2Z"/><path d="M65.91,24.5H5.06a2.66,2.66,0,0,0-1.94.82,2.67,2.67,0,0,0-.83,1.95V32.8a2.67,2.67,0,0,0,.83,2,2.66,2.66,0,0,0,1.94.82H65.91a2.8,2.8,0,0,0,2.76-2.77V27.27a2.8,2.8,0,0,0-2.76-2.77Z"/><path class="cls-1" d="M63.62,44.25H2.77a2.7,2.7,0,0,0-1.95.82A2.66,2.66,0,0,0,0,47v5.53a2.66,2.66,0,0,0,.82,2,2.7,2.7,0,0,0,2,.82H63.62a2.69,2.69,0,0,0,1.94-.82,2.66,2.66,0,0,0,.82-2V47a2.66,2.66,0,0,0-.82-2A2.69,2.69,0,0,0,63.62,44.25Z"/><path class="cls-1" d="M65.56.82A2.66,2.66,0,0,0,63.62,0H2.77A2.66,2.66,0,0,0,.82.82,2.66,2.66,0,0,0,0,2.76V8.3a2.64,2.64,0,0,0,.82,1.94,2.66,2.66,0,0,0,2,.82H63.62A2.8,2.8,0,0,0,66.38,8.3V2.76A2.66,2.66,0,0,0,65.56.82Z"/><path class="cls-1" d="M63.62,22.13H2.77A2.66,2.66,0,0,0,.82,23,2.62,2.62,0,0,0,0,24.89v5.53a2.66,2.66,0,0,0,.82,1.95,2.66,2.66,0,0,0,2,.82H63.62a2.8,2.8,0,0,0,2.76-2.77V24.89A2.62,2.62,0,0,0,65.56,23,2.66,2.66,0,0,0,63.62,22.13Z"/></svg>