<svg id="Layer_1" data-name="Layer 1" xmlns="http://www.w3.org/2000/svg" viewBox="0 0 657 758.65"><defs><style>.cls-1,.cls-2,.cls-4{fill:none;}.cls-1{stroke:#d8d7db;}.cls-1,.cls-2,.cls-3,.cls-4,.cls-5{stroke-miterlimit:10;stroke-width:40px;}.cls-2,.cls-5{stroke:#69c9d0;}.cls-3,.cls-5{fill:#fff;}.cls-3,.cls-4{stroke:#000;}</style></defs><title>logoColored2</title><polygon class="cls-1" points="20 557.43 20 201.21 328.5 23.09 637 201.21 637 557.43 328.5 735.55 20 557.43"/><path class="cls-2" d="M80,235.85V522.79L328.5,666.26l249-143.94q-.25-143.24-.5-286.47l-5.87-3.39L328.5,92.38Z" transform="translate(0 0)"/><path class="cls-3" d="M637.5,555.33" transform="translate(0 0)"/><path class="cls-3" d="M29.11,199.32" transform="translate(0 0)"/><path class="cls-3" d="M332.5,645.32" transform="translate(0 0)"/><path class="cls-3" d="M330.5,109.32" transform="translate(0 0)"/><path class="cls-4" d="M570,244.32" transform="translate(0 0)"/><path class="cls-3" d="M134.5,392.32" transform="translate(0 0)"/><path class="cls-3" d="M106,526.32" transform="translate(0 0)"/><path class="cls-2" d="M124.5,374.32a421.71,421.71,0,0,1,85,112,421.78,421.78,0,0,1,43,131" transform="translate(0 0)"/><path class="cls-4" d="M579.5,272.32" transform="translate(0 0)"/><path class="cls-2" d="M340,284.11C480.14,233,561.81,219.31,577.5,243" transform="translate(0 0)"/><path class="cls-4" d="M426.5,267.32" transform="translate(0 0)"/><path class="cls-4" d="M518.5,543.32" transform="translate(0 0)"/><path class="cls-4" d="M520.5,549.32" transform="translate(0 0)"/><path class="cls-2" d="M431.5,269.32q30.5,151,61,302" transform="translate(0 0)"/><path class="cls-5" d="M91.5,514.32c32.33-108.67,60.67-196.33,93-305" transform="translate(0 0)"/><path class="cls-5" d="M378.5,306.32" transform="translate(0 0)"/><ellipse class="cls-2" cx="263.5" cy="339.82" rx="108" ry="104.5"/></svg>