<svg id="Layer_1" data-name="Layer 1" xmlns="http://www.w3.org/2000/svg" viewBox="0 0 814.01 939.95"><defs><style>.cls-1,.cls-2,.cls-4{fill:none;}.cls-1{stroke:#d8d7db;stroke-width:49.56px;}.cls-1,.cls-2,.cls-3,.cls-4,.cls-5{stroke-miterlimit:10;}.cls-2,.cls-5{stroke:#69c9d0;}.cls-2,.cls-3,.cls-4,.cls-5{stroke-width:40px;}.cls-3,.cls-5{fill:#fff;}.cls-3,.cls-4{stroke:#000;}</style></defs><title>logoColored3</title><polygon class="cls-1" points="24.78 690.65 24.78 249.3 407.01 28.61 789.23 249.3 789.23 690.65 407.01 911.34 24.78 690.65"/><path class="cls-2" d="M158.51,326.51V613.45L407,756.92,656,613q-.25-143.25-.5-286.47l-5.87-3.39L407,183Z"/><path class="cls-3" d="M716,646"/><path class="cls-3" d="M107.62,290"/><path class="cls-3" d="M411,736"/><path class="cls-3" d="M409,200"/><path class="cls-4" d="M648.51,335"/><path class="cls-3" d="M213,483"/><path class="cls-3" d="M184.51,617"/><path class="cls-2" d="M203,465a421.71,421.71,0,0,1,85,112,422,422,0,0,1,43,131"/><path class="cls-4" d="M658,363"/><path class="cls-2" d="M418.51,374.77C558.65,323.66,640.32,310,656,333.66"/><path class="cls-4" d="M505,358"/><path class="cls-4" d="M597,634"/><path class="cls-4" d="M599,640"/><path class="cls-2" d="M510,360q30.5,151,61,302"/><path class="cls-5" d="M170,605c32.33-108.67,60.67-196.33,93-305"/><path class="cls-5" d="M457,397"/><ellipse class="cls-2" cx="342.01" cy="430.48" rx="108" ry="104.5"/></svg>