<svg id="Layer_3" data-name="Layer 3" xmlns="http://www.w3.org/2000/svg" viewBox="0 0 633.93 926.31"><defs><style>.cls-1,.cls-2,.cls-6{fill:#d8d7db;}.cls-2,.cls-3,.cls-5{stroke:#d8d7db;}.cls-2,.cls-3{stroke-miterlimit:10;}.cls-2{stroke-width:2px;}.cls-3,.cls-4,.cls-5{fill:none;}.cls-3{stroke-width:4px;}.cls-4{stroke:#111;}.cls-4,.cls-5{stroke-linecap:round;stroke-linejoin:round;}.cls-5{stroke-width:4.13px;}.cls-6{isolation:isolate;font-size:132.98px;font-family:ArialMT, Arial;}</style></defs><title>myPortrait</title><path class="cls-1" d="M175.07,763.5a26.08,26.08,0,0,1-.32,11.56,34.17,34.17,0,0,1-2,5.65c-.5,1.13-1.06,2.21-1.47,3.37s-1,2-.67,3.22a1.3,1.3,0,0,0,1.27,1c2.4-.28,4.07-3.11,5.17-5a29.47,29.47,0,0,0,2.81-7,28.56,28.56,0,0,0,.08-14.08c-.75-3.16-5.49-1.81-4.84,1.33Z" transform="translate(0 0)"/><path class="cls-1" d="M225.65,462.21a110.33,110.33,0,0,1-19.57.66c-6.64-.37-13.27-1.14-19.89-1.77s-13.51-1.26-20.25-1.93c-6.27-.61-12.54-1.5-18.83-1.68a40.91,40.91,0,0,0-9.94.71,29.23,29.23,0,0,0-4.4,1.3,10.79,10.79,0,0,0-4.46,2.56,1.71,1.71,0,0,0,1.64,2.83,28.75,28.75,0,0,0,3.93-1.31,28.59,28.59,0,0,1,4.28-1,53.5,53.5,0,0,1,8.29-.59c6.17,0,12.35.77,18.49,1.3,13.07,1.15,26.12,2.78,39.21,3.58,7.32.45,14.8.54,21.93-1.4,1.75-.47,1.47-3.5-.44-3.27Z" transform="translate(0 0)"/><path class="cls-1" d="M227,461.55a23.8,23.8,0,0,1-3-3.64,31.52,31.52,0,0,1-2.6-3.87c-1.64-2.84-3-5.84-4.67-8.67a23.54,23.54,0,0,0-6.85-7.67c-3.6-2.46-8-3.16-12.31-3.44a189,189,0,0,0-28.65-.08,71.68,71.68,0,0,0-25.34,6.49c-7.79,3.8-15.22,9.7-19.29,17.49a2.49,2.49,0,0,0,4.29,2.51,41,41,0,0,1,15.57-14.45,61.3,61.3,0,0,1,22.6-6.58c9.24-1,18.56-.61,27.82-.23,3.83.16,8,.26,11.43,2.17a17,17,0,0,1,5.82,5.91c1.94,3,3.47,6.19,5.34,9.2a27.54,27.54,0,0,0,3.3,4.52,15.81,15.81,0,0,0,4.5,3c1.61.81,3.6-1.34,2-2.65Z" transform="translate(0 0)"/><path class="cls-1" d="M335.49,160.35a134.57,134.57,0,0,1,28.91-41.57,140,140,0,0,1,41.86-28.21c4.08-1.78,8.61-3.44,13-4.88,2.24-.73,4.5-1.38,6.76-2A33.51,33.51,0,0,0,433.19,81c2-1.1.87-3.73-1.07-3.93a25,25,0,0,0-7,.66q-3,.67-6,1.65a117.8,117.8,0,0,0-12.24,4.34A145.37,145.37,0,0,0,383.43,96a147,147,0,0,0-38.18,36.09,134.28,134.28,0,0,0-14.67,25.36,3,3,0,0,0,1,3.92c1.22.71,3.29.39,3.91-1Z" transform="translate(0 0)"/><path class="cls-1" d="M298.58,149.52a105.8,105.8,0,0,1,21.82-46,108.72,108.72,0,0,1,41.55-31,106.9,106.9,0,0,1,13.69-4.72c2.33-.63,4.69-1.17,7.05-1.68,2.58-.57,5.25-.76,7.61-2a2.59,2.59,0,0,0,.85-3.55,2.56,2.56,0,0,0-1.46-1.12,9.65,9.65,0,0,0-3.55-.19c-1.3.18-2.6.36-3.9.57-2.25.37-4.48.85-6.69,1.4a110.38,110.38,0,0,0-72.33,58.12A114.46,114.46,0,0,0,293.37,148a2.79,2.79,0,0,0,1.88,3.32,2.73,2.73,0,0,0,3.32-1.89Z" transform="translate(0 0)"/><path class="cls-1" d="M65,213.08a177.64,177.64,0,0,1-3.3-27,209.08,209.08,0,0,1,.12-27.42,186.16,186.16,0,0,1,12-52.87c1.79-4.59,3.69-9.13,5.83-13.58q1.69-3.54,3.54-7c1.26-2.35,3-4.65,3.5-7.27a2.56,2.56,0,0,0-4.23-2.47c-1.92,1.59-3,4-4.24,6.1S76.08,85.5,75,87.5c-2.21,4.25-4.29,8.56-6.12,13A181.52,181.52,0,0,0,60.22,127a184.21,184.21,0,0,0-4.9,56A159.78,159.78,0,0,0,61,214.21c.7,2.59,4.51,1.49,4-1.09Z" transform="translate(0 0)"/><path class="cls-1" d="M83.44,95.58c3.18-6.11,6.47-12.11,10.08-18a165.59,165.59,0,0,1,11.13-16.3c7.43-9.28,16.43-17.56,27.43-22.46,7-3.13,14.58-4.38,21.93-6.36a3,3,0,0,0-1.35-5.85h0l-.24.07a88.79,88.79,0,0,0-20.75,5.63,66.32,66.32,0,0,0-16.39,10C105.23,50.55,97.42,61.55,91.5,73c-3.62,7-6.81,14.23-10.16,21.37-.66,1.4,1.37,2.63,2.1,1.23Z" transform="translate(0 0)"/><path class="cls-1" d="M510.39,133.89c1.4,1.14,2.5,2.44,3.78,3.67s2.7,2.73,4,4.17c2.41,2.71,4.91,5.35,7.37,8,5,5.44,9.89,10.94,14.59,16.62,9,10.84,17.11,22.66,22.28,35.81A89.1,89.1,0,0,1,568.08,225a2.81,2.81,0,0,0,2.72,2.71,2.73,2.73,0,0,0,2.72-2.71c-.87-14.7-6.65-28.86-14.16-41.37-7.78-13-17.78-24.56-28.13-35.63-2.89-3.11-5.72-6.32-8.75-9.3-1.47-1.45-3-2.85-4.61-4.16a37.41,37.41,0,0,0-5.3-3.42c-1.69-1-3.78,1.49-2.16,2.8Z" transform="translate(0 0)"/><path class="cls-1" d="M158.88,170c-3.6-15.58-1.88-31.84,2.78-47,4.81-15.62,12.67-29.89,21.41-43.61q3.72-5.81,7.55-11.5c1.28-1.9,2.52-3.83,3.78-5.74.63-.95,1.34-1.87,1.88-2.87s1-2.22,1.56-3.32c.92-2-1.44-4.11-3.13-2.42a44.33,44.33,0,0,0-4.35,4.93c-1.23,1.66-2.46,3.32-3.68,5-2.47,3.4-4.81,6.91-7.14,10.41a232,232,0,0,0-12.86,21.63c-7.79,15-13.47,31.06-15,48a86.38,86.38,0,0,0,2,27.94c.82,3.38,6,2,5.2-1.43Z" transform="translate(0 0)"/><path class="cls-1" d="M348.34,646.37a35.61,35.61,0,0,1-13,1.77,90.24,90.24,0,0,1-13.67-2.26c-9.92-2.17-19.83-3.65-30-3.38-5.18.13-10.3.84-15.47,1.17a57.76,57.76,0,0,1-15.12-1.28,57.51,57.51,0,0,0-15.2-1.39A73.07,73.07,0,0,0,231,643.75c-5.57,1.56-11,3.48-16.52,5.31s-11.34,3.79-17,5.7c-3,1-1.72,5.82,1.32,4.79,9.94-3.37,19.82-7,29.81-10.16a81.94,81.94,0,0,1,14.73-3.56,47.45,47.45,0,0,1,14.85.59c5.1,1,10.12,2,15.33,1.82s10.32-1,15.5-1.24a105.86,105.86,0,0,1,30,2.72,100.75,100.75,0,0,0,15.69,2.89c5.14.36,10.66-.11,15-3.13,1.5-1,.64-3.75-1.32-3.13Z" transform="translate(0 0)"/><path class="cls-1" d="M346,646.86a30.21,30.21,0,0,1-3.52,1.73,24,24,0,0,0-3.75,2.21c-2.26,1.51-4.46,3.07-6.72,4.57-4.52,3-9.11,5.88-13.81,8.58a143.07,143.07,0,0,1-29.37,13.17,90,90,0,0,1-74.43-9.48q-3.5-2.17-6.75-4.68c-1-.83-2.11-1.67-3.13-2.54a13.82,13.82,0,0,0-4-2.28,1.67,1.67,0,0,0-2.22.66h0a1.58,1.58,0,0,0,0,1.52,11.9,11.9,0,0,0,2.14,3.25,36.48,36.48,0,0,0,3,2.42c2.12,1.66,4.32,3.24,6.58,4.71a91.47,91.47,0,0,0,13.66,7.4,97.34,97.34,0,0,0,30.23,7.66c22.1,1.91,43.64-5,62.64-15.65,5.5-3.09,10.82-6.46,16-10,2.55-1.72,5.11-3.49,7.57-5.28a34.87,34.87,0,0,0,3.85-3c1.14-1.1,2-2.37,3.26-3.44a1,1,0,0,0-.15-1.41h0a1,1,0,0,0-1.06-.13Z" transform="translate(0 0)"/><path class="cls-1" d="M337,651a17.82,17.82,0,0,0-6.67.18c-2.4.32-4.79.61-7.21.83-4.76.41-9.51,1.26-14.25,2-9.24,1.37-18.49,2.75-27.74,3.89a86.78,86.78,0,0,1-13.86.73,92.15,92.15,0,0,1-12.16-1.47c-8.33-1.52-16.53-3.76-24.92-5a71.3,71.3,0,0,0-14-.93,43.45,43.45,0,0,0-7,.85c-1.09.23-2.26.51-3.35.85a13.23,13.23,0,0,0-3.5,2,2.7,2.7,0,0,0-1.08,2.89,2.51,2.51,0,0,0,2.36,1.88,24.56,24.56,0,0,0,3.09-.22c1-.22,2.06-.5,3.11-.72a42,42,0,0,1,5.7-.78,64.21,64.21,0,0,1,12,.44c8.27,1,16.32,3.22,24.56,4.73a85.64,85.64,0,0,0,26.2,1.14c9.35-1.14,18.61-3.17,27.89-4.8,5.21-.92,10.52-1.61,15.7-2.78,2.63-.59,5.24-1.23,7.9-1.73s5.19-.74,7.48-2.12a1,1,0,0,0,.32-1.38h0a1,1,0,0,0-.54-.42Z" transform="translate(0 0)"/><path class="cls-1" d="M419.88,431.06a.14.14,0,1,0-.14-.14.14.14,0,0,0,.14.14Z" transform="translate(0 0)"/><path class="cls-1" d="M318.08,529.25c-2.71,5.62-.41,12.42,1.66,17.87a152.3,152.3,0,0,1,5.78,17.28,30,30,0,0,1,.13,14.93,13,13,0,0,1-1.3,3.27,17,17,0,0,1-2.2,3,19.53,19.53,0,0,1-5.8,4,35.39,35.39,0,0,1-7.94,2.23c-2.8.54-5.59,1-8.37,1.7a2,2,0,0,0,.55,4c10.32-.09,21.93-3.67,26.9-13.54A30.44,30.44,0,0,0,331,568.56a42.84,42.84,0,0,0-1.35-9.15c-.81-3-1.84-6-2.91-8.89a99.12,99.12,0,0,1-3.34-10.08,23.93,23.93,0,0,1-.73-4.61,44.64,44.64,0,0,1,.19-5.3c.14-2.45-3.63-3.54-4.72-1.28Z" transform="translate(0 0)"/><path class="cls-1" d="M191.88,438.39c4.19,7.44,5.1,16.4,1.2,24.16-.92,1.82,1.9,3.41,2.71,1.59,3.78-8.5,3.63-19.21-1.72-27a1.27,1.27,0,0,0-2.19,1.28Z" transform="translate(0 0)"/><circle class="cls-2" cx="179.23" cy="449.29" r="5.5"/><path class="cls-1" d="M214.29,481.65a.09.09,0,0,0,.1-.08h0a.09.09,0,0,0-.08-.1h0a.11.11,0,0,0-.1.1.1.1,0,0,0,.08.1h0Z" transform="translate(0 0)"/><path class="cls-1" d="M213.42,480.85l-1,.32a.86.86,0,0,0-.46.36.47.47,0,0,0-.09.28.55.55,0,0,0,0,.31.78.78,0,0,0,.93.57h.08l1-.37a.6.6,0,0,0,.25-.13.43.43,0,0,0,.19-.21.47.47,0,0,0,.09-.28.51.51,0,0,0,0-.3.71.71,0,0,0-.85-.53h-.13Z" transform="translate(0 0)"/><path class="cls-1" d="M153.88,439.69a24.81,24.81,0,0,0-1.67,11.37,58,58,0,0,0,.76,5.86c.32,1.8.66,4.39,2.25,5.47a1.68,1.68,0,0,0,2.28-.6c.78-1.61,0-3.91-.34-5.62a48.9,48.9,0,0,1-.66-5.11,23.39,23.39,0,0,1,1.5-10.24,2.11,2.11,0,0,0-4.07-1.13Z" transform="translate(0 0)"/><path class="cls-1" d="M421.88,438.34a67,67,0,0,0-6.47-3.6,32.63,32.63,0,0,1-3.2-1.83c-1.13-.66-2.3-1.28-3.39-2-3.81-2.52-7.39-5.31-11.92-6.43a57.09,57.09,0,0,0-12.9-1.26,88.43,88.43,0,0,0-11.73.66,110.38,110.38,0,0,0-44.53,15.41,97.12,97.12,0,0,0-10.65,7.6c-3.43,2.82-7,5.87-9.61,9.52-1.3,1.84,1.45,3.67,3,2.3,2.8-2.51,5.25-5.4,8.06-7.92a90.75,90.75,0,0,1,9-7,92.38,92.38,0,0,1,20-10.31,97.92,97.92,0,0,1,22.1-5.47c3.76-.47,7.53-.67,11.32-.82a78.8,78.8,0,0,1,11.8.25c5.08.58,9,3.47,13.41,5.76a65,65,0,0,1,6.66,4.22c1.16.8,2.21,1.72,3.4,2.49l3.51,2.3c2.4,1.56,4.73-2.39,2.25-3.85Z" transform="translate(0 0)"/><path class="cls-1" d="M417.67,445.05a26.56,26.56,0,0,0-5.26-.58c-1.75.07-3.5.21-5.24.4-3.54.38-7.06,1-10.54,1.68-6.81,1.4-13.49,3.33-20.19,5.16a179,179,0,0,1-20.31,4.58c-7.08,1-14.19.87-21.33.79a95,95,0,0,0-11.69.41c-4,.44-8.23,1-11.69,3.29a1.84,1.84,0,0,0,1.41,3.34c3.44-.62,6.79-1.65,10.28-2a89,89,0,0,1,10.33-.42c6.91,0,13.8.33,20.68-.52,13.74-1.69,26.83-6.35,40.24-9.55,3.7-.89,7.44-1.66,11.21-2.19,1.91-.27,3.82-.46,5.75-.58.94-.06,1.9-.05,2.85-.15s2-.42,3.08-.53a1.59,1.59,0,0,0,1.54-1.36,1.55,1.55,0,0,0-1.12-1.73Z" transform="translate(0 0)"/><path class="cls-1" d="M293.58,587a8.74,8.74,0,0,0-4.92-5.84,12.9,12.9,0,0,0-4.12-1.18,5.84,5.84,0,0,0-4.74,1.36l1.51-.94c-.92.39-2,.62-2.93,1.06s-1.75,1-2.65,1.53a39.56,39.56,0,0,0-5.2,3.52c-1.71,1.3-3,3.09-4.78,4.31a34.85,34.85,0,0,1-5.51,3.06,24.75,24.75,0,0,1-5.51,1.76,15.78,15.78,0,0,1-5.61-.07,6.86,6.86,0,0,1-1-.22c-.11,0-.64-.26-.52-.18a12.79,12.79,0,0,1-2.08-2.44,48.81,48.81,0,0,0-4.2-4.66c-1.7-1.65-4.59-4.61-7.18-3a3.09,3.09,0,0,0-1.23,3.67,8.4,8.4,0,0,0,2.46,3.17,59.7,59.7,0,0,1,4.52,4.62c1.44,1.69,2.68,3.53,4.74,4.48a10.85,10.85,0,0,0,7,.45,37,37,0,0,0,11.66-4.13c1.84-1,3.59-2.24,5.42-3.31a26.09,26.09,0,0,1,2.87-1.62,15.27,15.27,0,0,0,3-1.88,32.22,32.22,0,0,1,2.93-2,9,9,0,0,1,2.92-1,4.82,4.82,0,0,0,1-.14h.15l-.92-.29c.22.12.45.22.68.32a2.94,2.94,0,0,0,1.45.33h.53c.5.1,1,.16,1.51.3.28.07,1.24.5.51.14a7.05,7.05,0,0,1,1.16.68c.17.11.31.23.48.36.34.25-.44-.43,0,.07a9.18,9.18,0,0,1,1,1.07,3.24,3.24,0,0,0,4,.52,3.48,3.48,0,0,0,1.51-3.77Z" transform="translate(0 0)"/><path class="cls-1" d="M586.93,471.91c1.06-6.32,1.93-13.63-2.86-18.73-2.13-2.26-4.67-3.74-7.87-3.44a13.72,13.72,0,0,0-8.74,4.67c-2.24,2.45-3.86,5.36-5.79,8a65.19,65.19,0,0,1-6.59,7.59c-4.71,4.77-9.74,9.21-13.83,14.56-4.27,5.58-8.52,13.26-7,20.53.37,1.88,3.58,2,3.88,0a48.53,48.53,0,0,1,1.69-8.27,32.47,32.47,0,0,1,3.86-7.5c3.3-4.91,7.65-9,11.86-13.1a83.87,83.87,0,0,0,11.54-13.48c2.73-4.13,6.55-10.05,12.38-8.35,2.51.74,4,3.3,4.69,5.68,1,3.55.13,7.46-.54,11-.4,2.13,2.9,3,3.26.89Z" transform="translate(0 0)"/><path class="cls-1" d="M544.17,444.71c4.82-5,10.43-10,17.1-12.44a21.15,21.15,0,0,1,17.44,1.21,13.94,13.94,0,0,1,5.64,5.72c1.73,3.3,1.73,7.22,1.73,10.8a96.27,96.27,0,0,1-.51,12.48A55.46,55.46,0,0,1,582.31,474a62.66,62.66,0,0,0-3.49,11.67c-.68,4.28-.59,8.62-1.17,12.91-1.15,8.48-3.89,16.72-5.65,25.08s-3.78,16.82-5.21,25.33c-1.38,8.15-1.92,16.48-4,24.5-1.68,6.49-4.91,13.32-11.56,16a15.17,15.17,0,0,1-9.47.94A38.63,38.63,0,0,1,531.42,586c-.75-.45-1.47-1-2.23-1.39a16.7,16.7,0,0,0-3.07-1.08c-2.33-.72-3.66,2.21-2.24,3.84a13.58,13.58,0,0,0,2.33,2.34c.84.57,1.75,1.06,2.63,1.56a49.39,49.39,0,0,0,6,2.89,21.39,21.39,0,0,0,12,1.1c7-1.3,12-7.3,15.69-13,4.56-7.11,5.43-15.73,6.54-23.91,1.24-9.06,3.09-18,5.19-26.93,1-4.43,2.43-8.77,3.52-13.2s2.3-9,3.23-13.5a118.75,118.75,0,0,0,1.68-13.82,46.06,46.06,0,0,1,3-12.4c1.5-3.94,3.2-7.82,4.09-12A66.34,66.34,0,0,0,591,452.87c0-4.28.13-8.77-1.19-12.89a17.58,17.58,0,0,0-5.65-8.37,22.68,22.68,0,0,0-18.9-4.39c-7.48,1.57-14,5.93-19.19,11.39-1.31,1.37-2.56,2.81-3.77,4.27a1.34,1.34,0,0,0,1.75,2l.14-.14Z" transform="translate(0 0)"/><path class="cls-1" d="M570.65,225.61a13.22,13.22,0,0,0-.73,2.69c-.06.79,0,1.62,0,2.42-.06,2-.12,3.86-.15,5.8-.06,3.62-.16,7.25-.28,10.86-.25,7.33-.65,14.66-1.15,22q-1.46,21.62-4.63,43.19c-2.11,14.43-4.83,28.65-7.83,42.92s-6.33,28.65-7.79,43.11-.27,29.4-6.18,43.17a1.85,1.85,0,0,0,.65,2.44,1.82,1.82,0,0,0,2.45-.65c6.22-11.66,5.82-25.56,6.63-38.39.92-14.53,4.15-28.87,7.13-43.08,3-14.42,6-28.83,8.23-43.39s3.91-29.13,5-43.78q1-12.3,1.28-24.61.18-6.17.22-12.33c0-2.11,0-4.19-.06-6.29,0-1,0-2-.09-2.9a11.14,11.14,0,0,0-.77-3.17,1,1,0,0,0-1.23-.7h0a1,1,0,0,0-.7.7Z" transform="translate(0 0)"/><path class="cls-1" d="M569.47,223.89l-.09.1a6.41,6.41,0,0,0-.39.52,3,3,0,0,0-.31,1.31v.77a5,5,0,0,0,.11,1.28,2.75,2.75,0,0,0,.75,1.5,2.06,2.06,0,0,0,2.91,0,2.76,2.76,0,0,0,.39-.51,3,3,0,0,0,.26-.64v-.35a4.6,4.6,0,0,0,.09-.91v-.4l-.09-.74v-.21a1.65,1.65,0,0,0-.19-.84,1.23,1.23,0,0,0-.14-.31,2.92,2.92,0,0,0-.88-.87l-.46-.2a1.71,1.71,0,0,0-.78,0,1,1,0,0,0-.5.14,1.61,1.61,0,0,0-.63.4Z" transform="translate(0 0)"/><path class="cls-1" d="M569.17,223.59a4.38,4.38,0,0,0-.74,2v1.51a27.71,27.71,0,0,0,.15,3.41,29.93,29.93,0,0,1,.21,3.28v1.65a6.3,6.3,0,0,0,.69,2.48,2.38,2.38,0,0,0,2.4,1.15,2.42,2.42,0,0,0,2-1.73,8.18,8.18,0,0,0,0-4.11c0-.3-.06-.33,0-.07V231.9c0-.55-.09-1.1-.14-1.64-.11-1.24-.29-2.45-.52-3.66-.11-.53-.17-1.09-.33-1.6a4.49,4.49,0,0,0-1.18-1.76,1.56,1.56,0,0,0-2.19,0h0a3.15,3.15,0,0,0-.22.29Z" transform="translate(0 0)"/><path class="cls-1" d="M563.41,492.56c-1.06,4.74-1.58,9.57-2.25,14.39A115,115,0,0,0,560,521.43c0,4.81.16,9.66-.57,14.43a54,54,0,0,1-1.35,6.67c-.58,2.06-1.74,4.17-1.94,6.3a1.05,1.05,0,0,0,1.08,1,1,1,0,0,0,.72-.3c1.42-1.48,2.1-3.94,2.77-5.85a43.69,43.69,0,0,0,1.84-6.53,84.19,84.19,0,0,0,1-14.53,111.85,111.85,0,0,1,1-14.52c.69-4.87,2-9.64,2.74-14.5a2,2,0,1,0-3.93-1.08h0Z" transform="translate(0 0)"/><path class="cls-1" d="M528.08,584a8.29,8.29,0,0,0-7.61-1.76,3.05,3.05,0,0,0-2.17,2.17c-1.79,9.56-3.57,19.13-5.16,28.73s-2.66,19.37-3.44,29.12c-1.55,19.22-1.9,38.51-2.93,57.76-.58,11-1.49,21.93-2.22,32.9a3.26,3.26,0,0,0,3.23,3.24,3.32,3.32,0,0,0,3.24-3.24c1.13-9.6,1.71-19.28,2.27-28.94s1-19.27,1.38-28.91c.77-19,1.26-38,4.12-56.79,1.63-10.77,3.7-21.47,5.49-32.22l-2.2,2.15a2.86,2.86,0,0,1,2.38.41,3,3,0,0,0,3.62-4.62Z" transform="translate(0 0)"/><circle class="cls-2" cx="371.23" cy="437.29" r="5.5"/><path class="cls-1" d="M428.48,185.45a83.71,83.71,0,0,1,16.42-10,53.47,53.47,0,0,1,8.63-2.84c1.53-.36,3.08-.65,4.63-.88-1,.15,1.52-.18.56-.07l1.17-.13c.91-.09,1.82-.16,2.73-.2q2.16-.11,4.32,0c.79,0,1.57.08,2.35.15l1.18.11.78.1h.12a44.84,44.84,0,0,1,9.26,2.45c-.08,0,1.09.44.6.23s.66.3.58.27c.7.32,1.38.66,2,1a32.16,32.16,0,0,1,4.17,2.63c1,.72-.54-.49.39.3l.86.74c.56.5,1.1,1,1.63,1.56s1,1.11,1.5,1.69c.78.93-.4-.62.29.38.3.43.6.86.88,1.29a27.59,27.59,0,0,1,3.88,9.88c.21,1,.39,1.93.56,2.9.08.42.15.83.22,1.25,0,.15.24,1.68.15,1,.28,2.17,0,5.11,1.2,7,1.41,2.23,5.2,2.66,6.5,0,1-2,.63-4.34.44-6.55a59,59,0,0,0-.83-6.35,40.23,40.23,0,0,0-3.77-10.86A33.24,33.24,0,0,0,486.31,168c-13.16-6.08-28.61-5.66-41.86-.09a46.7,46.7,0,0,0-10.67,6,38.08,38.08,0,0,0-8.19,8.57c-1.15,1.68,1.2,4.17,2.89,2.89Z" transform="translate(0 0)"/><path class="cls-1" d="M393.08,172.33c11.24-16.11,30.28-24.86,47.91-32.07a141.22,141.22,0,0,1,16.49-5.77,70,70,0,0,1,16-2.68,59,59,0,0,1,7.75.18c.63.06,1.25.13,1.87.21-.65-.09,0,0,.15,0l1,.16q2,.34,3.87.84t3.57,1.08c.65.23,1.29.47,1.93.73-.17-.06-.61-.27.15.07l1.13.52q1.68.81,3.27,1.77c.54.32,1.06.66,1.58,1,.27.17.53.36.79.54s1,.78.36.26a41.8,41.8,0,0,1,5.5,5.47c.48.54-.55-.78.16.19.22.31.45.62.66.93a12.48,12.48,0,0,1,1,1.59,29.19,29.19,0,0,1,1.86,3.49c.09.19.4,1,.1.21.14.34.28.69.4,1,.22.58.41,1.17.59,1.77a33.41,33.41,0,0,1,.85,3.82c.12.71-.07-1,0,.17,0,.37.07.74.09,1.11,0,.62.08,1.23.09,1.85s0,1.24-.05,1.86a4.17,4.17,0,0,1-.07.93l-.06.56c.06-.46.05-.45,0,0-.34,2.07.53,4.44,2.81,5a4.09,4.09,0,0,0,5-2.82c2.36-10.91-1.85-22-9.45-30-8-8.31-19.55-12.13-30.83-12.72-12.19-.64-24.13,2.7-35.33,7.25a210.7,210.7,0,0,0-30.14,14.66c-10.15,6.25-19.33,13.95-25,24.51-1.44,2.66,2.31,4.77,4,2.34Z" transform="translate(0 0)"/><path class="cls-1" d="M429.93,65.75a40.72,40.72,0,0,0,5.63-.22c1.82-.08,3.64-.22,5.47-.27a77.23,77.23,0,0,1,11.17.51,57.86,57.86,0,0,1,20,6.19c1.43.77,2.83,1.61,4.19,2.5.63.41,1.25.84,1.86,1.28l.91.67.19.15.34.27a54.66,54.66,0,0,1,6.9,6.62c.53.62,1,1.24,1.56,1.88.3.36,0,0-.07-.1l.34.45c.26.34.52.7.77,1a47.34,47.34,0,0,1,2.61,4.1,46.1,46.1,0,0,1,2.1,4.15c.08.17.15.35.23.52,0-.06-.24-.61-.07-.15s.27.69.4,1c.31.81.59,1.63.85,2.46,1,3.2,1.36,6.57,2.53,9.71a15.43,15.43,0,0,0,1.24,2.93,5.1,5.1,0,0,0,1.85,1.87c.75.41-.21-.27.35.12,1.94,1.34,3.48,2.24,5.93,1.77a2.39,2.39,0,0,0,1.69-2.93h0v-.07h0a2,2,0,0,0-.22-.52l-.93-1.56c-.16-.24-.3-.51-.47-.75a3.17,3.17,0,0,1-.21-.41c.13-.09.14,1.71.25.81a6.41,6.41,0,0,0-1.06-3.47c-.23-.42.1.23.11.27a1.66,1.66,0,0,0-.17-.47c-.14-.38-.26-.75-.38-1.13-.92-2.94-1.41-6-2.41-8.91a53,53,0,0,0-10.53-17.85c-9.72-11.08-23.59-17.41-38-19.27a66.24,66.24,0,0,0-12.9-.41,50.93,50.93,0,0,0-6.75.79,23.36,23.36,0,0,0-6.44,1.93c-2.29,1.24-1,4.27,1.21,4.5Z" transform="translate(0 0)"/><path class="cls-1" d="M113.16,206.8c-4.14-14.85-8.71-30-10.38-45.17a93.16,93.16,0,0,1,0-23,96.37,96.37,0,0,1,5.8-21.15c1.43-3.64,3-7.19,4.75-10.87q1.35-2.92,2.76-5.83c1-2.17,2.4-4.23,2.35-6.71,0-2.07-2.46-3.86-4.35-2.56a7.5,7.5,0,0,0-2.39,2.4c-.49.85-.94,1.75-1.41,2.62q-1.35,2.53-2.67,5.08c-1.74,3.39-3.41,6.84-4.91,10.39a97.6,97.6,0,0,0-7,22.32c-2.68,16.16-.56,32.48,3.58,48.21,2.31,8.75,5.17,17.34,8.22,25.87a3,3,0,0,0,5.7-1.57Z" transform="translate(0 0)"/><path class="cls-1" d="M239.08,173.21c.94-17.29,1.77-34.77,6-51.62,3.55-14,9.77-27.17,19.44-37.81a71.45,71.45,0,0,1,8.68-8c1.28-1,2.89-2.14,4.4-3.11.8-.51,1.5-1.14,2.31-1.65a15.76,15.76,0,0,0,2.67-2c1.23-1.18.37-3.78-1.49-3.6a19.24,19.24,0,0,0-5.5,1.67,34.22,34.22,0,0,0-4.88,2.8,60.09,60.09,0,0,0-8.67,7,76.64,76.64,0,0,0-13.46,17.65c-8.32,14.76-12,31.46-13.74,48.17-1,10.16-1.24,20.36-1.43,30.57-.07,3.64,5.43,3.6,5.63,0Z" transform="translate(0 0)"/><path class="cls-1" d="M531.08,213.38a69.07,69.07,0,0,1,7.26,29.44c.07,2-.71,7.22,2.46,7.22s2.89-4.93,3-7a56,56,0,0,0-1.4-15.85,65,65,0,0,0-6.52-16.62c-1.74-3.16-6.46-.36-4.82,2.81Z" transform="translate(0 0)"/><path class="cls-1" d="M535.79,200.39a38.4,38.4,0,0,1,6.24,9.44c1.67,3.4,2.3,7.17,4,10.56a1.26,1.26,0,0,0,2.27-.3c.92-4.18-.76-8.52-2.48-12.27a33.53,33.53,0,0,0-7.44-10,1.83,1.83,0,0,0-2.58.2,1.85,1.85,0,0,0,0,2.38Z" transform="translate(0 0)"/><path class="cls-1" d="M134.33,164.72a148,148,0,0,1-1.3-37.61c.07-.71.14-1.41.23-2.12l.15-1.26a3.81,3.81,0,0,1,.08-.59c.22-1.54.46-3.08.73-4.61q.85-4.8,2.08-9.53c.78-3,1.68-6,2.68-8.94.51-1.48,1-2.94,1.6-4.39.25-.67.51-1.32.78-2,.15-.39.32-.79.48-1.18-.32.78.14-.34.21-.5a125.56,125.56,0,0,1,8.74-16.69q2.31-3.67,4.88-7.19l1.27-1.7c.74-1-.38.47.1-.13l.59-.76q1.45-1.8,2.94-3.52a123.69,123.69,0,0,1,12.17-12.38c1-.85,1.94-1.69,2.93-2.51l1.8-1.46.6-.48c.17-.13,1.49-1.15.56-.44,2.26-1.72,4.56-3.37,6.92-4.93a128.83,128.83,0,0,1,16.81-9.43l2.46-1.11.76-.26.71-.31h-.09c1.5-.6,3-1.19,4.5-1.75s3-1.07,4.56-1.58a10.59,10.59,0,0,0,3.42-1.88c.14-.11,1-.59.29-.18.43-.24.85-.52,1.28-.77,3.06-1.83,1.81-6.8-1.84-6.77a24.57,24.57,0,0,0-5,.09A34.45,34.45,0,0,0,209,17.3c-3.06,1.08-6.07,2.31-9,3.61a119.22,119.22,0,0,0-15.69,8.28,130.75,130.75,0,0,0-27.74,23.26,122.29,122.29,0,0,0-20.5,31.14,131.33,131.33,0,0,0-10.66,38.86,107.94,107.94,0,0,0,3.46,43.78,2.86,2.86,0,0,0,5.51-1.52Z" transform="translate(0 0)"/><path class="cls-1" d="M314.58,19.34a210.84,210.84,0,0,0,26.62,3.18c4.37.33,8.75.63,13.12,1,2,.19,4,.38,5.93.61q1.46.16,2.91.36c.49.06.11,0,0,0l.89.13,1.56.23a114.3,114.3,0,0,1,11.88,2.46c1.95.52,3.87,1.11,5.78,1.76.92.32,1.83.65,2.73,1l1.25.5c.69.28-.47-.21.21.08l.82.36a59.58,59.58,0,0,1,9.6,5.33c.68.46,1.35,1,2,1.45-.59-.44.12.09.32.25l1.18,1c1.25,1.07,2.45,2.19,3.6,3.38.7.72,1.38,1.47,2,2.24.29.33.57.67.85,1l.35.45c-.39-.49-.11-.14.11.15a42.41,42.41,0,0,1,3.1,4.74c.46.82.88,1.65,1.28,2.5.08.17.16.34.23.51s.36.82.15.32.08.21.13.34l.27.69A38,38,0,0,1,415,61a4.5,4.5,0,0,0,5.54,3.12h0a4.57,4.57,0,0,0,3.12-5.5c-3-14.56-14.22-26.44-27.15-33.11-15.48-8-33-9.69-50.17-10.7-9.92-.58-20-1-29.75-2.56-2-.31-4,.5-4.56,2.58a3.74,3.74,0,0,0,2.51,4.56Z" transform="translate(0 0)"/><path class="cls-1" d="M297.8,720.78a12.21,12.21,0,0,1-1.56-.71c-.53-.36-.81-1-1.32-1.38a8.73,8.73,0,0,0-2.52-1,41.8,41.8,0,0,0-5.83-1.47,66.12,66.12,0,0,0-12.25-1,57.38,57.38,0,0,0-12.18,1.4,37,37,0,0,0-11.37,4.24.39.39,0,0,0-.15.52h0a.39.39,0,0,0,.43.18c1.92-.54,3.78-1.28,5.71-1.82s3.86-1.06,5.83-1.45a62,62,0,0,1,12-1.2,53.23,53.23,0,0,1,11.87,1.36c2,.45,3.9.93,5.81,1.52a5.86,5.86,0,0,0,2.74.49,4.8,4.8,0,0,1,2.76.5c.12,0,.21-.16.09-.22Z" transform="translate(0 0)"/><path class="cls-1" d="M211.46,409.81c-3.66-1.55-7.73-2.18-11.63-2.88S192,405.5,188,404.7c-7.6-1.55-15.18-3.33-22.94-3.88-14.45-1-28.76,2.69-42,8.14-3.8,1.56-7.54,3.25-11.22,5-1.78.86-3.54,1.75-5.29,2.65a47.81,47.81,0,0,0-5.39,3.39c-1.24.87-.52,3.31,1.12,2.66a50.81,50.81,0,0,0,5-2.1c1.61-.85,3.22-1.68,4.84-2.51,3.1-1.58,6.25-3.1,9.43-4.51a118,118,0,0,1,20-7,76.46,76.46,0,0,1,20.76-2.33c7.56.25,15,1.82,22.38,3.47,4.22.95,8.42,1.94,12.6,3.05,2.09.56,4.2,1,6.31,1.52a34.55,34.55,0,0,0,7,1.14c1.78.05,2.77-2.82,1-3.58Z" transform="translate(0 0)"/><path class="cls-1" d="M349.68,429c-3-.35-3.14,5.43-3.25,7.32a28.89,28.89,0,0,0,.78,8.18,27.2,27.2,0,0,0,3.07,7.61c1.38,2.34,3.18,5,5.6,6.34,1.63.91,3.75-1,2.66-2.66-1.34-2.08-3.11-3.78-4.35-6a26.71,26.71,0,0,1-2.68-6.9,24.36,24.36,0,0,1-.56-7.17c.13-2,1.79-6.4-1.27-6.76Z" transform="translate(0 0)"/><path class="cls-1" d="M387,428.37a3.75,3.75,0,0,1,1,1.72c.36.87.72,1.73,1,2.62a21,21,0,0,1,1.17,5.65,16.86,16.86,0,0,1-.5,5.15,12.72,12.72,0,0,1-.77,2.17,8.56,8.56,0,0,0-.67,1.44,13.52,13.52,0,0,0-.16,1.41c-.16,1.23,1.32,1.62,2.19,1.25,2.09-.89,3-3.21,3.69-5.28a17.28,17.28,0,0,0,.71-6.74,27.54,27.54,0,0,0-1.58-7c-.78-2.09-1.62-4.43-3.58-5.69s-4.47,1.82-2.56,3.31Z" transform="translate(0 0)"/><path class="cls-1" d="M225.32,43.19c13.72-3.94,24.19-13.86,35.61-21.87S285.66,7.55,299.65,6.23a60.33,60.33,0,0,1,23.29,2.2c3.67,1.12,5.24-4.63,1.58-5.74-14.06-4.28-29.3-3.21-43.12,1.49a92.63,92.63,0,0,0-19.9,9.59c-6,3.84-11.5,8.37-17.23,12.57-6.3,4.62-13,8.93-20.54,11.11C220.06,38.45,221.62,44.25,225.32,43.19Z" transform="translate(0 0)"/><path class="cls-3" d="M62.23,212s5,3-12,69,0,67,6,87,24,54,24,54" transform="translate(0 0)"/><path class="cls-1" d="M240.44,461.16c-5.84,9.16-5.32,21.61-6.31,32-1.25,12.62-4.94,24.94-9.25,36.84a182.34,182.34,0,0,1-7.63,17.93c-2.45,5-5.66,10.05-7.24,15.47-2.4,8.24,1.13,18.6,10.92,18.87,4.42.12,4.38-6.62,0-6.85-6.67-.34-5-9.27-3.4-13.16,1.92-4.63,4.35-9,6.32-13.67a270.63,270.63,0,0,0,10.42-28.42,125.9,125.9,0,0,0,5.47-27.85c.31-4.59.44-9.19.85-13.78.49-5.59,1.83-10.57,3.18-16a1.84,1.84,0,0,0-3.34-1.41Z" transform="translate(0 0)"/><path class="cls-1" d="M214.23,425.69c-5.5-3.47-14-4.38-20.74-5.11a108.49,108.49,0,0,0-23,.1c-15,1.7-32,6.58-42.3,15.91-.81.74.22,2,1.36,1.41,12.69-6.14,24.73-11.75,39.59-13.9,15.32-2.21,29.19-.29,43.83,3.35,1.22.3,2.39-1.12,1.31-1.8Z" transform="translate(0 0)"/><path class="cls-1" d="M435.81,393.26a88.54,88.54,0,0,0-34.7-8.69,85.68,85.68,0,0,0-17.88,1.25c-3,.5-5.92,1.11-8.9,1.75s-5.9,1.3-8.8,2.11c-5.77,1.6-11.42,3.74-17.12,5.92l-17.13,6.63-8.59,3.27-8.63,3.18L296.8,415a3.14,3.14,0,1,1-2.17-5.9h.11l17.34-6,8.66-3,8.64-3.1,17.27-6.23c5.77-2.07,11.62-4.14,17.69-5.67,3-.78,6.1-1.4,9.1-2s6.06-1.14,9.14-1.58a90.21,90.21,0,0,1,18.72-.89,92,92,0,0,1,35.83,9.81,1.5,1.5,0,1,1-1.32,2.7h0Z" transform="translate(0 0)"/><path class="cls-1" d="M429.5,435a113.31,113.31,0,0,0-10.93-7.21,111.54,111.54,0,0,0-11.69-5.94,75.06,75.06,0,0,0-12.27-4.23c-.52-.13-1-.29-1.56-.39l-1.57-.3q-1.56-.33-3.15-.51c-1.05-.11-2.1-.24-3.16-.33L382,416a89.93,89.93,0,0,0-13,1.13q-6.5,1-12.94,2.6c-4.29,1-8.55,2.23-12.78,3.52-2.12.64-4.23,1.32-6.33,2l-3.14,1.07-1.55.56-.77.28a.78.78,0,0,1-.88,0l-.28-.2a4.48,4.48,0,0,1-1.7-5,.9.9,0,0,1,.7-.62l.82-.29,1.61-.56,3.24-1.08c2.15-.7,4.32-1.38,6.5-2,4.35-1.29,8.75-2.42,13.19-3.43s8.93-1.85,13.47-2.49a94.12,94.12,0,0,1,13.83-1,57.37,57.37,0,0,1,13.92,1.84A80.62,80.62,0,0,1,409,416.92a116.74,116.74,0,0,1,12.26,6.25,123.77,123.77,0,0,1,11.62,7.44,2.76,2.76,0,0,1-3.3,4.39Z" transform="translate(0 0)"/><path class="cls-4" d="M138.18,700.77" transform="translate(0 0)"/><path class="cls-4" d="M106.48,562.51" transform="translate(0 0)"/><path class="cls-4" d="M81.39,434.07" transform="translate(0 0)"/><path class="cls-1" d="M443.73,382.45v-.2a2.85,2.85,0,0,0-.11-.39,4.36,4.36,0,0,0-.32-.85,5.36,5.36,0,0,0-.46-.85,4.78,4.78,0,0,0-.57-.84l-.64-.82c-.22-.27-.51-.51-.76-.77l-.76-.76c-.28-.24-.58-.46-.87-.69a33.33,33.33,0,0,0-3.71-2.54c-.66-.38-1.37-.71-2-1.06a15.9,15.9,0,0,0-2.08-1c-1.46-.57-2.86-1.23-4.35-1.73l-4.48-1.48c-3.07-.78-6.1-1.68-9.24-2.24-1.56-.31-3.1-.68-4.68-1l-4.73-.76c-3.13-.56-6.33-.85-9.51-1.24a117.14,117.14,0,0,0-19-.8,107.66,107.66,0,0,0-36.74,8A105.53,105.53,0,0,0,322,379.18c-2.63,1.71-5.19,3.54-7.65,5.48-1.21,1-2.42,2-3.58,3s-2.21,2.18-4.09,2.38h-.36a2.36,2.36,0,0,1-2.6-2.08h0a2.15,2.15,0,0,1,0-.62c.34-2.16,1.65-3.22,2.92-4.34s2.56-2.17,3.87-3.22c2.63-2.06,5.36-4,8.16-5.78a111.34,111.34,0,0,1,17.72-9.17,109.56,109.56,0,0,1,38.85-8.12A120.87,120.87,0,0,1,395,357.86c3.24.45,6.49.8,9.72,1.43l4.85.85c1.61.31,3.22.71,4.82,1.07,3.22.66,6.39,1.68,9.57,2.59l4.7,1.68c1.56.58,3.08,1.33,4.62,2,.78.31,1.51.78,2.26,1.17s1.5.79,2.23,1.24a35,35,0,0,1,4.21,3.05c.33.29.67.56,1,.86l.93,1c.3.34.62.64.9,1l.82,1.12a6.15,6.15,0,0,1,.74,1.2,9.22,9.22,0,0,1,.64,1.3,9.36,9.36,0,0,1,.48,1.44,6.91,6.91,0,0,1,.23,1.81,2,2,0,0,1-4-.21Z" transform="translate(0 0)"/><path class="cls-1" d="M409.13,469.46a1.77,1.77,0,0,1-.05,1.26,2.21,2.21,0,0,1-.34.62c-.11.14-.24.28-.36.42a2.52,2.52,0,0,1-.35.3,4.7,4.7,0,0,1-.7.46,4.32,4.32,0,0,1-.67.36,10,10,0,0,1-1.31.54c-.44.17-.87.3-1.3.42a45.93,45.93,0,0,1-5.17,1.16c-3.43.59-6.85.93-10.27,1.21a199.24,199.24,0,0,1-20.59.56c-6.84-.15-13.67-.53-20.44-.79-3.38-.13-6.75-.2-10.08-.14a45.74,45.74,0,0,0-9.62,1h0a2.39,2.39,0,0,1-1.11-4.65h.11a50.26,50.26,0,0,1,10.67-.88c3.48,0,6.92.18,10.33.4,6.83.42,13.59,1,20.36,1.27a195,195,0,0,0,20.23,0c3.36-.2,6.73-.46,10-.94a41.8,41.8,0,0,0,4.83-1c.39-.1.78-.2,1.14-.33a9.47,9.47,0,0,0,1.05-.4,2.47,2.47,0,0,0,.46-.23,1.83,1.83,0,0,0,.38-.23l.14-.11a.06.06,0,0,1,.06-.06v.08a.33.33,0,0,0,0,.14v.25a1.05,1.05,0,0,0,.06.24,1.4,1.4,0,0,1,2.65-.91Z" transform="translate(0 0)"/><path class="cls-1" d="M214.5,483.83a163.71,163.71,0,0,1-18.93,4.36,86.42,86.42,0,0,1-9.76,1.07l-1.25.05h-1.25c-.85,0-1.68,0-2.5-.07-1.65-.09-3.26-.24-4.86-.42-6.4-.7-12.67-1.72-18.94-2.59-3.13-.44-6.26-.85-9.38-1.14-1.56-.15-3.12-.26-4.65-.29-.76,0-1.52,0-2.24.06a6.47,6.47,0,0,0-1.9.37h0a1.24,1.24,0,0,1-1-2.25,8.51,8.51,0,0,1,2.71-.73c.86-.12,1.68-.16,2.51-.2,1.64-.05,3.26,0,4.87.06,3.21.14,6.4.4,9.57.68,6.34.57,12.66,1.26,18.91,1.64,1.56.09,3.12.16,4.65.17.76,0,1.52,0,2.26-.05l1.12-.05,1.14-.11a79.83,79.83,0,0,0,9.1-1.47,157.64,157.64,0,0,0,18-5.08h.06a3.17,3.17,0,1,1,2.06,6h-.3Z" transform="translate(0 0)"/><path class="cls-1" d="M211.2,408.06c-.76-.83-1.75-1.78-2.68-2.65s-1.94-1.73-3-2.55-2.06-1.62-3.09-2.42a34.29,34.29,0,0,0-3.23-2.23,72.25,72.25,0,0,0-14-7.17,62.74,62.74,0,0,0-15.2-3.75,76,76,0,0,0-15.82,0,111.49,111.49,0,0,0-31,7.79,77.82,77.82,0,0,0-14.12,7.47,43.88,43.88,0,0,0-6.13,5,24.56,24.56,0,0,0-4.64,6.17h0a1.18,1.18,0,0,1-2.12-1,26.71,26.71,0,0,1,4.91-7,48.17,48.17,0,0,1,6.34-5.51A82.65,82.65,0,0,1,121.93,392a114.41,114.41,0,0,1,31.86-9,79.71,79.71,0,0,1,16.77-.49,67.73,67.73,0,0,1,16.53,3.55,77.66,77.66,0,0,1,15.26,7.27c1.22.7,2.37,1.54,3.55,2.3a36.62,36.62,0,0,1,3.42,2.51c1.1.89,2.22,1.76,3.3,2.68s2.19,1.95,3.21,3a3.14,3.14,0,0,1-4.52,4.37h0l-.06-.06Z" transform="translate(0 0)"/><path class="cls-1" d="M235.44,445.85c-.23-3-.65-6.1-1.19-9.12a82.17,82.17,0,0,0-2.06-8.91,47.34,47.34,0,0,0-3.25-8.27,18.87,18.87,0,0,0-5-6.32,3.15,3.15,0,0,1,3.78-5l.2.16a24.86,24.86,0,0,1,6.06,8.76,51.51,51.51,0,0,1,3,9.46,85.51,85.51,0,0,1,1.53,9.55q.53,4.8.57,9.62a1.83,1.83,0,1,1-3.66.16h0Z" transform="translate(0 0)"/><path class="cls-1" d="M467.88,687.93A337.94,337.94,0,0,1,395.47,744l-5,2.83-5.06,2.71c-3.35,1.84-6.81,3.48-10.23,5.2-6.84,3.33-13.7,6.57-20.63,9.78-13.85,6.35-28.12,12.16-43.11,15.77a133.76,133.76,0,0,1-45.94,3,146.68,146.68,0,0,1-44.25-12.39,179.86,179.86,0,0,1-38.92-24.3A211.07,211.07,0,0,1,150.15,714a197.69,197.69,0,0,1-24.22-39,158.12,158.12,0,0,1-7.79-21.64c-2.11-7.34-3.93-14.74-5.65-22.15-3.4-14.83-6.45-29.72-9.51-44.59s-6.24-29.73-9-44.69-5.17-29.93-7.1-45-4-30.14-5.44-45.3-2.32-30.42-2.26-45.7a360.59,360.59,0,0,1,3.16-45.73c1-7.58,2.34-15.16,3.92-22.63.77-3.73,1.58-7.42,2.26-11.09s1.23-7.35,1.64-11.06C91,308,91.29,300.49,91.41,293s-.09-15.09.33-22.91a53.19,53.19,0,0,1,1.87-11.89A35.84,35.84,0,0,1,99.14,247a37.36,37.36,0,0,1,8.85-8.58,54,54,0,0,1,10.67-5.6,101.54,101.54,0,0,1,11.15-3.65c3.74-1,7.47-1.93,11.24-2.67a211.7,211.7,0,0,1,22.8-3.65A157,157,0,0,1,187,222.1c7.73.28,15.38,1.17,22.89,2a161.94,161.94,0,0,0,22.34,1.15,122.51,122.51,0,0,0,22.1-2.56A182.2,182.2,0,0,0,276,217c7.16-2.31,14.35-4.86,21.69-7.1a210.31,210.31,0,0,1,22.39-5.55c7.57-1.44,15.18-2.48,22.84-3.19a158.34,158.34,0,0,1,23.15-.45,163.27,163.27,0,0,1,23,2.93,159.65,159.65,0,0,1,22.32,6.16,139.3,139.3,0,0,1,21.1,9.61,155.13,155.13,0,0,1,19.29,12.81,153.15,153.15,0,0,1,17.1,15.6,157,157,0,0,1,26.06,38c1.67,3.47,3.27,7,4.67,10.59s2.63,7.27,3.75,11c2.21,7.36,4,14.74,5.89,22.11a455.48,455.48,0,0,1,9.15,44.81c1.16,7.5,2.27,15.07,3,22.67s1.3,15.26,1.34,22.87l.21,22.81.1,11.4v11.39a1.56,1.56,0,0,1-3.12,0l-.08-11.34-.24-11.38-.5-22.74c-.25-15.14-2.23-30.06-4.73-45s-5.58-29.71-9.46-44.34c-1.93-7.34-3.82-14.68-6-21.86-1.1-3.58-2.31-7.11-3.68-10.58s-2.93-6.85-4.57-10.21a152.75,152.75,0,0,0-25.43-36.72A145.15,145.15,0,0,0,430,224a134.2,134.2,0,0,0-20.36-9.15A155.73,155.73,0,0,0,388,209a159.13,159.13,0,0,0-22.19-2.71,157.44,157.44,0,0,0-22.36.51,216.69,216.69,0,0,0-44.05,8.58c-7.18,2.2-14.31,4.75-21.6,7.11a189,189,0,0,1-22.32,5.91,130,130,0,0,1-23.09,2.71A168.35,168.35,0,0,1,209.28,230c-7.59-.82-15-1.67-22.5-1.92a148.56,148.56,0,0,0-22.32.76,202.28,202.28,0,0,0-22.15,3.58c-3.68.73-7.32,1.63-10.91,2.61a95,95,0,0,0-10.52,3.44,47,47,0,0,0-9.45,5,31,31,0,0,0-7.42,7.21,29.82,29.82,0,0,0-4.6,9.19,47.83,47.83,0,0,0-1.67,10.56c-.42,7.34-.21,15-.39,22.64s-.59,15.32-1.47,23c-.46,3.84-1.06,7.67-1.8,11.46s-1.57,7.51-2.39,11.2c-1.67,7.37-3,14.74-4.17,22.2A354.23,354.23,0,0,0,83.77,406c-.28,15.09.38,30.2,1.61,45.29s3,30.16,4.83,45.23,4,30,6.72,45,5.85,29.77,8.92,44.64,6.19,29.72,9.61,44.49c1.73,7.37,3.55,14.72,5.66,22a152.39,152.39,0,0,0,7.76,21,193.81,193.81,0,0,0,23.92,38.19,207,207,0,0,0,31.74,32,172,172,0,0,0,38.25,23.66A143,143,0,0,0,266,779.27a129.51,129.51,0,0,0,44.51-3.16c14.55-3.61,28.51-9.4,42.2-15.79,6.84-3.21,13.65-6.57,20.43-10,3.35-1.73,6.73-3.39,10-5.24l5-2.72,4.88-2.84a325.94,325.94,0,0,0,70.48-56,3.12,3.12,0,0,1,4.53,4.3Z" transform="translate(0 0)"/><line class="cls-5" x1="545.29" y1="440.71" x2="521.76" y2="463.94"/><text class="cls-6" transform="translate(569.47 883.13) scale(0.83 1)">&gt;</text><text class="cls-6" transform="matrix(-0.83, 0, 0, 1, 64.46, 883.13)">&gt;</text><path class="cls-1" d="M505.77,835.1H508a4.7,4.7,0,0,0,4-1.59L527,817.37a4.07,4.07,0,0,1,.51-.59c.45-.45,28.8-28.93,29.4-29.25a7.46,7.46,0,0,1,2.82-.46h9.62l-2.8,3.36L523,835a10.53,10.53,0,0,1-3.44,2.87,9.72,9.72,0,0,1,2.33,1.26,10.27,10.27,0,0,1,2,2.06l17.54,23.33h-9.88a9,9,0,0,1-1.65-.13,6,6,0,0,1-1.2-.38,2.93,2.93,0,0,1-.89-.61,5.1,5.1,0,0,1-.7-.85l-13.81-18.07a4.07,4.07,0,0,0-1.66-1.32,7.32,7.32,0,0,0-2.7-.4h-3.15v21.72H494.63V814.32h11.14Z" transform="translate(0 0)"/><path class="cls-1" d="M89.76,814.25a27.32,27.32,0,0,1,8.39,1.19,17.09,17.09,0,0,1,6.18,3.42,14.53,14.53,0,0,1,3.79,5.32,18.07,18.07,0,0,1,1.29,7,21,21,0,0,1-.92,6.14,15.76,15.76,0,0,1-3,5.6A14.93,14.93,0,0,1,100,847a20.71,20.71,0,0,1-8.46,1.53h-7.1v16h-9.9V814.25ZM91.47,839a8.35,8.35,0,0,0,3.75-.75,6.44,6.44,0,0,0,2.35-1.91,7.8,7.8,0,0,0,1.23-2.42,8.33,8.33,0,0,0,.38-2.36,11.61,11.61,0,0,0-.24-2.08,8.24,8.24,0,0,0-1-2.56,6,6,0,0,0-2.29-2.18,8.23,8.23,0,0,0-4.12-.89h-7.1V839Zm9.28,6.14,12.42,19.38H101.63l-12.69-19.1Z" transform="translate(0 0)"/><path class="cls-1" d="M115.69,864.47l22.65-52.2h.55l22.65,52.2H150.08l-14.47-36.71,7.17-4.91-17.33,41.62Zm15.49-18.15h15.08l3.48,8.32H128.11Z" transform="translate(0 0)"/><path class="cls-1" d="M168.84,814.25h31.39v9.55H178.74v11.4h18.63v9.55H178.74v19.72h-9.9Z" transform="translate(0 0)"/><path class="cls-1" d="M200,864.47l22.65-52.2h.55l22.65,52.2H234.35l-14.47-36.71,7.17-4.91-17.33,41.62Zm15.49-18.15h15.08l3.48,8.32H212.38Z" transform="translate(0 0)"/><path class="cls-1" d="M274.68,830.76l2,7.71-27.7,8.6L247,839.36Zm-21.57-16.51H263v40.67h23.61v9.55H253.11Z" transform="translate(0 0)"/><path class="cls-1" d="M315.55,814.25h33.84v9.55H337.18v40.67h-9.9V823.8H315.55Z" transform="translate(0 0)"/><path class="cls-1" d="M367.82,845.91a8.15,8.15,0,0,0,1.43,4.57A11,11,0,0,0,373,854a10.08,10.08,0,0,0,5.15,1.37,10.85,10.85,0,0,0,5.46-1.37,10.67,10.67,0,0,0,3.78-3.55,8.28,8.28,0,0,0,1.4-4.57V814.25h9.76v31.87a17.79,17.79,0,0,1-2.73,9.79,19,19,0,0,1-7.37,6.68,21.86,21.86,0,0,1-10.3,2.43,21.51,21.51,0,0,1-10.2-2.43,19.08,19.08,0,0,1-7.34-6.68,17.79,17.79,0,0,1-2.73-9.79V814.25h9.9Z" transform="translate(0 0)"/><path class="cls-1" d="M407.12,814.25H441v9.55H428.75v40.67h-9.9V823.8H407.12Z" transform="translate(0 0)"/><path class="cls-1" d="M441.37,864.47,464,812.27h.54l22.66,52.2H475.76L461.3,827.76l7.16-4.91-17.33,41.62Zm15.49-18.15h15.08l3.48,8.32H453.79Z" transform="translate(0 0)"/></svg>