<?xml version="1.0" encoding="utf-8"?>
<!-- Generator: Adobe Illustrator 24.0.1, SVG Export Plug-In . SVG Version: 6.00 Build 0)  -->
<svg version="1.1" id="Layer_1" xmlns="http://www.w3.org/2000/svg" xmlns:xlink="http://www.w3.org/1999/xlink" x="0px" y="0px"
	 viewBox="0 0 955 776.7" style="enable-background:new 0 0 955 776.7;" xml:space="preserve">
<style type="text/css">
	.st0{fill:#FFFFFF;stroke:#EFEFEF;stroke-width:3;stroke-miterlimit:10;}
	.st1{fill:#080808;stroke:#69C9D0;stroke-width:5.9999;stroke-miterlimit:9.9999;}
	.st2{fill-rule:evenodd;clip-rule:evenodd;fill:#EFEFEF;}
	.st3{display:none;fill-rule:evenodd;clip-rule:evenodd;fill:#EFEFEF;}
	.st4{display:none;fill:#707070;}
	.st5{opacity:0;fill:#080808;}
	.st6{fill:#EFEFEF;}
	.st7{fill:#080808;fill-opacity:0;}
	.st8{fill:#080808;stroke:#69C9D0;stroke-width:6;stroke-miterlimit:10.0001;}
	.st9{display:none;fill:#EFEFEF;}
	.st10{fill:#EFEFEF;fill-opacity:0;}
</style>
<g>
	<path class="st0" d="M496.1,746.5c-1.7,0-3.9,0-7.5-0.1v-1.1c1.5,0,4.1,0.1,7.5,0.1V746.5z M503.6,746.4v-1.1
		c2.5-0.1,5-0.1,7.5-0.2v1.1C508.6,746.3,506.1,746.4,503.6,746.4z M481.1,746.2c-2.5-0.1-5-0.2-7.5-0.4l0.1-1.1
		c2.5,0.2,5,0.3,7.5,0.4L481.1,746.2z M518.6,745.8l-0.1-1.1c2.5-0.2,5-0.4,7.5-0.6l0.1,1.1C523.6,745.4,521.1,745.6,518.6,745.8z
		 M466.1,745.2c-2.5-0.2-5-0.5-7.5-0.7l0.1-1.1c2.5,0.3,5,0.5,7.4,0.7V745.2z M533.5,744.5l-0.1-1.1c2.5-0.3,5-0.6,7.4-0.9l0.1,1.1
		C538.5,743.9,536,744.2,533.5,744.5z M451.2,743.6c-2.5-0.3-5-0.7-7.4-1l0.2-1.1c2.4,0.4,4.9,0.7,7.4,1L451.2,743.6z M548.4,742.5
		l-0.2-1.1c2.4-0.4,4.9-0.8,7.4-1.2l0.2,1.1C553.4,741.7,550.9,742.1,548.4,742.5z M436.4,741.4c-2.4-0.4-4.9-0.9-7.4-1.4l0.2-1.1
		c2.4,0.5,4.9,0.9,7.4,1.4L436.4,741.4z M563.2,739.9l-0.2-1.1c2.4-0.5,4.9-1,7.3-1.5l0.2,1.1C568.1,738.9,565.7,739.4,563.2,739.9z
		 M421.6,738.4c-2.5-0.5-4.9-1.1-7.3-1.7l0.3-1.1c2.4,0.6,4.8,1.2,7.3,1.7L421.6,738.4z M577.9,736.7l-0.3-1.1
		c2.4-0.6,4.9-1.2,7.2-1.9l0.3,1.1C582.7,735.5,580.3,736.1,577.9,736.7z M407,734.9c-2.4-0.6-4.9-1.3-7.2-2l0.3-1.1
		c2.4,0.7,4.8,1.4,7.2,2L407,734.9z M592.4,732.8l-0.3-1.1c2.4-0.7,4.8-1.4,7.2-2.2l0.3,1.1C597.2,731.4,594.8,732.1,592.4,732.8z
		 M392.6,730.7c-2.4-0.8-4.8-1.5-7.2-2.3l0.4-1.1c2.4,0.8,4.8,1.6,7.1,2.3L392.6,730.7z M606.7,728.3l-0.4-1.1
		c2.4-0.8,4.7-1.6,7.1-2.5l0.4,1.1C611.4,726.6,609,727.5,606.7,728.3z M378.4,725.9c-2.4-0.9-4.7-1.8-7-2.7l0.4-1.1
		c2.3,0.9,4.7,1.8,7,2.6L378.4,725.9z M620.8,723.1l-0.4-1.1c2.3-0.9,4.6-1.8,6.9-2.8l0.4,1C625.4,721.3,623.1,722.2,620.8,723.1z
		 M364.3,720.4c-2.3-1-4.6-2-6.9-3l0.5-1c2.3,1,4.6,2,6.9,2.9L364.3,720.4z M634.6,717.4l-0.5-1c2.3-1,4.5-2,6.8-3.1l0.5,1
		C639.2,715.4,636.9,716.4,634.6,717.4z M350.6,714.4c-2.3-1.1-4.5-2.2-6.8-3.3l0.5-1c2.2,1.1,4.5,2.2,6.8,3.2L350.6,714.4z
		 M648.1,711.1l-0.5-1c2.2-1.1,4.5-2.2,6.7-3.4l0.5,1C652.6,708.8,650.4,710,648.1,711.1z M337.1,707.7c-2.2-1.2-4.4-2.3-6.6-3.5
		l0.5-1c2.2,1.2,4.4,2.4,6.6,3.5L337.1,707.7z M661.4,704.2l-0.5-1c2.2-1.2,4.4-2.4,6.5-3.7l0.6,1
		C665.8,701.7,663.6,703,661.4,704.2z M323.9,700.5c-2.2-1.3-4.3-2.5-6.5-3.8l0.6-1c2.1,1.3,4.3,2.6,6.4,3.8L323.9,700.5z
		 M674.4,696.7l-0.6-1c2.1-1.3,4.2-2.6,6.3-3.9l0.6,1C678.6,694,676.5,695.4,674.4,696.7z M311,692.6c-2.1-1.3-4.2-2.7-6.3-4.1
		l0.6-0.9c2.1,1.4,4.2,2.8,6.3,4.1L311,692.6z M687,688.6l-0.6-0.9c2.1-1.4,4.1-2.8,6.2-4.2l0.6,0.9
		C691.2,685.8,689.1,687.2,687,688.6z M298.6,684.3c-2.1-1.4-4.1-2.9-6.1-4.4l0.7-0.9c2,1.5,4,2.9,6.1,4.4L298.6,684.3z M699.3,680
		l-0.7-0.9c2-1.5,4-3,6-4.5l0.7,0.9C703.3,677,701.3,678.5,699.3,680z M286.4,675.4c-2-1.5-4-3.1-5.9-4.6l0.7-0.9
		c1.9,1.6,3.9,3.1,5.9,4.6L286.4,675.4z M711.2,670.9l-0.7-0.9c1.9-1.6,3.9-3.2,5.8-4.7l0.7,0.9
		C715.1,667.7,713.1,669.3,711.2,670.9z M274.7,666c-1.9-1.6-3.8-3.2-5.7-4.9l0.7-0.8c1.9,1.6,3.8,3.3,5.7,4.9L274.7,666z
		 M722.7,661.2l-0.7-0.8c1.9-1.6,3.7-3.3,5.6-5l0.8,0.8C726.4,657.9,724.6,659.6,722.7,661.2z M263.5,656.1
		c-1.8-1.7-3.7-3.4-5.5-5.1l0.8-0.8c1.8,1.7,3.6,3.4,5.5,5.1L263.5,656.1z M733.7,651.1l-0.8-0.8c1.8-1.7,3.6-3.5,5.3-5.2l0.8,0.8
		C737.3,647.6,735.5,649.4,733.7,651.1z M252.6,645.7c-1.8-1.8-3.5-3.6-5.2-5.4l0.8-0.8c1.7,1.8,3.5,3.6,5.2,5.3L252.6,645.7z
		 M744.4,640.5l-0.8-0.8c1.7-1.8,3.4-3.6,5.1-5.5l0.8,0.8C747.8,636.9,746.1,638.7,744.4,640.5z M242.2,634.9
		c-1.7-1.8-3.4-3.7-5-5.6l0.8-0.7c1.6,1.9,3.3,3.7,5,5.6L242.2,634.9z M754.5,629.4l-0.8-0.7c1.6-1.9,3.3-3.8,4.9-5.7l0.9,0.7
		C757.8,625.6,756.2,627.6,754.5,629.4z M232.3,623.6c-1.6-1.9-3.2-3.8-4.8-5.8l0.9-0.7c1.6,1.9,3.2,3.9,4.7,5.8L232.3,623.6z
		 M764.2,617.9l-0.9-0.7c1.5-1.9,3.1-3.9,4.6-5.9l0.9,0.7C767.3,614,765.7,616,764.2,617.9z M223,611.9c-1.5-2-3-4-4.5-6l0.9-0.7
		c1.5,2,3,4,4.5,6L223,611.9z M773.3,606l-0.9-0.7c1.5-2,2.9-4.1,4.4-6.1l0.9,0.6C776.3,602,774.8,604,773.3,606z M214.1,599.8
		c-1.4-2-2.9-4.1-4.2-6.2l0.9-0.6c1.4,2,2.8,4.1,4.2,6.2L214.1,599.8z M782,593.7l-0.9-0.6c1.4-2.1,2.8-4.2,4.1-6.3l1,0.6
		C784.7,589.6,783.4,591.7,782,593.7z M205.7,587.4c-1.3-2.1-2.7-4.2-4-6.4l1-0.6c1.3,2.1,2.6,4.2,4,6.3L205.7,587.4z M790.1,581.1
		l-1-0.6c1.3-2.1,2.6-4.3,3.8-6.4l1,0.6C792.6,576.8,791.4,579,790.1,581.1z M198,574.6c-1.3-2.2-2.5-4.4-3.7-6.5l1-0.5
		c1.2,2.2,2.4,4.3,3.7,6.5L198,574.6z M797.6,568.1l-1-0.5c1.2-2.2,2.4-4.4,3.5-6.6l1,0.5C800,563.7,798.8,565.9,797.6,568.1z
		 M190.7,561.4c-1.2-2.2-2.3-4.5-3.4-6.7l1-0.5c1.1,2.2,2.2,4.5,3.4,6.7L190.7,561.4z M804.6,554.7l-1-0.5c1.1-2.2,2.2-4.5,3.2-6.8
		l1,0.5C806.8,550.2,805.7,552.5,804.6,554.7z M184.1,548c-1.1-2.3-2.1-4.5-3.1-6.8l1-0.5c1,2.3,2,4.5,3.1,6.8L184.1,548z
		 M810.9,541.1l-1-0.5c1-2.3,2-4.6,3-6.9l1,0.4C812.9,536.5,811.9,538.8,810.9,541.1z M178.1,534.3c-1-2.3-1.9-4.6-2.8-6.9l1.1-0.4
		c0.9,2.3,1.8,4.6,2.8,6.9L178.1,534.3z M816.7,527.2l-1.1-0.4c0.9-2.3,1.8-4.7,2.6-7l1.1,0.4C818.5,522.5,817.6,524.9,816.7,527.2z
		 M172.6,520.4c-0.9-2.3-1.7-4.7-2.5-7.1l1.1-0.4c0.8,2.3,1.6,4.7,2.5,7.1L172.6,520.4z M821.8,513l-1.1-0.4
		c0.8-2.4,1.6-4.8,2.3-7.1l1.1,0.3C823.4,508.3,822.7,510.7,821.8,513z M167.8,506.2c-0.8-2.4-1.5-4.8-2.2-7.2l1.1-0.3
		c0.7,2.4,1.4,4.8,2.2,7.2L167.8,506.2z M826.4,498.7l-1.1-0.3c0.7-2.4,1.4-4.8,2-7.2l1.1,0.3C827.7,493.9,827.1,496.3,826.4,498.7z
		 M163.6,491.8c-0.6-2.4-1.3-4.9-1.9-7.3l1.1-0.3c0.6,2.4,1.2,4.8,1.9,7.2L163.6,491.8z M830.2,484.2l-1.1-0.3
		c0.6-2.4,1.2-4.9,1.7-7.3l1.1,0.2C831.4,479.3,830.8,481.8,830.2,484.2z M160,477.2c-0.5-2.4-1.1-4.9-1.5-7.3l1.1-0.2
		c0.5,2.4,1,4.9,1.5,7.3L160,477.2z M833.5,469.5l-1.1-0.2c0.5-2.4,0.9-4.9,1.4-7.4l1.1,0.2C834.4,464.6,834,467.1,833.5,469.5z
		 M157.1,462.5c-0.4-2.5-0.8-5-1.2-7.4l1.1-0.2c0.4,2.4,0.8,4.9,1.2,7.4L157.1,462.5z M836.1,454.8l-1.1-0.2c0.4-2.5,0.7-5,1-7.4
		l1.1,0.1C836.8,449.8,836.4,452.3,836.1,454.8z M154.8,447.6c-0.3-2.5-0.6-5-0.9-7.5l1.1-0.1c0.3,2.5,0.6,5,0.9,7.4L154.8,447.6z
		 M838,439.9l-1.1-0.1c0.3-2.5,0.5-5,0.7-7.4l1.1,0.1C838.5,434.9,838.3,437.4,838,439.9z M153.2,432.7c-0.2-2.5-0.4-5-0.6-7.5
		l1.1-0.1c0.2,2.5,0.4,5,0.6,7.5L153.2,432.7z M839.3,424.9l-1.1-0.1c0.2-2.5,0.3-5,0.4-7.5h1.1
		C839.6,419.9,839.5,422.4,839.3,424.9z M152.2,417.7c-0.1-2.5-0.2-5-0.2-7.5h1.1c0.1,2.5,0.1,5,0.2,7.5H152.2z M839.9,409.9h-1.1
		c0-1.6,0.1-4.7,0.1-8.1h1.1C840,403.8,840,406,839.9,409.9z M153,402.7h-1.1c0-1.8,0-3.9,0.1-7.5h1.1
		C153,396.7,153,399.4,153,402.7z M838.8,394.3c-0.1-2.5-0.1-5-0.3-7.5l1.1-0.1c0.1,2.5,0.2,5,0.3,7.5L838.8,394.3z M153.3,387.8
		h-1.1c0.1-2.5,0.2-5,0.4-7.5l1.1,0.1C153.5,382.8,153.4,385.3,153.3,387.8z M838.1,379.4c-0.2-2.5-0.4-5-0.6-7.5l1.1-0.1
		c0.2,2.5,0.4,5,0.6,7.5L838.1,379.4z M154.2,372.8l-1.1-0.1c0.2-2.5,0.5-5,0.7-7.5l1.1,0.1C154.7,367.9,154.5,370.4,154.2,372.8z
		 M836.8,364.5c-0.3-2.5-0.6-5-0.9-7.4l1.1-0.1c0.3,2.5,0.6,5,0.9,7.5H836.8z M155.8,358l-1.1-0.1c0.3-2.5,0.7-5,1-7.4l1.1,0.2
		C156.5,353,156.2,355.5,155.8,358z M834.9,349.6c-0.4-2.5-0.8-4.9-1.2-7.4l1.1-0.2c0.4,2.5,0.8,4.9,1.2,7.4L834.9,349.6z
		 M158.1,343.2L157,343c0.4-2.4,0.9-4.9,1.4-7.4l1.1,0.2C159,338.3,158.5,340.7,158.1,343.2z M832.2,334.9c-0.5-2.4-1-4.9-1.5-7.3
		l1.1-0.2c0.5,2.4,1.1,4.9,1.5,7.3L832.2,334.9z M161,328.5l-1.1-0.2c0.5-2.4,1.1-4.9,1.7-7.3l1.1,0.3
		C162.1,323.6,161.5,326.1,161,328.5z M829,320.3c-0.6-2.4-1.2-4.9-1.9-7.2l1.1-0.3c0.6,2.4,1.3,4.8,1.9,7.3L829,320.3z M164.5,314
		l-1.1-0.3c0.6-2.4,1.3-4.8,2-7.2l1.1,0.3C165.8,309.1,165.1,311.6,164.5,314z M825.1,305.9c-0.7-2.4-1.4-4.8-2.2-7.2l1.1-0.3
		c0.8,2.4,1.5,4.8,2.2,7.2L825.1,305.9z M168.7,299.6l-1.1-0.3c0.7-2.4,1.5-4.8,2.3-7.2l1.1,0.4
		C170.2,294.8,169.4,297.2,168.7,299.6z M820.6,291.6c-0.8-2.4-1.6-4.7-2.5-7.1l1.1-0.4c0.9,2.3,1.7,4.7,2.5,7.1L820.6,291.6z
		 M173.5,285.4l-1.1-0.4c0.8-2.3,1.7-4.7,2.6-7l1.1,0.4C175.2,280.7,174.3,283,173.5,285.4z M815.4,277.5c-0.9-2.3-1.8-4.6-2.8-6.9
		l1-0.4c1,2.3,1.9,4.6,2.8,6.9L815.4,277.5z M178.9,271.4l-1-0.4c0.9-2.3,1.9-4.6,3-6.9l1,0.5C180.8,266.8,179.9,269.1,178.9,271.4z
		 M809.7,263.8c-1-2.3-2-4.5-3.1-6.8l1-0.5c1.1,2.3,2.1,4.5,3.1,6.8L809.7,263.8z M185,257.6l-1-0.5c1.1-2.3,2.2-4.5,3.3-6.8l1,0.5
		C187.1,253.1,186,255.4,185,257.6z M803.4,250.3c-1.1-2.2-2.2-4.4-3.4-6.6l1-0.5c1.2,2.2,2.3,4.4,3.4,6.7L803.4,250.3z
		 M191.6,244.2l-1-0.5c1.2-2.2,2.3-4.4,3.5-6.6l1,0.5C193.9,239.8,192.7,242,191.6,244.2z M796.5,237.1c-1.2-2.2-2.4-4.3-3.7-6.5
		l1-0.6c1.3,2.2,2.5,4.4,3.7,6.5L796.5,237.1z M198.8,231.1l-1-0.6c1.2-2.2,2.5-4.3,3.8-6.5l1,0.6
		C201.3,226.7,200,228.9,198.8,231.1z M789,224.1c-1.3-2.1-2.6-4.2-4-6.3l1-0.6c1.3,2.1,2.7,4.2,4,6.4L789,224.1z M206.6,218.3
		l-1-0.6c1.3-2.1,2.7-4.2,4.1-6.3l0.9,0.6C209.3,214.1,207.9,216.2,206.6,218.3z M780.9,211.6c-1.4-2.1-2.8-4.1-4.2-6.2l0.9-0.6
		c1.4,2,2.9,4.1,4.2,6.2L780.9,211.6z M214.9,205.8l-0.9-0.6c1.4-2,2.9-4.1,4.4-6.1l0.9,0.7C217.8,201.7,216.3,203.8,214.9,205.8z
		 M772.3,199.3c-1.5-2-3-4-4.5-6l0.9-0.7c1.5,2,3,4,4.5,6L772.3,199.3z M223.8,193.7l-0.9-0.7c1.5-2,3.1-4,4.6-5.9l0.9,0.7
		C226.8,189.8,225.3,191.8,223.8,193.7z M763.2,187.5c-1.5-1.9-3.1-3.9-4.8-5.8l0.9-0.7c1.6,1.9,3.2,3.9,4.8,5.8L763.2,187.5z
		 M233.1,182.1l-0.9-0.7c1.6-1.9,3.3-3.8,4.9-5.7l0.8,0.7C236.4,178.2,234.7,180.2,233.1,182.1z M753.6,176.1
		c-1.6-1.9-3.3-3.7-5-5.6l0.8-0.8c1.7,1.8,3.4,3.7,5,5.6L753.6,176.1z M243,170.8l-0.8-0.8c1.7-1.8,3.4-3.7,5.1-5.5l0.8,0.8
		C246.4,167.2,244.7,169,243,170.8z M743.5,165.1c-1.7-1.8-3.5-3.6-5.2-5.3l0.8-0.8c1.8,1.8,3.5,3.6,5.3,5.4L743.5,165.1z
		 M253.4,160l-0.8-0.8c1.8-1.8,3.6-3.5,5.4-5.3l0.8,0.8C256.9,156.5,255.1,158.2,253.4,160z M732.9,154.5c-1.8-1.7-3.6-3.4-5.5-5.1
		l0.8-0.8c1.9,1.7,3.7,3.4,5.5,5.1L732.9,154.5z M264.1,149.7l-0.8-0.8c1.8-1.7,3.7-3.4,5.6-5l0.7,0.8
		C267.8,146.3,266,148,264.1,149.7z M721.9,144.4c-1.9-1.6-3.8-3.3-5.7-4.9l0.7-0.9c1.9,1.6,3.8,3.3,5.7,4.9L721.9,144.4z
		 M275.4,139.8l-0.7-0.9c1.9-1.6,3.8-3.2,5.8-4.8l0.7,0.9C279.2,136.6,277.3,138.2,275.4,139.8z M710.4,134.8
		c-1.9-1.6-3.9-3.1-5.9-4.6l0.7-0.9c2,1.5,4,3.1,5.9,4.6L710.4,134.8z M287,130.4l-0.7-0.9c2-1.5,4-3,6-4.5l0.7,0.9
		C291,127.4,289,128.9,287,130.4z M698.5,125.7c-2-1.5-4-2.9-6.1-4.4l0.6-0.9c2.1,1.4,4.1,2.9,6.1,4.4L698.5,125.7z M299.1,121.6
		l-0.6-0.9c2-1.4,4.1-2.9,6.2-4.2l0.6,0.9C303.2,118.7,301.1,120.1,299.1,121.6z M686.2,117.1c-2.1-1.4-4.2-2.8-6.3-4.1l0.6-1
		c2.1,1.3,4.2,2.7,6.3,4.1L686.2,117.1z M311.5,113.3l-0.6-1c2.1-1.3,4.2-2.7,6.4-4l0.6,1C315.7,110.6,313.6,111.9,311.5,113.3z
		 M673.6,109c-2.1-1.3-4.3-2.6-6.4-3.8l0.6-1c2.2,1.3,4.3,2.5,6.5,3.8L673.6,109z M324.2,105.5l-0.6-1c2.1-1.2,4.3-2.5,6.5-3.7
		l0.5,1C328.5,103,326.4,104.3,324.2,105.5z M660.6,101.5c-2.2-1.2-4.4-2.4-6.6-3.5l0.5-1c2.2,1.1,4.4,2.3,6.6,3.5L660.6,101.5z
		 M337.3,98.3l-0.5-1c2.2-1.2,4.4-2.3,6.7-3.4l0.5,1C341.7,96,339.5,97.1,337.3,98.3z M647.3,94.6c-2.2-1.1-4.5-2.2-6.8-3.2l0.5-1
		c2.3,1.1,4.5,2.1,6.8,3.3L647.3,94.6z M350.7,91.7l-0.5-1c2.2-1,4.5-2.1,6.8-3.1l0.5,1C355.2,89.6,352.9,90.6,350.7,91.7z
		 M633.7,88.3c-2.3-1-4.6-2-6.9-2.9l0.4-1c2.3,0.9,4.6,1.9,6.9,3L633.7,88.3z M364.3,85.6l-0.4-1c2.3-1,4.6-1.9,6.9-2.8l0.4,1.1
		C368.9,83.8,366.6,84.7,364.3,85.6z M619.9,82.5c-2.3-0.9-4.7-1.8-7-2.6l0.4-1.1c2.4,0.9,4.7,1.8,7.1,2.6L619.9,82.5z M378.2,80.2
		l-0.4-1.1c2.3-0.9,4.7-1.7,7.1-2.5l0.4,1.1C382.9,78.5,380.5,79.4,378.2,80.2z M605.7,77.4c-2.4-0.8-4.8-1.6-7.1-2.3l0.3-1.1
		c2.4,0.7,4.8,1.5,7.2,2.3L605.7,77.4z M392.4,75.4l-0.3-1.1c2.4-0.8,4.8-1.5,7.2-2.2l0.3,1.1C397.1,73.9,394.7,74.6,392.4,75.4z
		 M591.4,72.9c-2.4-0.7-4.8-1.4-7.2-2l0.3-1.1c2.4,0.6,4.8,1.3,7.2,2L591.4,72.9z M406.7,71.2l-0.3-1.1c2.4-0.6,4.9-1.3,7.3-1.9
		l0.3,1.1C411.6,69.9,409.1,70.5,406.7,71.2z M577,69.1c-2.4-0.6-4.9-1.1-7.3-1.7l0.2-1.1c2.4,0.5,4.9,1.1,7.3,1.7L577,69.1z
		 M421.3,67.6l-0.2-1.1c2.4-0.5,4.9-1.1,7.3-1.5l0.2,1.1C426.1,66.6,423.7,67.1,421.3,67.6z M562.4,65.9c-2.4-0.5-4.9-0.9-7.4-1.4
		l0.2-1.1c2.5,0.4,5,0.9,7.4,1.4L562.4,65.9z M435.9,64.7l-0.2-1.1c2.4-0.4,4.9-0.8,7.4-1.2l0.2,1.1
		C440.9,63.9,438.4,64.3,435.9,64.7z M547.6,63.3c-2.5-0.4-5-0.7-7.4-1l0.1-1.1c2.5,0.3,5,0.7,7.4,1L547.6,63.3z M450.7,62.4
		l-0.1-1.1c2.4-0.3,5-0.6,7.5-0.9l0.1,1.1C455.7,61.8,453.2,62.1,450.7,62.4z M532.8,61.4c-2.4-0.3-5-0.5-7.4-0.7l0.1-1.1
		c2.5,0.2,5,0.5,7.5,0.7L532.8,61.4z M465.6,60.8l-0.1-1.1c2.5-0.2,5-0.4,7.5-0.6l0.1,1.1C470.6,60.4,468.1,60.6,465.6,60.8z
		 M517.9,60.2c-2.5-0.2-5-0.3-7.5-0.4v-1.1c2.5,0.1,5,0.2,7.5,0.4V60.2z M480.5,59.8v-1.1c2.5-0.1,5-0.2,7.5-0.3v1.1
		C485.5,59.6,483,59.7,480.5,59.8z M502.9,59.5c-1.4,0-4.3-0.1-7.5-0.1v-1.1c1.9,0,3.9,0,7.5,0.1V59.5z"/>
</g>
<g id="react">
	
		<image style="overflow:visible;opacity:0.75;" width="330" height="330" xlink:href="59D457CA.png"  transform="matrix(1 0 0 1 101 -3.3)">
	</image>
	<g>
		<g>
			<ellipse class="st1" cx="263.7" cy="160" rx="155.5" ry="155.5"/>
			<path class="st2" d="M300.2,79.9c-3-0.1-6.1,0.4-9.2,1.4c-6.2,2-12.8,6-19.5,11.4c-2.6,2.1-5.3,4.6-7.9,7.2
				c-2.6-2.5-5.2-4.9-7.8-7c-6.7-5.5-13.2-9.4-19.5-11.4c-6.2-2-12.4-2.1-17.5,0.9c-5.1,2.9-8.1,8.3-9.5,14.7
				c-1.4,6.4-1.2,14,0.2,22.6c0.5,3,1.2,6.1,1.9,9.2c-2.9,0.9-5.7,1.8-8.3,2.8c-7.9,3.1-14.4,6.8-19.2,11.2s-7.8,9.7-7.8,15.6
				c0,5.9,3.1,11.2,7.8,15.6s11.3,8.1,19.2,11.2c2.8,1.1,5.8,2.1,9,3c-1.1,4.2-2,8.3-2.7,12.2c-1.4,8.5-1.5,16.2-0.1,22.6
				c1.4,6.4,4.4,11.8,9.5,14.8s11.3,2.9,17.6,0.9c6.2-2,12.8-6,19.5-11.4c2.6-2.1,5.2-4.5,7.9-7.1c2.7,2.6,5.3,5,7.9,7.1
				c6.7,5.5,13.2,9.4,19.5,11.4c6.2,2,12.4,2.1,17.5-0.9s8.1-8.3,9.5-14.7s1.2-14-0.2-22.6c-0.6-3.9-1.5-8-2.7-12.2
				c3.2-1,6.4-2,9.2-3.1c7.9-3.1,14.4-6.8,19.2-11.2c4.8-4.4,7.8-9.7,7.8-15.6c0-5.9-3.1-11.2-7.8-15.6c-4.8-4.4-11.3-8.1-19.2-11.2
				c-2.7-1-5.5-2-8.5-2.9c0.8-3.2,1.5-6.3,2-9.3c1.4-8.5,1.5-16.2,0.1-22.6s-4.4-11.8-9.5-14.8C306,80.8,303.1,80,300.2,79.9z
				 M299.8,87.7c1.9,0.1,3.5,0.5,4.8,1.3c2.7,1.6,4.7,4.6,5.8,9.7c1.1,5,1,11.8-0.2,19.7c-0.4,2.7-1.1,5.6-1.8,8.5
				c-7.8-1.9-16.3-3.3-25.5-4.1c-4.6-6.3-9.3-12.1-14-17.2c2.5-2.4,5-4.7,7.4-6.7c6.2-5,12.1-8.5,17-10.1
				C295.8,88,297.9,87.7,299.8,87.7z M227.5,87.7c1.9-0.1,4,0.3,6.5,1.1c4.9,1.6,10.8,5,17,10.1c2.4,1.9,4.8,4.2,7.3,6.6
				c-4.8,5.2-9.5,11-14.1,17.4c-9.1,0.8-17.6,2.2-25.3,4.1c-0.7-2.9-1.3-5.8-1.8-8.5c-1.3-7.9-1.3-14.7-0.2-19.8
				c1.1-5,3.1-8.1,5.9-9.7C224,88.2,225.6,87.8,227.5,87.7z M263.6,111.1c3.1,3.4,6.2,7.1,9.3,11.1c-3-0.1-6.1-0.2-9.2-0.2
				c-3.2,0-6.3,0.1-9.4,0.2C257.4,118.1,260.5,114.4,263.6,111.1z M263.7,129.6c5.2,0,10.2,0.2,15.2,0.6c3.4,4.9,6.7,10,9.8,15.5
				c2.8,4.8,5.3,9.6,7.6,14.3c-2.3,4.8-4.9,9.6-7.7,14.5c-2.5,4.3-5,8.3-7.7,12.3c-5.6,0.5-11.3,0.7-17.2,0.7
				c-6.1,0-11.9-0.3-17.6-0.8c-2.6-3.9-5.1-7.9-7.5-12.1c-2.8-4.8-5.3-9.7-7.6-14.5c2.3-4.8,4.9-9.7,7.7-14.6
				c3.1-5.4,6.4-10.6,9.8-15.4C253.4,129.8,258.5,129.6,263.7,129.6z M288.7,131.1c6.3,0.8,12.2,1.9,17.7,3.2
				c-1.6,5.3-3.6,10.9-6.1,16.7c-1.6-3-3.2-6.1-5-9.2C293.2,138.1,291,134.6,288.7,131.1z M238.3,131.2c-2.2,3.4-4.4,6.9-6.5,10.5
				c-1.8,3.1-3.5,6.2-5.1,9.3c-2.4-5.7-4.4-11.3-6-16.6C226.2,133.1,232.1,132,238.3,131.2z M313.9,136.3c2.7,0.8,5.3,1.7,7.7,2.6
				c7.3,2.8,13,6.2,16.8,9.7c3.7,3.4,5.4,6.7,5.4,9.9s-1.6,6.5-5.4,9.9c-3.7,3.4-9.5,6.8-16.8,9.7c-2.7,1-5.6,2-8.6,2.9
				c-2.2-6.7-4.9-13.7-8.2-20.8C308.6,151.9,311.6,143.9,313.9,136.3z M213.4,136.4c2.3,7.5,5.3,15.4,9,23.6
				c-3.3,7.2-6.1,14.2-8.3,21c-2.9-0.9-5.8-1.8-8.3-2.8c-7.3-2.8-13-6.2-16.8-9.7c-3.7-3.4-5.4-6.7-5.4-9.9s1.6-6.5,5.4-9.9
				c3.7-3.4,9.5-6.8,16.8-9.7C208.2,138,210.7,137.2,213.4,136.4z M263.7,141c-10.5,0-19.1,8.6-19.1,19.1s8.6,19.1,19.1,19.1
				s19.1-8.6,19.1-19.1S274.2,141,263.7,141z M226.9,169.1c1.6,3.1,3.3,6.2,5.1,9.3c1.4,2.4,2.8,4.8,4.3,7.1
				c-5.1-0.7-10-1.6-14.6-2.7C223.2,178.4,224.9,173.8,226.9,169.1z M300.4,169.1c2,4.7,3.7,9.4,5.2,13.8c-4.6,1.1-9.5,2-14.6,2.7
				c1.5-2.4,2.9-4.8,4.4-7.2C297.2,175.3,298.8,172.2,300.4,169.1z M219.5,190.3c6.9,1.6,14.4,2.9,22.3,3.7
				c5.3,7.7,10.8,14.5,16.4,20.6c-2.5,2.4-4.9,4.7-7.4,6.7c-6.2,5-12.1,8.5-17,10.1s-8.6,1.4-11.3-0.2c-2.7-1.6-4.7-4.6-5.8-9.7
				c-1.1-5-1-11.8,0.2-19.7C217.6,198.1,218.5,194.3,219.5,190.3z M307.8,190.3c1.1,4,1.9,7.8,2.5,11.4c1.3,7.9,1.3,14.7,0.2,19.8
				c-1.1,5-3.1,8.1-5.8,9.7s-6.4,1.8-11.3,0.2s-10.8-5-17-10.1c-2.4-2-4.9-4.3-7.4-6.7c5.6-6,11.1-13,16.5-20.7
				C293.4,193.2,300.9,192,307.8,190.3z M251.8,194.8c3.9,0.2,7.9,0.4,11.9,0.4c3.9,0,7.8-0.1,11.6-0.3c-3.9,5.2-7.8,10-11.8,14.3
				C259.6,204.8,255.7,200,251.8,194.8z"/>
			<g>
				<polygon class="st3" points="188.9,145.1 193.7,155 204.7,156.6 196.8,164.3 198.6,175.2 188.9,170 179.1,175.2 181,164.3 
					173,156.6 184,155 				"/>
				<polygon class="st3" points="226.3,145.1 231.2,155 242.1,156.6 234.2,164.3 236.1,175.2 226.3,170 216.5,175.2 218.4,164.3 
					210.5,156.6 221.4,155 				"/>
				<polygon class="st3" points="263.7,145.1 268.6,155 279.5,156.6 271.6,164.3 273.5,175.2 263.7,170 254,175.2 255.8,164.3 
					247.9,156.6 258.8,155 				"/>
				<polygon class="st4" points="338.6,145.1 343.5,155 354.4,156.6 346.5,164.3 348.4,175.2 338.6,170 328.8,175.2 330.7,164.3 
					322.8,156.6 333.7,155 				"/>
				<path class="st3" d="M296.1,154.9l-11.1,1.5l8,7.9l-1.8,11.1l10.1-5.3v-25.4L296.1,154.9z"/>
				<path class="st4" d="M317.3,156.4l-11.1-1.6l-5-10.1v25.4l10,5.2l-1.9-11.1L317.3,156.4z"/>
			</g>
			<g>
				<circle class="st5" cx="263.7" cy="160" r="155.5"/>
			</g>
		</g>
	</g>
</g>
<g id="js">
	
		<ellipse transform="matrix(0.7071 -0.7071 0.7071 0.7071 -97.9511 460.8423)" class="st1" cx="507.3" cy="348.7" rx="125.1" ry="125.1"/>
	<path class="st6" d="M460.6,295.2c-3.7,0-6.8,3.1-6.8,6.8v93.3c0,3.7,3.1,6.8,6.8,6.8h93.3c3.7,0,6.8-3.1,6.8-6.8V302
		c0-3.7-3.1-6.8-6.8-6.8H460.6z M460.6,300.3h93.3c0.9,0,1.7,0.8,1.7,1.7v93.3c0,0.9-0.8,1.7-1.7,1.7h-93.3c-0.9,0-1.7-0.8-1.7-1.7
		V302C458.9,301.1,459.7,300.3,460.6,300.3z M502.2,343.6v32c0,4.9-1.9,6.2-5.1,6.2c-3.4,0-5.7-2.1-7.3-4.8l-8,4.8
		c2.3,4.9,8,10.2,15.9,10.2c8.7,0,14.7-4.6,14.7-14.8v-33.5h-10.2V343.6z M533.8,343.6c-8.7,0-14.2,5.5-14.2,12.8
		c0,7.9,4.7,11.6,11.7,14.6l2.4,1c4.4,1.9,6.6,3.1,6.6,6.4c0,2.8-2.1,4.8-6.1,4.8c-4.8,0-7.1-3.2-9.1-6.6l-7.6,5.1
		c2.9,5.6,8,10.2,17,10.2c9.2,0,16.1-4.8,16.1-13.5c0-8.1-4.7-11.7-12.9-15.3l-2.4-1c-4.2-1.8-6-3-6-5.9c0-2.4,1.8-4.2,4.7-4.2
		c2.8,0,4.6,1.2,6.2,4.2l7.6-4.8C544.5,345.7,540,343.6,533.8,343.6z"/>
	<g>
		<polygon class="st3" points="430.8,333.3 435.8,343.4 447,345 438.9,352.9 440.8,364 430.8,358.8 420.8,364 422.7,352.9 
			414.7,345 425.8,343.4 		"/>
		<polygon class="st3" points="469,333.3 474,343.4 485.2,345 477.1,352.9 479,364 469,358.8 459,364 460.9,352.9 452.9,345 
			464,343.4 		"/>
		<polygon class="st3" points="507.3,333.3 512.2,343.4 523.4,345 515.3,352.9 517.2,364 507.3,358.8 497.3,364 499.2,352.9 
			491.1,345 502.3,343.4 		"/>
		<polygon class="st4" points="583.7,333.3 588.7,343.4 599.9,345 591.8,352.9 593.7,364 583.7,358.8 573.7,364 575.6,352.9 
			567.6,345 578.7,343.4 		"/>
		<polygon class="st3" points="545.5,333.3 550.5,343.4 561.6,345 553.6,352.9 555.5,364 545.5,358.8 535.5,364 537.4,352.9 
			529.3,345 540.5,343.4 		"/>
	</g>
	
		<ellipse transform="matrix(0.7071 -0.7071 0.7071 0.7071 -97.9511 460.8423)" class="st7" cx="507.3" cy="348.7" rx="125.1" ry="125.1"/>
</g>
<g id="css">
	<g>
		<ellipse class="st8" cx="347.3" cy="623.2" rx="148.9" ry="148.9"/>
	</g>
	<g>
		<g>
			<g>
				<g>
					<path class="st6" d="M319.9,572.3h-27.6c-1.3,0-2.3,1-2.3,2.3s1,2.3,2.3,2.3h27.6c1.3,0,2.3-1,2.3-2.3S321.1,572.3,319.9,572.3
						z"/>
				</g>
			</g>
			<g>
				<g>
					<path class="st6" d="M273.5,573c-0.4-0.4-1-0.7-1.6-0.7s-1.2,0.2-1.6,0.7c-0.4,0.4-0.7,1-0.7,1.6s0.2,1.2,0.7,1.6
						c0.4,0.4,1,0.7,1.6,0.7s1.2-0.2,1.6-0.7c0.4-0.4,0.7-1,0.7-1.6S273.9,573.4,273.5,573z"/>
				</g>
			</g>
			<g>
				<g>
					<path class="st6" d="M264.7,573c-0.4-0.4-1-0.7-1.6-0.7s-1.2,0.2-1.6,0.7c-0.4,0.4-0.7,1-0.7,1.6s0.2,1.2,0.7,1.6
						c0.4,0.4,1,0.7,1.6,0.7s1.2-0.2,1.6-0.7c0.4-0.4,0.7-1,0.7-1.6S265.1,573.4,264.7,573z"/>
				</g>
			</g>
			<g>
				<g>
					<path class="st6" d="M282.3,573c-0.4-0.4-1-0.7-1.6-0.7s-1.2,0.2-1.6,0.7c-0.4,0.4-0.7,1-0.7,1.6s0.2,1.2,0.7,1.6
						c0.4,0.4,1,0.7,1.6,0.7s1.2-0.2,1.6-0.7c0.4-0.4,0.7-1,0.7-1.6S282.8,573.4,282.3,573z"/>
				</g>
			</g>
			<g>
				<g>
					<path class="st6" d="M299,592.7h-9.5c-1.3,0-2.3,1-2.3,2.3s1,2.3,2.3,2.3h9.5c1.3,0,2.3-1,2.3-2.3S300.3,592.7,299,592.7z"/>
				</g>
			</g>
			<g>
				<g>
					<path class="st6" d="M318,592.7h-9.5c-1.3,0-2.3,1-2.3,2.3s1,2.3,2.3,2.3h9.5c1.3,0,2.3-1,2.3-2.3S319.2,592.7,318,592.7z"/>
				</g>
			</g>
			<g>
				<g>
					<path class="st6" d="M318,614.9L318,614.9h-2.5c-1.3,0-2.3,1-2.3,2.3s1,2.3,2.3,2.3l0,0h2.5c1.3,0,2.3-1,2.3-2.3
						C320.3,616,319.2,614.9,318,614.9z"/>
				</g>
			</g>
			<g>
				<g>
					<path class="st6" d="M307.1,614.9L307.1,614.9h-9c-1.3,0-2.3,1-2.3,2.3s1,2.3,2.3,2.3l0,0h9c1.3,0,2.3-1,2.3-2.3
						C309.4,616,308.4,614.9,307.1,614.9z"/>
				</g>
			</g>
			<g>
				<g>
					<path class="st6" d="M309.7,603.8H302c-1.3,0-2.3,1-2.3,2.3s1,2.3,2.3,2.3h7.7c1.3,0,2.3-1,2.3-2.3S310.9,603.8,309.7,603.8z"
						/>
				</g>
			</g>
			<g>
				<g>
					<path class="st6" d="M319.6,604.5c-0.4-0.4-1-0.7-1.6-0.7s-1.2,0.2-1.6,0.7c-0.4,0.4-0.7,1-0.7,1.6s0.2,1.2,0.7,1.6
						c0.4,0.4,1,0.7,1.6,0.7s1.2-0.2,1.6-0.7c0.4-0.4,0.7-1,0.7-1.6C320.3,605.5,320,604.9,319.6,604.5z"/>
				</g>
			</g>
			<g>
				<g>
					<path class="st6" d="M320.8,678.7c-0.4-0.4-1-0.7-1.6-0.7s-1.2,0.2-1.6,0.7c-0.4,0.4-0.7,1-0.7,1.6s0.2,1.2,0.7,1.6
						c0.4,0.4,1,0.7,1.6,0.7s1.2-0.2,1.6-0.7c0.4-0.4,0.7-1,0.7-1.6S321.2,679.1,320.8,678.7z"/>
				</g>
			</g>
			<g>
				<g>
					<path class="st6" d="M338.4,630.3h-6.2v-56.7c0-5.4-4.4-9.7-9.7-9.7h-61.2c-5.4,0-9.7,4.4-9.7,9.7V602
						c-11.1,4.1-19,14.8-19,27.3c0,16,13,29.1,29.1,29.1c11.1,0,20.8-6.2,25.7-15.4c0,0.1,0,0.2,0,0.3V670c0,7.1,5.7,12.8,12.8,12.8
						H311c1.3,0,2.3-1,2.3-2.3s-1-2.3-2.3-2.3h-11c-4.5,0-8.2-3.7-8.2-8.2v-26.7c0-4.5,3.7-8.2,8.2-8.2h3.9c1.3,0,2.3-1,2.3-2.3
						v-2.6l5.5,4.4c0.4,0.3,0.9,0.5,1.4,0.5h25.2c4.5,0,8.2,3.7,8.2,8.2V670c0,4.5-3.7,8.2-8.2,8.2h-9.4c-1.3,0-2.3,1-2.3,2.3
						s1,2.3,2.3,2.3h9.4c7.1,0,12.8-5.7,12.8-12.8v-26.7C351.2,636.1,345.4,630.3,338.4,630.3z M283.4,614.8
						c-0.7,0.7-0.9,1.8-0.4,2.7c1.9,3.6,3,7.6,3,11.7c0,13.5-11,24.4-24.4,24.4c-13.5,0-24.4-11-24.4-24.4c0-13.5,11-24.4,24.4-24.4
						c5.7,0,11.2,2,15.5,5.6c0.4,0.3,0.9,0.5,1.5,0.5h8.8L283.4,614.8z M327.5,630.3H314l-8.6-6.9c-0.7-0.6-1.6-0.7-2.5-0.3
						c-0.8,0.4-1.3,1.2-1.3,2.1v5.1H300c-4,0-7.6,1.9-10,4.8c0.4-1.9,0.6-3.9,0.6-5.9c0-4.3-0.9-8.5-2.7-12.3l6.7-6.7
						c0.7-0.7,0.9-1.7,0.5-2.5c-0.4-0.9-1.2-1.4-2.1-1.4h-13.6c-5.1-3.9-11.4-6.1-17.8-6.1c-1.9,0-3.7,0.2-5.4,0.5v-15.4h71.4v45
						H327.5z M327.5,580.6h-71.4v-7c0-2.8,2.3-5.1,5.1-5.1h61.2c2.8,0,5.1,2.3,5.1,5.1L327.5,580.6L327.5,580.6z"/>
				</g>
			</g>
			<g>
				<g>
					<path class="st6" d="M304.3,649.1c-1.3,0-2.3,1-2.3,2.3v2.8h-2.8v-2.8c0-1.3-1-2.3-2.3-2.3s-2.3,1-2.3,2.3v10.2
						c0,1.3,1,2.3,2.3,2.3s2.3-1,2.3-2.3v-2.8h2.8v2.8c0,1.3,1,2.3,2.3,2.3s2.3-1,2.3-2.3v-10.2
						C306.7,650.1,305.6,649.1,304.3,649.1z"/>
				</g>
			</g>
			<g>
				<g>
					<path class="st6" d="M342.4,659.3h-2.1v-7.9c0-1.3-1-2.3-2.3-2.3s-2.3,1-2.3,2.3v10.2c0,1.3,1,2.3,2.3,2.3h4.4
						c1.3,0,2.3-1,2.3-2.3S343.7,659.3,342.4,659.3z"/>
				</g>
			</g>
			<g>
				<g>
					<path class="st6" d="M316.9,649.1h-6c-1.3,0-2.3,1-2.3,2.3s1,2.3,2.3,2.3h0.7v7.9c0,1.3,1,2.3,2.3,2.3s2.3-1,2.3-2.3v-7.9h0.7
						c1.3,0,2.3-1,2.3-2.3S318.1,649.1,316.9,649.1z"/>
				</g>
			</g>
			<g>
				<g>
					<path class="st6" d="M331.8,649.2c-0.9-0.4-1.9-0.2-2.5,0.5L327,652l-2.3-2.3c-0.7-0.7-1.7-0.9-2.5-0.5
						c-0.9,0.4-1.4,1.2-1.4,2.1v10.2c0,1.3,1,2.3,2.3,2.3s2.3-1,2.3-2.3V657c0.4,0.4,1,0.6,1.6,0.6s1.2-0.2,1.6-0.6v4.6
						c0,1.3,1,2.3,2.3,2.3s2.3-1,2.3-2.3v-10.2C333.3,650.4,332.7,649.6,331.8,649.2z"/>
				</g>
			</g>
			<g>
				<g>
					<path class="st6" d="M252.2,632c-1.5,1.5-3.9,1.5-5.4,0c-0.7-0.7-1.1-1.7-1.1-2.7s0.4-2,1.1-2.7c0.7-0.7,1.7-1.1,2.7-1.1
						s2,0.4,2.7,1.1c0.9,0.9,2.4,0.9,3.3,0c0.9-0.9,0.9-2.4,0-3.3c-1.6-1.6-3.7-2.5-6-2.5s-4.4,0.9-6,2.5s-2.5,3.7-2.5,6
						s0.9,4.4,2.5,6c1.7,1.7,3.8,2.5,6,2.5s4.3-0.8,6-2.5c0.9-0.9,0.9-2.4,0-3.3C254.6,631,253.1,631,252.2,632z"/>
				</g>
			</g>
			<g>
				<g>
					<path class="st6" d="M262.8,626.9c-0.4,0-0.8-0.3-0.8-0.8c0-0.4,0.3-0.8,0.8-0.8h3.1c1.3,0,2.3-1,2.3-2.3s-1-2.3-2.3-2.3h-3.1
						c-3,0-5.4,2.4-5.4,5.4s2.4,5.4,5.4,5.4c0.4,0,0.8,0.3,0.8,0.8c0,0.4-0.3,0.8-0.8,0.8h-3.1c-1.3,0-2.3,1-2.3,2.3s1,2.3,2.3,2.3
						h3.1c3,0,5.4-2.4,5.4-5.4C268.2,629.3,265.8,626.9,262.8,626.9z"/>
				</g>
			</g>
			<g>
				<g>
					<path class="st6" d="M275.3,626.9c-0.4,0-0.8-0.3-0.8-0.8c0-0.4,0.3-0.8,0.8-0.8h3.1c1.3,0,2.3-1,2.3-2.3s-1-2.3-2.3-2.3h-3.1
						c-3,0-5.4,2.4-5.4,5.4s2.4,5.4,5.4,5.4c0.4,0,0.8,0.3,0.8,0.8c0,0.4-0.3,0.8-0.8,0.8h-3.1c-1.3,0-2.3,1-2.3,2.3s1,2.3,2.3,2.3
						h3.1c3,0,5.4-2.4,5.4-5.4C280.7,629.3,278.3,626.9,275.3,626.9z"/>
				</g>
			</g>
		</g>
		<path class="st6" d="M450.3,619.7c-2.9,0-5.5,0.7-7.7,1.8c-0.8-1.6-1.6-2.9-1.7-4c-0.2-1.2-0.3-1.9-0.2-3.3c0.2-1.4,1-3.4,1-3.6
			c0-0.2-0.2-0.9-1.9-0.9c-1.7,0-3.2,0.3-3.3,0.8c-0.2,0.4-0.5,1.5-0.7,2.5c-0.3,1.5-3.4,7.1-5.2,9.9c-0.6-1.1-1.1-2.1-1.2-2.9
			c-0.2-1.2-0.3-1.9-0.2-3.3c0.2-1.4,1-3.4,1-3.6c0-0.2-0.2-0.9-1.9-0.9c-1.7,0-3.2,0.3-3.3,0.8c-0.2,0.4-0.4,1.5-0.7,2.5
			c-0.4,1-4.5,10.2-5.6,12.6c-0.6,1.2-1,2.2-1.4,2.9l0,0c0,0,0,0-0.1,0.1c-0.3,0.6-0.5,0.9-0.5,0.9l0,0c-0.2,0.4-0.5,0.8-0.6,0.8
			s-0.3-1.1,0-2.6c0.6-3.2,2.1-8.2,2.1-8.3s0.3-1-1-1.4c-1.2-0.4-1.6,0.3-1.7,0.3s-0.2,0.3-0.2,0.3s1.3-5.6-2.6-5.6
			c-2.4,0-5.8,2.7-7.5,5.1c-1,0.6-3.3,1.8-5.7,3.1c-0.9,0.5-1.9,1-2.7,1.5c-0.1-0.1-0.1-0.1-0.2-0.2c-4.7-5-13.5-8.6-13.1-15.4
			c0.1-2.5,1-9,16.8-16.8c13-6.4,23.3-4.6,25.1-0.7c2.6,5.6-5.5,16.1-19,17.6c-5.1,0.6-7.8-1.4-8.5-2.1c-0.7-0.8-0.8-0.8-1.1-0.7
			c-0.4,0.2-0.2,0.9,0,1.3c0.4,1,2.1,2.9,4.8,3.8c2.5,0.8,8.5,1.3,15.7-1.6c8.1-3.1,14.5-11.9,12.6-19.2c-1.9-7.4-14.2-9.9-25.9-5.7
			c-6.9,2.5-14.5,6.4-19.9,11.4c-6.4,6-7.5,11.3-7,13.4c1.5,7.8,12.2,12.8,16.5,16.6c-0.2,0.1-0.4,0.2-0.6,0.3
			c-2.1,1.1-10.3,5.3-12.4,9.9c-2.3,5.1,0.4,8.8,2.1,9.3c5.5,1.5,11.2-1.2,14.2-5.8c3-4.5,2.7-10.4,1.3-13.1c0,0,0-0.1-0.1-0.1
			c0.6-0.3,1.1-0.7,1.7-1c1.1-0.6,2.2-1.3,3.1-1.7c-0.5,1.4-0.9,3.1-1.1,5.6c-0.2,2.9,1,6.7,2.5,8.1c0.7,0.6,1.5,0.7,2,0.7
			c1.8,0,2.6-1.5,3.5-3.3c1.1-2.2,2.1-4.7,2.1-4.7s-1.3,6.9,2.1,6.9c1.2,0,2.5-1.6,3-2.4l0,0c0,0,0,0,0.1-0.2s0.2-0.3,0.2-0.3l0,0
			c0.5-0.9,1.6-2.8,3.3-6.1c2.1-4.2,4.2-9.4,4.2-9.4s0.2,1.3,0.8,3.4c0.4,1.3,1.1,2.6,1.8,4c-0.5,0.7-0.8,1.1-0.8,1.1l0,0
			c-0.4,0.5-0.8,1.1-1.3,1.7c-1.7,2-3.7,4.3-4,5c-0.3,0.8-0.2,1.4,0.4,1.8c0.4,0.3,1.3,0.4,2.1,0.3c1.5-0.1,2.6-0.5,3.1-0.7
			c0.8-0.3,1.8-0.7,2.7-1.4c1.7-1.2,2.7-3,2.6-5.3c0-1.3-0.5-2.5-1-3.7c0.2-0.2,0.3-0.4,0.4-0.6c2.6-3.8,4.6-8,4.6-8
			s0.2,1.3,0.8,3.4c0.3,1.1,0.9,2.3,1.5,3.4c-2.5,2-4,4.3-4.5,5.8c-1,2.8-0.2,4.1,1.2,4.4c0.6,0.1,1.6-0.2,2.3-0.5
			c0.9-0.3,1.9-0.8,2.9-1.5c1.7-1.2,3.2-2.9,3.1-5.2c0-1-0.3-2.1-0.7-3.1c2.1-0.9,4.8-1.3,8.2-0.9c7.3,0.9,8.8,5.4,8.5,7.4
			c-0.3,1.9-1.8,3-2.3,3.3s-0.7,0.4-0.6,0.7s0.3,0.3,0.7,0.3c0.6-0.1,3.9-1.6,4-5.1C462.3,624.6,458,619.7,450.3,619.7z
			 M393.7,638.8c-2.4,2.7-5.8,3.7-7.3,2.8c-1.6-0.9-1-4.8,2-7.6c1.8-1.7,4.2-3.3,5.7-4.3c0.4-0.2,0.9-0.5,1.5-0.9
			c0.1-0.1,0.2-0.1,0.2-0.1l0,0c0.1-0.1,0.2-0.2,0.4-0.2C397.3,632.5,396.2,636,393.7,638.8z M411.4,626.8c-0.8,2.1-2.6,7.4-3.7,7.1
			c-0.9-0.2-1.5-4.3-0.2-8.2c0.7-2,2.1-4.4,2.9-5.3c1.3-1.5,2.8-2,3.1-1.4C414,619.7,411.9,625.5,411.4,626.8z M426.1,633.8
			c-0.4,0.2-0.7,0.3-0.8,0.2c-0.1-0.1,0.2-0.3,0.2-0.3s1.8-2,2.6-2.9c0.4-0.5,0.9-1.1,1.4-1.8c0,0.1,0,0.1,0,0.2
			C429.4,631.5,427.1,633.1,426.1,633.8z M437.4,631.2c-0.3-0.2-0.2-0.8,0.7-2.7c0.3-0.8,1.1-2,2.5-3.2c0.2,0.5,0.3,1,0.2,1.4
			C440.8,629.6,438.6,630.7,437.4,631.2z"/>
		<g>
			<path class="st6" d="M355,611.2h2.8v7h6.8v2.7h-6.8v7H355v-7h-6.8v-2.7h6.8V611.2z"/>
		</g>
	</g>
	<g>
		<polygon class="st3" points="271,607.9 276,618 287.1,619.6 279,627.5 280.9,638.6 271,633.3 261,638.6 262.9,627.5 254.8,619.6 
			266,618 		"/>
		<polygon class="st3" points="309.1,607.9 314.1,618 325.3,619.6 317.2,627.5 319.1,638.6 309.1,633.3 299.2,638.6 301.1,627.5 
			293,619.6 304.2,618 		"/>
		<polygon class="st3" points="347.3,607.9 352.3,618 363.4,619.6 355.4,627.5 357.3,638.6 347.3,633.3 337.3,638.6 339.2,627.5 
			331.2,619.6 342.3,618 		"/>
		<polygon class="st3" points="385.5,607.9 390.5,618 401.6,619.6 393.5,627.5 395.4,638.6 385.5,633.3 375.5,638.6 377.4,627.5 
			369.4,619.6 380.5,618 		"/>
		<path class="st3" d="M418.7,618l-11.1,1.5l8.1,7.9l-1.9,11.1l9.9-5.1V608L418.7,618z"/>
		<path class="st4" d="M439.8,619.6l-11.1-1.6l-5-10.1v25.5l9.9,5.2l-1.9-11.1L439.8,619.6z"/>
	</g>
	<ellipse class="st7" cx="347.3" cy="623.2" rx="148.9" ry="148.9"/>
</g>
<g id="psai">
	
		<ellipse transform="matrix(0.7071 -0.7071 0.7071 0.7071 111.4449 520.0757)" class="st1" cx="683.5" cy="125.5" rx="117.8" ry="117.8"/>
	<g>
		<g>
			<path class="st6" d="M658.3,153c-2.2,0-4.9-1-6.3-1.8l-1.3,5.2c1.8,1,4.5,1.6,7.6,1.6c6.7,0,10.2-3.2,10.2-7.6
				c-0.1-3.5-1.9-5.7-6.4-7.2c-2.9-1-3.8-1.6-3.8-2.7c0-1.2,1-1.9,2.8-1.9c2,0,4,0.8,5.1,1.4l1.3-5c-1.4-0.7-3.9-1.3-6.6-1.3
				c-5.8,0-9.6,3.3-9.6,7.7c-0.1,2.8,1.8,5.4,6.7,7.1c2.7,0.9,3.4,1.5,3.4,2.7C661.4,152.2,660.5,153,658.3,153z"/>
			<path class="st6" d="M634.4,146c0.7,0.1,1.5,0.1,2.5,0.1c4.3,0,8-1.1,10.5-3.4c1.9-1.8,3-4.5,3-7.7s-1.4-5.9-3.5-7.5
				c-2.2-1.7-5.4-2.6-9.9-2.6s-7.6,0.3-9.9,0.7v32h7.2L634.4,146L634.4,146z M634.4,130.8c0.5-0.1,1.5-0.3,3-0.3
				c3.7,0,5.7,1.8,5.7,4.7c0,3.3-2.4,5.3-6.3,5.3c-1.1,0-1.8,0-2.4-0.2V130.8L634.4,130.8z"/>
			<path class="st6" d="M615.4,109.2v64.7h64.7v-64.7H615.4z M676.2,169.9h-56.7v-56.7h56.7V169.9z"/>
		</g>
		<g>
			<g>
				<g>
					<path class="st6" d="M718.5,99.3h-3.6l-8,20.8h4.2l1.9-5.2h7.3l1.9,5.2h4.2L718.5,99.3z M713.7,112.1l3-8.2l2.9,8.2H713.7z"/>
				</g>
			</g>
			<g>
				<g>
					<g>
						<rect x="728.4" y="104.7" class="st6" width="3.9" height="15.4"/>
						<rect x="728.4" y="98.7" class="st6" width="3.9" height="3.9"/>
					</g>
				</g>
			</g>
			<g>
				<g>
					<path class="st6" d="M689,77.1v62.6h62.6V77.1H689z M747.9,136h-55.3V80.7h55.3V136z"/>
				</g>
			</g>
		</g>
	</g>
	<g>
		<polygon class="st9" points="607.1,110.1 612,120.2 623.2,121.9 615.1,129.7 617.1,140.8 607.1,135.6 597.1,140.8 599,129.7 
			590.9,121.9 602.1,120.2 		"/>
		<polygon class="st9" points="645.3,110.1 650.3,120.2 661.4,121.9 653.4,129.7 655.3,140.8 645.3,135.6 635.3,140.8 637.2,129.7 
			629.1,121.9 640.3,120.2 		"/>
		<polygon class="st9" points="683.5,110.1 688.5,120.2 699.7,121.9 691.6,129.7 693.5,140.8 683.5,135.6 673.5,140.8 675.4,129.7 
			667.4,121.9 678.5,120.2 		"/>
		<polygon class="st4" points="760,110.1 764.9,120.2 776.1,121.9 768,129.7 770,140.8 760,135.6 750,140.8 751.9,129.7 
			743.8,121.9 755,120.2 		"/>
		<polygon class="st9" points="721.8,110.1 726.7,120.2 737.9,121.9 729.8,129.7 731.7,140.8 721.8,135.6 711.8,140.8 713.7,129.7 
			705.6,121.9 716.7,120.2 		"/>
	</g>
	
		<ellipse transform="matrix(0.7071 -0.7071 0.7071 0.7071 111.4449 520.0757)" class="st7" cx="683.5" cy="125.5" rx="117.8" ry="117.8"/>
</g>
<g id="node">
	<g>
		<ellipse class="st1" cx="691.6" cy="590" rx="125.8" ry="125.8"/>
	</g>
	<g>
		<path class="st6" d="M634.5,592.5c0-0.9-0.5-1.7-1.2-2.1l-19.4-11.5c-0.3-0.2-0.7-0.3-1.1-0.3h-0.2c-0.4,0-0.7,0.1-1.1,0.3
			l-19.4,11.5c-0.7,0.4-1.2,1.2-1.2,2.1v30.8c0,0.4,0.2,0.8,0.6,1c0.4,0.2,0.8,0.2,1.2,0l11.5-6.8c0.7-0.5,1.2-1.2,1.2-2.1V601
			c0-0.9,0.5-1.7,1.2-2.1l4.9-2.9c0.4-0.2,0.8-0.3,1.2-0.3s0.8,0.1,1.2,0.3l4.9,2.9c0.7,0.4,1.2,1.2,1.2,2.1v14.4
			c0,0.9,0.5,1.6,1.2,2.1l11.5,6.8c0.4,0.2,0.8,0.2,1.2,0c0.3-0.2,0.6-0.6,0.6-1L634.5,592.5"/>
		<path class="st6" d="M725.3,608.5c0,0.2-0.1,0.4-0.3,0.5l-6.6,3.9c-0.2,0.1-0.4,0.1-0.6,0l-6.7-3.9c-0.2-0.1-0.3-0.3-0.3-0.5v-7.9
			c0-0.2,0.1-0.4,0.3-0.5l6.6-3.9c0.2-0.1,0.4-0.1,0.6,0l6.6,3.9c0.2,0.1,0.3,0.3,0.3,0.5v7.9 M727.1,550.2c-0.4-0.2-0.8-0.2-1.2,0
			c-0.3,0.2-0.6,0.6-0.6,1v30.5c0,0.3-0.2,0.6-0.4,0.7c-0.2,0.1-0.6,0.1-0.8,0l-4.9-2.9c-0.7-0.4-1.6-0.4-2.3,0L697.5,591
			c-0.7,0.4-1.2,1.2-1.2,2.1v23c0,0.9,0.5,1.6,1.2,2.1l19.4,11.5c0.7,0.4,1.6,0.4,2.3,0l19.4-11.5c0.7-0.4,1.2-1.2,1.2-2.1v-57.2
			c0-0.9-0.5-1.7-1.2-2.1L727.1,550.2z"/>
		<path class="st6" d="M791,600.5c0.7-0.4,1.2-1.2,1.2-2.1v-5.6c0-0.9-0.5-1.6-1.2-2.1l-19.3-11.5c-0.7-0.4-1.6-0.4-2.3,0L750,590.7
			c-0.7,0.4-1.2,1.2-1.2,2.1v22.9c0,0.9,0.5,1.7,1.2,2.1l19.3,11.3c0.7,0.4,1.6,0.4,2.3,0l11.7-6.6c0.4-0.2,0.6-0.6,0.6-1
			s-0.2-0.8-0.6-1L763.8,609c-0.4-0.2-0.6-0.6-0.6-1v-7.2c0-0.4,0.2-0.8,0.6-1l6.1-3.6c0.4-0.2,0.8-0.2,1.2,0l6.1,3.6
			c0.4,0.2,0.6,0.6,0.6,1v5.7c0,0.4,0.2,0.8,0.6,1c0.4,0.2,0.8,0.2,1.2,0L791,600.5"/>
		<path class="st6" d="M664.3,579.1c0.7-0.4,1.6-0.4,2.3,0l19.4,11.5c0.7,0.4,1.2,1.2,1.2,2.1v23c0,0.9-0.5,1.6-1.2,2.1l-19.4,11.5
			c-0.7,0.4-1.6,0.4-2.3,0l-19.4-11.5c-0.7-0.4-1.2-1.2-1.2-2.1v-22.9c0-0.9,0.5-1.6,1.2-2.1L664.3,579.1"/>
		<path class="st6" d="M770.5,610.1l-5-3v-5.9l5-3l5,3v5.9L770.5,610.1z"/>
	</g>
	<g>
		<polygon class="st3" points="615.1,574.6 620.1,584.8 631.3,586.4 623.2,594.2 625.1,605.4 615.1,600.1 605.1,605.4 607,594.2 
			599,586.4 610.1,584.8 		"/>
		<polygon class="st3" points="653.3,574.6 658.3,584.8 669.5,586.4 661.4,594.2 663.3,605.4 653.3,600.1 643.3,605.4 645.2,594.2 
			637.2,586.4 648.3,584.8 		"/>
		<polygon class="st3" points="691.6,574.6 696.5,584.8 707.7,586.4 699.6,594.2 701.5,605.4 691.6,600.1 681.6,605.4 683.5,594.2 
			675.4,586.4 686.6,584.8 		"/>
		<polygon class="st4" points="768,574.6 773,584.8 784.2,586.4 776.1,594.2 778,605.4 768,600.1 758,605.4 759.9,594.2 
			751.9,586.4 763,584.8 		"/>
		<polygon class="st4" points="729.8,574.6 734.8,584.8 745.9,586.4 737.9,594.2 739.8,605.4 729.8,600.1 719.8,605.4 721.7,594.2 
			713.6,586.4 724.8,584.8 		"/>
	</g>
	<ellipse class="st7" cx="691.6" cy="590" rx="125.8" ry="125.8"/>
</g>
<g id="git">
	<g>
		
			<ellipse transform="matrix(0.7071 -0.7071 0.7071 0.7071 -0.3901 695.6053)" class="st1" cx="839.5" cy="348.3" rx="111.1" ry="111.1"/>
	</g>
	<g>
		<path class="st6" d="M833.5,316.6c-4.7,1.9-9.7,3.2-14.8,3.2c-14.6-8.5-34.4,0.4-34.4,19l0,0c0,7,4.4,16.5,11.3,18.8v0.3
			c-5.1,2.3-6.5,13.9,0.3,18.1v0.3c-7.4,2.5-12.3,7.2-12.3,15.5c0,14.2,13.3,18.1,24.9,18.1c14.1,0,24.6-5.1,24.6-20.9
			c0-19.4-27.4-12.2-27.4-22.8c0-3.7,2-5.1,5.3-5.9c11.3-2.1,18.3-11,18.3-22.6c0-2-0.4-3.9-1.1-5.8c1.8-0.4,3.6-0.9,5.3-1.5
			L833.5,316.6L833.5,316.6z M808.1,383.9L808.1,383.9c4.6,0,11.2,0.8,11.2,6.9c0,6-5.3,7.2-10.2,7.2c-4.7,0-11.8-0.7-11.8-6.9
			C797.3,385,803.3,383.9,808.1,383.9L808.1,383.9z M807.2,348.3L807.2,348.3c-6,0-8.5-3.6-8.5-9.3c0-13.6,16.6-13.4,16.6-0.1
			C815.3,344.5,813.1,348.3,807.2,348.3L807.2,348.3z"/>
		<path class="st6" d="M896.5,375.4v-13.5c-2.2,1.5-5.3,2.3-8,2.3c-5,0-5.9-5-5.9-9v-25.1c8.6,0,13.9,0.3,13.9,0.3v-13.1h-13.9
			c0-3.8-0.1-7.5,0.4-11.3h-15.4c0.5,2.8,0.4,5.2,0.4,11.3h-6.5v13.1c4.5-0.7,4.6-0.3,6.5-0.3v0.3h-0.1v24.1
			c0,12,1.7,23.6,16.2,23.6C888.2,378.1,892.9,377.4,896.5,375.4L896.5,375.4z"/>
		<path class="st6" d="M847.7,286.7c-5.4,0-9.4,4.8-9.4,10.1c0,5.2,4,10,9.4,10c5.2,0,9.2-4.8,9.2-10S853.1,286.7,847.7,286.7z"/>
		<path class="st6" d="M840.1,317.3c0.5,4.1,0.4,54.9,0,59.9h15.1c-0.4-4.9-0.5-55.9,0-59.9H840.1z"/>
	</g>
	<g>
		<polygon class="st3" points="763,332.9 768,343.1 779.2,344.7 771.1,352.5 773,363.7 763,358.4 753,363.7 754.9,352.5 
			746.9,344.7 758,343.1 		"/>
		<polygon class="st3" points="801.2,332.9 806.2,343.1 817.4,344.7 809.3,352.5 811.2,363.7 801.2,358.4 791.2,363.7 793.1,352.5 
			785.1,344.7 796.2,343.1 		"/>
		<polygon class="st3" points="839.5,332.9 844.4,343.1 855.6,344.7 847.5,352.5 849.4,363.7 839.5,358.4 829.5,363.7 831.4,352.5 
			823.3,344.7 834.5,343.1 		"/>
		<polygon class="st4" points="915.9,332.9 920.9,343.1 932.1,344.7 924,352.5 925.9,363.7 915.9,358.4 905.9,363.7 907.8,352.5 
			899.8,344.7 910.9,343.1 		"/>
		<polygon class="st4" points="877.7,332.9 882.7,343.1 893.8,344.7 885.8,352.5 887.7,363.7 877.7,358.4 867.7,363.7 869.6,352.5 
			861.5,344.7 872.7,343.1 		"/>
	</g>
	
		<ellipse transform="matrix(0.7071 -0.7071 0.7071 0.7071 -0.3901 695.6053)" class="st7" cx="839.5" cy="348.3" rx="111.1" ry="111.1"/>
</g>
<g>
	
		<ellipse transform="matrix(0.7071 -0.7071 0.7071 0.7071 -271.3171 212.9444)" class="st1" cx="121.4" cy="434" rx="116.9" ry="116.9"/>
</g>
<g>
	<g>
		<g>
			<path class="st6" d="M134.4,414.6c-2.1,0-4.1,0.7-4.1,2.5v18l-8.6-16.3c-2-3.9-3.1-4.1-6.1-4.1c-2.1,0-4.1,0.8-4.1,2.5v33.6
				c0,1.7,2.1,2.5,4.1,2.5c2.1,0,4.1-0.8,4.1-2.5v-18l10,18.3c1,1.9,2.7,2.2,4.6,2.2c2.1,0,4.1-0.8,4.1-2.5v-33.6
				C138.5,415.3,136.5,414.6,134.4,414.6z"/>
			<path class="st6" d="M105.4,421.8c1.6,0,2.5-1.7,2.5-3.6c0-1.7-0.7-3.5-2.5-3.5H86.6c-1.8,0-3.6,0.8-3.6,2.5v33.6
				c0,1.7,1.8,2.5,3.6,2.5h18.8c1.7,0,2.5-1.9,2.5-3.5c0-2-0.9-3.6-2.5-3.6H91.3v-9h7.9c1.7,0,2.5-1.7,2.5-3.1
				c0-1.7-0.9-3.2-2.5-3.2h-7.9V422h14.1V421.8z"/>
			<path class="st6" d="M169.6,434l19-40.1c0.8-1.6,0.7-3.6-0.3-5.1s-2.7-2.5-4.5-2.5h-125c-2.9,0-5.3,2.4-5.3,5.3v84.7
				c0,2.9,2.4,5.3,5.3,5.3h125c1.8,0,3.5-0.9,4.5-2.5s1.1-3.5,0.3-5.1L169.6,434z M64.2,471.1V397h111.3L159,431.7
				c-0.7,1.4-0.7,3.1,0,4.5l16.5,34.8H64.2V471.1z"/>
		</g>
	</g>
</g>
<g>
	<polygon class="st3" points="45.1,418.6 50.1,428.7 61.2,430.3 53.1,438.2 55,449.3 45.1,444.1 35.1,449.3 37,438.2 28.9,430.4 
		40.1,428.7 	"/>
	<polygon class="st3" points="83.2,418.6 88.2,428.7 99.4,430.4 91.3,438.2 93.2,449.3 83.2,444.1 73.3,449.3 75.2,438.2 
		67.1,430.4 78.3,428.7 	"/>
	<polygon class="st3" points="121.4,418.7 126.4,428.7 137.5,430.4 129.4,438.2 131.4,449.3 121.4,444.1 111.4,449.3 113.3,438.2 
		105.3,430.4 116.4,428.7 	"/>
	<polygon class="st3" points="159.6,418.6 164.5,428.7 175.7,430.4 167.6,438.2 169.5,449.3 159.6,444.1 149.6,449.3 151.5,438.2 
		143.4,430.4 154.6,428.7 	"/>
	<path class="st3" d="M192.8,428.7l-11.1,1.5l8.1,7.9l-1.9,11.1l9.9-5.1v-25.4L192.8,428.7z"/>
	<path class="st4" d="M213.8,430.4l-11.1-1.6l-5-10.1v25.5l9.9,5.2l-1.9-11.1L213.8,430.4z"/>
</g>
<ellipse transform="matrix(0.7071 -0.7071 0.7071 0.7071 -271.3139 212.9581)" class="st10" cx="121.4" cy="434" rx="116.9" ry="116.9"/>
<g id="click">
	<g>
		<path class="st2" d="M88.8,139.5c0.5,1,0.8,2.1,1,3.3s0.2,2.4-0.1,3.6c-0.3,2-1,3.6-2.1,5.1c-1.1,1.4-2.4,2.5-3.9,3.2
			c-1.6,0.7-3.3,1-5.2,0.8c-1.9-0.2-3.5-0.9-4.8-2.1c-1.3-1.2-2.3-2.7-2.9-4.4c-0.6-1.8-0.7-3.7-0.4-5.6c0.2-1.5,0.7-2.8,1.3-4
			c0.6-1.2,1.4-2.1,2.2-2.9c0.5,0.6,0.7,1,1.2,1.6c-0.7,0.6-1.3,1.4-1.8,2.3c-0.5,0.9-0.9,2-1.1,3.1c-0.3,1.6-0.1,3.1,0.4,4.4
			c0.5,1.4,1.3,2.6,2.4,3.5s2.4,1.5,3.8,1.7s2.8,0,4.1-0.6c1.3-0.6,2.4-1.4,3.3-2.6c0.9-1.1,1.4-2.5,1.7-4c0.2-1,0.2-1.9,0-2.8
			c-0.1-0.9-0.4-1.8-0.8-2.6C87.8,140.1,88.2,139.9,88.8,139.5z"/>
		<path class="st2" d="M56.5,125.2c0.3-1.1,0.4-1.6,0.6-2.7c11.8,2.9,23.6,5.9,35.4,8.8c-0.2,0.9-0.3,1.4-0.5,2.3
			C80.2,130.8,68.3,128,56.5,125.2z"/>
		<path class="st2" d="M70.1,116.1c-0.4-0.1-0.7-0.4-0.9-0.9c-0.2-0.5-0.2-1-0.1-1.4c0.2-0.5,0.4-0.9,0.8-1.1
			c0.4-0.3,0.8-0.3,1.2-0.2c0.5,0.1,0.8,0.4,1,0.9c0.2,0.4,0.2,0.9,0.1,1.4s-0.4,0.8-0.8,1.1C70.9,116.1,70.5,116.2,70.1,116.1z
			 M76.8,117.5c0.3-1,0.4-1.5,0.7-2.4c7.2,2.2,10.8,3.3,17.9,5.5c-0.3,0.9-0.4,1.3-0.7,2.2C87.6,120.7,84,119.6,76.8,117.5z"/>
		<path class="st2" d="M102.1,97.7c0.3,1.1,0.4,2.2,0.3,3.4c-0.1,1.2-0.3,2.3-0.8,3.4c-0.7,1.8-1.8,3.3-3.1,4.5
			c-1.3,1.2-2.8,1.9-4.5,2.3s-3.4,0.3-5.2-0.4c-1.8-0.6-3.2-1.6-4.3-3c-1.1-1.4-1.7-3.1-1.9-4.9c-0.2-1.8,0-3.7,0.8-5.5
			c0.5-1.4,1.2-2.5,2.1-3.6c0.8-1,1.8-1.8,2.8-2.3c0.3,0.7,0.5,1.1,0.9,1.8c-0.8,0.5-1.5,1.1-2.3,1.9c-0.7,0.8-1.3,1.7-1.7,2.8
			c-0.6,1.5-0.8,2.9-0.6,4.4c0.2,1.5,0.7,2.7,1.6,3.9c0.9,1.1,2,1.9,3.4,2.4s2.7,0.6,4.1,0.3c1.4-0.3,2.6-0.9,3.7-1.8
			s1.9-2.1,2.5-3.5c0.4-0.9,0.6-1.8,0.6-2.7c0.1-0.9,0-1.8-0.2-2.6C101,98.1,101.3,98,102.1,97.7z"/>
		<path class="st2" d="M106.4,92.6c-11-5.2-22-10.5-32.9-15.7c0.5-1,0.7-1.5,1.2-2.4c10.9,5.4,21.8,10.7,32.8,16.1
			C107,91.4,106.8,91.8,106.4,92.6z M100.9,88.3c-0.8-0.3-1.3-0.5-2.1-0.8c-1.5-6.2-2.1-9.3-3.2-15.8c0.7-0.3,1.1-0.5,1.8-0.8
			C98.6,78,99.3,81.5,100.9,88.3z M98.6,81c6.1-1.1,9.1-1.6,15.1-2.2c-0.5,0.9-0.8,1.4-1.3,2.3c-5.4,0.6-8,1-13.4,2
			C98.8,82.3,98.7,81.8,98.6,81z"/>
		<path class="st2" d="M111.5,47.9c1.7,1.2,2.6,1.7,4.4,2.9c-0.2,0-0.4,0-0.6,0c-0.9-1.5-1.2-3.2-1-5.1c0.3-1.9,1-3.6,2.2-5.2
			c0.7-0.9,1.6-1.6,2.5-2.1s1.8-0.7,2.7-0.7c0.9,0,1.7,0.2,2.5,0.7c0,0.2,0,0.3,0,0.4c-0.7-1.6-0.9-3.3-0.5-5
			c0.4-1.8,1.3-3.3,2.6-4.7c1.4-1.5,2.9-2.3,4.4-2.4c1.6-0.1,3,0.4,4.2,1.5c3.9,3.8,5.9,5.7,9.8,9.6c-0.6,0.7-1,1-1.6,1.7
			c-3.8-3.6-5.7-5.5-9.6-9.1c-0.8-0.7-1.8-1.1-2.9-1.1c-1.1,0-2.2,0.6-3.3,1.6c-0.9,1-1.6,2.2-1.9,3.5c-0.3,1.3-0.3,2.6,0.1,3.8
			c0.3,1.2,1,2.3,1.9,3.2c3.1,2.7,4.7,4,7.8,6.7c-0.6,0.7-0.9,1.1-1.5,1.8c-4.1-3.4-6.1-5.1-10.1-8.4c-0.9-0.7-1.9-1-3-0.9
			s-2.2,0.7-3.1,1.9c-0.9,1.1-1.4,2.3-1.7,3.7c-0.2,1.3-0.1,2.6,0.4,3.8s1.2,2.2,2.3,3c3.2,2.4,4.9,3.6,8.1,6
			c-0.6,0.7-0.8,1.1-1.4,1.9c-6.1-4.4-9.1-6.6-15.2-11C110.7,49,110.9,48.6,111.5,47.9z"/>
		<path class="st2" d="M157.5,26.2c-1.5,1.3-3.1,2.2-4.9,2.6c-1.7,0.4-3.4,0.4-5.1-0.1c-1.7-0.5-3.2-1.4-4.4-2.7
			c-1.3-1.3-2.1-2.9-2.4-4.6c-0.3-1.8-0.1-3.6,0.5-5.4c0.7-1.8,1.8-3.4,3.4-4.8c1.9-1.7,4-2.5,6.2-2.6c2.2-0.1,4.2,0.5,6.1,1.7
			c-4.1,6.5-6,9.8-9.4,16.4c-0.7-0.3-1-0.4-1.6-0.7c3.1-6.1,4.8-9.2,8.5-15.2c0,0.3,0,0.5,0,0.9c-1.3-0.6-2.7-0.9-4.2-0.8
			c-1.5,0.1-3,0.7-4.4,1.9c-1.2,1.1-2.1,2.3-2.6,3.7s-0.6,2.8-0.4,4.2c0.2,1.4,0.9,2.6,1.9,3.7c1,1,2.1,1.7,3.5,2.2
			c1.3,0.4,2.7,0.5,4.1,0.2c1.4-0.3,2.7-0.9,3.9-2c0.8-0.7,1.5-1.5,2-2.4s0.9-1.9,1.1-2.8c0.8,0.2,1.2,0.3,2,0.5
			c-0.3,1.1-0.8,2.3-1.4,3.4C159.2,24.4,158.4,25.4,157.5,26.2z"/>
	</g>
</g>
<script  type="text/javascript">
	<![CDATA[
document.querySelector(".emptyAI").addEventListener("click", function (evt) {
	document.querySelector(".handlerAI").classList.toggle("stars");
	document.querySelector(".borderAI").classList.toggle("whiteStroke");
	document.querySelector(".frontHandlerAI").classList.toggle("hideAfterClick");
}); 
document.querySelector(".emptyReact").addEventListener("click", function (evt) {
  document.querySelector(".handlerReact").classList.toggle("stars");
  document.querySelector(".borderReact").classList.toggle("whiteStroke");
  document.querySelector(".frontHandlerReact").classList.toggle("hideAfterClick");
}); 
document.querySelector(".emptyJs").addEventListener("click", function (evt) {
  document.querySelector(".handlerJs").classList.toggle("stars");
  document.querySelector(".borderJs").classList.toggle("whiteStroke");
  document.querySelector(".frontHandlerJs").classList.toggle("hideAfterClick");
}); 
document.querySelector(".emptyGit").addEventListener("click", function (evt) {
 document.querySelector(".handlerGit").classList.toggle("stars");
 document.querySelector(".borderGit").classList.toggle("whiteStroke");
  document.querySelector(".frontHandlerGit").classList.toggle("hideAfterClick");
}); 
document.querySelector(".emptyEng").addEventListener("click", function (evt) {
 document.querySelector(".handlerEng").classList.toggle("stars");
 document.querySelector(".borderEng").classList.toggle("whiteStroke");
  document.querySelector(".frontHandlerEng").classList.toggle("hideAfterClick");
}); 
document.querySelector(".emptyCss").addEventListener("click", function (evt) {
 document.querySelector(".handlerCss").classList.toggle("stars");
 document.querySelector(".borderCss").classList.toggle("whiteStroke");
  document.querySelector(".frontHandlerCss").classList.toggle("hideAfterClick");
}); 
document.querySelector(".emptyNode").addEventListener("click", function (evt) {
 document.querySelector(".handlerNode").classList.toggle("stars");
 document.querySelector(".borderNode").classList.toggle("whiteStroke");
  document.querySelector(".frontHandlerNode").classList.toggle("hideAfterClick");
}); 


		]]>
</script>
</svg>
