<?xml version="1.0" encoding="utf-8"?>
<svg version="1.1" id="Layer_1" xmlns="http://www.w3.org/2000/svg" xmlns:xlink="http://www.w3.org/1999/xlink" x="0px" y="0px"
	 viewBox="0 0 874 965" style="enable-background:new 0 0 874 965;" xml:space="preserve">
<style type="text/css">
	.st0{fill:#EFEFEF;}
	.st1{display:none;}
	.st2{display:inline;fill-rule:evenodd;clip-rule:evenodd;fill:#EFEFEF;}
	.st3{display:inline;fill-rule:evenodd;clip-rule:evenodd;fill:#3A3A3A;}
</style>
<g id="ENGLISH">
	<g id="ENGLISH_1_">
		<path class="st0" d="M345,737.1c-0.7,0.6-1.4,1.1-2.3,1.3c-0.8,0.2-1.7,0.2-2.5,0c-0.9-0.3-1.7-0.8-2.4-1.6
			c-0.8-0.8-1.3-1.7-1.5-2.6c-0.2-0.9-0.2-1.8,0.1-2.6c0.3-0.9,0.8-1.6,1.4-2.2c0.7-0.6,1.4-1,2.2-1.2s1.5-0.1,2.1,0.1l0.1,0.4
			L341,727l1.5-1.4l6.8,7.3l-1.6,1.5l-1.8-1.9l0.6,0.2c0.1,0.2,0.1,0.4,0.1,0.8s0,0.7-0.1,1.1c-0.1,0.4-0.2,0.9-0.5,1.3
			C345.8,736.3,345.5,736.7,345,737.1z M344.2,735.4c0.4-0.4,0.7-0.8,0.9-1.3s0.3-0.9,0.2-1.4c0-0.5-0.2-0.9-0.5-1.4l-1.3-1.4
			c-0.4-0.3-0.9-0.4-1.4-0.5c-0.5,0-1,0-1.4,0.2s-0.9,0.4-1.3,0.8c-0.4,0.4-0.7,0.9-0.9,1.4c-0.2,0.5-0.2,1.1,0,1.7s0.4,1.1,0.9,1.6
			c0.4,0.5,0.9,0.8,1.5,1c0.6,0.2,1.2,0.2,1.7,0.1C343.3,736.1,343.8,735.8,344.2,735.4z"/>
		<path class="st0" d="M355.5,728.2c-0.7,0.6-1.5,0.9-2.4,1c-0.9,0.1-1.7-0.1-2.5-0.4c-0.8-0.4-1.6-1-2.2-1.8
			c-0.7-0.9-1-1.8-1.1-2.7c-0.1-0.9,0-1.8,0.4-2.6c0.4-0.8,1-1.5,1.7-2.1c0.6-0.5,1.3-0.8,2.1-0.9c0.8-0.2,1.5-0.1,2.2,0.1l0.4,0.7
			l-6.6-8.7l1.8-1.3l11.2,14.8l-1.8,1.3l-1.5-2l0.6,0.3c0,0.8-0.2,1.5-0.6,2.3S356.2,727.7,355.5,728.2z M354.9,726.3
			c0.5-0.4,0.8-0.8,1.1-1.2c0.2-0.5,0.4-0.9,0.4-1.4s-0.1-1-0.3-1.5l-1.1-1.5c-0.4-0.3-0.8-0.5-1.3-0.6c-0.5-0.1-1-0.1-1.5,0
			s-1,0.3-1.4,0.7c-0.5,0.4-0.8,0.8-1.1,1.3s-0.3,1.1-0.3,1.7c0.1,0.6,0.3,1.2,0.7,1.7c0.4,0.5,0.9,0.9,1.4,1.1
			c0.6,0.2,1.1,0.3,1.7,0.3C353.9,726.9,354.4,726.7,354.9,726.3z"/>
		<path class="st0" d="M367.1,720.4l-10-5.9l2.3-1.4l7.3,4.8l-1.2,0.6l-1.1-8.5l2.1-1.3l0.7,11.5L367.1,720.4z"/>
		<path class="st0" d="M377.4,714.7c-0.8,0.4-1.7,0.6-2.5,0.5s-1.7-0.3-2.4-0.8s-1.3-1.3-1.8-2.3c-0.5-1-0.7-2-0.6-2.9
			c0.1-0.9,0.4-1.7,0.9-2.5c0.5-0.7,1.2-1.3,2-1.7c0.8-0.4,1.6-0.5,2.4-0.4s1.4,0.4,2,0.7l0,0.4l-0.7-2l1.9-0.9l4.3,9l-2,1l-1.1-2.3
			l0.5,0.4c0,0.2-0.1,0.4-0.1,0.7s-0.2,0.7-0.4,1c-0.2,0.4-0.5,0.7-0.8,1.1C378.3,714.2,377.9,714.5,377.4,714.7z M377.1,712.8
			c0.5-0.2,0.9-0.5,1.2-0.9c0.3-0.4,0.5-0.8,0.6-1.3s0.1-1,0-1.5l-0.8-1.8c-0.3-0.4-0.7-0.7-1.1-0.9c-0.4-0.2-0.9-0.3-1.4-0.3
			c-0.5,0-1,0.1-1.5,0.4c-0.5,0.3-1,0.6-1.3,1.1s-0.5,1-0.6,1.6c0,0.6,0.1,1.2,0.4,1.8c0.3,0.6,0.7,1,1.2,1.4s1,0.5,1.6,0.6
			C376,713.2,376.6,713.1,377.1,712.8z"/>
		<path class="st0" d="M384.8,700.5l1,2.2l-0.2-0.3c0-0.8,0.3-1.5,0.9-2.2c0.5-0.7,1.3-1.1,2.2-1.5c0.9-0.3,1.7-0.3,2.4,0
			c0.7,0.3,1.3,0.9,1.6,1.7l2.4,6.9l-2.1,0.7l-2.2-6.2c-0.2-0.5-0.5-0.9-0.9-1.1c-0.4-0.2-0.9-0.2-1.5,0c-0.5,0.2-1,0.5-1.3,1
			c-0.3,0.5-0.5,1-0.6,1.6c-0.1,0.6,0,1.3,0.3,2l1.5,4.4l-2.1,0.7l-3.3-9.4L384.8,700.5z"/>
		<path class="st0" d="M406.2,703.6c-0.3,0.5-0.8,0.9-1.4,1.2c-0.6,0.4-1.1,0.6-1.7,0.8c-1,0.3-2,0.3-2.9,0.1
			c-0.9-0.2-1.7-0.7-2.3-1.3c-0.6-0.6-1.1-1.5-1.3-2.5s-0.2-2,0.1-2.8s0.8-1.6,1.4-2.2s1.5-1,2.4-1.2c0.8-0.2,1.5-0.3,2.1-0.2
			s1.3,0.2,1.8,0.5l-0.8,1.7c-0.3-0.1-0.7-0.2-1.2-0.3s-0.9-0.1-1.4,0.1c-0.6,0.1-1.1,0.4-1.5,0.8s-0.7,0.9-0.8,1.4
			c-0.2,0.6-0.1,1.1,0,1.8c0.1,0.6,0.4,1.1,0.8,1.6c0.4,0.4,0.9,0.7,1.5,0.9s1.2,0.2,1.8,0c0.4-0.1,0.8-0.3,1.1-0.5
			c0.3-0.2,0.6-0.5,0.8-0.7L406.2,703.6z"/>
		<path class="st0" d="M413.6,703.6c-1.1,0.2-2.1,0.1-3-0.2c-0.9-0.3-1.6-0.8-2.2-1.6c-0.6-0.7-0.9-1.6-1.1-2.6
			c-0.1-1,0-1.9,0.3-2.7c0.4-0.9,0.9-1.6,1.7-2.2c0.8-0.6,1.6-1,2.6-1.1c1.3-0.2,2.4,0,3.4,0.6c1,0.6,1.7,1.6,2.2,2.9l-7.7,4.1
			l-0.7-1.2l6.2-3.5l-0.4,0.4c-0.3-0.5-0.7-0.9-1.2-1.2s-1.1-0.4-1.8-0.3c-0.6,0.1-1.1,0.3-1.5,0.7c-0.4,0.4-0.7,0.8-0.9,1.3
			c-0.2,0.5-0.2,1.1-0.1,1.8c0.1,0.7,0.3,1.2,0.7,1.7c0.4,0.5,0.8,0.8,1.3,1s1.1,0.3,1.8,0.2c0.4-0.1,0.8-0.2,1.2-0.4
			c0.4-0.2,0.7-0.5,1.1-0.8l1.2,1.5c-0.4,0.4-0.9,0.8-1.5,1.1C414.8,703.3,414.2,703.5,413.6,703.6z"/>
		<path class="st0" d="M425.3,702.4c-0.9,0-1.8-0.1-2.5-0.5c-0.8-0.4-1.4-1-1.9-1.8c-0.5-0.8-0.7-1.7-0.8-2.8
			c-0.1-1.1,0.1-2.1,0.6-2.9c0.4-0.8,1-1.4,1.8-1.9s1.6-0.7,2.6-0.8c0.8,0,1.5,0.1,2.3,0.4c0.7,0.3,1.3,0.7,1.7,1.3l-0.1,0.8
			l-0.5-10.9l2.2-0.1l0.9,18.6l-2.2,0.1l-0.1-2.5l0.3,0.6c-0.4,0.6-1,1.2-1.8,1.6S426.2,702.3,425.3,702.4z M425.9,700.4
			c0.6,0,1.1-0.2,1.6-0.4c0.4-0.2,0.8-0.6,1.1-1c0.3-0.4,0.5-0.8,0.6-1.4l-0.1-1.9c-0.2-0.5-0.4-0.9-0.7-1.2
			c-0.3-0.4-0.8-0.6-1.2-0.8c-0.5-0.2-1-0.3-1.5-0.2c-0.6,0-1.1,0.2-1.6,0.5c-0.5,0.3-0.9,0.7-1.2,1.3c-0.3,0.5-0.4,1.1-0.4,1.8
			c0,0.7,0.2,1.2,0.5,1.7c0.3,0.5,0.8,0.9,1.3,1.2C424.7,700.3,425.3,700.5,425.9,700.4z"/>
	</g>
</g>
</svg>
