<?xml version="1.0" encoding="utf-8"?>
<svg version="1.1" id="Layer_1" xmlns="http://www.w3.org/2000/svg" xmlns:xlink="http://www.w3.org/1999/xlink" x="0px" y="0px"
	 viewBox="0 0 874 965" style="enable-background:new 0 0 874 965;" xml:space="preserve">
<style type="text/css">
	.st0{fill:#EFEFEF;}
	.st1{display:none;}
	.st2{display:inline;fill-rule:evenodd;clip-rule:evenodd;fill:#EFEFEF;}
	.st3{display:inline;fill-rule:evenodd;clip-rule:evenodd;fill:#3A3A3A;}
</style>
<g id="git">
		<path class="st0" d="M726.5,178c-0.7,0.1-1.5,0-2.2-0.2c-0.7-0.3-1.3-0.6-1.8-1.2l0-0.7l1,7.1l-2.2,0.3l-2.1-14.7l1.9-0.3l0.7,2.5
			l-0.3-0.7c0.4-0.7,0.9-1.3,1.6-1.7c0.7-0.5,1.5-0.8,2.4-0.9c0.9-0.1,1.8,0,2.6,0.3c0.8,0.3,1.5,0.9,2,1.6c0.5,0.7,0.9,1.6,1,2.7
			c0.1,1,0,2-0.3,2.8c-0.3,0.8-0.9,1.5-1.6,2.1S727.5,177.9,726.5,178z M725.8,176.3c0.6-0.1,1.2-0.3,1.7-0.7
			c0.5-0.4,0.8-0.8,1.1-1.4c0.3-0.6,0.3-1.2,0.2-1.8c-0.1-0.7-0.3-1.2-0.7-1.7c-0.4-0.5-0.8-0.8-1.4-1c-0.5-0.2-1.1-0.3-1.7-0.2
			c-0.6,0.1-1.1,0.3-1.5,0.5s-0.8,0.6-1,1.1s-0.4,0.9-0.4,1.4l0.2,1.7c0.1,0.5,0.4,0.9,0.8,1.2c0.4,0.4,0.8,0.6,1.3,0.8
			C724.8,176.3,725.3,176.4,725.8,176.3z"/>
		<path class="st0" d="M739.2,176.9c-1.1,0-2.1-0.1-3-0.6c-0.8-0.4-1.5-1-2-1.8c-0.5-0.8-0.7-1.7-0.8-2.7c0-1,0.2-1.9,0.6-2.7
			c0.5-0.8,1.1-1.5,1.9-2s1.7-0.8,2.8-0.8c1.3-0.1,2.4,0.3,3.3,1c0.9,0.7,1.5,1.8,1.9,3.1l-8.1,3.2l-0.6-1.3l6.6-2.7l-0.4,0.4
			c-0.2-0.5-0.6-1-1-1.3c-0.5-0.4-1.1-0.5-1.8-0.5c-0.6,0-1.1,0.2-1.6,0.5c-0.5,0.3-0.8,0.7-1.1,1.2c-0.3,0.5-0.4,1.1-0.3,1.8
			s0.2,1.3,0.5,1.8c0.3,0.5,0.7,0.9,1.2,1.2c0.5,0.3,1.1,0.4,1.7,0.4c0.4,0,0.8-0.1,1.2-0.3c0.4-0.2,0.8-0.4,1.1-0.7l1.1,1.6
			c-0.5,0.4-1,0.6-1.6,0.9C740.4,176.8,739.8,176.9,739.2,176.9z"/>
		<path class="st0" d="M749.3,166.7l0.1,2.9l-0.1-0.4c0.3-0.6,0.7-1.1,1.2-1.5c0.5-0.4,1-0.7,1.6-0.9c0.6-0.2,1-0.3,1.4-0.3
			l-0.2,2.3c-0.8-0.1-1.4,0-2,0.3c-0.6,0.3-1,0.7-1.4,1.3c-0.4,0.5-0.5,1.1-0.6,1.8l-0.2,4.5l-2.2-0.1l0.4-9.9L749.3,166.7z"/>
		<path class="st0" d="M758.5,177.6c-0.7-0.1-1.4-0.3-2-0.6c-0.6-0.3-1.1-0.8-1.5-1.3l1.1-1.2c0.4,0.4,0.8,0.8,1.2,1
			c0.4,0.2,0.8,0.4,1.3,0.4c0.3,0,0.6,0,0.9,0c0.3,0,0.5-0.2,0.7-0.3s0.3-0.4,0.3-0.7c0-0.4,0-0.7-0.3-0.9c-0.2-0.2-0.5-0.4-0.8-0.6
			c-0.3-0.2-0.7-0.3-1.1-0.5c-0.8-0.4-1.4-0.8-1.7-1.3c-0.4-0.5-0.5-1.1-0.4-1.8c0.1-0.5,0.2-1,0.6-1.4c0.3-0.4,0.7-0.8,1.3-1
			c0.6-0.2,1.2-0.3,2-0.2c0.7,0.1,1.3,0.2,1.8,0.5c0.5,0.2,1,0.6,1.4,1l-1,1.3c-0.3-0.3-0.6-0.6-0.9-0.8c-0.4-0.2-0.7-0.3-1-0.3
			c-0.3,0-0.6,0-0.8,0c-0.3,0.1-0.5,0.2-0.6,0.3c-0.2,0.1-0.3,0.4-0.3,0.6c-0.1,0.3,0,0.6,0.2,0.8c0.2,0.2,0.5,0.4,0.8,0.6
			c0.3,0.2,0.7,0.3,1,0.5c0.5,0.2,0.9,0.4,1.2,0.7c0.4,0.3,0.6,0.6,0.8,1c0.2,0.4,0.3,0.8,0.2,1.4c-0.1,0.6-0.3,1.1-0.6,1.6
			c-0.3,0.5-0.8,0.8-1.4,1C760.1,177.6,759.4,177.7,758.5,177.6z"/>
		<path class="st0" d="M765.4,173.1c0.2-1,0.6-1.8,1.2-2.5c0.6-0.7,1.4-1.2,2.3-1.5c0.9-0.3,1.9-0.3,2.9-0.1c1,0.2,1.9,0.6,2.6,1.2
			c0.7,0.6,1.2,1.4,1.5,2.2c0.3,0.9,0.3,1.8,0.1,2.8c-0.2,1-0.6,1.8-1.2,2.5c-0.6,0.7-1.4,1.2-2.3,1.5c-0.9,0.3-1.9,0.3-2.9,0.1
			c-1.1-0.2-1.9-0.6-2.7-1.2c-0.7-0.6-1.2-1.3-1.5-2.2C765.2,175.1,765.2,174.2,765.4,173.1z M767.6,173.6c-0.1,0.6-0.1,1.2,0.1,1.8
			c0.2,0.6,0.5,1,0.9,1.4c0.4,0.4,0.9,0.7,1.5,0.8c0.6,0.1,1.2,0.1,1.7-0.1c0.5-0.2,1-0.5,1.4-1c0.4-0.5,0.6-1,0.8-1.6
			c0.1-0.6,0.1-1.2-0.1-1.8c-0.2-0.6-0.5-1-0.9-1.5c-0.4-0.4-0.9-0.7-1.5-0.8c-0.6-0.1-1.2-0.1-1.7,0.1c-0.5,0.2-1,0.6-1.4,1
			S767.7,173,767.6,173.6z"/>
		<path class="st0" d="M782.7,172.1l-0.6,2.4l0-0.4c0.5-0.6,1.2-1,2-1.2c0.8-0.2,1.7-0.2,2.6,0.1c0.9,0.3,1.5,0.8,1.9,1.5
			c0.4,0.7,0.5,1.5,0.2,2.3l-2.2,7l-2.2-0.7l2-6.3c0.1-0.5,0.1-1-0.1-1.4c-0.2-0.4-0.6-0.7-1.2-0.9c-0.5-0.2-1.1-0.2-1.6,0
			s-1,0.5-1.4,0.9c-0.4,0.5-0.7,1-1,1.7l-1.4,4.4l-2.2-0.7l3-9.5L782.7,172.1z"/>
		<path class="st0" d="M793.9,186.9c-0.9-0.4-1.5-0.9-2.1-1.6c-0.5-0.7-0.9-1.4-1-2.3c-0.1-0.9,0.1-1.8,0.5-2.9s1-1.8,1.8-2.4
			c0.7-0.5,1.6-0.9,2.5-0.9c0.9-0.1,1.8,0.1,2.6,0.4c0.9,0.4,1.5,0.9,1.9,1.5c0.4,0.6,0.7,1.3,0.7,2l-0.3,0.3l1-1.8l1.9,0.8l-4,9.1
			l-2-0.9l1-2.4l0,0.6c-0.1,0.1-0.4,0.2-0.7,0.4c-0.3,0.1-0.7,0.3-1.1,0.4c-0.4,0.1-0.9,0.1-1.4,0.1
			C795,187.3,794.5,187.2,793.9,186.9z M795.2,185.5c0.5,0.2,1,0.3,1.5,0.3c0.5,0,1-0.1,1.4-0.4c0.4-0.2,0.8-0.6,1.1-1l0.8-1.8
			c0.1-0.5,0-1-0.1-1.4c-0.2-0.5-0.4-0.9-0.7-1.2c-0.3-0.4-0.7-0.6-1.2-0.9c-0.6-0.2-1.1-0.3-1.7-0.3c-0.6,0.1-1.1,0.3-1.6,0.6
			c-0.5,0.4-0.9,0.8-1.1,1.5c-0.3,0.6-0.3,1.2-0.3,1.8s0.3,1.1,0.6,1.6C794.2,184.9,794.7,185.2,795.2,185.5z"/>
		<path class="st0" d="M811.6,174.5l2,1.1l-8.7,16.4l-2-1.1L811.6,174.5z"/>
		<path class="st0" d="M816.8,199.8c-0.8-0.5-1.2-1.2-1.4-2c-0.2-0.8,0-1.6,0.5-2.3l4.3-6l1.8,1.3l-3.8,5.3
			c-0.3,0.4-0.4,0.9-0.4,1.3c0,0.4,0.3,0.9,0.8,1.2c0.4,0.3,0.9,0.5,1.5,0.5s1.1-0.2,1.7-0.5c0.6-0.3,1-0.7,1.5-1.3l2.7-3.8l1.8,1.3
			L822,203l-1.7-1.2l1.3-2.1l-0.1,0.5c-0.4,0.2-0.9,0.4-1.4,0.5c-0.5,0.1-1.1,0-1.6-0.1C817.9,200.4,817.3,200.1,816.8,199.8z"/>
		<path class="st0" d="M826.9,207.3c-0.5-0.5-1-1-1.3-1.6c-0.3-0.6-0.5-1.3-0.5-1.9l1.6-0.4c0.1,0.6,0.2,1.1,0.4,1.5
			c0.2,0.4,0.5,0.8,0.8,1.1c0.2,0.2,0.5,0.4,0.8,0.5c0.3,0.1,0.5,0.2,0.8,0.1c0.3,0,0.5-0.2,0.7-0.4c0.2-0.3,0.3-0.6,0.3-0.9
			c0-0.3-0.2-0.6-0.3-0.9c-0.2-0.3-0.4-0.7-0.6-1c-0.4-0.7-0.7-1.4-0.7-2.1c0-0.6,0.2-1.2,0.6-1.8c0.3-0.4,0.8-0.7,1.3-0.9
			c0.5-0.2,1-0.2,1.6-0.1s1.2,0.4,1.7,0.9c0.5,0.4,0.9,0.9,1.2,1.4c0.3,0.5,0.5,1,0.6,1.6l-1.6,0.5c0-0.4-0.1-0.8-0.3-1.2
			s-0.4-0.7-0.7-0.9c-0.2-0.2-0.5-0.3-0.7-0.4c-0.2-0.1-0.5-0.1-0.7-0.1c-0.2,0-0.4,0.1-0.6,0.3c-0.2,0.2-0.3,0.5-0.3,0.8
			s0.2,0.6,0.3,0.9c0.2,0.3,0.4,0.7,0.6,1c0.3,0.4,0.5,0.8,0.6,1.3c0.1,0.4,0.2,0.9,0.1,1.3c-0.1,0.4-0.3,0.8-0.6,1.2
			c-0.4,0.4-0.8,0.8-1.4,1c-0.5,0.2-1.1,0.2-1.7,0.1C828.2,208.2,827.5,207.9,826.9,207.3z"/>
		<path class="st0" d="M834.8,214.8c-0.6-0.7-1.1-1.4-1.3-2.2c-0.2-0.8-0.2-1.7,0-2.5c0.2-0.9,0.8-1.7,1.6-2.5
			c0.8-0.8,1.7-1.3,2.5-1.5c0.9-0.2,1.8-0.2,2.6,0.1c0.9,0.3,1.6,0.7,2.3,1.4c0.6,0.7,1,1.4,1.2,2.1c0.1,0.8,0.1,1.5-0.1,2.1
			l-0.4,0.1l1.6-1.3l1.4,1.5l-7.1,6.9l-1.6-1.6l1.9-1.8l-0.2,0.6c-0.2,0.1-0.4,0.1-0.8,0.1c-0.3,0-0.7,0-1.1-0.1
			c-0.4-0.1-0.9-0.2-1.3-0.4S835.2,215.2,834.8,214.8z M836.5,213.9c0.4,0.4,0.8,0.7,1.3,0.9c0.5,0.2,0.9,0.2,1.4,0.2
			s0.9-0.2,1.4-0.5l1.4-1.4c0.3-0.4,0.4-0.9,0.4-1.4c0-0.5,0-1-0.2-1.4c-0.2-0.5-0.4-0.9-0.8-1.3c-0.4-0.4-0.9-0.7-1.5-0.9
			c-0.6-0.2-1.1-0.2-1.7,0c-0.6,0.1-1.1,0.5-1.6,0.9c-0.5,0.4-0.8,1-0.9,1.5c-0.2,0.6-0.2,1.2,0,1.7S836.1,213.5,836.5,213.9z"/>
		<path class="st0" d="M840.7,228.5c-0.5-0.6-0.8-1.1-1-1.7c-0.2-0.6-0.3-1.1-0.4-1.7s-0.1-1.1,0-1.7l2,0.1c-0.1,0.7,0,1.4,0.1,2
			c0.1,0.6,0.4,1.2,0.8,1.7c0.5,0.6,1,1,1.5,1.3c0.5,0.3,1,0.4,1.5,0.3c0.5-0.1,1-0.3,1.4-0.6l2.1-1.6l-0.2,0.4
			c-0.7,0.2-1.5,0.1-2.3-0.2c-0.8-0.3-1.6-0.9-2.2-1.7c-0.6-0.7-0.9-1.5-1-2.4c-0.1-0.9,0-1.8,0.3-2.6c0.3-0.9,0.9-1.6,1.7-2.2
			c0.8-0.6,1.7-1,2.6-1.1c0.9-0.1,1.8,0,2.7,0.3c0.8,0.3,1.6,0.9,2.1,1.6c0.5,0.7,0.9,1.4,1.1,2.2c0.2,0.8,0.1,1.5-0.1,2.1l-0.4,0.1
			l1.6-1l1.3,1.6L848,230c-0.7,0.6-1.5,0.9-2.3,1s-1.7-0.1-2.6-0.5C842.2,230.1,841.4,229.4,840.7,228.5z M846.5,219.6
			c-0.5,0.4-0.9,0.9-1.1,1.4c-0.2,0.6-0.3,1.2-0.2,1.8c0.1,0.6,0.3,1.1,0.7,1.6c0.4,0.5,0.8,0.8,1.2,1.1c0.5,0.2,0.9,0.4,1.4,0.4
			c0.5,0,1-0.1,1.4-0.3l1.6-1.2c0.3-0.4,0.5-0.9,0.5-1.3c0.1-0.5,0-1-0.1-1.5s-0.4-1-0.7-1.4c-0.4-0.5-0.9-0.9-1.4-1.1
			s-1.1-0.3-1.7-0.2C847.5,219,847,219.2,846.5,219.6z"/>
		<path class="st0" d="M852.4,237c-0.6-1-0.9-1.9-1-2.8s0.1-1.8,0.6-2.6c0.4-0.8,1.1-1.5,2-2c0.8-0.5,1.7-0.8,2.7-0.8
			c0.9,0,1.8,0.2,2.7,0.7s1.5,1.1,2.1,2c0.7,1.1,1,2.2,0.8,3.4c-0.2,1.1-0.8,2.2-1.7,3.2l-6.8-5.4l0.8-1.1l5.7,4.4l-0.5-0.2
			c0.3-0.4,0.6-1,0.6-1.5s-0.1-1.2-0.4-1.8c-0.3-0.5-0.7-0.9-1.2-1.1s-1-0.4-1.6-0.3c-0.6,0-1.1,0.2-1.7,0.6s-1,0.8-1.3,1.3
			c-0.3,0.5-0.4,1.1-0.4,1.7c0,0.6,0.2,1.1,0.5,1.7c0.2,0.4,0.5,0.7,0.9,0.9c0.4,0.3,0.7,0.5,1.1,0.7l-0.9,1.7
			c-0.5-0.2-1.1-0.6-1.6-1C853.1,238,852.7,237.5,852.4,237z"/>
	</g>
</svg>
