<?xml version="1.0" encoding="utf-8"?>
<svg version="1.1" id="Layer_1" xmlns="http://www.w3.org/2000/svg" xmlns:xlink="http://www.w3.org/1999/xlink" x="0px" y="0px"
	 viewBox="0 0 874 965" style="enable-background:new 0 0 874 965;" xml:space="preserve">
<style type="text/css">
	.st0{fill:#EFEFEF;}
	.st1{display:none;}
	.st2{display:inline;fill-rule:evenodd;clip-rule:evenodd;fill:#EFEFEF;}
	.st3{display:inline;fill-rule:evenodd;clip-rule:evenodd;fill:#3A3A3A;}
</style>
<g id="react_1_">
		<path class="st0" d="M334.8,225.7l-1.5-1.6l13.6-12.7l1.5,1.6L334.8,225.7z"/>
		<path class="st0" d="M341.5,204.9c0.7,0.9,1.2,1.8,1.3,2.7c0.2,0.9,0.1,1.8-0.3,2.7c-0.3,0.8-0.9,1.6-1.7,2.2
			c-0.8,0.6-1.6,1-2.5,1.1c-0.9,0.1-1.9,0-2.8-0.3c-0.9-0.3-1.7-0.9-2.3-1.7c-0.8-1-1.2-2.1-1.2-3.3c0.1-1.2,0.5-2.3,1.3-3.4
			l7.4,4.6l-0.7,1.2L334,207l0.5,0.1c-0.3,0.5-0.4,1-0.5,1.6c0,0.6,0.2,1.2,0.7,1.7c0.4,0.5,0.8,0.8,1.4,1c0.5,0.2,1.1,0.2,1.6,0.1
			c0.6-0.1,1.1-0.4,1.6-0.8c0.5-0.4,0.9-0.9,1.1-1.5c0.2-0.5,0.3-1.1,0.2-1.7c-0.1-0.6-0.3-1.1-0.7-1.6c-0.3-0.3-0.6-0.6-1-0.8
			s-0.8-0.4-1.2-0.5l0.6-1.8c0.6,0.2,1.1,0.4,1.7,0.8C340.7,204,341.1,204.4,341.5,204.9z"/>
		<path class="st0" d="M334.6,195.4c0.5,0.8,0.8,1.6,0.9,2.4c0.1,0.9-0.1,1.7-0.5,2.5c-0.4,0.8-1.1,1.5-2,2.1
			c-0.9,0.6-1.9,0.9-2.8,1c-0.9,0-1.8-0.1-2.6-0.6c-0.8-0.4-1.4-1-1.9-1.8c-0.5-0.8-0.8-1.6-0.8-2.3c0-0.8,0.2-1.5,0.5-2l0.4-0.1
			l-1.9,1l-1.1-1.7l8.3-5.4l1.2,1.9l-2.2,1.4l0.3-0.5c0.2,0,0.4,0,0.8,0c0.3,0.1,0.7,0.2,1.1,0.3c0.4,0.1,0.8,0.4,1.2,0.7
			C333.9,194.5,334.2,194.9,334.6,195.4z M332.7,195.9c-0.3-0.5-0.7-0.8-1.1-1.1c-0.4-0.3-0.9-0.4-1.4-0.4c-0.5,0-1,0-1.5,0.2
			l-1.6,1.1c-0.3,0.4-0.6,0.8-0.7,1.3s-0.1,0.9-0.1,1.4c0.1,0.5,0.3,0.9,0.6,1.4c0.3,0.5,0.8,0.9,1.3,1.1s1.1,0.4,1.7,0.3
			c0.6,0,1.2-0.2,1.7-0.6c0.5-0.4,0.9-0.8,1.2-1.3c0.3-0.5,0.4-1.1,0.4-1.7C333.2,197,333,196.4,332.7,195.9z"/>
		<path class="st0" d="M319.5,190.1l2.4-1.5l-0.3,0.3c-0.6,0.1-1.3,0-1.9-0.3c-0.6-0.2-1.1-0.5-1.6-0.9c-0.5-0.4-0.8-0.7-1-1.1l2-1
			c0.3,0.7,0.7,1.2,1.3,1.6s1.2,0.5,1.8,0.6c0.6,0,1.2-0.1,1.8-0.4l4-2.1l1,2l-8.8,4.7L319.5,190.1z"/>
		<path class="st0" d="M315.2,181.4l2.2-1.1l-0.3,0.2c-0.8,0-1.5-0.2-2.2-0.7s-1.2-1.2-1.6-2.1c-0.4-0.9-0.4-1.7-0.1-2.4
			s0.8-1.3,1.6-1.7l6.8-2.9l0.9,2.1l-6,2.6c-0.5,0.2-0.8,0.5-1,0.9c-0.2,0.4-0.2,0.9,0.1,1.5c0.2,0.5,0.6,0.9,1,1.2
			c0.5,0.3,1,0.5,1.6,0.5c0.6,0,1.3-0.1,1.9-0.4l4.3-1.8l0.9,2.1l-9.1,3.9L315.2,181.4z"/>
		<path class="st0" d="M307.5,171.7c-0.3,0.1-0.7,0.1-1-0.1c-0.3-0.2-0.5-0.4-0.6-0.8c-0.1-0.3-0.1-0.6,0-1c0.1-0.3,0.4-0.6,0.7-0.7
			c0.3-0.1,0.7-0.1,1,0.1c0.3,0.2,0.5,0.4,0.6,0.8c0.1,0.3,0.1,0.6,0,1C308.1,171.4,307.8,171.6,307.5,171.7z M310.9,170.4l-0.7-2.1
			l9.4-3.2l0.7,2.1L310.9,170.4z"/>
		<path class="st0" d="M308.2,162.1l2.3-0.8l-0.4,0.2c-0.8-0.1-1.5-0.5-2.1-1c-0.6-0.6-1-1.3-1.3-2.3c-0.2-0.9-0.2-1.7,0.2-2.4
			s1-1.2,1.8-1.4l7.1-1.8l0.6,2.2l-6.4,1.6c-0.5,0.1-0.9,0.4-1.1,0.8c-0.3,0.4-0.3,0.9-0.2,1.5c0.1,0.5,0.4,1,0.9,1.4
			c0.4,0.4,0.9,0.6,1.6,0.7c0.6,0.1,1.3,0.1,2-0.1l4.5-1.2l0.6,2.2l-9.6,2.5L308.2,162.1z"/>
		<path class="st0" d="M319.4,143.4c0.1,0.7,0.1,1.4,0,2c-0.1,0.6-0.3,1.1-0.5,1.6c-0.2,0.5-0.5,1-0.8,1.5l-1.7-1.1
			c0.4-0.6,0.7-1.2,0.9-1.8c0.2-0.6,0.2-1.2,0.1-1.9c-0.1-0.7-0.3-1.4-0.6-1.8s-0.7-0.8-1.2-1c-0.5-0.2-1-0.3-1.6-0.2l-2.7,0.4
			l0.4-0.3c0.7,0.2,1.4,0.6,2,1.3c0.6,0.7,0.9,1.5,1.1,2.6c0.1,0.9,0,1.7-0.3,2.6c-0.3,0.8-0.9,1.5-1.6,2.1
			c-0.7,0.6-1.6,0.9-2.5,1.1c-1,0.2-2,0.1-2.8-0.3c-0.9-0.4-1.6-0.9-2.1-1.6c-0.6-0.7-0.9-1.5-1.1-2.5c-0.1-0.9-0.1-1.7,0.2-2.5
			c0.2-0.8,0.6-1.4,1.1-1.8l0.4,0.1l-1.9,0.1l-0.3-2l9.9-1.5c0.9-0.1,1.7,0,2.5,0.3s1.5,0.9,2,1.7
			C318.9,141.3,319.2,142.3,319.4,143.4z M310,148.3c0.6-0.1,1.2-0.3,1.7-0.7c0.5-0.4,0.8-0.9,1.1-1.4c0.2-0.6,0.3-1.1,0.2-1.8
			c-0.1-0.6-0.3-1.1-0.6-1.5c-0.3-0.4-0.6-0.8-1.1-1c-0.4-0.3-0.9-0.4-1.4-0.5l-2,0.3c-0.5,0.2-0.8,0.5-1.1,0.9
			c-0.3,0.4-0.5,0.8-0.7,1.3c-0.1,0.5-0.2,1-0.1,1.6c0.1,0.6,0.3,1.2,0.7,1.6c0.4,0.5,0.8,0.8,1.4,1.1
			C308.7,148.3,309.4,148.4,310,148.3z"/>
		<path class="st0" d="M313.3,122.8c0,1.1-0.3,2.1-0.7,2.9c-0.5,0.8-1.1,1.4-1.9,1.9s-1.7,0.6-2.7,0.6c-1,0-1.9-0.3-2.7-0.8
			s-1.4-1.2-1.9-2c-0.5-0.8-0.7-1.8-0.7-2.8c0-1.3,0.4-2.4,1.2-3.2s1.8-1.4,3.2-1.7l2.8,8.2l-1.3,0.5l-2.4-6.7l0.3,0.5
			c-0.5,0.2-1,0.5-1.4,0.9c-0.4,0.4-0.6,1-0.6,1.7c0,0.6,0.1,1.1,0.4,1.6s0.7,0.9,1.2,1.1c0.5,0.3,1.1,0.4,1.8,0.4s1.3-0.1,1.8-0.4
			c0.5-0.3,0.9-0.7,1.3-1.2s0.5-1.1,0.5-1.7c0-0.4-0.1-0.9-0.2-1.3s-0.4-0.8-0.6-1.2l1.7-1c0.3,0.5,0.6,1.1,0.8,1.7
			C313.2,121.6,313.3,122.2,313.3,122.8z"/>
		<path class="st0" d="M314.1,111.1l-10.8,4.4l0.3-2.6l8.2-2.9l-0.2,1.4l-7.4-4.2l0.3-2.5l9.6,6.4L314.1,111.1z"/>
		<path class="st0" d="M315.9,99c-0.2,1.1-0.6,2-1.3,2.7s-1.3,1.2-2.2,1.5c-0.9,0.3-1.8,0.3-2.8,0.1c-1-0.2-1.8-0.6-2.5-1.3
			c-0.7-0.7-1.2-1.4-1.5-2.3c-0.3-0.9-0.4-1.9-0.2-2.9c0.3-1.3,0.9-2.3,1.8-3s2.1-1.1,3.5-1.1l1.2,8.6l-1.4,0.3l-1.1-7.1l0.2,0.5
			c-0.6,0.1-1.1,0.3-1.5,0.7c-0.5,0.4-0.8,0.9-0.9,1.6c-0.1,0.6-0.1,1.2,0.1,1.7c0.2,0.5,0.5,1,0.9,1.3c0.4,0.4,1,0.6,1.6,0.7
			c0.7,0.1,1.3,0.1,1.8-0.1c0.6-0.2,1.1-0.5,1.4-0.9c0.4-0.4,0.6-1,0.8-1.6c0.1-0.4,0.1-0.9,0-1.3s-0.2-0.9-0.4-1.3l1.8-0.7
			c0.2,0.6,0.4,1.2,0.5,1.8C316,97.8,316,98.5,315.9,99z"/>
		<path class="st0" d="M308.4,86.8l2.8,0.6l-0.4,0c-0.5-0.4-0.9-0.9-1.2-1.5c-0.3-0.6-0.5-1.2-0.5-1.7c-0.1-0.6,0-1.1,0-1.4l2.1,0.7
			c-0.3,0.7-0.3,1.4-0.2,2s0.5,1.2,0.9,1.7c0.4,0.5,1,0.8,1.6,1l4.4,1.3l-0.6,2.1l-9.5-2.8L308.4,86.8z"/>
		<path class="st0" d="M321.2,79.9l-11.1,0.9l0.9-2.4l9.7-0.6L321.2,79.9z M324.7,83.9l-11.4-11.3l0.7-1.9l11.5,11.2L324.7,83.9z"/>
		<path class="st0" d="M326.2,68.6c-0.4,0.8-1,1.5-1.7,1.9c-0.7,0.5-1.5,0.7-2.5,0.7c-0.9,0-1.9-0.2-2.8-0.7c-1-0.5-1.7-1.1-2.2-1.9
			c-0.5-0.8-0.8-1.6-0.8-2.5s0.2-1.8,0.6-2.6c0.4-0.7,0.8-1.3,1.5-1.8c0.6-0.5,1.3-0.8,2-0.9l0.7,0.5l-9.8-4.9l1-2l16.6,8.3l-1,2
			l-2.2-1.1l0.7,0c0.3,0.7,0.5,1.5,0.5,2.3S326.7,67.8,326.2,68.6z M324.9,67.2c0.3-0.5,0.4-1,0.4-1.6c0-0.5-0.1-1-0.3-1.4
			s-0.5-0.8-0.9-1.2l-1.7-0.8c-0.5-0.1-1-0.1-1.4,0c-0.5,0.1-0.9,0.4-1.3,0.7c-0.4,0.3-0.7,0.7-1,1.2c-0.3,0.5-0.4,1.1-0.4,1.7
			c0,0.6,0.2,1.1,0.5,1.6c0.3,0.5,0.8,0.9,1.4,1.2c0.6,0.3,1.2,0.4,1.8,0.4c0.6,0,1.2-0.2,1.7-0.5C324.2,68.1,324.6,67.7,324.9,67.2
			z"/>
		<path class="st0" d="M333.1,56.4c-0.5,0.8-1.1,1.4-1.9,1.8c-0.7,0.4-1.6,0.6-2.5,0.6s-1.8-0.4-2.8-1c-0.9-0.6-1.6-1.3-2-2.1
			c-0.4-0.8-0.6-1.7-0.5-2.6s0.3-1.7,0.8-2.5c0.5-0.8,1.1-1.3,1.8-1.6c0.7-0.3,1.4-0.4,2-0.4l0.2,0.3l-1.6-1.3l1.1-1.7l8.3,5.4
			L335,53l-2.2-1.4l0.6,0.1c0.1,0.2,0.2,0.4,0.3,0.7c0.1,0.3,0.1,0.7,0.2,1.1c0,0.4,0,0.9-0.1,1.4S333.4,55.9,333.1,56.4z
			 M331.9,54.9c0.3-0.5,0.5-1,0.6-1.4c0.1-0.5,0-1-0.1-1.4c-0.2-0.5-0.4-0.9-0.8-1.2l-1.6-1.1c-0.5-0.2-0.9-0.2-1.4-0.1
			c-0.5,0.1-0.9,0.2-1.3,0.5c-0.4,0.3-0.8,0.6-1,1.1c-0.3,0.5-0.5,1.1-0.5,1.6s0.1,1.1,0.4,1.6c0.3,0.5,0.7,1,1.3,1.3
			c0.5,0.3,1.1,0.5,1.7,0.6s1.2-0.1,1.7-0.4C331.1,55.7,331.6,55.4,331.9,54.9z"/>
		<path class="st0" d="M340.5,45.7l-10.8-2.5l1.6-2l9.4,2.4L340.5,45.7z M342.7,50.5l-7.4-14.3l1.3-1.6l7.5,14.2L342.7,50.5z"/>
	</g>
</svg>
