<?xml version="1.0" encoding="utf-8"?>
<svg version="1.1" id="Layer_1" xmlns="http://www.w3.org/2000/svg" xmlns:xlink="http://www.w3.org/1999/xlink" x="0px" y="0px"
	 viewBox="0 0 874 965" style="enable-background:new 0 0 874 965;" xml:space="preserve">
<style type="text/css">
	.st0{fill:#EFEFEF;}
	.st1{display:none;}
	.st2{display:inline;fill-rule:evenodd;clip-rule:evenodd;fill:#EFEFEF;}
	.st3{display:inline;fill-rule:evenodd;clip-rule:evenodd;fill:#3A3A3A;}
</style>
<g id="designing_1_">
		<path class="st0" d="M650.3,566.2c-0.7,0.6-1.4,1.1-2.2,1.3s-1.7,0.2-2.6-0.1c-0.9-0.3-1.7-0.8-2.4-1.5c-0.8-0.8-1.3-1.6-1.5-2.5
			c-0.2-0.9-0.2-1.8,0.1-2.6c0.3-0.8,0.8-1.6,1.5-2.3c0.6-0.5,1.2-0.9,2-1.2c0.7-0.3,1.5-0.3,2.2-0.2l0.5,0.7l-7.6-7.8l1.6-1.6
			l13,13.3l-1.6,1.6l-1.7-1.8l0.6,0.3c0.1,0.8,0,1.6-0.3,2.4C651.5,564.9,651,565.6,650.3,566.2z M649.5,564.4
			c0.4-0.4,0.7-0.9,0.9-1.3s0.2-1,0.2-1.4c0-0.5-0.2-1-0.5-1.4l-1.3-1.4c-0.4-0.3-0.9-0.4-1.4-0.4c-0.5,0-1,0-1.4,0.2
			c-0.5,0.2-0.9,0.5-1.3,0.8c-0.4,0.4-0.7,0.9-0.9,1.5c-0.2,0.6-0.2,1.1,0,1.7c0.1,0.6,0.4,1.1,0.9,1.6c0.5,0.5,1,0.8,1.6,0.9
			c0.6,0.2,1.2,0.2,1.7,0C648.6,565.1,649.1,564.8,649.5,564.4z"/>
		<path class="st0" d="M661.1,556.7c-0.9,0.7-1.8,1.1-2.7,1.3c-0.9,0.2-1.8,0.1-2.6-0.3c-0.8-0.3-1.6-0.9-2.2-1.7
			c-0.6-0.8-1-1.6-1.1-2.6c-0.1-0.9,0-1.9,0.4-2.8s0.9-1.7,1.7-2.3c1-0.8,2.1-1.2,3.3-1.1s2.3,0.5,3.4,1.4l-4.6,7.4l-1.2-0.7
			l3.7-6.1l-0.1,0.5c-0.5-0.3-1-0.5-1.6-0.5s-1.2,0.2-1.7,0.6c-0.5,0.4-0.8,0.8-1,1.3c-0.2,0.5-0.2,1.1-0.1,1.6
			c0.1,0.6,0.4,1.1,0.8,1.6c0.4,0.5,0.9,0.9,1.4,1.1s1.1,0.3,1.7,0.2c0.6-0.1,1.1-0.3,1.6-0.7c0.3-0.3,0.6-0.6,0.8-1
			s0.4-0.8,0.5-1.2l1.8,0.7c-0.2,0.6-0.4,1.1-0.8,1.7S661.6,556.3,661.1,556.7z"/>
		<path class="st0" d="M669.4,550.6c-0.6,0.4-1.2,0.7-1.9,0.8c-0.7,0.2-1.4,0.2-2,0l0.1-1.6c0.6,0.1,1.1,0.1,1.6,0
			c0.5-0.1,0.9-0.2,1.2-0.5c0.3-0.2,0.5-0.4,0.7-0.6c0.2-0.2,0.3-0.5,0.3-0.7c0-0.3,0-0.5-0.2-0.8c-0.2-0.3-0.5-0.5-0.8-0.5
			s-0.6,0-1,0.1c-0.4,0.1-0.8,0.2-1.2,0.3c-0.8,0.2-1.6,0.3-2.2,0.1s-1.1-0.5-1.5-1.1c-0.3-0.4-0.5-0.9-0.5-1.4
			c0-0.5,0.1-1.1,0.4-1.6s0.7-1,1.4-1.4c0.6-0.4,1.1-0.7,1.7-0.8c0.5-0.2,1.1-0.2,1.8-0.1l0,1.7c-0.4-0.1-0.8-0.1-1.2,0
			s-0.7,0.2-1,0.4c-0.2,0.2-0.4,0.3-0.6,0.6c-0.2,0.2-0.3,0.4-0.3,0.7c0,0.2,0,0.4,0.2,0.7c0.2,0.3,0.4,0.5,0.7,0.5s0.6,0,1-0.1
			c0.4-0.1,0.7-0.2,1.1-0.3c0.5-0.1,0.9-0.2,1.4-0.2c0.5,0,0.9,0.1,1.3,0.2c0.4,0.2,0.7,0.5,1,0.9c0.3,0.5,0.5,1,0.6,1.6
			c0,0.6-0.1,1.1-0.4,1.7C670.7,549.6,670.1,550.1,669.4,550.6z"/>
		<path class="st0" d="M668.1,535.2c-0.2-0.3-0.2-0.6-0.1-1c0.1-0.3,0.3-0.6,0.6-0.8c0.3-0.2,0.6-0.2,1-0.1c0.4,0.1,0.6,0.3,0.8,0.6
			c0.2,0.3,0.2,0.6,0.1,1c-0.1,0.3-0.3,0.6-0.6,0.8c-0.3,0.2-0.6,0.2-1,0.2S668.2,535.5,668.1,535.2z M670,538.3l2-1.1l5,8.6l-2,1.1
			L670,538.3z"/>
		<path class="st0" d="M686.5,546.3c-0.7,0.3-1.3,0.5-1.9,0.6c-0.6,0.1-1.2,0.1-1.7,0c-0.5-0.1-1.1-0.2-1.6-0.3l0.5-2
			c0.7,0.2,1.3,0.3,1.9,0.3c0.6,0,1.2-0.1,1.8-0.4c0.7-0.3,1.2-0.7,1.6-1.2c0.4-0.4,0.6-0.9,0.6-1.4c0.1-0.5,0-1-0.3-1.5l-1.1-2.4
			l0.4,0.3c0,0.7-0.2,1.5-0.7,2.2c-0.5,0.8-1.2,1.4-2.2,1.8c-0.8,0.4-1.7,0.5-2.6,0.5s-1.7-0.4-2.5-0.9c-0.8-0.5-1.4-1.2-1.8-2.1
			c-0.5-0.9-0.6-1.9-0.5-2.8c0.1-0.9,0.4-1.8,0.9-2.5c0.5-0.8,1.2-1.3,2-1.7c0.8-0.4,1.6-0.6,2.4-0.6c0.8,0,1.5,0.2,2.1,0.5l0,0.4
			l-0.6-1.8l1.9-0.9l4.3,9c0.4,0.8,0.5,1.6,0.4,2.5c-0.1,0.9-0.4,1.7-1,2.4S687.5,545.8,686.5,546.3z M679,538.8
			c0.3,0.6,0.7,1,1.2,1.4c0.5,0.3,1.1,0.5,1.7,0.6c0.6,0,1.2-0.1,1.7-0.3c0.5-0.3,1-0.6,1.3-1c0.3-0.4,0.6-0.8,0.7-1.3
			c0.1-0.5,0.1-1,0.1-1.4l-0.9-1.8c-0.3-0.4-0.7-0.6-1.2-0.8s-0.9-0.3-1.4-0.2c-0.5,0-1,0.1-1.5,0.4c-0.6,0.3-1,0.7-1.4,1.1
			c-0.3,0.5-0.5,1-0.6,1.6C678.6,537.6,678.7,538.2,679,538.8z"/>
		<path class="st0" d="M691.2,528l1,2.2l-0.2-0.3c0-0.8,0.3-1.5,0.9-2.2c0.5-0.7,1.2-1.1,2.2-1.5c0.9-0.3,1.7-0.3,2.4,0
			c0.8,0.3,1.3,0.9,1.6,1.7l2.5,6.9l-2.1,0.8l-2.2-6.2c-0.2-0.5-0.5-0.8-0.9-1.1c-0.4-0.2-0.9-0.2-1.5,0c-0.5,0.2-1,0.5-1.3,1
			s-0.5,1-0.6,1.6s0,1.3,0.3,2l1.6,4.4l-2.1,0.8l-3.3-9.4L691.2,528z"/>
		<path class="st0" d="M715.8,522.9c-0.4,0.1-0.9,0.2-1.2,0.5s-0.7,0.5-1,0.9c-0.3,0.4-0.5,0.8-0.6,1.2c-0.1,0.4-0.2,0.9-0.1,1.3
			c0.1,0.6,0.4,1.1,0.8,1.5c0.4,0.4,0.9,0.7,1.5,0.9c0.6,0.2,1.2,0.2,1.9,0.1c0.6-0.1,1.1-0.3,1.5-0.5c0.4-0.3,0.8-0.6,1.1-0.9
			s0.5-0.7,0.6-1.1l1.7,1c-0.3,0.8-0.8,1.6-1.6,2.3c-0.8,0.7-1.8,1.2-3.1,1.4c-1.1,0.2-2.1,0.1-3-0.2c-0.9-0.3-1.7-0.8-2.3-1.5
			c-0.6-0.7-1-1.5-1.2-2.4c-0.1-0.8-0.1-1.5,0.2-2.2c0.2-0.7,0.6-1.3,1.1-1.9c0.5-0.6,1-1,1.7-1.4c0.6-0.4,1.3-0.7,2.1-0.8
			L715.8,522.9z M725.9,529.7c-0.1,0-0.4,0.1-0.7,0.1c-0.3,0-0.6,0.1-0.9,0.2c-0.3,0.1-0.7,0.1-1.1,0.2l-10-9.5
			c-0.2-0.2-0.4-0.4-0.6-0.7s-0.5-0.6-0.7-1s-0.3-0.8-0.4-1.2c-0.1-0.7-0.1-1.3,0.2-2c0.2-0.6,0.6-1.2,1.2-1.7
			c0.6-0.5,1.3-0.8,2.2-0.9c0.9-0.2,1.8-0.1,2.6,0.1c0.8,0.2,1.5,0.6,2,1l-0.9,1.7c-0.6-0.4-1.1-0.6-1.6-0.8c-0.5-0.2-1-0.2-1.4-0.1
			c-0.7,0.1-1.2,0.4-1.5,0.9c-0.3,0.5-0.4,1-0.3,1.6c0,0.3,0.2,0.6,0.3,0.8c0.2,0.3,0.3,0.5,0.5,0.7s0.3,0.3,0.3,0.4L725.9,529.7z
			 M721.5,520.1l2.1-0.4l-1.6,7.6l-1.8-0.8L721.5,520.1z"/>
		<path class="st0" d="M740.6,529.4c-1.1,0-2.1-0.2-2.9-0.7c-0.8-0.5-1.4-1.1-1.9-1.9c-0.4-0.8-0.7-1.7-0.7-2.7c0-1,0.3-1.9,0.8-2.7
			s1.2-1.4,2-1.9s1.8-0.7,2.8-0.7c1.3,0,2.4,0.4,3.3,1.2c0.9,0.8,1.4,1.8,1.8,3.2l-8.2,2.8l-0.5-1.3l6.7-2.4l-0.5,0.3
			c-0.2-0.5-0.5-1-0.9-1.4c-0.4-0.4-1-0.6-1.7-0.6c-0.6,0-1.1,0.1-1.6,0.4s-0.8,0.7-1.1,1.2s-0.4,1.1-0.4,1.8c0,0.7,0.1,1.3,0.4,1.8
			s0.7,0.9,1.2,1.2c0.5,0.3,1.1,0.5,1.7,0.5c0.4,0,0.9-0.1,1.3-0.2c0.4-0.2,0.8-0.4,1.2-0.6l1,1.7c-0.5,0.3-1.1,0.6-1.7,0.8
			S741.2,529.4,740.6,529.4z"/>
		<path class="st0" d="M752.1,529.9c-0.9-0.1-1.7-0.4-2.4-0.9c-0.7-0.5-1.2-1.2-1.6-2c-0.4-0.8-0.5-1.8-0.4-2.8c0.1-1.1,0.4-2,1-2.7
			c0.5-0.7,1.2-1.3,2-1.6c0.8-0.3,1.7-0.5,2.7-0.4c0.8,0.1,1.5,0.3,2.2,0.7c0.7,0.4,1.2,0.9,1.5,1.6l-0.2,0.8l1.1-10.9l2.2,0.2
			l-1.9,18.5l-2.2-0.2l0.3-2.5l0.2,0.6c-0.5,0.6-1.2,1-2,1.3C753.8,529.9,753,530,752.1,529.9z M752.9,528.1c0.6,0.1,1.1,0,1.6-0.2
			s0.9-0.4,1.2-0.8c0.3-0.3,0.6-0.8,0.8-1.3l0.2-1.9c-0.1-0.5-0.3-0.9-0.6-1.3s-0.7-0.7-1.1-1c-0.4-0.2-0.9-0.4-1.5-0.5
			c-0.6-0.1-1.2,0-1.7,0.3c-0.5,0.2-1,0.6-1.3,1.1c-0.4,0.5-0.6,1.1-0.6,1.7c-0.1,0.7,0,1.3,0.3,1.8s0.6,1,1.1,1.4
			C751.8,527.8,752.4,528,752.9,528.1z"/>
		<path class="st0" d="M763.6,521.2l2.2,0.4l-1.8,9.8l-2.2-0.4L763.6,521.2z M764.1,517.6c0.1-0.3,0.3-0.6,0.6-0.8s0.6-0.3,1-0.2
			c0.3,0.1,0.6,0.2,0.8,0.5c0.2,0.3,0.3,0.6,0.2,0.9c-0.1,0.4-0.3,0.6-0.6,0.8c-0.3,0.2-0.6,0.2-1,0.2c-0.3-0.1-0.6-0.2-0.8-0.5
			C764.1,518.3,764.1,518,764.1,517.6z"/>
		<path class="st0" d="M771.9,518.4l2.2,0.5l-1,4.3l2.6,0.6l-0.4,1.7l-2.6-0.6l-1.9,7.9l-2.2-0.5l1.9-7.9l-1.8-0.4l0.4-1.7l1.8,0.4
			L771.9,518.4z"/>
	</g>
</svg>
