<?xml version="1.0" encoding="utf-8"?>
<svg version="1.1" id="Layer_1" xmlns="http://www.w3.org/2000/svg" xmlns:xlink="http://www.w3.org/1999/xlink" x="0px" y="0px"
	 viewBox="0 0 874 965" style="enable-background:new 0 0 874 965;" xml:space="preserve">
<style type="text/css">
	.st0{fill:#EFEFEF;}
	.st1{display:none;}
	.st2{display:inline;fill-rule:evenodd;clip-rule:evenodd;fill:#EFEFEF;}
	.st3{display:inline;fill-rule:evenodd;clip-rule:evenodd;fill:#3A3A3A;}
</style>
<g id="stylCSS">
	<g id="stylCSS_1_">
		<path class="st0" d="M43.4,212.1c-0.5,0.5-1.1,0.9-1.7,1.2c-0.6,0.3-1.3,0.4-1.9,0.4l-0.3-1.6c0.6,0,1.1-0.1,1.5-0.3
			c0.4-0.2,0.8-0.4,1.1-0.7c0.2-0.2,0.4-0.5,0.5-0.7c0.1-0.3,0.2-0.5,0.2-0.8s-0.1-0.5-0.4-0.7c-0.3-0.3-0.5-0.4-0.9-0.3
			c-0.3,0-0.6,0.1-1,0.3c-0.3,0.2-0.7,0.4-1.1,0.6c-0.8,0.4-1.5,0.6-2.1,0.6s-1.2-0.3-1.7-0.8c-0.4-0.4-0.6-0.8-0.8-1.3
			s-0.1-1.1,0-1.6c0.2-0.6,0.5-1.1,1-1.7c0.5-0.5,1-0.9,1.5-1.2c0.5-0.3,1.1-0.4,1.7-0.5l0.4,1.6c-0.4,0-0.8,0.1-1.2,0.3
			c-0.4,0.2-0.7,0.4-0.9,0.6c-0.2,0.2-0.4,0.4-0.5,0.7c-0.1,0.2-0.2,0.5-0.1,0.7s0.1,0.4,0.3,0.6c0.2,0.2,0.5,0.4,0.8,0.3
			s0.6-0.1,1-0.3c0.3-0.2,0.7-0.3,1-0.5c0.4-0.2,0.9-0.4,1.3-0.5c0.4-0.1,0.9-0.1,1.3,0c0.4,0.1,0.8,0.3,1.2,0.7
			c0.4,0.4,0.7,0.9,0.9,1.4c0.2,0.6,0.2,1.1,0,1.7C44.4,210.8,44,211.5,43.4,212.1z"/>
		<path class="st0" d="M39.4,195.9l1.7-1.5l2.9,3.3l2-1.8l1.2,1.3l-2,1.8l5.4,6.1l-1.7,1.5l-5.4-6.1l-1.4,1.2l-1.2-1.3l1.4-1.2
			L39.4,195.9z"/>
		<path class="st0" d="M57.1,200l-9.8-5.1l2-1.5l8.5,4.7L57.1,200z M57.9,205.2l-3.6-15.7l1.7-1.2l3.7,15.6L57.9,205.2z"/>
		<path class="st0" d="M53.7,179.6l1.9-1.2l10.1,15.6l-1.9,1.2L53.7,179.6z"/>
		<path class="st0" d="M61.8,180.4c-0.2-0.3-0.2-0.6-0.1-1c0.1-0.3,0.3-0.6,0.6-0.8c0.3-0.2,0.6-0.2,1-0.1c0.4,0.1,0.6,0.3,0.8,0.6
			c0.2,0.3,0.2,0.6,0.1,1c-0.1,0.3-0.3,0.6-0.6,0.8c-0.3,0.2-0.6,0.2-1,0.2C62.3,180.9,62,180.7,61.8,180.4z M63.8,183.4l1.9-1.1
			l5,8.6l-1.9,1.1L63.8,183.4z"/>
		<path class="st0" d="M71.3,179.3l1.2,2.1l-0.2-0.3c0-0.8,0.2-1.5,0.6-2.3c0.5-0.7,1.1-1.3,2-1.7c0.8-0.4,1.6-0.5,2.4-0.3
			c0.8,0.2,1.4,0.7,1.8,1.5l3.2,6.6l-2,1l-2.9-5.9c-0.2-0.5-0.6-0.8-1-1c-0.4-0.2-0.9-0.1-1.5,0.1c-0.5,0.2-0.9,0.6-1.2,1.1
			c-0.3,0.5-0.4,1.1-0.4,1.7s0.2,1.3,0.5,1.9l2,4.2l-2,1l-4.4-8.9L71.3,179.3z"/>
		<path class="st0" d="M91.6,186.6c-0.7,0.3-1.3,0.4-1.9,0.4c-0.6,0-1.2,0-1.7-0.2c-0.5-0.1-1.1-0.3-1.6-0.5l0.7-1.9
			c0.7,0.3,1.3,0.4,1.9,0.5c0.6,0.1,1.2,0,1.9-0.2c0.7-0.3,1.3-0.6,1.7-1c0.4-0.4,0.7-0.9,0.8-1.4c0.1-0.5,0.1-1-0.1-1.6l-0.9-2.5
			l0.3,0.3c0,0.7-0.3,1.5-0.9,2.2s-1.3,1.2-2.3,1.6c-0.8,0.3-1.7,0.4-2.6,0.2c-0.9-0.2-1.7-0.6-2.4-1.1c-0.7-0.6-1.2-1.3-1.6-2.3
			c-0.4-1-0.4-1.9-0.3-2.8c0.2-0.9,0.6-1.7,1.2-2.4c0.6-0.7,1.3-1.2,2.2-1.5c0.8-0.3,1.6-0.4,2.5-0.3s1.5,0.3,2,0.7l0,0.4l-0.5-1.9
			l1.9-0.7l3.4,9.4c0.3,0.8,0.4,1.7,0.2,2.5c-0.2,0.8-0.6,1.6-1.2,2.3C93.6,185.7,92.7,186.2,91.6,186.6z M85,178.4
			c0.2,0.6,0.6,1.1,1,1.5c0.5,0.4,1,0.6,1.6,0.7c0.6,0.1,1.2,0.1,1.8-0.2c0.6-0.2,1-0.5,1.4-0.8c0.4-0.4,0.6-0.8,0.8-1.3
			c0.2-0.5,0.2-0.9,0.2-1.4l-0.7-1.9c-0.3-0.4-0.7-0.7-1.1-0.9c-0.4-0.2-0.9-0.3-1.4-0.4c-0.5,0-1,0-1.6,0.2c-0.6,0.2-1.1,0.5-1.5,1
			c-0.4,0.5-0.6,1-0.8,1.6C84.7,177.1,84.7,177.7,85,178.4z"/>
		<path class="st0" d="M109.6,168c-0.4,0.1-0.9,0.2-1.2,0.5c-0.4,0.2-0.7,0.5-1,0.9c-0.3,0.4-0.5,0.8-0.6,1.2
			c-0.1,0.4-0.2,0.9-0.1,1.3c0.1,0.6,0.4,1.1,0.8,1.5c0.4,0.4,0.9,0.7,1.5,0.9s1.2,0.2,1.9,0.1c0.6-0.1,1.1-0.3,1.5-0.5
			c0.4-0.3,0.8-0.6,1.1-0.9c0.3-0.4,0.5-0.7,0.6-1.1l1.7,1c-0.3,0.8-0.8,1.6-1.6,2.3s-1.8,1.2-3.1,1.4c-1.1,0.2-2.1,0.1-3-0.2
			c-0.9-0.3-1.7-0.8-2.3-1.5c-0.6-0.7-1-1.5-1.2-2.4c-0.1-0.8-0.1-1.5,0.2-2.2c0.2-0.7,0.6-1.3,1.1-1.9c0.5-0.6,1-1,1.7-1.4
			c0.6-0.4,1.3-0.7,2.1-0.8L109.6,168z M119.7,174.8c-0.1,0-0.4,0.1-0.7,0.1c-0.3,0-0.6,0.1-0.9,0.2s-0.7,0.1-1.1,0.2l-10-9.4
			c-0.2-0.2-0.4-0.4-0.6-0.7c-0.2-0.3-0.5-0.6-0.7-1c-0.2-0.4-0.3-0.8-0.4-1.2c-0.1-0.7-0.1-1.3,0.2-2c0.2-0.6,0.6-1.2,1.2-1.7
			c0.6-0.5,1.3-0.8,2.2-0.9c0.9-0.2,1.8-0.1,2.6,0.1c0.8,0.2,1.5,0.6,2,1l-0.9,1.7c-0.6-0.4-1.1-0.6-1.6-0.8c-0.5-0.2-1-0.2-1.4-0.1
			c-0.7,0.1-1.2,0.4-1.5,0.9c-0.3,0.5-0.4,1-0.3,1.6c0,0.3,0.2,0.6,0.3,0.8c0.2,0.3,0.3,0.5,0.5,0.7c0.2,0.2,0.3,0.3,0.3,0.4
			L119.7,174.8z M115.2,165.2l2.1-0.4l-1.6,7.6l-1.8-0.8L115.2,165.2z"/>
		<path class="st0" d="M132.6,174.4c-0.7,0-1.4-0.1-2.1-0.4c-0.7-0.2-1.2-0.6-1.7-1.1l0.9-1.3c0.4,0.4,0.9,0.7,1.3,0.9
			c0.4,0.2,0.9,0.3,1.3,0.3c0.3,0,0.6,0,0.9-0.1s0.5-0.2,0.7-0.4c0.2-0.2,0.2-0.4,0.2-0.7c0-0.4-0.1-0.7-0.4-0.8s-0.5-0.4-0.9-0.5
			c-0.4-0.1-0.7-0.2-1.2-0.3c-0.8-0.3-1.4-0.6-1.9-1.1c-0.4-0.5-0.7-1.1-0.7-1.7c0-0.5,0.1-1,0.4-1.5c0.3-0.5,0.7-0.8,1.2-1.1
			c0.5-0.3,1.2-0.5,1.9-0.5c0.7,0,1.3,0.1,1.8,0.2c0.5,0.2,1.1,0.4,1.5,0.8l-0.9,1.4c-0.3-0.3-0.6-0.5-1-0.7
			c-0.4-0.1-0.8-0.2-1.1-0.2c-0.3,0-0.6,0-0.8,0.1c-0.2,0.1-0.4,0.2-0.6,0.4c-0.2,0.2-0.2,0.4-0.2,0.6c0,0.3,0.1,0.6,0.3,0.8
			c0.2,0.2,0.5,0.4,0.9,0.5c0.4,0.1,0.7,0.2,1.1,0.4c0.5,0.1,0.9,0.3,1.3,0.6s0.7,0.5,0.9,0.9c0.2,0.4,0.4,0.8,0.4,1.3
			c0,0.6-0.1,1.1-0.4,1.6c-0.3,0.5-0.7,0.9-1.3,1.2S133.5,174.4,132.6,174.4z"/>
		<path class="st0" d="M143.8,174.8c-1.1-0.1-2.1-0.4-2.9-0.9s-1.4-1.2-1.8-2c-0.4-0.8-0.5-1.7-0.5-2.8c0.1-1,0.4-1.8,0.9-2.6
			c0.6-0.8,1.3-1.4,2.1-1.8c0.9-0.4,1.8-0.6,2.8-0.5c1.3,0.1,2.4,0.6,3.2,1.4s1.3,1.9,1.5,3.3l-8.4,2.3l-0.4-1.4l6.9-2l-0.5,0.3
			c-0.2-0.5-0.4-1-0.9-1.4c-0.4-0.4-1-0.6-1.7-0.7c-0.6,0-1.2,0.1-1.6,0.3c-0.5,0.3-0.9,0.6-1.2,1.1c-0.3,0.5-0.5,1.1-0.5,1.7
			c0,0.7,0,1.3,0.3,1.8c0.2,0.5,0.6,1,1.1,1.3c0.5,0.3,1,0.5,1.7,0.6c0.4,0,0.9,0,1.3-0.1s0.8-0.3,1.2-0.5l0.9,1.7
			c-0.5,0.3-1.1,0.5-1.7,0.7S144.4,174.9,143.8,174.8z"/>
		<path class="st0" d="M155.1,165.7l-0.2,2.2l-0.1-0.2c0.5-0.7,1.1-1.1,1.9-1.4c0.8-0.3,1.6-0.4,2.4-0.2c0.5,0.1,1,0.3,1.4,0.6
			c0.4,0.3,0.7,0.6,0.9,1s0.3,0.8,0.3,1.3l-0.1,0.1c0.5-0.6,1.2-1.1,1.9-1.4c0.7-0.3,1.5-0.3,2.2-0.2c1,0.2,1.7,0.6,2.1,1.3
			c0.4,0.7,0.6,1.4,0.5,2.3l-1.4,7.2l-2.2-0.4l1.3-6.4c0.1-0.5,0-0.9-0.1-1.3c-0.2-0.4-0.5-0.6-1.1-0.8c-0.6-0.1-1.1,0-1.6,0.2
			c-0.5,0.2-0.9,0.6-1.3,1.1c-0.4,0.5-0.6,1.1-0.7,1.7l-0.9,4.6l-2.2-0.4l1.3-6.4c0.1-0.5,0-1-0.1-1.3c-0.2-0.4-0.5-0.6-1.1-0.8
			c-0.6-0.1-1.1,0-1.6,0.2c-0.5,0.3-0.9,0.6-1.3,1.1c-0.4,0.5-0.6,1.1-0.7,1.7l-0.9,4.6l-2.2-0.4l1.9-9.7L155.1,165.7z"/>
		<path class="st0" d="M173.9,180.8c-0.9-0.3-1.6-0.8-2.2-1.4c-0.6-0.6-1-1.4-1.2-2.3s-0.1-1.8,0.3-2.9c0.4-1.1,0.9-1.9,1.6-2.5
			c0.7-0.6,1.5-1,2.4-1.2s1.8-0.1,2.6,0.2c0.9,0.3,1.6,0.7,2,1.4c0.5,0.6,0.8,1.2,0.9,1.9l-0.3,0.3l0.9-1.9l2,0.7l-3.2,9.4l-2.1-0.7
			l0.8-2.5l0.1,0.6c-0.1,0.1-0.3,0.3-0.6,0.4c-0.3,0.2-0.6,0.3-1,0.4c-0.4,0.1-0.9,0.2-1.4,0.2C175,181.1,174.5,181,173.9,180.8z
			 M175.1,179.2c0.5,0.2,1,0.2,1.5,0.2c0.5-0.1,0.9-0.2,1.3-0.5c0.4-0.3,0.7-0.6,1-1.1l0.6-1.8c0-0.5,0-1-0.2-1.4
			c-0.2-0.4-0.5-0.8-0.8-1.2s-0.8-0.6-1.3-0.8c-0.6-0.2-1.1-0.2-1.7-0.1s-1.1,0.4-1.5,0.8c-0.4,0.4-0.8,0.9-1,1.6
			c-0.2,0.6-0.2,1.2-0.1,1.8c0.1,0.6,0.4,1.1,0.8,1.6C174,178.7,174.5,179,175.1,179.2z"/>
		<path class="st0" d="M188.9,175.6l-0.9,2.3l0.1-0.4c0.6-0.5,1.3-0.9,2.1-1c0.8-0.1,1.7,0,2.6,0.4c0.8,0.4,1.4,1,1.7,1.7
			c0.3,0.8,0.3,1.5-0.1,2.3l-3.1,6.7l-2.1-0.9l2.7-6c0.2-0.5,0.2-0.9,0.1-1.4c-0.1-0.4-0.5-0.8-1-1c-0.5-0.2-1-0.3-1.6-0.2
			c-0.6,0.1-1.1,0.3-1.6,0.7c-0.5,0.4-0.9,0.9-1.2,1.6l-1.9,4.2l-2.1-0.9l4.1-9L188.9,175.6z"/>
		<path class="st0" d="M202.4,177.4l2,1.1l-2.2,3.8l2.4,1.3l-0.9,1.5l-2.4-1.3l-4,7.1l-2-1.1l4-7.1l-1.6-0.9l0.9-1.5l1.6,0.9
			L202.4,177.4z"/>
		<path class="st0" d="M207.2,185.3l1.9,1.2l-5.4,8.4l-1.9-1.2L207.2,185.3z M209,182.2c0.2-0.3,0.5-0.5,0.8-0.5
			c0.4-0.1,0.7,0,1,0.2c0.3,0.2,0.5,0.4,0.6,0.8c0.1,0.3,0.1,0.7-0.1,1c-0.2,0.3-0.5,0.5-0.8,0.5c-0.4,0-0.7,0-1-0.2
			c-0.3-0.2-0.5-0.4-0.6-0.8S208.8,182.5,209,182.2z"/>
		<path class="st0" d="M213.8,200.8c-0.6,0-1.2-0.1-1.8-0.3s-1.2-0.5-1.7-0.9c-0.9-0.6-1.5-1.4-1.9-2.2c-0.4-0.8-0.6-1.7-0.5-2.6
			c0.1-0.9,0.5-1.8,1.1-2.6c0.6-0.9,1.4-1.4,2.2-1.8c0.9-0.3,1.7-0.4,2.6-0.3c0.9,0.1,1.7,0.5,2.5,1c0.6,0.5,1.1,1,1.5,1.5
			c0.4,0.5,0.6,1.1,0.8,1.7l-1.8,0.5c-0.1-0.3-0.3-0.7-0.5-1.1c-0.2-0.4-0.6-0.8-1-1.1c-0.5-0.4-1-0.6-1.6-0.6
			c-0.6-0.1-1.1,0-1.6,0.3s-1,0.6-1.4,1.1c-0.4,0.5-0.6,1-0.7,1.6c-0.1,0.6,0,1.1,0.2,1.7c0.2,0.5,0.6,1,1.2,1.4
			c0.3,0.2,0.7,0.4,1.1,0.5c0.4,0.1,0.7,0.2,1.1,0.2L213.8,200.8z"/>
		<path class="st0" d="M232.3,205.5l-2.7,6.8l-0.4-0.3l6.7-2.8l1.5,1.6l-10.7,4.1l2.6-7.1l-6.9,2.7l4.3-10.7l1.5,1.6l-2.8,7.1
			l-0.4-0.7l5.2-2l0.6-1.8L232.3,205.5z"/>
		<path class="st0" d="M240.5,214.7l-2.1,2l0.3-0.3c0.6-0.2,1.3-0.2,1.9-0.1c0.6,0.1,1.2,0.3,1.7,0.6c0.5,0.3,0.9,0.6,1.2,0.9
			l-1.8,1.4c-0.4-0.6-1-1.1-1.6-1.3c-0.6-0.2-1.3-0.3-1.9-0.2c-0.6,0.1-1.2,0.3-1.7,0.7l-3.5,2.9l-1.4-1.7l7.7-6.3L240.5,214.7z"/>
		<path class="st0" d="M245,220.5l1.3,1.8l-8,5.8l-1.3-1.8L245,220.5z M247.9,218.3c0.3-0.2,0.6-0.3,1-0.2s0.6,0.3,0.8,0.5
			c0.2,0.3,0.3,0.6,0.2,0.9c0,0.4-0.2,0.6-0.5,0.9c-0.3,0.2-0.6,0.3-1,0.2c-0.3-0.1-0.6-0.3-0.8-0.5s-0.3-0.6-0.3-1
			S247.6,218.5,247.9,218.3z"/>
		<path class="st0" d="M252.9,224.2l1.2,1.9l-3.7,2.4l1.5,2.3l-1.5,0.9l-1.5-2.3l-6.8,4.4l-1.2-1.9l6.8-4.4l-1-1.5l1.5-0.9l1,1.5
			L252.9,224.2z"/>
		<path class="st0" d="M253.5,233.4l1.1,2l-8.6,4.9l-1.1-2L253.5,233.4z M256.5,231.5c0.3-0.2,0.6-0.2,1-0.1
			c0.3,0.1,0.6,0.3,0.8,0.6c0.2,0.3,0.2,0.6,0.1,1s-0.3,0.6-0.6,0.8c-0.3,0.2-0.6,0.2-1,0.1c-0.3-0.1-0.6-0.3-0.8-0.6
			c-0.2-0.3-0.2-0.6-0.2-1C256,231.9,256.2,231.6,256.5,231.5z"/>
		<path class="st0" d="M257.5,240.9l-2.1,1.2l0.3-0.2c0.8,0,1.5,0.2,2.3,0.6c0.7,0.5,1.3,1.1,1.7,2c0.4,0.8,0.5,1.6,0.2,2.4
			c-0.2,0.8-0.8,1.4-1.5,1.8l-6.6,3.1l-1-2l5.9-2.8c0.5-0.2,0.8-0.6,1-1c0.2-0.4,0.1-0.9-0.1-1.5c-0.2-0.5-0.6-0.9-1.1-1.2
			c-0.5-0.3-1-0.4-1.7-0.4s-1.3,0.2-1.9,0.5l-4.2,2l-1-2l9-4.2L257.5,240.9z"/>
		<path class="st0" d="M249.9,261.2c-0.2-0.7-0.4-1.3-0.4-1.9s0-1.2,0.2-1.7c0.1-0.5,0.3-1.1,0.5-1.6l1.9,0.7
			c-0.3,0.7-0.5,1.3-0.5,1.9c-0.1,0.6,0,1.2,0.2,1.9c0.2,0.7,0.6,1.3,1,1.7c0.4,0.4,0.9,0.7,1.3,0.8c0.5,0.1,1,0.1,1.6-0.1l2.5-0.9
			l-0.3,0.3c-0.7,0-1.5-0.3-2.2-0.9c-0.7-0.6-1.2-1.3-1.6-2.4c-0.3-0.8-0.3-1.7-0.2-2.6c0.2-0.9,0.6-1.7,1.2-2.4
			c0.6-0.7,1.4-1.2,2.3-1.5c1-0.3,1.9-0.4,2.8-0.2c0.9,0.2,1.7,0.6,2.4,1.2s1.2,1.3,1.5,2.2c0.3,0.8,0.4,1.6,0.3,2.5
			c-0.1,0.8-0.4,1.5-0.8,2l-0.4,0l1.9-0.4l0.7,1.9l-9.5,3.3c-0.8,0.3-1.7,0.3-2.5,0.2c-0.8-0.2-1.6-0.6-2.3-1.3
			C250.8,263.2,250.3,262.3,249.9,261.2z M258.2,254.7c-0.6,0.2-1.1,0.5-1.5,1c-0.4,0.5-0.7,1-0.8,1.6s-0.1,1.2,0.1,1.8
			c0.2,0.6,0.5,1,0.8,1.4c0.4,0.4,0.8,0.7,1.2,0.8c0.5,0.2,0.9,0.2,1.4,0.2l1.9-0.7c0.4-0.3,0.7-0.7,0.9-1.1
			c0.2-0.4,0.4-0.9,0.4-1.4c0-0.5,0-1-0.2-1.6c-0.2-0.6-0.5-1.1-1-1.5s-1-0.7-1.6-0.8C259.5,254.4,258.9,254.4,258.2,254.7z"/>
	</g>
</g>
</svg>
