<svg id="Layer_1" data-name="Layer 1" xmlns="http://www.w3.org/2000/svg" xmlns:xlink="http://www.w3.org/1999/xlink" viewBox="0 0 343.1 442.06"><defs><style>.cls-1,.cls-10,.cls-14,.cls-19,.cls-21,.cls-4,.cls-5,.cls-6,.cls-7{fill:none;}.cls-1{stroke:#d8d7db;}.cls-1,.cls-14,.cls-15,.cls-16,.cls-17,.cls-18,.cls-19,.cls-20,.cls-21,.cls-22,.cls-23,.cls-4,.cls-5,.cls-6,.cls-7{stroke-miterlimit:10;}.cls-1,.cls-23{stroke-width:2px;}.cls-2{fill:url(#linear-gradient);}.cls-3{fill:url(#linear-gradient-2);}.cls-17,.cls-22,.cls-4,.cls-5,.cls-6,.cls-7{stroke:#69c9d0;}.cls-4{stroke-width:3.14px;}.cls-5{stroke-width:3.22px;}.cls-6{stroke-width:3.22px;}.cls-7{stroke-width:3.22px;}.cls-8{fill:#69c9d0;}.cls-9{fill:#d8d7db;}.cls-11{fill:#ededed;}.cls-12{fill:#0f0f0f;}.cls-13{fill:#070607;}.cls-14{stroke:#fff;stroke-width:3px;}.cls-15,.cls-16,.cls-17,.cls-18,.cls-20,.cls-22{fill:#fff;}.cls-15,.cls-16,.cls-18,.cls-19,.cls-20,.cls-21{stroke:#000;}.cls-15{stroke-width:40px;}.cls-16{stroke-width:9.07px;}.cls-17{stroke-width:3.06px;}.cls-18,.cls-19{stroke-width:13.13px;}.cls-20,.cls-21,.cls-22{stroke-width:2.98px;}.cls-23{fill:#ee1d52;stroke:#2c272b;}.cls-24{fill:#2c272b;}</style><linearGradient id="linear-gradient" x1="-27.22" y1="-1904.67" x2="-27.22" y2="-1904.67" gradientTransform="matrix(1, 0, 0, -1, 33.81, -1554.43)" gradientUnits="userSpaceOnUse"><stop offset="0" stop-color="#fff"/><stop offset="1"/></linearGradient><linearGradient id="linear-gradient-2" x1="-5.43" y1="-1615.27" x2="-5.43" y2="-1615.27" gradientTransform="matrix(-0.5, 0.87, 0.87, 0.5, 1579.31, 1186.61)" xlink:href="#linear-gradient"/></defs><title>svgSkillsImageMobile</title><path class="cls-1" d="M101.3,37.23a2,2,0,0,0,0-4,2,2,0,0,1-.73-3.78A2,2,0,0,0,99,25.74a2.25,2.25,0,0,1-.58.08,2,2,0,0,1-2-2.07,1.93,1.93,0,0,1,.42-1.2,2,2,0,0,0-2.83-2.85,2,2,0,0,1-2.84-.33,2,2,0,0,1-.36-1.8A2,2,0,0,0,87.15,16a2,2,0,0,1-3.77-.72,2,2,0,0,0-4,0,2,2,0,0,1-3.77.72,2,2,0,0,0-3.71,1.54,1.58,1.58,0,0,1,.08.57,2,2,0,0,1-2,2h0a2.05,2.05,0,0,1-1.23-.44,2,2,0,0,0-2.84,2.85,2,2,0,0,1-.34,2.83,2,2,0,0,1-1.8.36,2,2,0,0,0-.6-.09,2,2,0,0,0-.93,3.79,2,2,0,0,1,1,1.76,2,2,0,0,1-1.78,2,2,2,0,0,0,0,4A2,2,0,0,1,62.16,41a2,2,0,0,0-1,1.72,2,2,0,0,0,2,2.07,1.88,1.88,0,0,0,.63-.08,2,2,0,0,1,2.14,3.2,2,2,0,0,0,2.84,2.83,2,2,0,0,1,2.84.35,2,2,0,0,1,.35,1.79,2.47,2.47,0,0,0-.08.6,1.93,1.93,0,0,0,0,.42,2,2,0,0,0,2.47,1.48,2.06,2.06,0,0,0,1.25-.93h0a2,2,0,0,1,2.77-.76,2,2,0,0,1,1,1.49,2,2,0,0,0,4,0,2,2,0,0,1,3.77-.73,2,2,0,0,0,3.71-1.53,2,2,0,0,1,1.39-2.5,2,2,0,0,1,1.8.36,2,2,0,0,0,2.84-2.84A2,2,0,0,1,99,44.75,2,2,0,0,0,100.52,41a2,2,0,0,1-.78-2.75,2,2,0,0,1,1.56-1ZM81.36,41.11a5.91,5.91,0,1,1,5.91-5.91,5.92,5.92,0,0,1-5.91,5.91Z" transform="translate(-4.92 -12.28)"/><path class="cls-2" d="M6.59,350.24" transform="translate(-4.92 -12.28)"/><path class="cls-3" d="M183.16,374.28" transform="translate(-4.92 -12.28)"/><polygon class="cls-4" points="210.63 440.49 171.3 370.49 44.96 370.49 5.63 440.49 210.63 440.49"/><polygon class="cls-5" points="135.37 370.3 340.37 370.3 301.55 300.3 174.18 300.3 135.37 370.3"/><polygon class="cls-6" points="210.63 299.96 171.82 229.96 44.45 229.96 5.63 299.96 210.63 299.96"/><polygon class="cls-7" points="174.18 159.47 135.37 229.46 340.37 229.46 301.56 159.46 174.18 159.47"/><path class="cls-8" d="M303.22,38.24l36.84,64H145.48l36.84-64h120.9m1.72-3H180.6l-.83,1.5-36.89,64-2.59,4.5h205l-2.6-4.5-36.84-64Z" transform="translate(-4.92 -12.28)"/><path class="cls-9" d="M150.68,18.44" transform="translate(-4.92 -12.28)"/><path class="cls-9" d="M44.19,212.24" transform="translate(-4.92 -12.28)"/><path class="cls-9" d="M3.75,142.24" transform="translate(-4.92 -12.28)"/><path class="cls-9" d="M175.34,105.76" transform="translate(-4.92 -12.28)"/><polyline class="cls-10" points="169.27 95.47 207.38 161.48 8.77 161.48 46.87 95.48"/><path class="cls-8" d="M210.29,169.75H15.71l36.89-64H173.49l36.89,64m5.17,3-40.31-70H50.78l-.87,1.5-36.78,64-2.58,4.5h205Z" transform="translate(-4.92 -12.28)"/><polygon class="cls-11" points="204.36 71.05 206.55 75.48 211.44 76.2 207.9 79.65 208.73 84.51 204.36 82.22 199.98 84.51 200.82 79.65 197.28 76.2 202.17 75.48 204.36 71.05"/><polygon class="cls-11" points="221.11 71.05 223.3 75.48 228.19 76.2 224.65 79.65 225.49 84.51 221.11 82.22 216.74 84.51 217.57 79.65 214.04 76.2 218.93 75.48 221.11 71.05"/><polygon class="cls-11" points="237.87 71.05 240.06 75.48 244.95 76.2 241.41 79.65 242.24 84.51 237.87 82.22 233.49 84.51 234.33 79.65 230.79 76.2 235.68 75.48 237.87 71.05"/><polygon class="cls-11" points="254.62 71.05 256.81 75.48 261.7 76.2 258.16 79.65 259 84.51 254.62 82.22 250.25 84.51 251.08 79.65 247.55 76.2 252.44 75.48 254.62 71.05"/><polygon class="cls-12" points="271.38 71.05 273.57 75.48 278.46 76.2 274.92 79.65 275.75 84.51 271.38 82.22 267 84.51 267.84 79.65 264.3 76.2 269.19 75.48 271.38 71.05"/><polygon class="cls-11" points="204.33 211.98 206.51 216.42 211.42 217.13 207.88 220.58 208.71 225.46 204.34 223.15 199.96 225.45 200.79 220.57 197.25 217.13 202.14 216.41 204.33 211.98"/><polygon class="cls-11" points="221.1 211.98 223.29 216.41 228.18 217.13 224.63 220.58 225.47 225.45 221.09 223.15 216.72 225.45 217.56 220.58 214.02 217.13 218.91 216.42 221.1 211.98"/><polygon class="cls-11" points="237.86 211.99 240.05 216.42 244.94 217.13 241.4 220.58 242.24 225.45 237.86 223.15 233.48 225.45 234.32 220.58 230.78 217.13 235.67 216.42 237.86 211.99"/><polygon class="cls-11" points="254.62 211.98 256.81 216.42 261.71 217.13 258.16 220.58 259 225.45 254.62 223.16 250.25 225.45 251.09 220.58 247.54 217.13 252.44 216.42 254.62 211.98"/><path class="cls-11" d="M274.1,228.72l-4.86.66,3.52,3.47-.83,4.89,4.4-2.3V224.26Z" transform="translate(-4.92 -12.28)"/><path class="cls-12" d="M283.41,229.37l-4.9-.72-2.18-4.43V235.4l4.38,2.3-.84-4.87Z" transform="translate(-4.92 -12.28)"/><polygon class="cls-11" points="74.78 419.63 76.97 424.04 81.83 424.75 78.3 428.19 79.13 433.03 74.78 430.74 70.43 433.03 71.26 428.19 67.73 424.75 72.61 424.05 74.78 419.63"/><polygon class="cls-11" points="91.46 419.63 93.64 424.05 98.51 424.75 94.98 428.18 95.82 433.03 91.45 430.75 87.11 433.03 87.94 428.18 84.42 424.75 89.29 424.04 91.46 419.63"/><polygon class="cls-11" points="108.13 419.64 110.31 424.05 115.18 424.75 111.65 428.18 112.49 433.03 108.13 430.74 103.78 433.04 104.61 428.18 101.09 424.75 105.96 424.04 108.13 419.64"/><polygon class="cls-11" points="124.81 419.63 126.99 424.04 131.85 424.75 128.34 428.18 129.17 433.03 124.81 430.75 120.46 433.03 121.28 428.19 117.77 424.75 122.63 424.05 124.81 419.63"/><path class="cls-11" d="M144.23,436.33l-4.84.67,3.52,3.44-.83,4.84L146.4,443V431.92Z" transform="translate(-4.92 -12.28)"/><path class="cls-12" d="M153.45,437l-4.87-.71-2.18-4.41V443l4.35,2.29-.81-4.86Z" transform="translate(-4.92 -12.28)"/><polygon class="cls-11" points="75.28 281.76 77.42 286.11 82.22 286.8 78.75 290.18 79.57 294.96 75.28 292.7 70.99 294.96 71.81 290.18 68.34 286.8 73.13 286.11 75.28 281.76"/><polygon class="cls-11" points="91.7 281.76 93.85 286.11 98.64 286.8 95.17 290.18 95.99 294.96 91.7 292.7 87.41 294.96 88.23 290.18 84.76 286.8 89.56 286.11 91.7 281.76"/><polygon class="cls-11" points="108.13 281.76 110.27 286.11 115.07 286.8 111.6 290.18 112.42 294.96 108.13 292.7 103.84 294.96 104.66 290.18 101.19 286.8 105.98 286.11 108.13 281.76"/><polygon class="cls-12" points="140.98 281.76 143.12 286.11 147.92 286.8 144.45 290.18 145.27 294.96 140.98 292.7 136.69 294.96 137.51 290.18 134.04 286.8 138.83 286.11 140.98 281.76"/><path class="cls-11" d="M127.33,298.39l-4.8.69,3.47,3.38-.82,4.78,4.28-2.26V294Z" transform="translate(-4.92 -12.28)"/><path class="cls-11" d="M129.53,294V305l4.28,2.26-.82-4.78,3.47-3.38-4.8-.69Z" transform="translate(-4.92 -12.28)"/><polygon class="cls-11" points="75.22 138.8 77.36 143.15 82.17 143.85 78.69 147.23 79.52 152.02 75.22 149.75 70.92 152.01 71.74 147.23 68.26 143.84 73.07 143.14 75.22 138.8"/><polygon class="cls-11" points="91.68 138.8 93.82 143.15 98.63 143.84 95.15 147.23 95.97 152.01 91.68 149.76 87.38 152.02 88.19 147.23 84.72 143.84 89.52 143.15 91.68 138.8"/><polygon class="cls-11" points="108.13 138.79 110.28 143.15 115.08 143.84 111.61 147.23 112.42 152.02 108.13 149.76 103.84 152.02 104.65 147.23 101.18 143.84 105.99 143.14 108.13 138.79"/><polygon class="cls-12" points="141.05 138.79 143.19 143.15 148 143.84 144.53 147.23 145.34 152.01 141.05 149.76 136.76 152.02 137.57 147.23 134.09 143.85 138.9 143.15 141.05 138.79"/><polygon class="cls-11" points="204.52 348.12 206.69 352.54 211.56 353.24 208.04 356.68 208.87 361.52 204.52 359.23 200.16 361.53 201 356.67 197.47 353.24 202.34 352.53 204.52 348.12"/><polygon class="cls-11" points="221.19 348.13 223.37 352.54 228.24 353.24 224.72 356.67 225.54 361.52 221.19 359.23 216.84 361.52 217.67 356.67 214.15 353.25 219.01 352.54 221.19 348.13"/><polygon class="cls-11" points="237.87 348.12 240.05 352.53 244.92 353.24 241.39 356.67 242.23 361.52 237.87 359.24 233.52 361.52 234.35 356.67 230.83 353.24 235.7 352.53 237.87 348.12"/><polygon class="cls-13" points="271.22 348.12 273.4 352.53 278.26 353.24 274.74 356.68 275.57 361.52 271.22 359.23 266.87 361.52 267.7 356.68 264.18 353.24 269.05 352.53 271.22 348.12"/><path class="cls-12" d="M283.18,365.51l-4.85-.67-2.17-4.41v11.11l4.36,2.29-.84-4.84Z" transform="translate(-4.92 -12.28)"/><polygon class="cls-13" points="255.23 348.45 257.41 352.86 262.27 353.56 258.75 357 259.59 361.85 255.23 359.56 250.88 361.85 251.71 357.01 248.19 353.57 253.06 352.86 255.23 348.45"/><path class="cls-14" d="M229.8,320.66" transform="translate(-4.92 -12.28)"/><path class="cls-15" d="M5.46,108.12" transform="translate(-4.92 -12.28)"/><path class="cls-16" d="M32.27,69.93" transform="translate(-4.92 -12.28)"/><path class="cls-16" d="M0,109.29" transform="translate(-4.92 -12.28)"/><path class="cls-14" d="M110.7,0" transform="translate(-4.92 -12.28)"/><path class="cls-14" d="M148.44,1.13" transform="translate(-4.92 -12.28)"/><path class="cls-17" d="M78.21,55.72" transform="translate(-4.92 -12.28)"/><path class="cls-18" d="M88.69,46.72" transform="translate(-4.92 -12.28)"/><path class="cls-18" d="M107.47,52.81" transform="translate(-4.92 -12.28)"/><path class="cls-19" d="M108.54,54.64" transform="translate(-4.92 -12.28)"/><path class="cls-20" d="M87.37,46.27" transform="translate(-4.92 -12.28)"/><path class="cls-21" d="M106.83,52.58" transform="translate(-4.92 -12.28)"/><path class="cls-21" d="M107.93,54.47" transform="translate(-4.92 -12.28)"/><path class="cls-21" d="M96.7,56.38" transform="translate(-4.92 -12.28)"/><path class="cls-22" d="M93.78,59.93" transform="translate(-4.92 -12.28)"/><path class="cls-23" d="M147.05,46.7l-4.54-13.83-1.83-5.48,6.62-2.2,14.29-4.75a23,23,0,0,0-14.65-7.07h0a22.85,22.85,0,0,0-24.35,18.28h0L82.79,45.53,44.1,58.4a22.84,22.84,0,0,0-38,14.3L27,65.78l6.43,19.3L12.91,91.9A22.87,22.87,0,0,0,51.25,79.22L89.37,66.55l39.81-13.84h0a22.88,22.88,0,0,0,32.34-.81h0a22.54,22.54,0,0,0,3.87-5.51,22.94,22.94,0,0,0,2.12-6.5Z" transform="translate(-4.92 -12.28)"/><path class="cls-24" d="M62.36,60.31a9.25,9.25,0,0,0-1.81-.3,5,5,0,0,0-1.64.15,4.22,4.22,0,0,0-.8.33,1.94,1.94,0,0,0-.55.44,1.4,1.4,0,0,0-.29.57,1.5,1.5,0,0,0,0,.7,1.22,1.22,0,0,0,.58.8,3.25,3.25,0,0,0,1.17.44,11.35,11.35,0,0,0,1.44.21,8.06,8.06,0,0,1,1.76.34,3.76,3.76,0,0,1,1.56,1,3.94,3.94,0,0,1,1,2.07,4,4,0,0,1-.67,3.27,4.7,4.7,0,0,1-1.34,1.29,6.16,6.16,0,0,1-2,.92,8.67,8.67,0,0,1-1.68.28,8.54,8.54,0,0,1-1.75,0,7.69,7.69,0,0,1-1.76-.44l.76-2.57a7.53,7.53,0,0,0,1.23.36,7.81,7.81,0,0,0,1.28.11A4.42,4.42,0,0,0,60,70.05a3.9,3.9,0,0,0,.93-.42,2,2,0,0,0,.74-.73,1.39,1.39,0,0,0,.15-1.05,1.15,1.15,0,0,0-.45-.72,2.77,2.77,0,0,0-.9-.43,4.91,4.91,0,0,0-1.14-.23c-.46,0-1-.12-1.47-.21a7.57,7.57,0,0,1-1.47-.45,3.48,3.48,0,0,1-1.22-.93,3.73,3.73,0,0,1-.74-1.66,4.64,4.64,0,0,1,.09-2.34A4.23,4.23,0,0,1,55.71,59a6.41,6.41,0,0,1,2.19-1.23,9.41,9.41,0,0,1,2-.41,8.65,8.65,0,0,1,1.61.09,10.76,10.76,0,0,1,1.38.36Z" transform="translate(-4.92 -12.28)"/><path class="cls-24" d="M69,59.53l.07.77.31-.71,3.4-6.9,3.57-1.24L71.94,60l7.48,6-3.49,1.2L70.3,62.47l-.52,1,1.11,5.49-2.78,1L65,55.34l2.78-1Z" transform="translate(-4.92 -12.28)"/><path class="cls-24" d="M78.39,50.75l2.87-1,3.08,14.54-2.87,1Z" transform="translate(-4.92 -12.28)"/><path class="cls-24" d="M84.85,48.53l2.75-.94,2.49,11.74,6.55-2.25.56,2.77-9.3,3.2Z" transform="translate(-4.92 -12.28)"/><path class="cls-24" d="M97,44.38l2.74-1,2.49,11.74,6.56-2.24.56,2.76L100,58.92Z" transform="translate(-4.92 -12.28)"/><path class="cls-24" d="M117.4,41.39a9.93,9.93,0,0,0-1.8-.29,4.76,4.76,0,0,0-1.64.14,5,5,0,0,0-.8.33,2.22,2.22,0,0,0-.56.45,1.31,1.31,0,0,0-.28.58,1.78,1.78,0,0,0,0,.69,1.21,1.21,0,0,0,.59.8,3.62,3.62,0,0,0,1.16.44q.7.13,1.44.21a8.26,8.26,0,0,1,1.77.34,3.62,3.62,0,0,1,1.56,1,4.72,4.72,0,0,1,1,3.74,4.35,4.35,0,0,1-.65,1.59,5.29,5.29,0,0,1-1.33,1.34,6.52,6.52,0,0,1-2,.9,8.78,8.78,0,0,1-1.68.34,9.31,9.31,0,0,1-1.75-.05,7.17,7.17,0,0,1-1.77-.44l.78-2.57a7.12,7.12,0,0,0,1.22.35,7,7,0,0,0,1.29.12,4.87,4.87,0,0,0,1.14-.14,3.57,3.57,0,0,0,.93-.43,2,2,0,0,0,.75-.72,1.47,1.47,0,0,0,.15-1,1.06,1.06,0,0,0-.47-.71,2.45,2.45,0,0,0-.89-.43,4.72,4.72,0,0,0-1.13-.23c-.47,0-1-.12-1.47-.22a6.45,6.45,0,0,1-1.48-.44,3.67,3.67,0,0,1-1.21-.94,3.72,3.72,0,0,1-.73-1.66,4.43,4.43,0,0,1,.09-2.34,4.35,4.35,0,0,1,1.23-1.89,6.06,6.06,0,0,1,2.2-1.23,8.33,8.33,0,0,1,2-.41,6.68,6.68,0,0,1,1.61.1A8.87,8.87,0,0,1,118,39Z" transform="translate(-4.92 -12.28)"/><path class="cls-1" d="M57.86,39.89a1.67,1.67,0,0,0-1.21-1.49,1.75,1.75,0,0,1-.45-3.11,1.75,1.75,0,0,0-1.43-3.17,1.73,1.73,0,0,1-2.06-2.37,1.75,1.75,0,0,0-2.9-1.87,1.76,1.76,0,0,1-2.48.12,1.81,1.81,0,0,1-.55-1,1.74,1.74,0,0,0-3.44,0,1.74,1.74,0,0,1-2,1.44,1.72,1.72,0,0,1-1-.55,1.76,1.76,0,0,0-2.91,1.87,1.74,1.74,0,0,1-2.06,2.37,1.75,1.75,0,0,0-1.43,3.17,1.74,1.74,0,0,1,.47,2.42,1.72,1.72,0,0,1-.92.69A1.75,1.75,0,0,0,34,41.81a1.75,1.75,0,0,1,1.31,2.87,1.74,1.74,0,0,0,2.26,2.6,1.75,1.75,0,0,1,2.4.57h0A1.75,1.75,0,0,1,40.2,49a1.74,1.74,0,0,0,1.5,1.95,1.76,1.76,0,0,0,1.81-1,1.73,1.73,0,0,1,2.3-.85h0a1.68,1.68,0,0,1,.85.85A1.75,1.75,0,0,0,50,49a1.77,1.77,0,0,1,1.54-2,1.72,1.72,0,0,1,1.11.24l.14.08a1.68,1.68,0,0,0,1.9-.23,1.74,1.74,0,0,0,.23-2.43h0a1.75,1.75,0,0,1,.22-2.46,1.72,1.72,0,0,1,1.09-.4,1.72,1.72,0,0,0,1.69-1.73h0A1.55,1.55,0,0,0,57.86,39.89ZM45,42.35a4.1,4.1,0,1,1,4.09-4.09A4.1,4.1,0,0,1,45,42.35Z" transform="translate(-4.92 -12.28)"/><path class="cls-11" d="M193.72,75.29a7.33,7.33,0,0,1-.72,3.38,5.22,5.22,0,0,1-1.94,2.13,5.51,5.51,0,0,1-2.74.79V80.42a4.2,4.2,0,0,0,3-1.43,5.46,5.46,0,0,0,1.19-3.77v-15h1.22Z" transform="translate(-4.92 -12.28)"/><path class="cls-11" d="M202.82,78.17a5.11,5.11,0,0,1-2.53-.64,4.69,4.69,0,0,1-1.8-1.79,5.19,5.19,0,0,1-.67-2.67,5.35,5.35,0,0,1,.7-2.79,4.65,4.65,0,0,1,1.9-1.78,6,6,0,0,1,2.73-.61,4.32,4.32,0,0,1,2.46.78,4.27,4.27,0,0,1,1.66,2l-.17.35.15-2.78h1.05V78h-1.18v-3l.25.45a2.92,2.92,0,0,1-.6,1,5.73,5.73,0,0,1-1,.9,5.62,5.62,0,0,1-1.35.65A5.1,5.1,0,0,1,202.82,78.17Zm.25-1a4.21,4.21,0,0,0,2-.47,3.78,3.78,0,0,0,1.44-1.28,3.93,3.93,0,0,0,.62-1.9v-1.4a3.82,3.82,0,0,0-.78-1.65,4.34,4.34,0,0,0-1.44-1.15,4,4,0,0,0-1.85-.43,4.13,4.13,0,0,0-2,.51,3.91,3.91,0,0,0-1.47,1.44A4.15,4.15,0,0,0,199,73a4,4,0,0,0,.55,2.08A4,4,0,0,0,201,76.6,3.82,3.82,0,0,0,203.07,77.17Z" transform="translate(-4.92 -12.28)"/><path class="cls-11" d="M216.17,78.34l-4.95-10.15h1.38l4.07,8.88L216,77l3.92-8.85h1.3l-4.85,10.15Z" transform="translate(-4.92 -12.28)"/><path class="cls-11" d="M227.87,78.17a5.11,5.11,0,0,1-2.53-.64,4.69,4.69,0,0,1-1.8-1.79,5.19,5.19,0,0,1-.67-2.67,5.35,5.35,0,0,1,.7-2.79,4.65,4.65,0,0,1,1.9-1.78,6,6,0,0,1,2.73-.61,4.34,4.34,0,0,1,2.46.78,4.27,4.27,0,0,1,1.66,2l-.17.35.15-2.78h1V78h-1.18v-3l.25.45a2.92,2.92,0,0,1-.6,1,5.73,5.73,0,0,1-1,.9,5.62,5.62,0,0,1-1.35.65A5.1,5.1,0,0,1,227.87,78.17Zm.25-1a4.21,4.21,0,0,0,2-.47,3.78,3.78,0,0,0,1.44-1.28,3.93,3.93,0,0,0,.62-1.9v-1.4a3.82,3.82,0,0,0-.78-1.65A4.34,4.34,0,0,0,230,69.32a4,4,0,0,0-1.85-.43,4.13,4.13,0,0,0-2,.51,3.91,3.91,0,0,0-1.47,1.44,4.15,4.15,0,0,0-.55,2.18,4,4,0,0,0,.55,2.08,4,4,0,0,0,1.49,1.5A3.82,3.82,0,0,0,228.12,77.17Z" transform="translate(-4.92 -12.28)"/><path class="cls-11" d="M247.27,62.22a11.29,11.29,0,0,0-1.9-.7,8,8,0,0,0-2.25-.33,4.21,4.21,0,0,0-2.8.88,2.73,2.73,0,0,0-1,2.2,2.39,2.39,0,0,0,.6,1.66,4.87,4.87,0,0,0,1.58,1.12c.65.31,1.34.61,2.07.89s1.17.46,1.74.73a6.84,6.84,0,0,1,1.56,1,4.17,4.17,0,0,1,1.12,1.43,4.82,4.82,0,0,1,.41,2.1,5,5,0,0,1-.7,2.61,4.75,4.75,0,0,1-2,1.76,6.38,6.38,0,0,1-2.9.63,8.21,8.21,0,0,1-2.41-.33,10.7,10.7,0,0,1-1.91-.76c-.54-.29-1-.54-1.28-.74l.57-1a10.53,10.53,0,0,0,1.34.8,10.88,10.88,0,0,0,1.71.68,6.63,6.63,0,0,0,1.85.27,5.38,5.38,0,0,0,2.09-.42,4.2,4.2,0,0,0,1.68-1.29,3.52,3.52,0,0,0,.66-2.19,3.19,3.19,0,0,0-.63-2.06,4.65,4.65,0,0,0-1.6-1.29,19.55,19.55,0,0,0-2.07-.9c-.57-.22-1.14-.44-1.7-.69a7.49,7.49,0,0,1-1.55-.87,3.85,3.85,0,0,1-1.11-1.24,3.44,3.44,0,0,1-.42-1.75,3.84,3.84,0,0,1,.65-2.22,4.39,4.39,0,0,1,1.77-1.49,5.85,5.85,0,0,1,2.53-.56,10.8,10.8,0,0,1,4.78,1.15Z" transform="translate(-4.92 -12.28)"/><path class="cls-11" d="M259.87,77a5.26,5.26,0,0,1-1.52.85,5.32,5.32,0,0,1-1.78.3,5.24,5.24,0,0,1-2.67-.67,4.8,4.8,0,0,1-1.85-1.81,5.09,5.09,0,0,1-.68-2.62,5,5,0,0,1,.7-2.63,5.13,5.13,0,0,1,4.4-2.47,5.78,5.78,0,0,1,1.9.3,4.65,4.65,0,0,1,1.53.85l-.63.8a4.42,4.42,0,0,0-1.22-.7,4,4,0,0,0-1.5-.28,3.81,3.81,0,0,0-2,.55A4.14,4.14,0,0,0,253.08,71a4.33,4.33,0,0,0,0,4.15,4.06,4.06,0,0,0,3.57,2,4,4,0,0,0,1.4-.24,4.42,4.42,0,0,0,1.17-.64Z" transform="translate(-4.92 -12.28)"/><path class="cls-11" d="M264.17,68.19l.13,3-.15-.37a3.85,3.85,0,0,1,1-1.55,5,5,0,0,1,1.56-1,4.32,4.32,0,0,1,1.67-.35l0,1.15a4.11,4.11,0,0,0-2,.5,4,4,0,0,0-1.45,1.33,3.42,3.42,0,0,0-.54,1.89V78h-1.17V68.19Z" transform="translate(-4.92 -12.28)"/><path class="cls-11" d="M271.45,64.59a.76.76,0,0,1,.27-.59,1,1,0,0,1,.6-.23.85.85,0,0,1,.6.23.78.78,0,0,1,.25.59.79.79,0,0,1-.25.61.81.81,0,0,1-.6.24.88.88,0,0,1-.6-.25A.8.8,0,0,1,271.45,64.59Zm.25,3.6h1.17V78H271.7Z" transform="translate(-4.92 -12.28)"/><path class="cls-11" d="M282.72,78.17a5,5,0,0,1-2.62-.74,4.52,4.52,0,0,1-1.8-1.91l.2-.43v7.58h-1.18V68.12h1.05l.13,3.2-.23-.73a5.34,5.34,0,0,1,1.9-1.94,5.23,5.23,0,0,1,2.73-.76,4.81,4.81,0,0,1,2.52.68,5,5,0,0,1,1.79,1.83,5.34,5.34,0,0,1,.66,2.67,5.13,5.13,0,0,1-.68,2.63,4.92,4.92,0,0,1-1.86,1.82A5.26,5.26,0,0,1,282.72,78.17Zm-.2-1a4,4,0,0,0,2.09-.55,4.28,4.28,0,0,0,1.5-1.49,4,4,0,0,0,.56-2.08,4.11,4.11,0,0,0-2-3.6,3.9,3.9,0,0,0-2.06-.55,4,4,0,0,0-2,.5,3.92,3.92,0,0,0-1.45,1.35,4,4,0,0,0-.65,1.92v.8a3.94,3.94,0,0,0,.63,1.88,4.11,4.11,0,0,0,1.45,1.33A3.94,3.94,0,0,0,282.52,77.19Z" transform="translate(-4.92 -12.28)"/><path class="cls-11" d="M292.35,63.89h1.2v4.43h3v1h-3V78h-1.2v-8.7h-2.08v-1h2.08Z" transform="translate(-4.92 -12.28)"/><path class="cls-11" d="M79.61,127.73a7.14,7.14,0,0,1,2,.28,5.64,5.64,0,0,1,1.8.9,4.57,4.57,0,0,1,1.31,1.57,4.73,4.73,0,0,1,.5,2.27,6.34,6.34,0,0,1-.3,1.94,4.63,4.63,0,0,1-1,1.69,4.86,4.86,0,0,1-1.75,1.2,6.89,6.89,0,0,1-2.65.45H76.79v7.45H75.56V127.73Zm-.15,9.12a5.58,5.58,0,0,0,2.2-.37,3.54,3.54,0,0,0,1.38-1,3.73,3.73,0,0,0,.71-1.31A4.94,4.94,0,0,0,84,132.8a4,4,0,0,0-.28-1.5,3.73,3.73,0,0,0-.84-1.24,4.21,4.21,0,0,0-1.33-.85,4.5,4.5,0,0,0-1.72-.31h-3v7.95Zm2.55.55,4.93,8.08H85.51l-5-8Z" transform="translate(-4.92 -12.28)"/><path class="cls-11" d="M91.39,127.73h11v1.17H92.61v7h8.75v1.18H92.61v7.17h10.08v1.18H91.39Z" transform="translate(-4.92 -12.28)"/><path class="cls-11" d="M105.81,145.48l7.5-18.53h.1l7.5,18.53h-1.37L113,128.9l.85-.47-6.82,17Zm3.63-7h7.87l.35,1.15h-8.52Z" transform="translate(-4.92 -12.28)"/><path class="cls-11" d="M137.24,144.3a12.59,12.59,0,0,1-1.33.68,9.39,9.39,0,0,1-1.65.51,9.92,9.92,0,0,1-1.95.19,9.07,9.07,0,0,1-3.67-.72,8.42,8.42,0,0,1-2.83-2,8.82,8.82,0,0,1-1.81-2.85,9.33,9.33,0,0,1-.64-3.43,9.65,9.65,0,0,1,.68-3.63,8.73,8.73,0,0,1,1.9-2.92,8.51,8.51,0,0,1,2.85-2,8.75,8.75,0,0,1,3.52-.7,8.94,8.94,0,0,1,2.63.37,10,10,0,0,1,2.22,1l-.52,1.12a9.26,9.26,0,0,0-2-.92,7.14,7.14,0,0,0-2.32-.38,7.36,7.36,0,0,0-3,.61,7.83,7.83,0,0,0-4.12,4.24,8.12,8.12,0,0,0-.6,3.13,8.46,8.46,0,0,0,.54,3,7.26,7.26,0,0,0,1.55,2.5,7.12,7.12,0,0,0,2.43,1.69,7.94,7.94,0,0,0,3.18.61,7.63,7.63,0,0,0,2.39-.36,8.61,8.61,0,0,0,1.93-.91Z" transform="translate(-4.92 -12.28)"/><path class="cls-11" d="M140.34,127.73H152v1.17h-5.22v16.58h-1.23V128.9h-5.17Z" transform="translate(-4.92 -12.28)"/><path class="cls-11" d="M210.16,195.79a11.49,11.49,0,0,1-1.32.68,9.39,9.39,0,0,1-1.65.51,9.92,9.92,0,0,1-1.95.19,9.12,9.12,0,0,1-3.68-.72,8.28,8.28,0,0,1-2.82-1.95,8.68,8.68,0,0,1-1.82-2.85,9.33,9.33,0,0,1-.63-3.43,9.64,9.64,0,0,1,.67-3.63,8.81,8.81,0,0,1,8.28-5.57,8.92,8.92,0,0,1,2.62.37,10,10,0,0,1,2.23,1l-.53,1.12a9.18,9.18,0,0,0-2-.92,7.2,7.2,0,0,0-2.33-.38,7.44,7.44,0,0,0-3,.61,7.84,7.84,0,0,0-2.47,1.7,7.93,7.93,0,0,0-1.66,2.54,8.12,8.12,0,0,0-.6,3.13,8.46,8.46,0,0,0,.54,3,7.41,7.41,0,0,0,1.55,2.5,7.16,7.16,0,0,0,2.44,1.69,7.9,7.9,0,0,0,3.17.61,7.58,7.58,0,0,0,2.39-.36,8.91,8.91,0,0,0,1.94-.91Z" transform="translate(-4.92 -12.28)"/><path class="cls-11" d="M223.56,181.22a11.63,11.63,0,0,0-1.9-.7,8,8,0,0,0-2.25-.33,4.19,4.19,0,0,0-2.8.88,2.73,2.73,0,0,0-1.05,2.2,2.39,2.39,0,0,0,.6,1.66,4.82,4.82,0,0,0,1.57,1.12c.66.31,1.35.61,2.08.89.58.22,1.16.46,1.74.73a7.3,7.3,0,0,1,1.56,1,4,4,0,0,1,1.11,1.43,4.68,4.68,0,0,1,.42,2.1,5,5,0,0,1-.7,2.61,4.72,4.72,0,0,1-2,1.76,6.32,6.32,0,0,1-2.9.63,8.31,8.31,0,0,1-2.41-.33,10.58,10.58,0,0,1-1.9-.76c-.54-.29-1-.54-1.29-.74l.58-1a9.87,9.87,0,0,0,1.34.8,10.16,10.16,0,0,0,1.71.68,6.57,6.57,0,0,0,1.85.27,5.42,5.42,0,0,0,2.09-.42,4.17,4.17,0,0,0,1.67-1.29,3.52,3.52,0,0,0,.67-2.19,3.19,3.19,0,0,0-.63-2.06,4.75,4.75,0,0,0-1.6-1.29,18.86,18.86,0,0,0-2.08-.9c-.56-.22-1.13-.44-1.69-.69a7.84,7.84,0,0,1-1.56-.87,4.1,4.1,0,0,1-1.11-1.24,3.54,3.54,0,0,1-.41-1.75,3.84,3.84,0,0,1,.65-2.22,4.36,4.36,0,0,1,1.76-1.49,5.89,5.89,0,0,1,2.54-.56,10.22,10.22,0,0,1,2.54.32,9.8,9.8,0,0,1,2.23.83Z" transform="translate(-4.92 -12.28)"/><path class="cls-11" d="M238.09,181.22a11.63,11.63,0,0,0-1.9-.7,8,8,0,0,0-2.25-.33,4.19,4.19,0,0,0-2.8.88,2.73,2.73,0,0,0-1,2.2,2.39,2.39,0,0,0,.6,1.66,4.82,4.82,0,0,0,1.57,1.12c.65.31,1.34.61,2.08.89.58.22,1.16.46,1.73.73a7.13,7.13,0,0,1,1.57,1,4.27,4.27,0,0,1,1.11,1.43,5.37,5.37,0,0,1-.29,4.71,4.75,4.75,0,0,1-2,1.76,6.35,6.35,0,0,1-2.9.63,8.26,8.26,0,0,1-2.41-.33,10.29,10.29,0,0,1-1.9-.76c-.54-.29-1-.54-1.29-.74l.58-1a9.71,9.71,0,0,0,1.33.8,10.62,10.62,0,0,0,1.72.68,6.51,6.51,0,0,0,1.84.27,5.38,5.38,0,0,0,2.09-.42,4.13,4.13,0,0,0,1.68-1.29,3.52,3.52,0,0,0,.66-2.19,3.24,3.24,0,0,0-.62-2.06,4.75,4.75,0,0,0-1.6-1.29,19.73,19.73,0,0,0-2.08-.9c-.57-.22-1.13-.44-1.7-.69a7.76,7.76,0,0,1-1.55-.87,3.85,3.85,0,0,1-1.11-1.24,3.43,3.43,0,0,1-.41-1.75,3.84,3.84,0,0,1,.64-2.22,4.46,4.46,0,0,1,1.77-1.49,5.89,5.89,0,0,1,2.54-.56,10.14,10.14,0,0,1,2.53.32,9.89,9.89,0,0,1,2.24.83Z" transform="translate(-4.92 -12.28)"/><path class="cls-11" d="M247.06,184.64h1.07v4h4v1h-4v4h-1.07v-4h-4v-1h4Z" transform="translate(-4.92 -12.28)"/><path class="cls-11" d="M202.14,212.94a4.43,4.43,0,0,0-1.62.31,5.19,5.19,0,0,0-1.47.87,4.08,4.08,0,0,0-1.06,1.31,3.54,3.54,0,0,0-.4,1.69,3.46,3.46,0,0,0,.62,2.06,4.34,4.34,0,0,0,1.68,1.39,5.31,5.31,0,0,0,2.3.5,5.57,5.57,0,0,0,2-.35,5.64,5.64,0,0,0,1.59-.93,3.54,3.54,0,0,0,1-1.25l.77.8a5.11,5.11,0,0,1-2.1,2,6.65,6.65,0,0,1-3.35.82,6.31,6.31,0,0,1-3-.68,5.31,5.31,0,0,1-2.05-1.81,4.53,4.53,0,0,1-.75-2.54,4.44,4.44,0,0,1,.48-2,5.45,5.45,0,0,1,1.32-1.63,6.45,6.45,0,0,1,4-1.53Zm8.2,9h-1.43l-9.22-12c-.14-.23-.28-.49-.44-.79a4.73,4.73,0,0,1-.39-1,3.92,3.92,0,0,1-.15-1.11,3.87,3.87,0,0,1,.53-2,3.71,3.71,0,0,1,1.46-1.4,4.4,4.4,0,0,1,2.14-.51,5.31,5.31,0,0,1,2.16.43,7.43,7.43,0,0,1,1.66,1l-.6.83a7.58,7.58,0,0,0-1.51-.88,3.83,3.83,0,0,0-1.54-.32,3.09,3.09,0,0,0-2.19.81,2.72,2.72,0,0,0-.86,2.06,3.14,3.14,0,0,0,.19,1.1,5.48,5.48,0,0,0,.37.85l.22.38Zm-1.13-10h1.2l-2.77,7.23-.88-.68Z" transform="translate(-4.92 -12.28)"/><path class="cls-11" d="M236,204.22V222h-1.22v-8.35h-10.7V222h-1.23V204.22h1.23v8.25h10.7v-8.25Z" transform="translate(-4.92 -12.28)"/><path class="cls-11" d="M240.24,204.22h11.62v1.17h-5.22V222h-1.23V205.39h-5.17Z" transform="translate(-4.92 -12.28)"/><path class="cls-11" d="M256.09,222V203.82h0l8.75,12.42-.52-.07,8.72-12.35h0V222h-1.2V206.64l.09.6-7.39,10.43h0l-7.45-10.43.2-.55V222Z" transform="translate(-4.92 -12.28)"/><path class="cls-11" d="M278.73,204.22H280v16.57h9.73V222h-11Z" transform="translate(-4.92 -12.28)"/><path class="cls-11" d="M58.66,247.72a6.84,6.84,0,0,1,2.89.56A4.26,4.26,0,0,1,63.48,250a5.29,5.29,0,0,1,.68,2.79,6.06,6.06,0,0,1-.31,1.94,4.7,4.7,0,0,1-1,1.69,5,5,0,0,1-1.75,1.2,6.55,6.55,0,0,1-2.56.45H55.79v7.45H54.56V247.72Zm-.12,9.12a5.07,5.07,0,0,0,2.16-.41,3.65,3.65,0,0,0,1.35-1.05,4.11,4.11,0,0,0,.7-1.34,4.56,4.56,0,0,0,.21-1.3,4.27,4.27,0,0,0-.27-1.55,3.35,3.35,0,0,0-.81-1.21,3.8,3.8,0,0,0-1.32-.8,5.05,5.05,0,0,0-1.77-.29h-3v7.95Z" transform="translate(-4.92 -12.28)"/><path class="cls-11" d="M67.81,265.47v-19H69v11.82l-.07-.42a4.24,4.24,0,0,1,1.61-1.74,4.61,4.61,0,0,1,2.56-.71,3.1,3.1,0,0,1,2.23.81,2.82,2.82,0,0,1,.87,2.11v7.13H75v-6.8a2.28,2.28,0,0,0-.6-1.58,2.22,2.22,0,0,0-1.67-.65,3.6,3.6,0,0,0-1.83.5,3.82,3.82,0,0,0-1.36,1.35,3.69,3.69,0,0,0-.51,1.93v5.25Z" transform="translate(-4.92 -12.28)"/><path class="cls-11" d="M79.66,260.52a5.11,5.11,0,0,1,2.57-4.47,5.56,5.56,0,0,1,5.33,0,5,5,0,0,1,1.85,1.87,5.31,5.31,0,0,1,0,5.2A5,5,0,0,1,87.55,265a5.26,5.26,0,0,1-2.69.69,5.35,5.35,0,0,1-2.65-.67,5,5,0,0,1-1.86-1.82A5.12,5.12,0,0,1,79.66,260.52Zm1.18,0a4.12,4.12,0,0,0,.54,2.09,4.06,4.06,0,0,0,1.45,1.49,3.88,3.88,0,0,0,2,.55,4,4,0,0,0,2-.55,4.25,4.25,0,0,0,1.45-5.67A4.25,4.25,0,0,0,86.9,257a3.86,3.86,0,0,0-2-.56,3.75,3.75,0,0,0-2.06.59,4.18,4.18,0,0,0-1.44,1.54A4.08,4.08,0,0,0,80.84,260.54Z" transform="translate(-4.92 -12.28)"/><path class="cls-11" d="M94.56,251.39h1.2v4.43h3v.95h-3v8.7h-1.2v-8.7H92.49v-.95h2.07Z" transform="translate(-4.92 -12.28)"/><path class="cls-11" d="M100.76,260.52a5.11,5.11,0,0,1,2.57-4.47,5.56,5.56,0,0,1,5.33,0,5,5,0,0,1,1.85,1.87,5.31,5.31,0,0,1,0,5.2,5,5,0,0,1-1.86,1.86,5.26,5.26,0,0,1-2.69.69,5.35,5.35,0,0,1-2.65-.67,5,5,0,0,1-1.86-1.82A5.12,5.12,0,0,1,100.76,260.52Zm1.18,0a4.12,4.12,0,0,0,.54,2.09,4.06,4.06,0,0,0,1.45,1.49,3.88,3.88,0,0,0,2,.55,4,4,0,0,0,2-.55,4.25,4.25,0,0,0,1.45-5.67A4.25,4.25,0,0,0,108,257a3.86,3.86,0,0,0-2-.56,3.75,3.75,0,0,0-2.06.59,4.18,4.18,0,0,0-1.44,1.54A4.08,4.08,0,0,0,101.94,260.54Z" transform="translate(-4.92 -12.28)"/><path class="cls-11" d="M117,265.67a5.54,5.54,0,0,1-1.78-.32,3.21,3.21,0,0,1-1.5-1l.55-.77a3.86,3.86,0,0,0,1.19.83,3.53,3.53,0,0,0,2.55.15,1.74,1.74,0,0,0,.84-.56,1.63,1.63,0,0,0,.32-1.07,1.46,1.46,0,0,0-.38-1.08,3.08,3.08,0,0,0-1-.61,12.83,12.83,0,0,0-1.24-.44,5,5,0,0,1-1.76-1,2.14,2.14,0,0,1-.69-1.7,2.52,2.52,0,0,1,.39-1.4,2.69,2.69,0,0,1,1.06-.94,3.44,3.44,0,0,1,1.53-.33,4.82,4.82,0,0,1,1.54.25,3.53,3.53,0,0,1,1.38.85l-.52.82a2,2,0,0,0-1.06-.75,4.83,4.83,0,0,0-1.17-.22,2.37,2.37,0,0,0-.88.17,2.12,2.12,0,0,0-.78.51,1.25,1.25,0,0,0-.31.89,1.39,1.39,0,0,0,.32.94,2.49,2.49,0,0,0,.84.59c.34.15.7.29,1.06.42a9.3,9.3,0,0,1,1.37.54,3.17,3.17,0,0,1,1.05.82,2.17,2.17,0,0,1,.41,1.37,3.15,3.15,0,0,1-.38,1.53,2.63,2.63,0,0,1-1.11,1.08A3.94,3.94,0,0,1,117,265.67Z" transform="translate(-4.92 -12.28)"/><path class="cls-11" d="M123.89,265.47v-19H125v11.82l-.08-.42a4.31,4.31,0,0,1,1.61-1.74,4.64,4.64,0,0,1,2.57-.71,3.08,3.08,0,0,1,2.22.81,2.86,2.86,0,0,1,.88,2.11v7.13H131v-6.8a2.37,2.37,0,0,0-.6-1.58,2.25,2.25,0,0,0-1.68-.65,3.54,3.54,0,0,0-1.82.5,3.85,3.85,0,0,0-1.37,1.35,3.69,3.69,0,0,0-.51,1.93v5.25Z" transform="translate(-4.92 -12.28)"/><path class="cls-11" d="M135.74,260.52a5.13,5.13,0,0,1,2.56-4.47,5.58,5.58,0,0,1,5.34,0,5,5,0,0,1,1.85,1.87,5.38,5.38,0,0,1,0,5.2,5,5,0,0,1-1.87,1.86,5.22,5.22,0,0,1-2.68.69,5.3,5.3,0,0,1-2.65-.67,4.85,4.85,0,0,1-1.86-1.82A5.12,5.12,0,0,1,135.74,260.52Zm1.17,0a4.13,4.13,0,0,0,2,3.58,4.06,4.06,0,0,0,4.08,0,4.28,4.28,0,0,0,1.45-5.67A4.34,4.34,0,0,0,143,257a3.86,3.86,0,0,0-2-.56,3.76,3.76,0,0,0-2.07.59,4.23,4.23,0,0,0-1.43,1.54A4.09,4.09,0,0,0,136.91,260.54Z" transform="translate(-4.92 -12.28)"/><path class="cls-11" d="M155.06,265.67a5,5,0,0,1-2.62-.74,4.52,4.52,0,0,1-1.8-1.91l.2-.43v7.58h-1.18V255.62h1.05l.13,3.2-.23-.73a5.34,5.34,0,0,1,1.9-1.94,5.23,5.23,0,0,1,2.73-.76,4.81,4.81,0,0,1,2.52.68,5,5,0,0,1,1.79,1.83,5.34,5.34,0,0,1,.66,2.67,5.13,5.13,0,0,1-.68,2.63,5,5,0,0,1-1.85,1.82A5.33,5.33,0,0,1,155.06,265.67Zm-.2-1a4,4,0,0,0,2.09-.55,4.12,4.12,0,0,0,1.5-1.49,3.91,3.91,0,0,0,.56-2.08,4.11,4.11,0,0,0-2-3.6,3.9,3.9,0,0,0-2.06-.55,4,4,0,0,0-2,.5,3.92,3.92,0,0,0-1.45,1.35,4,4,0,0,0-.65,1.92v.8a3.84,3.84,0,0,0,.64,1.88,4,4,0,0,0,1.45,1.33A3.87,3.87,0,0,0,154.86,264.69Z" transform="translate(-4.92 -12.28)"/><path class="cls-11" d="M59.29,281.44a4.42,4.42,0,0,0-1.61.31,5.11,5.11,0,0,0-1.48.87,4.08,4.08,0,0,0-1.06,1.31,3.75,3.75,0,0,0,.22,3.75A4.34,4.34,0,0,0,57,289.07a5.34,5.34,0,0,0,2.3.5,5.58,5.58,0,0,0,2-.35,5.73,5.73,0,0,0,1.58-.93,3.54,3.54,0,0,0,1-1.25l.77.8a5.11,5.11,0,0,1-2.1,2,6.63,6.63,0,0,1-3.35.82,6.37,6.37,0,0,1-3-.68,5.31,5.31,0,0,1-2.05-1.81,4.53,4.53,0,0,1-.75-2.54,4.33,4.33,0,0,1,.49-2A5.27,5.27,0,0,1,55.24,282a6.45,6.45,0,0,1,4-1.53Zm8.2,9H66.06l-9.22-12-.44-.79a4.73,4.73,0,0,1-.39-.95,3.92,3.92,0,0,1-.15-1.11,3.87,3.87,0,0,1,.53-2,3.78,3.78,0,0,1,1.46-1.4,4.42,4.42,0,0,1,2.14-.51,5.31,5.31,0,0,1,2.16.43,7.43,7.43,0,0,1,1.66,1l-.6.83A7.58,7.58,0,0,0,61.7,273a3.83,3.83,0,0,0-1.54-.32,3,3,0,0,0-2.18.81,2.7,2.7,0,0,0-.87,2.06,3.39,3.39,0,0,0,.19,1.1,5.41,5.41,0,0,0,.38.85l.21.38Zm-1.13-10h1.2l-2.77,7.23-.88-.68Z" transform="translate(-4.92 -12.28)"/><path class="cls-11" d="M80,272.72h1.23v17.75H80Z" transform="translate(-4.92 -12.28)"/><path class="cls-11" d="M86.29,271.47h1.17v19H86.29Z" transform="translate(-4.92 -12.28)"/><path class="cls-11" d="M91.91,271.47h1.18v19H91.91Z" transform="translate(-4.92 -12.28)"/><path class="cls-11" d="M100.61,290.74a2.88,2.88,0,0,1-3.07-2.92v-7.13h1.17v6.78a2.49,2.49,0,0,0,.62,1.57,2.29,2.29,0,0,0,1.68.68,3.4,3.4,0,0,0,1.78-.5,4,4,0,0,0,1.34-1.37,3.77,3.77,0,0,0,.51-2v-5.2h1.17v9.78h-1l-.12-3.08.17.68a3.32,3.32,0,0,1-.88,1.36,4.7,4.7,0,0,1-1.5,1A4.87,4.87,0,0,1,100.61,290.74Z" transform="translate(-4.92 -12.28)"/><path class="cls-11" d="M112.56,290.67a5.48,5.48,0,0,1-1.77-.32,3.11,3.11,0,0,1-1.5-1l.55-.77a3.81,3.81,0,0,0,1.18.83,3.53,3.53,0,0,0,2.55.15,1.65,1.65,0,0,0,.84-.56,1.63,1.63,0,0,0,.33-1.07,1.43,1.43,0,0,0-.39-1.08,3,3,0,0,0-1-.61c-.4-.16-.81-.31-1.24-.44a4.83,4.83,0,0,1-1.76-1,2.14,2.14,0,0,1-.69-1.7,2.6,2.6,0,0,1,.38-1.4,2.72,2.72,0,0,1,1.07-.94,3.43,3.43,0,0,1,1.52-.33,4.82,4.82,0,0,1,1.54.25,3.56,3.56,0,0,1,1.39.85l-.53.82a1.93,1.93,0,0,0-1.06-.75,4.76,4.76,0,0,0-1.16-.22,2.42,2.42,0,0,0-.89.17,2,2,0,0,0-.77.51,1.26,1.26,0,0,0-.32.89,1.35,1.35,0,0,0,.33.94,2.35,2.35,0,0,0,.83.59c.35.15.7.29,1.07.42a9.63,9.63,0,0,1,1.36.54,3,3,0,0,1,1,.82,2.17,2.17,0,0,1,.41,1.37,3.15,3.15,0,0,1-.37,1.53,2.63,2.63,0,0,1-1.11,1.08A4,4,0,0,1,112.56,290.67Z" transform="translate(-4.92 -12.28)"/><path class="cls-11" d="M120.44,276.39h1.2v4.43h3v.95h-3v8.7h-1.2v-8.7h-2.08v-.95h2.08Z" transform="translate(-4.92 -12.28)"/><path class="cls-11" d="M128.61,280.69l.13,3-.15-.37a3.85,3.85,0,0,1,1-1.55,4.93,4.93,0,0,1,1.57-1,4.23,4.23,0,0,1,1.66-.35l-.05,1.15a4.11,4.11,0,0,0-2,.5,3.88,3.88,0,0,0-1.45,1.33,3.42,3.42,0,0,0-.54,1.89v5.18h-1.17v-9.78Z" transform="translate(-4.92 -12.28)"/><path class="cls-11" d="M139.81,290.67a5.18,5.18,0,0,1-2.54-.64,4.73,4.73,0,0,1-1.79-1.79,5.19,5.19,0,0,1-.67-2.67,5.35,5.35,0,0,1,.7-2.79,4.65,4.65,0,0,1,1.9-1.78,5.9,5.9,0,0,1,2.73-.61,4.37,4.37,0,0,1,2.46.78,4.27,4.27,0,0,1,1.66,1.95l-.17.35.15-2.78h1v9.78h-1.18v-3l.25.45a2.92,2.92,0,0,1-.6,1,5.73,5.73,0,0,1-1,.9,5.62,5.62,0,0,1-1.35.65A5.1,5.1,0,0,1,139.81,290.67Zm.25-1a4.21,4.21,0,0,0,2-.47,3.78,3.78,0,0,0,1.44-1.28,3.93,3.93,0,0,0,.62-1.9v-1.4a3.73,3.73,0,0,0-.79-1.65,4.21,4.21,0,0,0-1.43-1.15,4,4,0,0,0-1.85-.43,4.13,4.13,0,0,0-2,.51,3.83,3.83,0,0,0-1.47,1.44,4.15,4.15,0,0,0-.55,2.18,4,4,0,0,0,.55,2.08,4.09,4.09,0,0,0,1.48,1.5A3.88,3.88,0,0,0,140.06,289.67Z" transform="translate(-4.92 -12.28)"/><path class="cls-11" d="M152,290.67a5.54,5.54,0,0,1-1.78-.32,3.21,3.21,0,0,1-1.5-1l.55-.77a3.86,3.86,0,0,0,1.19.83,3.53,3.53,0,0,0,2.55.15,1.74,1.74,0,0,0,.84-.56,1.68,1.68,0,0,0,.32-1.07,1.43,1.43,0,0,0-.39-1.08,2.93,2.93,0,0,0-1-.61,12.83,12.83,0,0,0-1.24-.44,5,5,0,0,1-1.76-1,2.14,2.14,0,0,1-.69-1.7,2.52,2.52,0,0,1,.39-1.4,2.69,2.69,0,0,1,1.06-.94,3.44,3.44,0,0,1,1.53-.33,4.76,4.76,0,0,1,1.53.25,3.49,3.49,0,0,1,1.39.85l-.52.82a2,2,0,0,0-1.06-.75,4.83,4.83,0,0,0-1.17-.22,2.45,2.45,0,0,0-.89.17,2.16,2.16,0,0,0-.77.51,1.25,1.25,0,0,0-.31.89,1.39,1.39,0,0,0,.32.94,2.49,2.49,0,0,0,.84.59c.34.15.7.29,1.06.42a8.76,8.76,0,0,1,1.36.54,3.11,3.11,0,0,1,1.06.82,2.17,2.17,0,0,1,.41,1.37,3.15,3.15,0,0,1-.38,1.53,2.63,2.63,0,0,1-1.11,1.08A3.94,3.94,0,0,1,152,290.67Z" transform="translate(-4.92 -12.28)"/><path class="cls-11" d="M159.91,276.39h1.2v4.43h3v.95h-3v8.7h-1.2v-8.7h-2.07v-.95h2.07Z" transform="translate(-4.92 -12.28)"/><path class="cls-11" d="M166.11,285.52a5,5,0,0,1,.69-2.6,5.08,5.08,0,0,1,1.87-1.87,5.23,5.23,0,0,1,2.67-.68,5.15,5.15,0,0,1,2.67.68,5,5,0,0,1,1.85,1.87,5.31,5.31,0,0,1,0,5.2A5,5,0,0,1,174,290a5.26,5.26,0,0,1-2.69.69,5.32,5.32,0,0,1-2.65-.67,5,5,0,0,1-1.86-1.82A5.12,5.12,0,0,1,166.11,285.52Zm1.18,0a4.09,4.09,0,0,0,2,3.58,4.06,4.06,0,0,0,4.08,0,4.25,4.25,0,0,0,1.45-5.67,4.25,4.25,0,0,0-1.45-1.5,3.86,3.86,0,0,0-2-.56,3.73,3.73,0,0,0-2.06.59,4.18,4.18,0,0,0-1.44,1.54A4.08,4.08,0,0,0,167.29,285.54Z" transform="translate(-4.92 -12.28)"/><path class="cls-11" d="M181.06,280.69l.13,3-.15-.37a3.85,3.85,0,0,1,1-1.55,5,5,0,0,1,1.56-1,4.32,4.32,0,0,1,1.67-.35l0,1.15a4.11,4.11,0,0,0-2,.5,3.88,3.88,0,0,0-1.45,1.33,3.42,3.42,0,0,0-.54,1.89v5.18H180v-9.78Z" transform="translate(-4.92 -12.28)"/><path class="cls-11" d="M210.57,345.53l.13,3.08-.15-.6a3.72,3.72,0,0,1,1.61-2,4.9,4.9,0,0,1,2.64-.73,3.08,3.08,0,0,1,2.22.81,2.88,2.88,0,0,1,.88,2.11v7.13h-1.2v-6.8a2.37,2.37,0,0,0-.6-1.58,2.29,2.29,0,0,0-1.68-.65,3.62,3.62,0,0,0-1.82.48,3.69,3.69,0,0,0-1.37,1.32,3.79,3.79,0,0,0-.51,2v5.25h-1.17v-9.78Z" transform="translate(-4.92 -12.28)"/><path class="cls-11" d="M221.4,350.36A5.1,5.1,0,0,1,224,345.9a5.51,5.51,0,0,1,5.34,0,5,5,0,0,1,1.85,1.86,5.38,5.38,0,0,1,0,5.2,5,5,0,0,1-1.87,1.86,5.56,5.56,0,0,1-5.33,0,4.79,4.79,0,0,1-1.86-1.82A5.12,5.12,0,0,1,221.4,350.36Zm1.17,0a4.13,4.13,0,0,0,2,3.58,4.06,4.06,0,0,0,4.08,0,4.09,4.09,0,0,0,2-3.58,4.12,4.12,0,0,0-2-3.58,3.93,3.93,0,0,0-4.11,0,4.31,4.31,0,0,0-1.43,1.54A4.12,4.12,0,0,0,222.57,350.38Z" transform="translate(-4.92 -12.28)"/><path class="cls-11" d="M239.32,355.51a4.78,4.78,0,0,1-2.5-.67A4.91,4.91,0,0,1,235,353a5.74,5.74,0,0,1,0-5.38,4.65,4.65,0,0,1,1.83-1.77,5.37,5.37,0,0,1,5.23.1,4.43,4.43,0,0,1,1.84,1.9l-.2.55v-12.1h1.17v19h-1.2v-3l.25.55a4.83,4.83,0,0,1-1.87,1.91A5.4,5.4,0,0,1,239.32,355.51Zm.3-1a4.15,4.15,0,0,0,2-.49,3.92,3.92,0,0,0,1.45-1.32,4,4,0,0,0,.62-1.89v-1.25a3.71,3.71,0,0,0-.77-1.7,4.46,4.46,0,0,0-1.45-1.18,4,4,0,0,0-1.88-.44,4.09,4.09,0,0,0-2.05.52,4,4,0,0,0-1.47,1.45,4.12,4.12,0,0,0-.55,2.15,4,4,0,0,0,.55,2.09,4.09,4.09,0,0,0,1.48,1.5A3.87,3.87,0,0,0,239.62,354.48Z" transform="translate(-4.92 -12.28)"/><path class="cls-11" d="M253.62,355.51a5.36,5.36,0,0,1-2.7-.68,4.92,4.92,0,0,1-1.84-1.84,5.17,5.17,0,0,1-.66-2.61,5,5,0,0,1,.7-2.6,5.29,5.29,0,0,1,1.89-1.87,5.06,5.06,0,0,1,2.64-.7,4.34,4.34,0,0,1,2.93,1,5.74,5.74,0,0,1,1.72,2.68l-8.55,3.3-.35-.85,7.82-3.05-.25.35a4.52,4.52,0,0,0-1.29-1.73,3.18,3.18,0,0,0-2.11-.72,3.76,3.76,0,0,0-2,.55,4.08,4.08,0,0,0-2,3.57,4.24,4.24,0,0,0,.51,2.05,4.07,4.07,0,0,0,1.44,1.53,4.17,4.17,0,0,0,3.66.27,4.92,4.92,0,0,0,1.32-.77l.6.85a6.65,6.65,0,0,1-1.62.9A5.16,5.16,0,0,1,253.62,355.51Z" transform="translate(-4.92 -12.28)"/><path class="cls-11" d="M260.9,353.86a.77.77,0,0,1,.57-.25.87.87,0,0,1,.85.85.8.8,0,0,1-.26.61.84.84,0,0,1-.59.24.85.85,0,0,1-.57-1.45Z" transform="translate(-4.92 -12.28)"/><path class="cls-11" d="M265.25,360l-.75-.73a4.6,4.6,0,0,0,1-1.62,5.91,5.91,0,0,0,.39-2.2v-9.93h1.2v9.9a7.2,7.2,0,0,1-.46,2.72A4.48,4.48,0,0,1,265.25,360Zm.42-18.08a.74.74,0,0,1,.28-.59.92.92,0,0,1,.6-.23.88.88,0,0,1,.6.23.82.82,0,0,1,.25.59.85.85,0,0,1-.25.62.88.88,0,0,1-.6.23.85.85,0,0,1-.6-.25A.75.75,0,0,1,265.67,341.93Z" transform="translate(-4.92 -12.28)"/><path class="cls-11" d="M273.57,355.51a5.74,5.74,0,0,1-1.77-.31,3.2,3.2,0,0,1-1.5-1l.55-.77a3.65,3.65,0,0,0,1.18.83,3.5,3.5,0,0,0,1.47.32,3.81,3.81,0,0,0,1.08-.16,1.67,1.67,0,0,0,.84-.57,1.61,1.61,0,0,0,.33-1.07,1.43,1.43,0,0,0-.39-1.08,3,3,0,0,0-1-.61c-.4-.16-.81-.3-1.24-.44a4.83,4.83,0,0,1-1.76-.95,2.12,2.12,0,0,1-.69-1.7,2.47,2.47,0,0,1,1.45-2.33,3.3,3.3,0,0,1,1.52-.34,4.82,4.82,0,0,1,1.54.25,3.68,3.68,0,0,1,1.39.85l-.53.82a2,2,0,0,0-1.06-.75,4.76,4.76,0,0,0-1.16-.22,2.64,2.64,0,0,0-.89.17,1.91,1.91,0,0,0-.77.52,1.24,1.24,0,0,0-.32.88,1.33,1.33,0,0,0,.33.94,2.35,2.35,0,0,0,.83.59c.35.15.7.29,1.07.42a9.63,9.63,0,0,1,1.36.54,3,3,0,0,1,1.05.83,2.12,2.12,0,0,1,.41,1.36,3.19,3.19,0,0,1-.37,1.54,2.67,2.67,0,0,1-1.11,1.07A4,4,0,0,1,273.57,355.51Z" transform="translate(-4.92 -12.28)"/><path class="cls-11" d="M77.81,407.75h11v1.17H79V416h8.75v1.18H79v7.17H89.11v1.18H77.81Z" transform="translate(-4.92 -12.28)"/><path class="cls-11" d="M94.21,415.72l.13,3.08-.15-.6a3.66,3.66,0,0,1,1.61-2,4.91,4.91,0,0,1,2.64-.74,3.06,3.06,0,0,1,2.22.81,2.88,2.88,0,0,1,.88,2.11v7.13h-1.2v-6.8a2.39,2.39,0,0,0-.6-1.58,2.27,2.27,0,0,0-1.68-.65,3.73,3.73,0,0,0-3.18,1.8,3.7,3.7,0,0,0-.52,2v5.25H93.19v-9.78Z" transform="translate(-4.92 -12.28)"/><path class="cls-11" d="M110.34,430.27a6.77,6.77,0,0,1-1.58-.18,5.26,5.26,0,0,1-1.47-.64,8.87,8.87,0,0,1-1.5-1.18l.7-.8a6.21,6.21,0,0,0,2,1.39,4.93,4.93,0,0,0,1.8.36,5.17,5.17,0,0,0,2.42-.48,3,3,0,0,0,1.3-1.3,4.32,4.32,0,0,0,.43-1.82l0-3.17.28.3a4.36,4.36,0,0,1-1.79,2.12,5.29,5.29,0,0,1-2.91.83,4.71,4.71,0,0,1-2.51-.69,5.12,5.12,0,0,1-1.82-1.85,5.39,5.39,0,0,1,0-5.26,4.94,4.94,0,0,1,1.9-1.81,5.41,5.41,0,0,1,2.65-.67,5.11,5.11,0,0,1,2.56.7,4.23,4.23,0,0,1,1.76,1.85l-.15.55.13-2.8h1v9.93a4.92,4.92,0,0,1-.54,2.26,4,4,0,0,1-1.7,1.71A6.15,6.15,0,0,1,110.34,430.27Zm-4.13-9.72a4.13,4.13,0,0,0,.55,2.09,4.37,4.37,0,0,0,1.49,1.5,4,4,0,0,0,2.09.56,4.17,4.17,0,0,0,3.47-1.8,3.48,3.48,0,0,0,.65-1.78v-1.45a3.84,3.84,0,0,0-.78-1.67,4.4,4.4,0,0,0-1.45-1.15,4.3,4.3,0,0,0-1.89-.43,4.22,4.22,0,0,0-2.09.53,4,4,0,0,0-1.49,1.45A4.19,4.19,0,0,0,106.21,420.55Z" transform="translate(-4.92 -12.28)"/><path class="cls-11" d="M120.09,406.5h1.17v19h-1.17Z" transform="translate(-4.92 -12.28)"/><path class="cls-11" d="M125.46,412.12a.72.72,0,0,1,.28-.58.88.88,0,0,1,.6-.24.85.85,0,0,1,.6.24.79.79,0,0,1,.25.58.85.85,0,0,1-.25.62.84.84,0,0,1-.6.23.85.85,0,0,1-.6-.25A.75.75,0,0,1,125.46,412.12Zm.25,3.6h1.18v9.78h-1.18Z" transform="translate(-4.92 -12.28)"/><path class="cls-11" d="M133.64,425.7a5.52,5.52,0,0,1-1.78-.31,3.3,3.3,0,0,1-1.5-1l.55-.77a3.89,3.89,0,0,0,1.19.84,3.67,3.67,0,0,0,2.55.15,1.76,1.76,0,0,0,.84-.57,1.66,1.66,0,0,0,.32-1.07,1.46,1.46,0,0,0-.38-1.08,3.08,3.08,0,0,0-1-.61c-.39-.16-.8-.3-1.24-.44a5,5,0,0,1-1.76-.95,2.12,2.12,0,0,1-.69-1.7,2.52,2.52,0,0,1,.39-1.4,2.59,2.59,0,0,1,1.06-.93,3.31,3.31,0,0,1,1.53-.34,4.76,4.76,0,0,1,1.53.25,3.61,3.61,0,0,1,1.39.85l-.52.82a2.08,2.08,0,0,0-1.06-.75,5.36,5.36,0,0,0-1.17-.22,2.69,2.69,0,0,0-.89.17,2.06,2.06,0,0,0-.77.52,1.23,1.23,0,0,0-.31.88,1.37,1.37,0,0,0,.32.94,2.49,2.49,0,0,0,.84.59c.34.15.7.29,1.06.42a8.76,8.76,0,0,1,1.36.54,3.14,3.14,0,0,1,1.06.83,2.12,2.12,0,0,1,.41,1.36,3.17,3.17,0,0,1-.38,1.54,2.61,2.61,0,0,1-1.11,1.07A3.94,3.94,0,0,1,133.64,425.7Z" transform="translate(-4.92 -12.28)"/><path class="cls-11" d="M140.54,425.5v-19h1.15v11.82l-.08-.42a4.39,4.39,0,0,1,1.62-1.74,4.67,4.67,0,0,1,2.56-.71,3.08,3.08,0,0,1,2.22.81,2.88,2.88,0,0,1,.88,2.11v7.13h-1.2v-6.8a2.39,2.39,0,0,0-.6-1.58,2.29,2.29,0,0,0-1.68-.65,3.54,3.54,0,0,0-1.82.5,3.91,3.91,0,0,0-1.36,1.35,3.6,3.6,0,0,0-.52,1.93v5.25Z" transform="translate(-4.92 -12.28)"/><path class="cls-11" d="M127.33,155.35l-4.84.67,3.52,3.44-.83,4.84,4.32-2.25V150.94Z" transform="translate(-4.92 -12.28)"/><path class="cls-12" d="M136.55,156l-4.87-.71-2.18-4.41V162l4.35,2.29-.81-4.87Z" transform="translate(-4.92 -12.28)"/><path class="cls-11" d="M286.51,189.53a6.76,6.76,0,0,0-3,.7,6,6,0,0,1-.67-1.55,4.23,4.23,0,0,1-.06-1.3,9.84,9.84,0,0,1,.4-1.4c0-.06-.07-.34-.74-.35s-1.23.13-1.3.3a8.29,8.29,0,0,0-.27,1,23.68,23.68,0,0,1-2,3.87,3.77,3.77,0,0,1-.46-1.13,4.25,4.25,0,0,1,0-1.3,10.3,10.3,0,0,1,.39-1.4c0-.06-.07-.34-.74-.35s-1.23.13-1.3.3-.13.59-.27,1-1.75,4-2.17,4.91c-.21.47-.4.85-.53,1.11s0,0,0,.05l-.18.34h0c-.09.17-.19.32-.23.32a2.13,2.13,0,0,1,0-1c.24-1.25.82-3.18.81-3.25s.11-.38-.37-.55a.59.59,0,0,0-.68.11s-.07.11-.07.11.52-2.19-1-2.19a4.51,4.51,0,0,0-2.91,2L266.87,191l-1.06.58-.08-.07c-1.84-2-5.24-3.36-5.1-6,.05-1,.39-3.49,6.54-6.55,5-2.51,9.08-1.82,9.78-.29,1,2.19-2.16,6.26-7.4,6.84a3.94,3.94,0,0,1-3.31-.83c-.27-.31-.31-.32-.42-.26s-.06.36,0,.52a3.11,3.11,0,0,0,1.9,1.49,10,10,0,0,0,6.13-.61c3.18-1.23,5.65-4.64,4.93-7.49s-5.56-3.86-10.11-2.24a22.76,22.76,0,0,0-7.76,4.45c-2.51,2.34-2.91,4.39-2.74,5.24.59,3,4.76,5,6.44,6.47a2.36,2.36,0,0,0-.23.13c-.84.41-4,2.07-4.83,3.84-.9,2,.15,3.43.84,3.62a5.13,5.13,0,0,0,5.54-2.24,5.54,5.54,0,0,0,.5-5.12l0,0,.66-.39c.42-.25.84-.48,1.21-.68a7.59,7.59,0,0,0-.43,2.19,4.58,4.58,0,0,0,1,3.18,1.09,1.09,0,0,0,.79.26c.71,0,1-.59,1.39-1.29.43-.86.82-1.85.82-1.85s-.48,2.69.84,2.69c.48,0,1-.63,1.18-1h0l0-.07.08-.12h0c.19-.34.62-1.1,1.27-2.37.83-1.64,1.62-3.68,1.62-3.68a12,12,0,0,0,.32,1.32,12.13,12.13,0,0,0,.69,1.55c-.19.27-.31.42-.31.42h0l-.51.64a19.72,19.72,0,0,0-1.55,1.94.54.54,0,0,0,.14.71,1.35,1.35,0,0,0,.82.13,3.67,3.67,0,0,0,1.21-.28,4.39,4.39,0,0,0,1-.55,2.34,2.34,0,0,0,1-2,4.1,4.1,0,0,0-.38-1.45l.17-.26a25.9,25.9,0,0,0,1.8-3.12,12.37,12.37,0,0,0,.32,1.33,9.86,9.86,0,0,0,.58,1.32,5.63,5.63,0,0,0-1.75,2.28c-.38,1.09-.09,1.59.47,1.7a1.68,1.68,0,0,0,.88-.18,3.83,3.83,0,0,0,1.12-.57,2.54,2.54,0,0,0,1.23-2,3.88,3.88,0,0,0-.28-1.2,6.32,6.32,0,0,1,3.19-.37c2.87.34,3.44,2.13,3.33,2.87a1.93,1.93,0,0,1-.91,1.29c-.2.12-.27.17-.25.26s.12.13.29.1a2.23,2.23,0,0,0,1.56-2c.08-1.77-1.6-3.7-4.58-3.68ZM264.41,197c-.94,1-2.27,1.43-2.84,1.09s-.37-1.88.79-3a15.39,15.39,0,0,1,2.23-1.66l.59-.36.07,0,.14-.09a4.11,4.11,0,0,1-1,4Zm6.92-4.71c-.32.81-1,2.87-1.44,2.76s-.58-1.66-.07-3.21a7.19,7.19,0,0,1,1.13-2.06c.52-.58,1.09-.78,1.23-.54S271.54,191.77,271.33,192.27ZM277,195c-.14.07-.27.13-.32.09s0-.13,0-.13.72-.76,1-1.12c.16-.2.36-.44.56-.71v.08A2.38,2.38,0,0,1,277,195Zm4.41-1c-.11-.08-.09-.32.26-1.06a3.87,3.87,0,0,1,1-1.26,1.37,1.37,0,0,1,.1.55A1.81,1.81,0,0,1,281.45,194Z" transform="translate(-4.92 -12.28)"/></svg>