<svg xmlns="http://www.w3.org/2000/svg" xmlns:xlink="http://www.w3.org/1999/xlink" viewBox="0 0 340.22 489.28"><defs><style>.a{fill:url(#a);}.b{fill:url(#b);}.c,.d,.g,.j{fill:none;}.c,.d{stroke:#69c9d0;}.c,.d,.j,.k,.l{stroke-miterlimit:10;}.c{stroke-width:3.14px;}.d{stroke-width:3.22px;}.e{fill:#69c9d0;}.f{fill:#d8d7db;}.h,.k,.l{fill:#fff;}.i{fill:#606060;}.j{stroke:#fff;stroke-width:3px;}.k,.l{stroke:#000;}.k{stroke-width:40px;}.l{stroke-width:9.07px;}</style><linearGradient id="a" x1="-26.04" y1="-2962.57" x2="-26.04" y2="-2962.57" gradientTransform="matrix(1, 0, 0, -1, 24.8, -2647.57)" gradientUnits="userSpaceOnUse"><stop offset="0" stop-color="#fff"/><stop offset="1"/></linearGradient><linearGradient id="b" x1="-1564.2" y1="701.33" x2="-1564.2" y2="701.33" gradientTransform="matrix(-0.5, 0.87, 0.87, 0.5, -1212.21, 1345.64)" xlink:href="#a"/></defs><title>svgSkillsImageMobile2</title><path class="a" d="M-1.24,315" transform="translate(0 0)"/><path class="b" d="M175.33,339" transform="translate(0 0)"/><polygon class="c" points="207.73 417.48 168.39 347.48 42.05 347.48 2.73 417.48 207.73 417.48"/><polygon class="d" points="132.48 347.29 337.48 347.29 298.66 277.29 171.29 277.29 132.48 347.29"/><polygon class="d" points="132.48 487.67 337.48 487.67 298.66 417.67 171.29 417.67 132.48 487.67"/><polygon class="d" points="207.73 276.95 168.91 206.95 41.55 206.95 2.73 276.95 207.73 276.95"/><polygon class="d" points="171.29 136.46 132.48 206.45 337.48 206.45 298.66 136.45 171.29 136.46"/><path class="e" d="M295.39,3l36.84,64H137.65L174.49,3h120.9m1.7-3H172.77l-.83,1.5-36.84,64-2.64,4.55h205l-2.6-4.5L298,1.55Z" transform="translate(0 0)"/><path class="f" d="M142.85-16.85" transform="translate(0 0)"/><path class="f" d="M36.36,177" transform="translate(0 0)"/><path class="f" d="M-4.08,107" transform="translate(0 0)"/><path class="f" d="M167.51,70.47" transform="translate(0 0)"/><polyline class="g" points="166.36 72.46 204.48 138.47 5.88 138.47 43.98 72.47"/><path class="e" d="M202.46,134.46H7.92l36.89-64H165.66l36.89,64m5.17,3-40.31-70H42.92L42.07,69,5.27,133l-2.58,4.5Z" transform="translate(0 0)"/><polygon class="h" points="201.45 48.04 203.64 52.47 208.54 53.19 205.01 56.64 205.82 61.5 201.45 59.21 197.07 61.5 197.91 56.64 194.38 53.19 199.26 52.47 201.45 48.04"/><polygon class="h" points="218.2 48.04 220.39 52.47 225.29 53.19 221.76 56.64 222.6 61.5 218.2 59.21 213.85 61.5 214.66 56.64 211.13 53.19 216.04 52.47 218.2 48.04"/><polygon class="h" points="234.98 48.04 237.16 52.47 242.04 53.19 238.51 56.64 239.35 61.5 234.98 59.21 230.6 61.5 231.42 56.64 227.88 53.19 232.79 52.47 234.98 48.04"/><polygon class="h" points="251.73 48.04 253.91 52.47 258.79 53.19 255.25 56.64 256.1 61.5 251.73 59.21 247.35 61.5 248.17 56.64 244.64 53.19 249.54 52.47 251.73 48.04"/><polygon class="i" points="268.48 48.04 270.66 52.47 275.55 53.19 272.03 56.64 272.85 61.5 268.48 59.21 264.1 61.5 264.93 56.64 261.41 53.19 266.29 52.47 268.48 48.04"/><polygon class="h" points="201.42 188.97 203.6 193.41 208.51 194.12 204.98 197.57 205.82 202.45 201.44 200.14 197.07 202.44 197.88 197.56 194.35 194.12 199.23 193.4 201.42 188.97"/><polygon class="h" points="218.19 188.97 220.38 193.4 225.29 194.12 221.73 197.57 222.57 202.44 218.19 200.14 213.82 202.44 214.66 197.57 211.11 194.12 216.01 193.41 218.19 188.97"/><polygon class="h" points="234.95 188.98 237.14 193.41 242.04 194.12 238.51 197.57 239.35 202.44 234.95 200.14 230.57 202.44 231.41 197.57 227.88 194.12 232.76 193.41 234.95 188.98"/><polygon class="h" points="251.73 188.97 253.91 193.41 258.8 194.12 255.25 197.57 256.1 202.44 251.73 200.15 247.35 202.44 248.19 197.57 244.63 194.12 249.54 193.41 251.73 188.97"/><path class="h" d="M266.27,193.43l-4.86.66,3.52,3.47-.83,4.89,4.4-2.3V189Z" transform="translate(0 0)"/><path class="i" d="M275.58,194.08l-4.9-.72-2.18-4.43v11.22l4.38,2.3-.84-4.87Z" transform="translate(0 0)"/><polygon class="h" points="72.38 258.75 74.52 263.1 79.32 263.79 75.85 267.17 76.66 271.95 72.38 269.69 68.08 271.95 68.91 267.17 65.43 263.79 70.24 263.1 72.38 258.75"/><polygon class="h" points="88.79 258.75 90.94 263.1 95.74 263.79 92.27 267.17 93.08 271.95 88.79 269.69 84.52 271.95 85.32 267.17 81.85 263.79 86.66 263.1 88.79 258.75"/><polygon class="h" points="105.24 258.75 107.38 263.1 112.16 263.79 108.69 267.17 109.52 271.95 105.24 269.69 100.93 271.95 101.77 267.17 98.29 263.79 103.07 263.1 105.24 258.75"/><polygon class="i" points="138.07 258.75 140.23 263.1 145.01 263.79 141.54 267.17 142.36 271.95 138.07 269.69 133.79 271.95 134.6 267.17 131.13 263.79 135.92 263.1 138.07 258.75"/><polygon class="h" points="72.32 115.79 74.46 120.14 79.27 120.84 75.79 124.22 76.63 129.01 72.32 126.74 68.02 129 68.83 124.22 65.35 120.83 70.16 120.13 72.32 115.79"/><polygon class="h" points="88.77 115.79 90.91 120.14 95.74 120.83 92.24 124.22 93.07 129 88.77 126.75 84.49 129.01 85.29 124.22 81.82 120.83 86.63 120.14 88.77 115.79"/><polygon class="h" points="105.24 115.78 107.38 120.14 112.18 120.83 108.71 124.22 109.52 129.01 105.24 126.75 100.93 129.01 101.74 124.22 98.27 120.83 103.08 120.13 105.24 115.78"/><polygon class="i" points="138.14 115.78 140.29 120.14 145.1 120.83 141.63 124.22 142.44 129 138.14 126.75 133.85 129.01 134.66 124.22 131.19 120.84 136.01 120.14 138.14 115.78"/><polygon class="h" points="201.61 325.11 203.79 329.53 208.66 330.23 205.13 333.67 205.98 338.51 201.61 336.22 197.26 338.52 198.1 333.66 194.57 330.23 199.44 329.52 201.61 325.11"/><polygon class="h" points="218.29 325.12 220.48 329.53 225.35 330.23 221.82 333.66 222.63 338.51 218.29 336.22 213.94 338.51 214.76 333.66 211.26 330.24 216.1 329.53 218.29 325.12"/><polygon class="h" points="234.98 325.11 237.14 329.52 242.01 330.23 238.48 333.66 239.32 338.51 234.98 336.23 230.61 338.51 231.44 333.66 227.92 330.23 232.79 329.52 234.98 325.11"/><polygon class="i" points="268.31 325.11 270.49 329.52 275.35 330.23 271.85 333.67 272.66 338.51 268.31 336.22 263.98 338.51 264.79 333.67 261.29 330.23 266.16 329.52 268.31 325.11"/><polygon class="i" points="252.32 325.44 254.5 329.85 259.36 330.55 255.85 333.99 256.68 338.84 252.32 336.55 247.98 338.84 248.82 334 245.29 330.56 250.16 329.85 252.32 325.44"/><path class="j" d="M222,285.37" transform="translate(0 0)"/><path class="k" d="M-2.37,72.83" transform="translate(0 0)"/><path class="l" d="M-452-78.11" transform="translate(0 0)"/><path class="j" d="M-303.55-186.27" transform="translate(0 0)"/><path class="h" d="M185.92,40a7.3,7.3,0,0,1-.72,3.38,5.11,5.11,0,0,1-1.94,2.13,5.51,5.51,0,0,1-2.74.79V45.15a4.19,4.19,0,0,0,3-1.43A5.46,5.46,0,0,0,184.71,40V25h1.21Z" transform="translate(0 0)"/><path class="h" d="M195,42.88a5.09,5.09,0,0,1-2.53-.64,4.69,4.69,0,0,1-1.8-1.79,5.2,5.2,0,0,1-.67-2.67,5.34,5.34,0,0,1,.7-2.79,4.66,4.66,0,0,1,1.9-1.78,6,6,0,0,1,2.73-.61,4.33,4.33,0,0,1,2.46.78,4.27,4.27,0,0,1,1.66,2l-.17.35.15-2.78h1v9.76h-1.13v-3l.25.45a2.84,2.84,0,0,1-.6,1,5.7,5.7,0,0,1-1,.9,5.6,5.6,0,0,1-1.35.65A5.07,5.07,0,0,1,195,42.88Zm.25-1a4.21,4.21,0,0,0,2-.47,3.76,3.76,0,0,0,2.06-3.18v-1.4a3.76,3.76,0,0,0-.78-1.68A4.49,4.49,0,0,0,197.1,34a4,4,0,0,0-1.85-.43,4.1,4.1,0,0,0-2,.51,3.91,3.91,0,0,0-1.47,1.44,4.2,4.2,0,0,0-.59,2.16,4.29,4.29,0,0,0,2,3.6A3.83,3.83,0,0,0,195.24,41.88Z" transform="translate(0 0)"/><path class="h" d="M208.34,43.05l-5-10.15h1.38l4.07,8.88-.67-.07,4-8.85h1.3L208.56,43Z" transform="translate(0 0)"/><path class="h" d="M220.1,42.88a5.09,5.09,0,0,1-2.53-.64,4.69,4.69,0,0,1-1.8-1.79,5.2,5.2,0,0,1-.67-2.67,5.34,5.34,0,0,1,.7-2.79,4.66,4.66,0,0,1,1.9-1.78,6,6,0,0,1,2.73-.61,4.33,4.33,0,0,1,2.46.78,4.27,4.27,0,0,1,1.66,2l-.17.35.15-2.78h1v9.76H224.3v-3l.25.45a2.84,2.84,0,0,1-.6,1,5.7,5.7,0,0,1-1,.9,5.6,5.6,0,0,1-1.35.65A5,5,0,0,1,220.1,42.88Zm.25-1a4.21,4.21,0,0,0,2-.47,3.76,3.76,0,0,0,2.06-3.18v-1.4a3.76,3.76,0,0,0-.78-1.65,4.32,4.32,0,0,0-1.4-1.15,4,4,0,0,0-1.85-.43,4.1,4.1,0,0,0-2,.51,3.88,3.88,0,0,0-1.46,1.44,4.16,4.16,0,0,0-.55,2.18,4,4,0,0,0,.55,2.08,4,4,0,0,0,1.49,1.5,3.87,3.87,0,0,0,1.9.57Z" transform="translate(0 0)"/><path class="h" d="M239.44,26.93a11.7,11.7,0,0,0-1.9-.7,7.81,7.81,0,0,0-2.25-.33,4.22,4.22,0,0,0-2.8.88,2.72,2.72,0,0,0-1,2.2,2.41,2.41,0,0,0,.6,1.66,4.65,4.65,0,0,0,1.58,1.12c.65.31,1.34.61,2.07.89s1.17.46,1.74.73a6.91,6.91,0,0,1,1.56,1,4.34,4.34,0,0,1,1.12,1.43,4.89,4.89,0,0,1,.41,2.1,5,5,0,0,1-.7,2.61,4.67,4.67,0,0,1-2,1.76,6.32,6.32,0,0,1-2.9.63,8.16,8.16,0,0,1-2.41-.33,10.86,10.86,0,0,1-1.91-.76,12.51,12.51,0,0,1-1.28-.74l.57-1a10.09,10.09,0,0,0,1.34.8,11.49,11.49,0,0,0,1.71.68,6.42,6.42,0,0,0,1.85.27,5.34,5.34,0,0,0,2.09-.42,4.11,4.11,0,0,0,1.68-1.26,3.52,3.52,0,0,0,.66-2.19,3.17,3.17,0,0,0-.63-2.06,4.78,4.78,0,0,0-1.6-1.29,19,19,0,0,0-2.07-.9c-.57-.22-1.14-.44-1.7-.69a7.61,7.61,0,0,1-1.55-.87,3.88,3.88,0,0,1-1.11-1.24,3.46,3.46,0,0,1-.42-1.75,3.82,3.82,0,0,1,.65-2.22,4.41,4.41,0,0,1,1.77-1.49,6,6,0,0,1,2.53-.56A10.55,10.55,0,0,1,239.92,26Z" transform="translate(0 0)"/><path class="h" d="M252.1,41.71a5.29,5.29,0,0,1-1.52.85,5.37,5.37,0,0,1-1.78.3,5.21,5.21,0,0,1-2.7-.67,4.8,4.8,0,0,1-1.85-1.81,5.11,5.11,0,0,1,4.42-7.72,5.56,5.56,0,0,1,1.9.3,4.52,4.52,0,0,1,1.53.85l-.63.8a4.5,4.5,0,0,0-1.22-.7,4.07,4.07,0,0,0-1.5-.28,3.81,3.81,0,0,0-2,.55,4.15,4.15,0,0,0-1.47,1.53,4.31,4.31,0,0,0,0,4.15,4.06,4.06,0,0,0,3.57,2,4.16,4.16,0,0,0,1.4-.24A4.3,4.3,0,0,0,251.4,41Z" transform="translate(0 0)"/><path class="h" d="M256.34,32.9l.13,3-.15-.37a3.88,3.88,0,0,1,1-1.55,4.84,4.84,0,0,1,1.56-1,4.2,4.2,0,0,1,1.67-.35v1.15a4.09,4.09,0,0,0-2,.5,4,4,0,0,0-1.45,1.33,3.41,3.41,0,0,0-.54,1.89v5.21H255.4V32.9Z" transform="translate(0 0)"/><path class="h" d="M263.62,29.3a.78.78,0,0,1,.27-.59,1,1,0,0,1,.6-.23.88.88,0,0,1,.6.23.84.84,0,0,1,0,1.19h0a.81.81,0,0,1-.6.24.84.84,0,0,1-.6-.25A.78.78,0,0,1,263.62,29.3Zm.25,3.6h1.23v9.81h-1.18Z" transform="translate(0 0)"/><path class="h" d="M274.92,42.88a5.06,5.06,0,0,1-2.62-.74,4.48,4.48,0,0,1-1.8-1.91l.2-.43v7.58h-1.18V32.83h1.05l.13,3.2-.23-.73a5.35,5.35,0,0,1,1.9-1.94,5.26,5.26,0,0,1,2.76-.76,4.91,4.91,0,0,1,4.28,2.55,5.31,5.31,0,0,1,.66,2.67,5.16,5.16,0,0,1-.68,2.63,5,5,0,0,1-1.86,1.82A5.37,5.37,0,0,1,274.92,42.88Zm-.2-1a4,4,0,0,0,2.09-.55,4.28,4.28,0,0,0,1.5-1.49,4,4,0,0,0,.56-2.08,4.14,4.14,0,0,0-2-3.6,3.93,3.93,0,0,0-2.06-.55,4,4,0,0,0-2,.5,3.92,3.92,0,0,0-1.45,1.35,4,4,0,0,0-.65,1.92v.77a3.94,3.94,0,0,0,.63,1.88,4.2,4.2,0,0,0,1.45,1.33,4,4,0,0,0,1.93.51Z" transform="translate(0 0)"/><path class="h" d="M284.52,28.6h1.2V33h3v1h-3v8.68h-1.2V34h-2.08V33h2.08Z" transform="translate(0 0)"/><path class="h" d="M71.78,92.44a7.1,7.1,0,0,1,2,.28,5.53,5.53,0,0,1,1.8.9,4.38,4.38,0,0,1,1.34,1.53,4.8,4.8,0,0,1,.5,2.27,6.39,6.39,0,0,1-.3,1.94,4.68,4.68,0,0,1-1,1.69,5,5,0,0,1-1.75,1.2,6.88,6.88,0,0,1-2.65.45h-2.8v7.45H67.73V92.44Zm-.15,9.12a5.51,5.51,0,0,0,2.2-.37,3.61,3.61,0,0,0,1.38-1,3.88,3.88,0,0,0,.71-1.31,4.88,4.88,0,0,0,.25-1.37,4.07,4.07,0,0,0-.28-1.5,3.63,3.63,0,0,0-.84-1.24,4.44,4.44,0,0,0-1.33-.85A4.6,4.6,0,0,0,72,93.61H69v8Zm2.55.55,4.92,8H77.68l-5-8Z" transform="translate(0 0)"/><path class="h" d="M83.56,92.44h11v1.17H84.78v7h8.75v1.18H84.78V109H94.86v1.15H83.56Z" transform="translate(0 0)"/><path class="h" d="M98,110.15l7.5-18.53h.1l7.52,18.53h-1.37l-6.54-16.58.85-.47-6.82,17Zm3.63-7h7.87l.35,1.15h-8.52Z" transform="translate(0 0)"/><path class="h" d="M129.41,109a12.8,12.8,0,0,1-1.33.68,9.76,9.76,0,0,1-7.32,0,8.29,8.29,0,0,1-2.83-2,8.9,8.9,0,0,1-1.83-2.86,9.36,9.36,0,0,1-.64-3.43,9.59,9.59,0,0,1,.68-3.63,8.82,8.82,0,0,1,1.9-2.92,8.37,8.37,0,0,1,2.85-2,8.85,8.85,0,0,1,3.52-.7,9,9,0,0,1,2.63.37,10.07,10.07,0,0,1,2.22,1l-.52,1.12a9.79,9.79,0,0,0-2-.92,7.51,7.51,0,0,0-5.32.23,7.85,7.85,0,0,0-4.12,4.24,8.18,8.18,0,0,0-.6,3.13,8.56,8.56,0,0,0,.54,3,7.29,7.29,0,0,0,1.55,2.5,7.1,7.1,0,0,0,2.43,1.69,7.9,7.9,0,0,0,3.18.61,7.45,7.45,0,0,0,2.39-.36,8.52,8.52,0,0,0,1.93-.91Z" transform="translate(0 0)"/><path class="h" d="M132.51,92.44h11.66v1.17h-5.25v16.54h-1.2V93.61h-5.17Z" transform="translate(0 0)"/><path class="h" d="M202.33,160.5a13.72,13.72,0,0,1-1.32.68,9.78,9.78,0,0,1-7.33,0,8.25,8.25,0,0,1-2.82-2,8.57,8.57,0,0,1-1.82-2.85,9.35,9.35,0,0,1-.63-3.43,9.62,9.62,0,0,1,.67-3.63,8.8,8.8,0,0,1,8.28-5.57,8.92,8.92,0,0,1,2.62.37,10.14,10.14,0,0,1,2.23,1l-.53,1.12a9.79,9.79,0,0,0-2-.92,7.53,7.53,0,0,0-5.33.23,7.83,7.83,0,0,0-4.13,4.24,8.18,8.18,0,0,0-.6,3.13,8.56,8.56,0,0,0,.54,3,7.24,7.24,0,0,0,4,4.19,7.82,7.82,0,0,0,3.17.61,7.45,7.45,0,0,0,2.39-.36,8.8,8.8,0,0,0,1.94-.91Z" transform="translate(0 0)"/><path class="h" d="M215.73,145.93a11.7,11.7,0,0,0-1.9-.7,7.81,7.81,0,0,0-2.25-.33,4.22,4.22,0,0,0-2.8.88,2.69,2.69,0,0,0-1.05,2.2,2.41,2.41,0,0,0,.6,1.66,4.71,4.71,0,0,0,1.57,1.12c.66.31,1.35.61,2.08.89s1.16.46,1.74.73a7.53,7.53,0,0,1,1.56,1,4.19,4.19,0,0,1,1.11,1.43,4.76,4.76,0,0,1,.42,2.1,5,5,0,0,1-.7,2.61,4.67,4.67,0,0,1-2,1.76,6.32,6.32,0,0,1-2.9.63,8.16,8.16,0,0,1-2.41-.33,10.76,10.76,0,0,1-1.9-.76c-.54-.29-1-.54-1.29-.74l.58-1a9.49,9.49,0,0,0,1.34.8,9.67,9.67,0,0,0,1.71.68,6.42,6.42,0,0,0,1.85.27,5.34,5.34,0,0,0,2.09-.42,4.15,4.15,0,0,0,1.67-1.29,3.51,3.51,0,0,0,.67-2.19,3.17,3.17,0,0,0-.63-2.06,4.78,4.78,0,0,0-1.6-1.29,19.19,19.19,0,0,0-2.08-.9c-.56-.22-1.13-.44-1.69-.69a8.14,8.14,0,0,1-1.6-.84,4.11,4.11,0,0,1-1.11-1.24,3.55,3.55,0,0,1-.41-1.75,3.82,3.82,0,0,1,.65-2.22,4.31,4.31,0,0,1,1.76-1.49,6,6,0,0,1,2.54-.56,9.74,9.74,0,0,1,4.8,1.09Z" transform="translate(0 0)"/><path class="h" d="M230.26,145.93a11.7,11.7,0,0,0-1.9-.7,7.81,7.81,0,0,0-2.25-.33,4.22,4.22,0,0,0-2.8.88,2.72,2.72,0,0,0-1,2.2,2.41,2.41,0,0,0,.6,1.66,4.71,4.71,0,0,0,1.57,1.12c.65.31,1.34.61,2.08.89.58.22,1.16.46,1.73.73a7.2,7.2,0,0,1,1.57,1,4.19,4.19,0,0,1,1.11,1.43,5.35,5.35,0,0,1-.29,4.71,4.67,4.67,0,0,1-2,1.76,6.32,6.32,0,0,1-2.9.63,8.16,8.16,0,0,1-2.41-.33,10,10,0,0,1-1.9-.76c-.54-.29-1-.54-1.29-.74l.58-1a10,10,0,0,0,1.33.8,10.61,10.61,0,0,0,1.72.68,6.4,6.4,0,0,0,1.84.27,5.34,5.34,0,0,0,2.09-.42,4.11,4.11,0,0,0,1.68-1.26,3.52,3.52,0,0,0,.66-2.19,3.24,3.24,0,0,0-.62-2.06,4.78,4.78,0,0,0-1.6-1.29,20.08,20.08,0,0,0-2.08-.9c-.57-.22-1.13-.44-1.7-.69a7.61,7.61,0,0,1-1.55-.87,3.88,3.88,0,0,1-1.11-1.24,3.45,3.45,0,0,1-.41-1.75,3.81,3.81,0,0,1,.64-2.22,4.49,4.49,0,0,1,1.77-1.49,6,6,0,0,1,2.54-.56,10.32,10.32,0,0,1,2.53.32,9.89,9.89,0,0,1,2.24.83Z" transform="translate(0 0)"/><path class="h" d="M239.23,149.35h1.07v4h4v1h-4v4h-1.07v-4h-4v-1h4Z" transform="translate(0 0)"/><path class="h" d="M194.31,177.65a4.53,4.53,0,0,0-1.62.31,5.33,5.33,0,0,0-1.47.87,4.08,4.08,0,0,0-1.06,1.31,3.54,3.54,0,0,0-.4,1.69,3.43,3.43,0,0,0,.62,2.06,4.28,4.28,0,0,0,1.68,1.39,5.24,5.24,0,0,0,2.3.5,5.48,5.48,0,0,0,2-.35,5.4,5.4,0,0,0,1.59-.93,3.38,3.38,0,0,0,1-1.25l.77.8a5.06,5.06,0,0,1-2.1,2,6.65,6.65,0,0,1-3.35.82,6.37,6.37,0,0,1-3-.68,5.28,5.28,0,0,1-2-1.81,4.58,4.58,0,0,1-.27-4.54,5.48,5.48,0,0,1,1.32-1.63,6.45,6.45,0,0,1,4-1.53Zm8.2,9H201.1l-9.22-12c-.14-.23-.28-.49-.44-.79a4.51,4.51,0,0,1-.39-1,4.13,4.13,0,0,1-.15-1.11,3.92,3.92,0,0,1,.53-2,3.71,3.71,0,0,1,1.46-1.4,4.44,4.44,0,0,1,2.14-.51,5.34,5.34,0,0,1,2.16.43,7.8,7.8,0,0,1,1.66,1l-.6.83a7.35,7.35,0,0,0-1.51-.88,3.9,3.9,0,0,0-1.54-.32,3,3,0,0,0-2.19.81,2.71,2.71,0,0,0-.86,2.06,3.14,3.14,0,0,0,.19,1.1,5.33,5.33,0,0,0,.37.85l.22.38Zm-1.13-10h1.2l-2.77,7.23-.88-.68Z" transform="translate(0 0)"/><path class="h" d="M228.17,168.93v17.78h-1.25v-8.35h-10.7v8.35H215V168.93h1.23v8.22h10.67V168.9Z" transform="translate(0 0)"/><path class="h" d="M232.41,168.93H244v1.22h-5.22v16.61h-1.23V170.15h-5.17Z" transform="translate(0 0)"/><path class="h" d="M248.26,186.71V168.53h0L257,181l-.52-.07,8.72-12.35h0v18.18H264v-15.4l.09.6-7.39,10.43h0L249.26,172l.2-.55v15.31Z" transform="translate(0 0)"/><path class="h" d="M270.92,168.93h1.27V185.5h9.73v1.21h-11Z" transform="translate(0 0)"/><path class="h" d="M50.83,212.43a6.84,6.84,0,0,1,2.89.56,4.24,4.24,0,0,1,1.93,1.72,5.34,5.34,0,0,1,.68,2.79,6.11,6.11,0,0,1-.31,1.94,4.68,4.68,0,0,1-1,1.69,5,5,0,0,1-1.75,1.2,6.59,6.59,0,0,1-2.56.45H47.92v7.45H46.73v-17.8Zm-.12,9.12a5.23,5.23,0,0,0,2.21-.4,3.81,3.81,0,0,0,1.35-1,4.19,4.19,0,0,0,.7-1.34,4.77,4.77,0,0,0,.21-1.3,4.09,4.09,0,0,0-.27-1.55,3.42,3.42,0,0,0-.77-1.21,3.8,3.8,0,0,0-1.32-.8,5.1,5.1,0,0,0-1.77-.29h-3v8Z" transform="translate(0 0)"/><path class="h" d="M60,230.15v-19h1.19V223l-.07-.42a4.28,4.28,0,0,1,1.61-1.74,4.65,4.65,0,0,1,2.56-.71,3.06,3.06,0,0,1,2.23.81,2.85,2.85,0,0,1,.87,2.11v7.13h-1.2v-6.8a2.26,2.26,0,0,0-.6-1.58,2.2,2.2,0,0,0-1.65-.62,3.57,3.57,0,0,0-1.83.5A3.82,3.82,0,0,0,61.73,223a3.72,3.72,0,0,0-.51,1.93v5.22Z" transform="translate(0 0)"/><path class="h" d="M71.83,225.23a5.13,5.13,0,0,1,2.57-4.47,5.54,5.54,0,0,1,5.33,0,5,5,0,0,1,1.85,1.87,5.29,5.29,0,0,1,0,5.2,5,5,0,0,1-1.86,1.88,5.19,5.19,0,0,1-2.69.69,5.33,5.33,0,0,1-2.65-.67,5,5,0,0,1-1.86-1.82A5.13,5.13,0,0,1,71.83,225.23Zm1.18,0a4.16,4.16,0,0,0,2,3.58,3.93,3.93,0,0,0,4,0,4.19,4.19,0,0,0,1.41-5.74,4.12,4.12,0,0,0-1.33-1.36,3.8,3.8,0,0,0-2-.56,3.74,3.74,0,0,0-2.06.59,4.43,4.43,0,0,0-2,3.51Z" transform="translate(0 0)"/><path class="h" d="M86.73,216.15h1.19v4.43h3v1h-3v8.7h-1.2v-8.7H84.66v-1h2.07Z" transform="translate(0 0)"/><path class="h" d="M92.92,225.23a5.13,5.13,0,0,1,2.57-4.47,5.54,5.54,0,0,1,5.33,0,5,5,0,0,1,1.85,1.87,5.29,5.29,0,0,1,0,5.2,5,5,0,0,1-1.86,1.86,5.19,5.19,0,0,1-2.69.69,5.33,5.33,0,0,1-2.65-.67,5,5,0,0,1-1.86-1.82A5.08,5.08,0,0,1,92.92,225.23Zm1.18,0a4.16,4.16,0,0,0,2,3.58,3.93,3.93,0,0,0,4,0,4.26,4.26,0,0,0,1.45-5.67,4.2,4.2,0,0,0-1.38-1.43,3.8,3.8,0,0,0-2-.56,3.74,3.74,0,0,0-2.06.59,4.43,4.43,0,0,0-2,3.51Z" transform="translate(0 0)"/><path class="h" d="M109.17,230.38a5.65,5.65,0,0,1-1.78-.32,3.14,3.14,0,0,1-1.5-1l.55-.77a3.81,3.81,0,0,0,1.19.83,3.51,3.51,0,0,0,2.55.15,1.72,1.72,0,0,0,.84-.56,1.65,1.65,0,0,0,.32-1.07,1.43,1.43,0,0,0-.38-1.08,3,3,0,0,0-1-.61c-.41-.17-.82-.31-1.24-.44a5,5,0,0,1-1.76-1,2.14,2.14,0,0,1-.69-1.7,2.58,2.58,0,0,1,.39-1.4,2.67,2.67,0,0,1,1.06-.94,3.38,3.38,0,0,1,1.53-.33,4.78,4.78,0,0,1,1.54.25,3.48,3.48,0,0,1,1.38.85l-.52.82a2,2,0,0,0-1.06-.75,4.65,4.65,0,0,0-1.17-.22,2.42,2.42,0,0,0-.88.17,2.11,2.11,0,0,0-.78.51,1.2,1.2,0,0,0-.31.89,1.4,1.4,0,0,0,.32.94,2.61,2.61,0,0,0,.84.59c.34.15.7.29,1.06.42a8.48,8.48,0,0,1,1.37.54,3.6,3.6,0,0,1,1,.82,2.17,2.17,0,0,1,.41,1.37,3.27,3.27,0,0,1-.38,1.53,2.61,2.61,0,0,1-1.15,1.08A4.07,4.07,0,0,1,109.17,230.38Z" transform="translate(0 0)"/><path class="h" d="M116.1,230.15v-19h1.11V223l-.08-.42a4.28,4.28,0,0,1,1.61-1.74,4.66,4.66,0,0,1,2.57-.71,3,3,0,0,1,2.22.81,2.89,2.89,0,0,1,.88,2.11v7.13h-1.2v-6.8a2.38,2.38,0,0,0-.6-1.58,2.24,2.24,0,0,0-1.69-.62,3.54,3.54,0,0,0-1.82.5,3.93,3.93,0,0,0-1.37,1.35,3.72,3.72,0,0,0-.51,1.93v5.22Z" transform="translate(0 0)"/><path class="h" d="M127.92,225.23a5.14,5.14,0,0,1,2.56-4.47,5.56,5.56,0,0,1,5.34,0,5,5,0,0,1,1.85,1.87,5.4,5.4,0,0,1,0,5.2,5,5,0,0,1-1.87,1.86,5.13,5.13,0,0,1-2.68.69,5.33,5.33,0,0,1-2.65-.67,5,5,0,0,1-1.86-1.82A5.08,5.08,0,0,1,127.92,225.23Zm1.17,0a4.16,4.16,0,0,0,2,3.58,4.07,4.07,0,0,0,4.08,0,4.28,4.28,0,0,0,1.45-5.67,4.37,4.37,0,0,0-1.44-1.43,3.87,3.87,0,0,0-4.07,0,4.6,4.6,0,0,0-2,3.51Z" transform="translate(0 0)"/><path class="h" d="M147.23,230.38a5.06,5.06,0,0,1-2.62-.74,4.48,4.48,0,0,1-1.8-1.91l.2-.43v7.58h-1.18V220.33h1l.13,3.2-.23-.73a5.35,5.35,0,0,1,1.9-1.94,5.25,5.25,0,0,1,2.73-.76,4.84,4.84,0,0,1,2.52.68,5,5,0,0,1,1.79,1.83,5.31,5.31,0,0,1,.66,2.67,5.16,5.16,0,0,1-.68,2.63,5,5,0,0,1-1.85,1.82A5.36,5.36,0,0,1,147.23,230.38Zm-.2-1a4,4,0,0,0,2.09-.55,4.12,4.12,0,0,0,1.5-1.49,3.92,3.92,0,0,0,.56-2.08,4.14,4.14,0,0,0-2-3.6,3.93,3.93,0,0,0-2.06-.55,4,4,0,0,0-2,.5,3.92,3.92,0,0,0-1.45,1.35,4,4,0,0,0-.65,1.92v.8a3.84,3.84,0,0,0,.64,1.88,4.05,4.05,0,0,0,1.43,1.33,3.94,3.94,0,0,0,1.92.51Z" transform="translate(0 0)"/><path class="h" d="M51.46,246.15a4.43,4.43,0,0,0-1.61.31,5,5,0,0,0-1.48.87,4.08,4.08,0,0,0-1.06,1.31,3.76,3.76,0,0,0,.22,3.75,4.41,4.41,0,0,0,1.64,1.39,5.24,5.24,0,0,0,2.3.5,5.48,5.48,0,0,0,2-.35A5.74,5.74,0,0,0,55.1,253a3.38,3.38,0,0,0,1-1.25l.77.8a5.06,5.06,0,0,1-2.1,2,6.63,6.63,0,0,1-3.35.82,6.37,6.37,0,0,1-3-.68,5.28,5.28,0,0,1-2-1.81,4.5,4.5,0,0,1-.75-2.54,4.35,4.35,0,0,1,.49-2,5.45,5.45,0,0,1,1.35-1.63,6.45,6.45,0,0,1,4-1.53Zm8.2,9H58.23l-9.22-12-.44-.79a5.27,5.27,0,0,1-.39-1A4.13,4.13,0,0,1,48,240.3a3.92,3.92,0,0,1,.53-2A3.85,3.85,0,0,1,50,236.9a4.44,4.44,0,0,1,2.14-.51,5.34,5.34,0,0,1,2.16.43,7.8,7.8,0,0,1,1.66,1l-.6.83a7.34,7.34,0,0,0-1.51-.94,3.9,3.9,0,0,0-1.54-.32,3,3,0,0,0-2.18.81,2.72,2.72,0,0,0-.87,2.06,3.44,3.44,0,0,0,.19,1.1,5.38,5.38,0,0,0,.38.85l.21.38Zm-1.13-10h1.2l-2.81,7.23-.86-.68Z" transform="translate(0 0)"/><path class="h" d="M72.17,237.43H73.4v17.72H72.17Z" transform="translate(0 0)"/><path class="h" d="M78.46,236.15h1.17v19H78.46Z" transform="translate(0 0)"/><path class="h" d="M84.1,236.15h1.18v19H84.1Z" transform="translate(0 0)"/><path class="h" d="M92.78,255.45a2.87,2.87,0,0,1-3.06-2.67h0V245.4h1.2v6.75a2.53,2.53,0,0,0,.62,1.57,2.29,2.29,0,0,0,1.68.68,3.4,3.4,0,0,0,1.78-.5,4,4,0,0,0,1.34-1.37,3.8,3.8,0,0,0,.51-2v-5.2H98v9.82H97l-.12-3.08.17.68a3.34,3.34,0,0,1-.88,1.36,4.59,4.59,0,0,1-1.5,1A4.82,4.82,0,0,1,92.78,255.45Z" transform="translate(0 0)"/><path class="h" d="M104.73,255.38a5.64,5.64,0,0,1-1.77-.32,3.14,3.14,0,0,1-1.5-1l.55-.77a3.88,3.88,0,0,0,1.18.83,3.51,3.51,0,0,0,2.55.15,1.61,1.61,0,0,0,.84-.56,1.66,1.66,0,0,0,.33-1.07,1.4,1.4,0,0,0-.39-1.08,3,3,0,0,0-1-.61c-.4-.16-.81-.31-1.24-.44a5,5,0,0,1-1.76-1,2.14,2.14,0,0,1-.69-1.7,2.57,2.57,0,0,1,.38-1.4,2.77,2.77,0,0,1,1.07-.94,3.44,3.44,0,0,1,1.52-.33,4.78,4.78,0,0,1,1.54.25,3.51,3.51,0,0,1,1.39.85l-.53.82a2,2,0,0,0-1.06-.75,4.66,4.66,0,0,0-1.16-.22,2.47,2.47,0,0,0-.89.17,2,2,0,0,0-.77.51,1.25,1.25,0,0,0-.32.89,1.4,1.4,0,0,0,.33.94,2.22,2.22,0,0,0,.83.59c.35.15.7.29,1.07.42a10.69,10.69,0,0,1,1.36.54,3.06,3.06,0,0,1,1,.82,2.17,2.17,0,0,1,.41,1.37,3.15,3.15,0,0,1-.37,1.53,2.63,2.63,0,0,1-1.11,1.08A4,4,0,0,1,104.73,255.38Z" transform="translate(0 0)"/><path class="h" d="M112.61,241.15h1.2v4.43h3v1h-3v8.7h-1.2v-8.7h-2.08v-1h2.08Z" transform="translate(0 0)"/><path class="h" d="M120.78,245.4l.13,3-.15-.37a3.88,3.88,0,0,1,1-1.55,5,5,0,0,1,1.57-1,4.12,4.12,0,0,1,1.66-.35v1.15a4.09,4.09,0,0,0-2,.5,3.86,3.86,0,0,0-1.45,1.33A3.41,3.41,0,0,0,121,250v5.15h-1.17v-9.78Z" transform="translate(0 0)"/><path class="h" d="M132,255.38a5.13,5.13,0,0,1-2.54-.64,4.66,4.66,0,0,1-1.79-1.79,5.2,5.2,0,0,1-.67-2.67,5.34,5.34,0,0,1,.7-2.79,4.66,4.66,0,0,1,1.9-1.78,5.87,5.87,0,0,1,2.73-.61,4.4,4.4,0,0,1,2.46.78,4.26,4.26,0,0,1,1.66,2l-.17.35.15-2.78h1v9.75h-1.18v-3l.25.45a2.84,2.84,0,0,1-.6,1,5.7,5.7,0,0,1-1,.9,5.6,5.6,0,0,1-1.35.65A5.06,5.06,0,0,1,132,255.38Zm.25-1a4.21,4.21,0,0,0,2-.47,3.76,3.76,0,0,0,2.06-3.18v-1.4a3.62,3.62,0,0,0-.79-1.65,4.21,4.21,0,0,0-1.43-1.15,4,4,0,0,0-1.85-.43,4.1,4.1,0,0,0-2,.51,3.91,3.91,0,0,0-1.47,1.44,4.33,4.33,0,0,0,1.45,5.76A3.82,3.82,0,0,0,132.23,254.38Z" transform="translate(0 0)"/><path class="h" d="M144.17,255.38a5.65,5.65,0,0,1-1.78-.32,3.14,3.14,0,0,1-1.5-1l.55-.77a3.81,3.81,0,0,0,1.19.83,3.51,3.51,0,0,0,2.55.15,1.72,1.72,0,0,0,.84-.56,1.65,1.65,0,0,0,.32-1.07,1.4,1.4,0,0,0-.39-1.08,2.87,2.87,0,0,0-1-.61c-.41-.17-.82-.31-1.24-.44a5,5,0,0,1-1.76-1,2.14,2.14,0,0,1-.69-1.7,2.58,2.58,0,0,1,.39-1.4,2.67,2.67,0,0,1,1.06-.94,3.38,3.38,0,0,1,1.53-.33,4.67,4.67,0,0,1,1.53.25,3.51,3.51,0,0,1,1.39.85l-.52.82a2,2,0,0,0-1.06-.75,4.65,4.65,0,0,0-1.17-.22,2.47,2.47,0,0,0-.89.17,2.21,2.21,0,0,0-.77.51,1.2,1.2,0,0,0-.31.89,1.4,1.4,0,0,0,.32.94,2.61,2.61,0,0,0,.84.59c.34.15.7.29,1.06.42a8.37,8.37,0,0,1,1.36.54,2.88,2.88,0,0,1,1.08.85,2.17,2.17,0,0,1,.41,1.37,3.27,3.27,0,0,1-.38,1.53A2.63,2.63,0,0,1,146,255,3.71,3.71,0,0,1,144.17,255.38Z" transform="translate(0 0)"/><path class="h" d="M152.1,241.15h1.2v4.43h3v1h-3v8.7h-1.2v-8.7H150v-1h2.07Z" transform="translate(0 0)"/><path class="h" d="M158.28,250.23a5.14,5.14,0,0,1,2.56-4.47,5.56,5.56,0,0,1,5.34,0,5,5,0,0,1,1.85,1.87,5.29,5.29,0,0,1,0,5.2,5,5,0,0,1-1.86,1.88,5.19,5.19,0,0,1-2.69.69,5.33,5.33,0,0,1-2.65-.67,5,5,0,0,1-1.86-1.82A5.13,5.13,0,0,1,158.28,250.23Zm1.18,0a4,4,0,0,0,3.83,4.16,4.05,4.05,0,0,0,2.25-.58,4.21,4.21,0,0,0,1.38-5.79,4.33,4.33,0,0,0-1.38-1.38,3.8,3.8,0,0,0-2-.56,3.74,3.74,0,0,0-2.06.59,4.53,4.53,0,0,0-2,3.54Z" transform="translate(0 0)"/><path class="h" d="M173.23,245.4l.13,3-.15-.37a3.88,3.88,0,0,1,1-1.55,4.84,4.84,0,0,1,1.56-1,4.2,4.2,0,0,1,1.67-.35v1.15a4.09,4.09,0,0,0-2,.5,3.86,3.86,0,0,0-1.45,1.33,3.41,3.41,0,0,0-.54,1.89v5.15h-1.28v-9.78Z" transform="translate(0 0)"/><path class="h" d="M202.74,310.24l.13,3.08-.15-.6a3.67,3.67,0,0,1,1.61-2A4.91,4.91,0,0,1,207,310a3,3,0,0,1,2.22.81,2.89,2.89,0,0,1,.88,2.11V320h-1.15v-6.8a2.38,2.38,0,0,0-.6-1.58,2.28,2.28,0,0,0-1.68-.65,3.62,3.62,0,0,0-1.82.48,3.69,3.69,0,0,0-1.37,1.32,3.8,3.8,0,0,0-.51,2V320h-1.22v-9.78Z" transform="translate(0 0)"/><path class="h" d="M213.57,315.07a5.08,5.08,0,0,1,2.6-4.46,5.51,5.51,0,0,1,5.34,0,5,5,0,0,1,1.85,1.86,5.4,5.4,0,0,1,0,5.2,5,5,0,0,1-1.87,1.86,5.54,5.54,0,0,1-5.33,0,4.72,4.72,0,0,1-1.86-1.82A5.12,5.12,0,0,1,213.57,315.07Zm1.17,0a4.16,4.16,0,0,0,2,3.58,4.12,4.12,0,0,0,4.08-7.16h0a4,4,0,0,0-4.11,0,4.31,4.31,0,0,0-1.43,1.54,4.14,4.14,0,0,0-.54,2.06Z" transform="translate(0 0)"/><path class="h" d="M231.49,320.22a4.79,4.79,0,0,1-2.5-.67,4.87,4.87,0,0,1-1.82-1.84,5.75,5.75,0,0,1,0-5.38,4.65,4.65,0,0,1,1.83-1.77,5.35,5.35,0,0,1,5.23.1,4.44,4.44,0,0,1,1.84,1.9l-.2.55V301h1.23v19h-1.18v-3l.25.55a4.84,4.84,0,0,1-1.87,1.91A5.35,5.35,0,0,1,231.49,320.22Zm.3-1a4.09,4.09,0,0,0,2-.49,3.84,3.84,0,0,0,1.45-1.32,4,4,0,0,0,.62-1.89v-1.25a3.71,3.71,0,0,0-.77-1.7,4.6,4.6,0,0,0-1.45-1.18,4,4,0,0,0-1.88-.44,4.11,4.11,0,0,0-2,.52,4,4,0,0,0-1.47,1.45,4.22,4.22,0,0,0,1.48,5.74,3.86,3.86,0,0,0,2.07.53Z" transform="translate(0 0)"/><path class="h" d="M245.79,320.22a5.32,5.32,0,0,1-2.7-.68,4.92,4.92,0,0,1-1.84-1.84,5.2,5.2,0,0,1-.66-2.61,5,5,0,0,1,.7-2.6,5.29,5.29,0,0,1,1.89-1.87,5.09,5.09,0,0,1,2.64-.7,4.33,4.33,0,0,1,2.93,1,5.76,5.76,0,0,1,1.72,2.68l-8.55,3.3-.35-.85,7.82-3.06-.25.35a4.5,4.5,0,0,0-1.29-1.73,3.17,3.17,0,0,0-2.11-.72,3.7,3.7,0,0,0-2,.55,4.09,4.09,0,0,0-2,3.57,4.18,4.18,0,0,0,.51,2.05,4.07,4.07,0,0,0,1.44,1.53,4.17,4.17,0,0,0,3.66.27,5.13,5.13,0,0,0,1.32-.77l.6.85a6.77,6.77,0,0,1-1.62.9A5.15,5.15,0,0,1,245.79,320.22Z" transform="translate(0 0)"/><path class="h" d="M253.1,318.57a.77.77,0,0,1,.57-.25.86.86,0,0,1,.85.85.8.8,0,0,1-.26.61.87.87,0,0,1-.59.24.85.85,0,0,1-.57-1.45Z" transform="translate(0 0)"/><path class="h" d="M257.42,324.71l-.75-.73a4.78,4.78,0,0,0,1-1.62,5.9,5.9,0,0,0,.39-2.2v-9.93h1.2v9.92a7.21,7.21,0,0,1-.46,2.72A4.48,4.48,0,0,1,257.42,324.71Zm.42-18.08a.76.76,0,0,1,.26-.63.89.89,0,0,1,1.2,0,.84.84,0,0,1,0,1.19h0a.81.81,0,0,1-.55.25h-.06a.84.84,0,0,1-.6-.25.74.74,0,0,1-.28-.59Z" transform="translate(0 0)"/><path class="h" d="M265.74,320.22a5.63,5.63,0,0,1-1.77-.31,3.14,3.14,0,0,1-1.5-1l.55-.77a3.88,3.88,0,0,0,1.18.83,3.54,3.54,0,0,0,1.47.32,3.92,3.92,0,0,0,1.08-.16,1.69,1.69,0,0,0,.84-.57,1.66,1.66,0,0,0,.33-1.07,1.4,1.4,0,0,0-.39-1.08,3,3,0,0,0-1-.61c-.4-.16-.81-.3-1.24-.44a4.71,4.71,0,0,1-1.76-.95,2.11,2.11,0,0,1-.69-1.7,2.47,2.47,0,0,1,1.45-2.33,3.32,3.32,0,0,1,1.52-.34,4.78,4.78,0,0,1,1.54.25,3.84,3.84,0,0,1,1.39.85l-.53.82a2,2,0,0,0-1.06-.75A4.66,4.66,0,0,0,266,311a2.47,2.47,0,0,0-.89.17,2,2,0,0,0-.77.52,1.25,1.25,0,0,0-.32.88,1.31,1.31,0,0,0,.33.94,2.22,2.22,0,0,0,.83.59c.35.15.7.29,1.07.42a10.69,10.69,0,0,1,1.36.54,2.94,2.94,0,0,1,1,.83,2.13,2.13,0,0,1,.41,1.36,3.16,3.16,0,0,1-.37,1.54,2.66,2.66,0,0,1-1.11,1.07A4,4,0,0,1,265.74,320.22Z" transform="translate(0 0)"/><polygon class="h" points="201.64 458.67 203.83 463.08 208.69 463.79 205.17 467.23 206 472.07 201.64 469.78 197.28 472.07 198.11 467.23 194.58 463.79 199.47 463.09 201.64 458.67"/><polygon class="h" points="218.31 458.67 220.5 463.09 225.36 463.79 221.83 467.22 222.67 472.07 218.3 469.79 213.97 472.07 214.8 467.22 211.28 463.79 216.14 463.08 218.31 458.67"/><polygon class="h" points="235 458.68 237.17 463.09 242.03 463.79 238.5 467.22 239.34 472.07 235 469.78 230.64 472.08 231.47 467.22 227.94 463.79 232.81 463.08 235 458.68"/><polygon class="h" points="251.67 458.67 253.84 463.08 258.7 463.79 255.2 467.22 256.02 472.07 251.67 469.79 247.31 472.07 248.14 467.23 244.64 463.79 249.5 463.09 251.67 458.67"/><path class="h" d="M266.16,463.05l-4.84.67,3.52,3.44L264,472l4.32-2.28v-11Z" transform="translate(0 0)"/><path class="i" d="M275.38,463.76l-4.87-.71-2.18-4.41v11.12l4.35,2.29-.76-4.9Z" transform="translate(0 0)"/><path class="h" d="M199.74,434.51h11v1.17h-9.82v7.08h8.75v1.18h-8.75v7.21H211v1.18h-11.3Z" transform="translate(0 0)"/><path class="h" d="M216.14,442.48l.13,3.08-.15-.6a3.67,3.67,0,0,1,1.61-2,4.92,4.92,0,0,1,2.64-.74,3,3,0,0,1,2.22.81,2.89,2.89,0,0,1,.88,2.11v7.13h-1.2v-6.8a2.38,2.38,0,0,0-.6-1.58,2.28,2.28,0,0,0-1.68-.65,3.68,3.68,0,0,0-3.7,3.66h0v5.39h-1.17v-9.78Z" transform="translate(0 0)"/><path class="h" d="M232.27,457.05a7,7,0,0,1-1.58-.18,5.21,5.21,0,0,1-1.47-.64,9,9,0,0,1-1.5-1.18l.7-.8a6.31,6.31,0,0,0,2,1.39,5,5,0,0,0,1.8.36,5.2,5.2,0,0,0,2.42-.48,3,3,0,0,0,1.3-1.3,4.42,4.42,0,0,0,.43-1.82v-3.17l.28.3a4.37,4.37,0,0,1-1.79,2.12,5.35,5.35,0,0,1-2.91.83,4.75,4.75,0,0,1-2.51-.69,5.12,5.12,0,0,1-1.82-1.85,5.41,5.41,0,0,1,0-5.26,5,5,0,0,1,1.9-1.81,5.33,5.33,0,0,1,2.65-.67,5.13,5.13,0,0,1,2.56.7,4.25,4.25,0,0,1,1.76,1.85l-.15.55.13-2.8h1v9.93a4.92,4.92,0,0,1-.54,2.26,4,4,0,0,1-1.7,1.71A6.19,6.19,0,0,1,232.27,457.05Zm-4.13-9.72a4,4,0,0,0,.55,2.09,4.45,4.45,0,0,0,1.49,1.5,4,4,0,0,0,2.09.56,4.18,4.18,0,0,0,3.47-1.8,3.47,3.47,0,0,0,.65-1.78v-1.45a3.89,3.89,0,0,0-.78-1.67,4.51,4.51,0,0,0-1.45-1.15,4.38,4.38,0,0,0-4,.1,3.91,3.91,0,0,0-1.49,1.45,4.33,4.33,0,0,0-.53,2.14Z" transform="translate(0 0)"/><path class="h" d="M242,433.26h1.17v19H242Z" transform="translate(0 0)"/><path class="h" d="M247.39,438.88a.72.72,0,0,1,.28-.58.89.89,0,0,1,.6-.24.85.85,0,0,1,.6.24.79.79,0,0,1,.25.58.9.9,0,0,1-.25.62.87.87,0,0,1-1.2,0A.77.77,0,0,1,247.39,438.88Zm.25,3.6h1.22v9.78h-1.18Z" transform="translate(0 0)"/><path class="h" d="M255.57,452.46a5.38,5.38,0,0,1-1.78-.31,3.32,3.32,0,0,1-1.5-1l.55-.77a3.84,3.84,0,0,0,1.19.84,3.67,3.67,0,0,0,2.55.15,1.73,1.73,0,0,0,.84-.57,1.65,1.65,0,0,0,.32-1.07,1.43,1.43,0,0,0-.38-1.08,3,3,0,0,0-1-.61c-.39-.16-.8-.3-1.24-.44a5,5,0,0,1-1.76-1,2.11,2.11,0,0,1-.69-1.7,2.58,2.58,0,0,1,.39-1.4,2.65,2.65,0,0,1,1.06-.93,3.39,3.39,0,0,1,1.53-.34,4.67,4.67,0,0,1,1.53.25,3.51,3.51,0,0,1,1.39.85l-.52.82a2.06,2.06,0,0,0-1.06-.75,5.14,5.14,0,0,0-1.17-.22,2.7,2.7,0,0,0-.89.17,2,2,0,0,0-.77.52,1.24,1.24,0,0,0-.31.88,1.4,1.4,0,0,0,.32.94,2.61,2.61,0,0,0,.84.59c.34.15.7.29,1.06.42a8.37,8.37,0,0,1,1.36.54,3.18,3.18,0,0,1,1.06.83,2.13,2.13,0,0,1,.41,1.36,3.06,3.06,0,0,1-.38,1.54,2.61,2.61,0,0,1-1.11,1.07A3.9,3.9,0,0,1,255.57,452.46Z" transform="translate(0 0)"/><path class="h" d="M262.47,452.26v-19h1.15v11.79l-.08-.42a4.38,4.38,0,0,1,1.62-1.74,4.65,4.65,0,0,1,2.56-.71,3,3,0,0,1,2.22.81,2.88,2.88,0,0,1,.92,2.06v7.1h-1.2v-6.8a2.38,2.38,0,0,0-.6-1.58,2.28,2.28,0,0,0-1.68-.65,3.54,3.54,0,0,0-1.82.5,3.91,3.91,0,0,0-1.4,1.4,3.63,3.63,0,0,0-.52,1.93v5.25Z" transform="translate(0 0)"/><path class="h" d="M119.5,120.06l-4.84.67,3.52,3.44-.83,4.84,4.32-2.25V115.65Z" transform="translate(0 0)"/><path class="i" d="M128.72,120.71l-4.87-.71-2.18-4.41v11.12L126,129l-.81-4.87Z" transform="translate(0 0)"/><path class="h" d="M278.68,154.24a6.78,6.78,0,0,0-3,.7,5.78,5.78,0,0,1-.67-1.55,4.06,4.06,0,0,1-.06-1.3,9.72,9.72,0,0,1,.4-1.4c0-.06-.07-.34-.74-.35s-1.23.13-1.3.3a8.68,8.68,0,0,0-.27,1,24.43,24.43,0,0,1-2,3.87,3.84,3.84,0,0,1-.46-1.13,4.05,4.05,0,0,1,0-1.3,11.65,11.65,0,0,1,.39-1.4c0-.06-.07-.34-.74-.35s-1.23.13-1.3.3-.13.59-.27,1-1.75,4-2.17,4.91c-.21.47-.4.85-.53,1.11h0l-.18.34h0c-.09.17-.19.32-.23.32a2.11,2.11,0,0,1,0-1c.24-1.25.82-3.18.81-3.25s.11-.38-.37-.55a.59.59,0,0,0-.68.11l-.07.11s.52-2.19-1-2.19a4.52,4.52,0,0,0-2.91,2l-2.23,1.17-1.06.58-.08-.07c-1.84-2-5.24-3.36-5.1-6,0-1,.39-3.49,6.54-6.55,5-2.51,9.08-1.82,9.78-.29,1,2.19-2.16,6.26-7.4,6.84a4,4,0,0,1-3.31-.83c-.27-.31-.31-.32-.42-.26s-.06.36,0,.52a3.11,3.11,0,0,0,1.87,1.5,10,10,0,0,0,6.13-.61c3.18-1.23,5.65-4.64,4.93-7.49s-5.53-3.9-10.06-2.25a23,23,0,0,0-7.76,4.45c-2.51,2.34-2.91,4.39-2.74,5.24.59,3,4.76,5,6.44,6.47a1.71,1.71,0,0,0-.23.13c-.84.41-4,2.07-4.83,3.84-.9,2,.15,3.43.84,3.62a5.11,5.11,0,0,0,5.54-2.24,5.54,5.54,0,0,0,.5-5.12h0l.66-.39c.42-.25.84-.48,1.21-.68a7.4,7.4,0,0,0-.43,2.19,4.58,4.58,0,0,0,1,3.18,1.08,1.08,0,0,0,.79.26c.71,0,1-.59,1.39-1.29.43-.86.82-1.85.82-1.85s-.48,2.69.84,2.69c.48,0,1-.63,1.18-1h0v-.07l.08-.12h0c.19-.34.62-1.1,1.27-2.37.83-1.64,1.62-3.68,1.62-3.68a11.55,11.55,0,0,0,.32,1.32,11.27,11.27,0,0,0,.69,1.55c-.19.27-.31.42-.31.42h0l-.51.64a18,18,0,0,0-1.55,1.94.54.54,0,0,0,.14.71,1.36,1.36,0,0,0,.82.13,3.56,3.56,0,0,0,1.21-.28,4.24,4.24,0,0,0,1-.55,2.33,2.33,0,0,0,1-2,4.32,4.32,0,0,0-.38-1.45l.17-.26a26.85,26.85,0,0,0,1.8-3.12,12.25,12.25,0,0,0,.32,1.33,9.11,9.11,0,0,0,.58,1.32,5.69,5.69,0,0,0-1.75,2.28c-.38,1.09-.09,1.59.47,1.7a1.68,1.68,0,0,0,.88-.18,4.14,4.14,0,0,0,1.11-.56,2.55,2.55,0,0,0,1.23-2,3.82,3.82,0,0,0-.28-1.2,6.3,6.3,0,0,1,3.19-.37c2.87.34,3.44,2.13,3.33,2.87a2,2,0,0,1-.91,1.29c-.2.12-.27.17-.25.26s.12.13.29.1a2.21,2.21,0,0,0,1.56-2c.08-1.77-1.6-3.7-4.58-3.68Zm-22.1,7.47c-.94,1-2.27,1.43-2.84,1.09s-.37-1.88.79-3a15,15,0,0,1,2.23-1.66l.59-.36h.07l.14-.09a4.1,4.1,0,0,1-1,4ZM263.5,157c-.32.81-1,2.87-1.44,2.76s-.58-1.66-.07-3.21a7.06,7.06,0,0,1,1.1-2.06c.52-.58,1.09-.78,1.23-.54a12.53,12.53,0,0,1-.85,3Zm5.67,2.71c-.14.07-.27.13-.32.09s0-.13,0-.13.72-.76,1-1.12c.16-.2.36-.44.56-.71v.08a2.38,2.38,0,0,1-1.24,1.79Zm4.41-1c-.11-.08-.09-.32.26-1.06a3.73,3.73,0,0,1,1-1.26,1.49,1.49,0,0,1,.1.55,1.81,1.81,0,0,1-1.32,1.77Z" transform="translate(0 0)"/><polygon class="h" points="121.66 258.75 123.79 263.1 128.59 263.79 125.11 267.17 125.94 271.95 121.66 269.69 117.35 271.95 118.18 267.17 114.71 263.79 119.49 263.1 121.66 258.75"/><polygon class="h" points="71.88 387.67 74.06 392.09 78.93 392.79 75.4 396.23 76.25 401.07 71.88 398.78 67.53 401.08 68.37 396.22 64.84 392.79 69.71 392.08 71.88 387.67"/><polygon class="h" points="88.56 387.68 90.75 392.09 95.62 392.79 92.09 396.22 92.9 401.07 88.56 398.78 84.21 401.07 85.03 396.22 81.53 392.8 86.37 392.09 88.56 387.68"/><polygon class="h" points="105.25 387.67 107.41 392.08 112.28 392.79 108.75 396.22 109.59 401.07 105.25 398.79 100.88 401.07 101.71 396.22 98.19 392.79 103.06 392.08 105.25 387.67"/><polygon class="i" points="138.58 387.67 140.76 392.08 145.62 392.79 142.12 396.23 142.93 401.07 138.58 398.78 134.25 401.07 135.06 396.23 131.56 392.79 136.43 392.08 138.58 387.67"/><polygon class="i" points="122.59 388 124.77 392.41 129.63 393.11 126.12 396.55 126.95 401.4 122.59 399.11 118.25 401.4 119.09 396.56 115.56 393.12 120.43 392.41 122.59 388"/><path class="h" d="M98.55,386.82a6.28,6.28,0,0,1-1.43-.17,4.69,4.69,0,0,1-1.34-.58A8.86,8.86,0,0,1,94.41,385l.64-.72a5.88,5.88,0,0,0,1.82,1.26,4.61,4.61,0,0,0,1.64.33,4.51,4.51,0,0,0,2.2-.45,2.69,2.69,0,0,0,1.18-1.18,3.92,3.92,0,0,0,.39-1.65v-2.88l.25.27a3.92,3.92,0,0,1-1.62,1.93,4.86,4.86,0,0,1-2.65.75A4.38,4.38,0,0,1,96,382a4.79,4.79,0,0,1-1.64-6.47,4.49,4.49,0,0,1,1.73-1.65,5,5,0,0,1,2.41-.6,4.65,4.65,0,0,1,2.33.63,4,4,0,0,1,1.6,1.69l-.14.5.12-2.55h1v9a4.35,4.35,0,0,1-.49,2,3.62,3.62,0,0,1-1.54,1.56A5.7,5.7,0,0,1,98.55,386.82ZM94.8,378a3.72,3.72,0,0,0,.5,1.9,3.82,3.82,0,0,0,1.35,1.36,3.61,3.61,0,0,0,1.9.51,3.85,3.85,0,0,0,1.82-.44,4,4,0,0,0,1.34-1.2,3.13,3.13,0,0,0,.59-1.61v-1.35a3.55,3.55,0,0,0-.71-1.52,4,4,0,0,0-1.32-1.05,4.08,4.08,0,0,0-3.62.09A3.64,3.64,0,0,0,95.3,376a3.76,3.76,0,0,0-.5,2Z" transform="translate(0 0)"/><path class="h" d="M107.19,370.32a.69.69,0,0,1,.25-.54.86.86,0,0,1,.55-.21.78.78,0,0,1,.54.21.74.74,0,0,1,.23.54.71.71,0,0,1-.23.55.73.73,0,0,1-.54.22.76.76,0,0,1-.55-.23A.69.69,0,0,1,107.19,370.32Zm.23,3.27h1.07v8.89h-1.07Z" transform="translate(0 0)"/><path class="h" d="M113.42,369.68h1.09v4h2.75v.87h-2.75v7.91h-1.09v-7.91h-1.89v-.87h1.89Z" transform="translate(0 0)"/></svg>