<svg id="Layer_1" data-name="Layer 1" xmlns="http://www.w3.org/2000/svg" xmlns:xlink="http://www.w3.org/1999/xlink" viewBox="0 0 343.11 442.05"><defs><style>.cls-1,.cls-11,.cls-16,.cls-18,.cls-22,.cls-4,.cls-5,.cls-8{fill:none;}.cls-1,.cls-11,.cls-22{stroke:#fff;}.cls-1,.cls-11,.cls-12,.cls-13,.cls-14,.cls-15,.cls-16,.cls-17,.cls-18,.cls-19,.cls-20,.cls-22,.cls-4,.cls-5{stroke-miterlimit:10;}.cls-1{stroke-width:1.5px;}.cls-2{fill:url(#linear-gradient);}.cls-3{fill:url(#linear-gradient-2);}.cls-14,.cls-19,.cls-4,.cls-5{stroke:#69c9d0;}.cls-4{stroke-width:3.14px;}.cls-5{stroke-width:3.22px;}.cls-6{fill:#69c9d0;}.cls-20,.cls-7{fill:#d8d7db;}.cls-12,.cls-13,.cls-14,.cls-15,.cls-17,.cls-19,.cls-9{fill:#fff;}.cls-10{fill:#0f0f0f;}.cls-11{stroke-width:3px;}.cls-12,.cls-13,.cls-15,.cls-16,.cls-17,.cls-18{stroke:#000;}.cls-12{stroke-width:40px;}.cls-13{stroke-width:9.07px;}.cls-14{stroke-width:3.06px;}.cls-15,.cls-16{stroke-width:13.13px;}.cls-17,.cls-18,.cls-19{stroke-width:2.98px;}.cls-20{stroke:#080808;stroke-width:2px;}.cls-21{fill:#080808;}</style><linearGradient id="linear-gradient" x1="-27.22" y1="-2460.71" x2="-27.22" y2="-2460.71" gradientTransform="matrix(1, 0, 0, -1, 28.88, -2122.72)" gradientUnits="userSpaceOnUse"><stop offset="0" stop-color="#fff"/><stop offset="1"/></linearGradient><linearGradient id="linear-gradient-2" x1="-507.48" y1="-773.68" x2="-507.48" y2="-773.68" gradientTransform="matrix(-0.5, 0.87, 0.87, 0.5, 596.1, 1187.51)" xlink:href="#linear-gradient"/></defs><title>svgSkillsImageMobile2</title><path class="cls-1" d="M96.37,25a2,2,0,0,0,0-4,2,2,0,0,1-.73-3.78,2,2,0,1,0-1.57-3.71h0a2.25,2.25,0,0,1-.58.08,2,2,0,0,1-2-2v-.07a1.93,1.93,0,0,1,.42-1.2,2,2,0,0,0-2.83-2.85,2,2,0,0,1-2.81-.3h0a2,2,0,0,1-.36-1.8,2,2,0,0,0-3.66-1.57,2,2,0,0,1-3.8-.8,2,2,0,1,0-4,0,2,2,0,0,1-3.77.72A2,2,0,0,0,67,5.25a1.58,1.58,0,0,1,.08.57,2,2,0,0,1-2,2h0a2,2,0,0,1-1.23-.44A2,2,0,0,0,61,10.23,2,2,0,0,1,60.67,13h0a2,2,0,0,1-1.8.36,2,2,0,0,0-.6-.09,2,2,0,0,0-.93,3.79,2,2,0,0,1-.78,3.76,2,2,0,0,0,0,4,2,2,0,0,1,.7,3.83,2,2,0,0,0-.9,2.68,2,2,0,0,0,1.83,1.11h.07a1.91,1.91,0,0,0,.63-.08A2,2,0,0,1,61,35.62a2,2,0,1,0,2.84,2.83,2,2,0,0,1,2.81.31h0A2,2,0,0,1,67,40.59a2.47,2.47,0,0,0-.08.6,1.48,1.48,0,0,0,0,.42,2,2,0,0,0,2.4,1.5h.07a2.06,2.06,0,0,0,1.25-.93h0a2,2,0,0,1,2.72-.79h0a2,2,0,0,1,1,1.49,2,2,0,0,0,4,0,2,2,0,0,1,3.77-.73,2,2,0,1,0,3.71-1.53h0a2,2,0,0,1,1.34-2.49h0a2,2,0,0,1,1.8.36,2.07,2.07,0,0,0,3-2.84h0a2,2,0,0,1,.26-2.82h0a2,2,0,0,1,1.86-.37,2,2,0,1,0,1.52-3.75,2,2,0,0,1-.85-2.7v0h0a2,2,0,0,1,1.56-1ZM76.43,28.82a5.91,5.91,0,1,1,5.91-5.91A5.92,5.92,0,0,1,76.43,28.82Z" transform="translate(0 0)"/><path class="cls-2" d="M1.66,338" transform="translate(0 0)"/><path class="cls-3" d="M178.23,362" transform="translate(0 0)"/><polygon class="cls-4" points="210.63 440.48 171.29 370.48 44.95 370.48 5.63 440.48 210.63 440.48"/><polygon class="cls-5" points="135.38 370.29 340.38 370.29 301.56 300.29 174.19 300.29 135.38 370.29"/><polygon class="cls-5" points="210.63 299.95 171.81 229.95 44.45 229.95 5.63 299.95 210.63 299.95"/><polygon class="cls-5" points="174.19 159.46 135.38 229.45 340.38 229.45 301.56 159.45 174.19 159.46"/><path class="cls-6" d="M298.29,26l36.84,64H140.55l36.84-64h120.9m1.7-3H175.67l-.83,1.5L138,88.45,135.36,93h205l-2.6-4.5-36.84-64Z" transform="translate(0 0)"/><path class="cls-7" d="M145.75,6.15" transform="translate(0 0)"/><path class="cls-7" d="M39.26,200" transform="translate(0 0)"/><path class="cls-7" d="M-1.18,130" transform="translate(0 0)"/><path class="cls-7" d="M170.41,93.47" transform="translate(0 0)"/><polyline class="cls-8" points="169.26 95.46 207.38 161.47 8.78 161.47 46.88 95.47"/><path class="cls-6" d="M205.36,157.46H10.78l36.89-64H168.56l36.89,64m5.17,3-40.31-70H45.85L45,92,8.2,156l-2.58,4.5Z" transform="translate(0 0)"/><polygon class="cls-9" points="204.35 71.04 206.54 75.47 211.44 76.19 207.91 79.64 208.72 84.5 204.35 82.21 199.97 84.5 200.81 79.64 197.28 76.19 202.16 75.47 204.35 71.04"/><polygon class="cls-9" points="221.1 71.04 223.29 75.47 228.19 76.19 224.66 79.64 225.5 84.5 221.1 82.21 216.75 84.5 217.56 79.64 214.03 76.19 218.94 75.47 221.1 71.04"/><polygon class="cls-9" points="237.88 71.04 240.06 75.47 244.94 76.19 241.41 79.64 242.25 84.5 237.88 82.21 233.5 84.5 234.32 79.64 230.78 76.19 235.69 75.47 237.88 71.04"/><polygon class="cls-9" points="254.63 71.04 256.81 75.47 261.69 76.19 258.15 79.64 259 84.5 254.63 82.21 250.25 84.5 251.07 79.64 247.54 76.19 252.44 75.47 254.63 71.04"/><polygon class="cls-10" points="271.38 71.04 273.56 75.47 278.45 76.19 274.93 79.64 275.75 84.5 271.38 82.21 267 84.5 267.83 79.64 264.31 76.19 269.19 75.47 271.38 71.04"/><polygon class="cls-9" points="204.32 211.97 206.5 216.41 211.41 217.12 207.88 220.57 208.72 225.45 204.34 223.14 199.97 225.44 200.78 220.56 197.25 217.12 202.13 216.4 204.32 211.97"/><polygon class="cls-9" points="221.09 211.97 223.28 216.4 228.19 217.12 224.63 220.57 225.47 225.44 221.09 223.14 216.72 225.44 217.56 220.57 214.01 217.12 218.91 216.41 221.09 211.97"/><polygon class="cls-9" points="237.85 211.98 240.04 216.41 244.94 217.12 241.41 220.57 242.25 225.44 237.85 223.14 233.47 225.44 234.31 220.57 230.78 217.12 235.66 216.41 237.85 211.98"/><polygon class="cls-9" points="254.63 211.97 256.81 216.41 261.7 217.12 258.15 220.57 259 225.44 254.63 223.15 250.25 225.44 251.09 220.57 247.53 217.12 252.44 216.41 254.63 211.97"/><path class="cls-9" d="M269.17,216.43l-4.86.66,3.52,3.47-.83,4.89,4.4-2.3V212Z" transform="translate(0 0)"/><path class="cls-10" d="M278.48,217.08l-4.9-.72-2.18-4.43v11.18l4.38,2.3-.84-4.87Z" transform="translate(0 0)"/><polygon class="cls-9" points="74.78 419.62 76.97 424.03 81.83 424.74 78.31 428.18 79.14 433.02 74.78 430.73 70.42 433.02 71.25 428.18 67.72 424.74 72.61 424.04 74.78 419.62"/><polygon class="cls-9" points="91.45 419.62 93.64 424.04 98.5 424.74 94.97 428.17 95.81 433.02 91.44 430.74 87.11 433.02 87.94 428.17 84.42 424.74 89.28 424.03 91.45 419.62"/><polygon class="cls-9" points="108.14 419.63 110.31 424.04 115.17 424.74 111.64 428.17 112.48 433.02 108.14 430.73 103.78 433.03 104.61 428.17 101.08 424.74 105.95 424.03 108.14 419.63"/><polygon class="cls-9" points="124.81 419.62 126.98 424.03 131.84 424.74 128.34 428.17 129.16 433.02 124.81 430.74 120.45 433.02 121.28 428.18 117.78 424.74 122.64 424.04 124.81 419.62"/><path class="cls-9" d="M139.3,424l-4.84.67,3.52,3.44-.83,4.84,4.32-2.28V419.63Z" transform="translate(0 0)"/><path class="cls-10" d="M148.52,424.71l-4.87-.71-2.18-4.41v11.12l4.35,2.29-.81-4.86Z" transform="translate(0 0)"/><polygon class="cls-9" points="75.28 281.75 77.42 286.1 82.22 286.79 78.75 290.17 79.56 294.95 75.28 292.69 70.98 294.95 71.81 290.17 68.33 286.79 73.14 286.1 75.28 281.75"/><polygon class="cls-9" points="91.69 281.75 93.84 286.1 98.64 286.79 95.17 290.17 95.98 294.95 91.69 292.69 87.42 294.95 88.22 290.17 84.75 286.79 89.56 286.1 91.69 281.75"/><polygon class="cls-9" points="108.14 281.75 110.28 286.1 115.06 286.79 111.59 290.17 112.42 294.95 108.14 292.69 103.83 294.95 104.67 290.17 101.19 286.79 105.97 286.1 108.14 281.75"/><polygon class="cls-10" points="140.97 281.75 143.13 286.1 147.91 286.79 144.44 290.17 145.26 294.95 140.97 292.69 136.69 294.95 137.5 290.17 134.03 286.79 138.82 286.1 140.97 281.75"/><polygon class="cls-9" points="75.22 138.79 77.36 143.14 82.17 143.84 78.69 147.22 79.53 152.01 75.22 149.74 70.92 152 71.73 147.22 68.25 143.83 73.06 143.13 75.22 138.79"/><polygon class="cls-9" points="91.67 138.79 93.81 143.14 98.64 143.83 95.14 147.22 95.97 152 91.67 149.75 87.39 152.01 88.19 147.22 84.72 143.83 89.53 143.14 91.67 138.79"/><polygon class="cls-9" points="108.14 138.78 110.28 143.14 115.08 143.83 111.61 147.22 112.42 152.01 108.14 149.75 103.83 152.01 104.64 147.22 101.17 143.83 105.98 143.13 108.14 138.78"/><polygon class="cls-10" points="141.04 138.78 143.19 143.14 148 143.83 144.53 147.22 145.34 152 141.04 149.75 136.75 152.01 137.56 147.22 134.09 143.84 138.91 143.14 141.04 138.78"/><polygon class="cls-9" points="204.51 348.11 206.69 352.53 211.56 353.23 208.03 356.67 208.88 361.51 204.51 359.22 200.16 361.52 201 356.66 197.47 353.23 202.34 352.52 204.51 348.11"/><polygon class="cls-9" points="221.19 348.12 223.38 352.53 228.25 353.23 224.72 356.66 225.53 361.51 221.19 359.22 216.84 361.51 217.66 356.66 214.16 353.24 219 352.53 221.19 348.12"/><polygon class="cls-9" points="237.88 348.11 240.04 352.52 244.91 353.23 241.38 356.66 242.22 361.51 237.88 359.23 233.51 361.51 234.34 356.66 230.82 353.23 235.69 352.52 237.88 348.11"/><polygon class="cls-10" points="271.21 348.11 273.39 352.52 278.25 353.23 274.75 356.67 275.56 361.51 271.21 359.22 266.88 361.51 267.69 356.67 264.19 353.23 269.06 352.52 271.21 348.11"/><polygon class="cls-10" points="255.22 348.44 257.4 352.85 262.26 353.55 258.75 356.99 259.58 361.84 255.22 359.55 250.88 361.84 251.72 357 248.19 353.56 253.06 352.85 255.22 348.44"/><path class="cls-11" d="M224.87,308.37" transform="translate(0 0)"/><path class="cls-12" d="M.53,95.83" transform="translate(0 0)"/><path class="cls-13" d="M27.34,57.64" transform="translate(0 0)"/><path class="cls-13" d="M-4.93,97" transform="translate(0 0)"/><path class="cls-11" d="M105.77-12.29" transform="translate(0 0)"/><path class="cls-11" d="M143.51-11.16" transform="translate(0 0)"/><path class="cls-14" d="M73.28,43.43" transform="translate(0 0)"/><path class="cls-15" d="M83.76,34.43" transform="translate(0 0)"/><path class="cls-15" d="M102.54,40.52" transform="translate(0 0)"/><path class="cls-16" d="M103.61,42.35" transform="translate(0 0)"/><path class="cls-17" d="M82.44,34" transform="translate(0 0)"/><path class="cls-18" d="M101.9,40.29" transform="translate(0 0)"/><path class="cls-18" d="M103,42.18" transform="translate(0 0)"/><path class="cls-18" d="M91.77,44.09" transform="translate(0 0)"/><path class="cls-19" d="M88.85,47.64" transform="translate(0 0)"/><path class="cls-20" d="M142.12,34.41l-4.54-13.83-1.83-5.48,6.62-2.2,14.29-4.75A23,23,0,0,0,142,1.08h0a22.85,22.85,0,0,0-24.35,18.28h0L77.86,33.24,39.17,46.11a22.84,22.84,0,0,0-38,14.3l20.9-6.92,6.43,19.3L8,79.61A22.88,22.88,0,0,0,46.32,66.93L84.44,54.26l39.81-13.84h0a22.88,22.88,0,0,0,32.34-.81h0a22.54,22.54,0,0,0,3.87-5.51,22.94,22.94,0,0,0,2.12-6.5Z" transform="translate(0 0)"/><path class="cls-21" d="M57.43,48a9.25,9.25,0,0,0-1.81-.3,5,5,0,0,0-1.64.15,3.74,3.74,0,0,0-.8.33,1.81,1.81,0,0,0-.55.44,1.4,1.4,0,0,0-.29.57,1.38,1.38,0,0,0,0,.7,1.19,1.19,0,0,0,.58.8,3.33,3.33,0,0,0,1.17.44,11.9,11.9,0,0,0,1.44.21,8.06,8.06,0,0,1,1.76.34,3.74,3.74,0,0,1,1.56,1A4.4,4.4,0,0,1,59.18,58a4.84,4.84,0,0,1-1.34,1.29,6.17,6.17,0,0,1-2,.92,8.67,8.67,0,0,1-1.68.28,8.53,8.53,0,0,1-1.75,0,7.69,7.69,0,0,1-1.76-.44l.76-2.57a7.53,7.53,0,0,0,1.23.36,7.81,7.81,0,0,0,1.28.11,4.51,4.51,0,0,0,1.15-.23,3.9,3.9,0,0,0,.93-.42,2,2,0,0,0,.74-.73,1.39,1.39,0,0,0,.15-1,1.11,1.11,0,0,0-.45-.72,2.77,2.77,0,0,0-.9-.43,4.91,4.91,0,0,0-1.14-.23A9,9,0,0,1,52.93,54a7.57,7.57,0,0,1-1.47-.45,3.48,3.48,0,0,1-1.22-.93A3.73,3.73,0,0,1,49.5,51a4.64,4.64,0,0,1,.09-2.34,4.2,4.2,0,0,1,1.19-1.88A6.55,6.55,0,0,1,53,45.48a9.11,9.11,0,0,1,2-.41,8.65,8.65,0,0,1,1.61.09,10.76,10.76,0,0,1,1.38.36Z" transform="translate(0 0)"/><path class="cls-21" d="M64.07,47.24l.07.77.31-.71,3.4-6.9,3.57-1.24L67,47.71l7.48,6L71,54.91l-5.63-4.73-.52,1L66,56.67l-2.78,1L60.07,43.05l2.78-1Z" transform="translate(0 0)"/><path class="cls-21" d="M73.46,38.46l2.87-1L79.41,52l-2.87,1Z" transform="translate(0 0)"/><path class="cls-21" d="M79.92,36.24l2.75-.94L85.16,47l6.55-2.25.56,2.77L83,50.76Z" transform="translate(0 0)"/><path class="cls-21" d="M92.07,32.09l2.74-1L97.3,42.83l6.56-2.24.56,2.76-9.35,3.28Z" transform="translate(0 0)"/><path class="cls-21" d="M112.47,29.1a9.93,9.93,0,0,0-1.8-.29A4.75,4.75,0,0,0,109,29a6.13,6.13,0,0,0-.8.33,2.22,2.22,0,0,0-.56.45,1.31,1.31,0,0,0-.28.58,1.61,1.61,0,0,0,0,.69,1.21,1.21,0,0,0,.59.8,3.71,3.71,0,0,0,1.16.44q.7.13,1.44.21a8.26,8.26,0,0,1,1.77.34,3.59,3.59,0,0,1,1.56,1,4.72,4.72,0,0,1,1,3.74,4.35,4.35,0,0,1-.65,1.59,5.29,5.29,0,0,1-1.33,1.34,6.44,6.44,0,0,1-2,.9,8.78,8.78,0,0,1-1.68.34,9.31,9.31,0,0,1-1.75-.05,7.17,7.17,0,0,1-1.77-.44l.78-2.57a7.39,7.39,0,0,0,1.22.35,7,7,0,0,0,1.29.12,4.87,4.87,0,0,0,1.14-.14,3.57,3.57,0,0,0,.93-.43,2,2,0,0,0,.75-.72,1.45,1.45,0,0,0,.15-1,1.06,1.06,0,0,0-.47-.71,2.45,2.45,0,0,0-.89-.43,4.93,4.93,0,0,0-1.13-.23,7.25,7.25,0,0,1-1.47-.22,6.31,6.31,0,0,1-1.48-.44,3.84,3.84,0,0,1-1.21-.94,3.61,3.61,0,0,1-.73-1.66,4.43,4.43,0,0,1,.09-2.34,4.32,4.32,0,0,1,1.27-1.9,6.06,6.06,0,0,1,2.2-1.23,8.08,8.08,0,0,1,2-.41,6.68,6.68,0,0,1,1.61.1,8.77,8.77,0,0,1,1.33.29Z" transform="translate(0 0)"/><path class="cls-22" d="M52.93,27.6a1.67,1.67,0,0,0-1.21-1.49A1.75,1.75,0,0,1,51.27,23a1.75,1.75,0,0,0-1.43-3.17,1.72,1.72,0,0,1-2.14-1.16v0a1.69,1.69,0,0,1,.08-1.19,1.75,1.75,0,0,0-2.9-1.87,1.76,1.76,0,0,1-2.48.12,1.81,1.81,0,0,1-.55-1,1.74,1.74,0,0,0-3.44,0,1.74,1.74,0,0,1-2,1.44h0a1.69,1.69,0,0,1-1-.55,1.76,1.76,0,0,0-2.49-.07h0a1.78,1.78,0,0,0-.42,1.94,1.74,1.74,0,0,1-.9,2.29,1.72,1.72,0,0,1-1.16.08A1.75,1.75,0,0,0,29,23a1.74,1.74,0,0,1,.48,2.4h0a1.72,1.72,0,0,1-.92.69,1.75,1.75,0,0,0,.51,3.4,1.77,1.77,0,0,1,1.72,1.78,1.81,1.81,0,0,1-.41,1.09A1.74,1.74,0,1,0,32.64,35h0a1.75,1.75,0,0,1,2.4.57h0a1.71,1.71,0,0,1,.23,1.15,1.74,1.74,0,0,0,3.31,1,1.72,1.72,0,0,1,2.28-.86h0a1.68,1.68,0,0,1,.85.85,1.75,1.75,0,0,0,3.34-1,1.78,1.78,0,0,1,1.51-2h0a1.72,1.72,0,0,1,1.11.24l.14.08a1.67,1.67,0,0,0,1.9-.23A1.74,1.74,0,0,0,50,32.37h0a1.75,1.75,0,0,1,.22-2.46,1.67,1.67,0,0,1,1.09-.4A1.72,1.72,0,0,0,53,27.78h0ZM40.07,30.06A4.1,4.1,0,1,1,44.16,26v0h0A4.1,4.1,0,0,1,40.07,30.06Z" transform="translate(0 0)"/><path class="cls-9" d="M188.79,63a7.3,7.3,0,0,1-.72,3.38,5.11,5.11,0,0,1-1.94,2.13,5.51,5.51,0,0,1-2.74.79V68.13a4.19,4.19,0,0,0,3-1.43,5.46,5.46,0,0,0,1.19-3.77v-15h1.22Z" transform="translate(0 0)"/><path class="cls-9" d="M197.89,65.88a5.09,5.09,0,0,1-2.53-.64,4.69,4.69,0,0,1-1.8-1.79,5.2,5.2,0,0,1-.67-2.67,5.34,5.34,0,0,1,.7-2.79,4.66,4.66,0,0,1,1.9-1.78,6,6,0,0,1,2.73-.61,4.33,4.33,0,0,1,2.46.78,4.27,4.27,0,0,1,1.66,2l-.17.35.15-2.78h1v9.76h-1.13v-3l.25.45a2.84,2.84,0,0,1-.6,1,5.7,5.7,0,0,1-1,.9,5.6,5.6,0,0,1-1.35.65A5.07,5.07,0,0,1,197.89,65.88Zm.25-1a4.21,4.21,0,0,0,2-.47,3.76,3.76,0,0,0,2.06-3.18v-1.4a3.76,3.76,0,0,0-.78-1.65A4.44,4.44,0,0,0,200,57a4,4,0,0,0-1.85-.43,4.1,4.1,0,0,0-2,.51,3.91,3.91,0,0,0-1.47,1.44,4.2,4.2,0,0,0-.59,2.16,4.29,4.29,0,0,0,2,3.6A3.87,3.87,0,0,0,198.14,64.88Z" transform="translate(0 0)"/><path class="cls-9" d="M211.24,66.05l-5-10.15h1.38l4.07,8.88-.67-.07L215,55.86h1.3L211.44,66Z" transform="translate(0 0)"/><path class="cls-9" d="M223,65.88a5.09,5.09,0,0,1-2.53-.64,4.69,4.69,0,0,1-1.8-1.79,5.2,5.2,0,0,1-.67-2.67,5.34,5.34,0,0,1,.7-2.79,4.66,4.66,0,0,1,1.9-1.78,6,6,0,0,1,2.73-.61,4.33,4.33,0,0,1,2.46.78,4.27,4.27,0,0,1,1.66,2l-.17.35.15-2.78h1v9.76h-1.23v-3l.25.45a2.84,2.84,0,0,1-.6,1,5.7,5.7,0,0,1-1,.9,5.6,5.6,0,0,1-1.35.65A5,5,0,0,1,223,65.88Zm.25-1a4.21,4.21,0,0,0,2-.47,3.76,3.76,0,0,0,2.06-3.18v-1.4a3.76,3.76,0,0,0-.78-1.65,4.32,4.32,0,0,0-1.4-1.15,4,4,0,0,0-1.85-.43,4.1,4.1,0,0,0-2,.51,3.91,3.91,0,0,0-1.47,1.44,4.16,4.16,0,0,0-.55,2.18,4,4,0,0,0,.55,2.08,4,4,0,0,0,1.49,1.5,3.87,3.87,0,0,0,1.9.57Z" transform="translate(0 0)"/><path class="cls-9" d="M242.34,49.93a11.7,11.7,0,0,0-1.9-.7,7.81,7.81,0,0,0-2.25-.33,4.22,4.22,0,0,0-2.8.88,2.72,2.72,0,0,0-1,2.2,2.41,2.41,0,0,0,.6,1.66,4.65,4.65,0,0,0,1.58,1.12c.65.31,1.34.61,2.07.89s1.17.46,1.74.73a6.91,6.91,0,0,1,1.56,1,4.34,4.34,0,0,1,1.12,1.43,4.89,4.89,0,0,1,.41,2.1,5,5,0,0,1-.7,2.61,4.67,4.67,0,0,1-2,1.76,6.32,6.32,0,0,1-2.9.63,8.16,8.16,0,0,1-2.41-.33,10.86,10.86,0,0,1-1.91-.76,12.51,12.51,0,0,1-1.28-.74l.57-1a10.09,10.09,0,0,0,1.34.8,11.49,11.49,0,0,0,1.71.68,6.42,6.42,0,0,0,1.85.27,5.34,5.34,0,0,0,2.09-.42,4.18,4.18,0,0,0,1.68-1.29,3.52,3.52,0,0,0,.66-2.19,3.17,3.17,0,0,0-.63-2.06,4.78,4.78,0,0,0-1.6-1.29,19,19,0,0,0-2.07-.9c-.57-.22-1.14-.44-1.7-.69a7.61,7.61,0,0,1-1.55-.87,3.88,3.88,0,0,1-1.11-1.24,3.46,3.46,0,0,1-.42-1.75,3.82,3.82,0,0,1,.65-2.22,4.41,4.41,0,0,1,1.77-1.49,6,6,0,0,1,2.53-.56A10.7,10.7,0,0,1,242.82,49Z" transform="translate(0 0)"/><path class="cls-9" d="M255,64.71a5.29,5.29,0,0,1-1.52.85,5.37,5.37,0,0,1-1.78.3,5.21,5.21,0,0,1-2.7-.67,4.8,4.8,0,0,1-1.85-1.81,5.11,5.11,0,0,1,4.42-7.72,5.56,5.56,0,0,1,1.9.3,4.52,4.52,0,0,1,1.53.85l-.63.8a4.5,4.5,0,0,0-1.22-.7,4.07,4.07,0,0,0-1.5-.28,3.81,3.81,0,0,0-2,.55,4.15,4.15,0,0,0-1.47,1.53,4.31,4.31,0,0,0,0,4.15,4.06,4.06,0,0,0,3.57,2,4.16,4.16,0,0,0,1.4-.24,4.3,4.3,0,0,0,1.15-.63Z" transform="translate(0 0)"/><path class="cls-9" d="M259.24,55.9l.13,3-.15-.37a3.88,3.88,0,0,1,1-1.55,4.84,4.84,0,0,1,1.56-1,4.2,4.2,0,0,1,1.67-.35v1.15a4.09,4.09,0,0,0-2,.5A4,4,0,0,0,260,58.61a3.41,3.41,0,0,0-.54,1.89v5.21h-1.16V55.9Z" transform="translate(0 0)"/><path class="cls-9" d="M266.52,52.3a.78.78,0,0,1,.27-.59,1,1,0,0,1,.6-.23.88.88,0,0,1,.6.23.84.84,0,0,1,0,1.19h0a.81.81,0,0,1-.6.24.84.84,0,0,1-.6-.25A.8.8,0,0,1,266.52,52.3Zm.25,3.6H268v9.81h-1.17Z" transform="translate(0 0)"/><path class="cls-9" d="M277.79,65.88a5.06,5.06,0,0,1-2.62-.74,4.48,4.48,0,0,1-1.8-1.91l.2-.43v7.58h-1.18V55.83h1.05l.13,3.2-.23-.73a5.35,5.35,0,0,1,1.9-1.94A5.25,5.25,0,0,1,278,55.6a4.91,4.91,0,0,1,4.31,2.51,5.31,5.31,0,0,1,.66,2.67,5.16,5.16,0,0,1-.68,2.63,5,5,0,0,1-1.86,1.82A5.29,5.29,0,0,1,277.79,65.88Zm-.2-1a4,4,0,0,0,2.09-.55,4.28,4.28,0,0,0,1.5-1.49,4,4,0,0,0,.56-2.08,4.14,4.14,0,0,0-2-3.6,3.93,3.93,0,0,0-2.06-.55,4,4,0,0,0-2,.5,3.92,3.92,0,0,0-1.45,1.35,4,4,0,0,0-.65,1.92v.8a3.94,3.94,0,0,0,.63,1.88,4.2,4.2,0,0,0,1.45,1.33,4,4,0,0,0,1.93.51Z" transform="translate(0 0)"/><path class="cls-9" d="M287.42,51.6h1.2V56h3v1h-3v8.68h-1.2V57h-2.08V56h2.08Z" transform="translate(0 0)"/><path class="cls-9" d="M74.68,115.44a7.1,7.1,0,0,1,2,.28,5.53,5.53,0,0,1,1.8.9,4.52,4.52,0,0,1,1.31,1.57,4.8,4.8,0,0,1,.5,2.27,6.39,6.39,0,0,1-.3,1.94,4.68,4.68,0,0,1-1,1.69,5,5,0,0,1-1.75,1.2,6.88,6.88,0,0,1-2.65.45H71.86v7.45H70.63V115.44Zm-.15,9.12a5.51,5.51,0,0,0,2.2-.37,3.61,3.61,0,0,0,1.38-1,3.88,3.88,0,0,0,.71-1.31,4.88,4.88,0,0,0,.25-1.37,4.07,4.07,0,0,0-.28-1.5,3.63,3.63,0,0,0-.84-1.24,4.44,4.44,0,0,0-1.33-.85,4.6,4.6,0,0,0-1.72-.31h-3v8Zm2.55.55L82,133.19H80.58l-5-8Z" transform="translate(0 0)"/><path class="cls-9" d="M86.46,115.44h11v1.17H87.68v7h8.75v1.18H87.68V132H97.76v1.18H86.46Z" transform="translate(0 0)"/><path class="cls-9" d="M100.88,133.19l7.5-18.53h.1L116,133.19h-1.37l-6.54-16.58.85-.47-6.82,17Zm3.63-7h7.87l.35,1.15h-8.52Z" transform="translate(0 0)"/><path class="cls-9" d="M132.31,132a12.8,12.8,0,0,1-1.33.68,9.13,9.13,0,0,1-3.65.7,9.07,9.07,0,0,1-3.67-.72,8.29,8.29,0,0,1-2.83-2A8.7,8.7,0,0,1,119,127.8a9.36,9.36,0,0,1-.64-3.43,9.59,9.59,0,0,1,.68-3.63,8.82,8.82,0,0,1,1.9-2.92,8.37,8.37,0,0,1,2.85-2,8.85,8.85,0,0,1,3.52-.7,9,9,0,0,1,2.63.37,10.07,10.07,0,0,1,2.22,1l-.52,1.12a9.79,9.79,0,0,0-2-.92,7.51,7.51,0,0,0-5.32.23,7.85,7.85,0,0,0-4.12,4.24,8.18,8.18,0,0,0-.6,3.13,8.56,8.56,0,0,0,.54,3,7.29,7.29,0,0,0,1.55,2.5,7.1,7.1,0,0,0,2.43,1.69,7.9,7.9,0,0,0,3.18.61,7.45,7.45,0,0,0,2.39-.36,8.52,8.52,0,0,0,1.93-.91Z" transform="translate(0 0)"/><path class="cls-9" d="M135.41,115.44h11.66v1.17h-5.22v16.58h-1.23V116.61h-5.17Z" transform="translate(0 0)"/><path class="cls-9" d="M205.23,183.5a13.72,13.72,0,0,1-1.32.68,9.13,9.13,0,0,1-3.65.7,9.12,9.12,0,0,1-3.68-.72,8.25,8.25,0,0,1-2.82-1.95,8.57,8.57,0,0,1-1.82-2.85,9.35,9.35,0,0,1-.63-3.43,9.62,9.62,0,0,1,.67-3.63,8.8,8.8,0,0,1,8.28-5.57,8.92,8.92,0,0,1,2.62.37,10.14,10.14,0,0,1,2.23,1l-.53,1.12a9.79,9.79,0,0,0-2-.92,7.53,7.53,0,0,0-5.33.23,7.83,7.83,0,0,0-4.13,4.24,8.18,8.18,0,0,0-.6,3.13,8.56,8.56,0,0,0,.54,3,7.24,7.24,0,0,0,4,4.19,7.82,7.82,0,0,0,3.17.61,7.45,7.45,0,0,0,2.39-.36,8.8,8.8,0,0,0,1.94-.91Z" transform="translate(0 0)"/><path class="cls-9" d="M218.63,168.93a11.7,11.7,0,0,0-1.9-.7,7.81,7.81,0,0,0-2.25-.33,4.22,4.22,0,0,0-2.8.88,2.69,2.69,0,0,0-1.05,2.2,2.41,2.41,0,0,0,.6,1.66,4.71,4.71,0,0,0,1.57,1.12c.66.31,1.35.61,2.08.89s1.16.46,1.74.73a7.53,7.53,0,0,1,1.56,1,4.19,4.19,0,0,1,1.11,1.43,4.76,4.76,0,0,1,.42,2.1,5,5,0,0,1-.7,2.61,4.67,4.67,0,0,1-2,1.76,6.32,6.32,0,0,1-2.9.63,8.16,8.16,0,0,1-2.41-.33,10.76,10.76,0,0,1-1.9-.76c-.54-.29-1-.54-1.29-.74l.58-1a9.49,9.49,0,0,0,1.34.8,9.67,9.67,0,0,0,1.71.68,6.42,6.42,0,0,0,1.85.27,5.34,5.34,0,0,0,2.09-.42,4.15,4.15,0,0,0,1.67-1.29,3.51,3.51,0,0,0,.67-2.19,3.17,3.17,0,0,0-.63-2.06,4.78,4.78,0,0,0-1.6-1.29,19.19,19.19,0,0,0-2.08-.9c-.56-.22-1.13-.44-1.69-.69a8,8,0,0,1-1.56-.87,4.11,4.11,0,0,1-1.11-1.24,3.55,3.55,0,0,1-.41-1.75,3.82,3.82,0,0,1,.65-2.22,4.31,4.31,0,0,1,1.76-1.49,6,6,0,0,1,2.54-.56,10.34,10.34,0,0,1,2.54.32,10.5,10.5,0,0,1,2.23.83Z" transform="translate(0 0)"/><path class="cls-9" d="M233.16,168.93a11.7,11.7,0,0,0-1.9-.7,7.81,7.81,0,0,0-2.25-.33,4.22,4.22,0,0,0-2.8.88,2.72,2.72,0,0,0-1,2.2,2.41,2.41,0,0,0,.6,1.66,4.71,4.71,0,0,0,1.57,1.12c.65.31,1.34.61,2.08.89.58.22,1.16.46,1.73.73a7.2,7.2,0,0,1,1.57,1,4.19,4.19,0,0,1,1.11,1.43,5.35,5.35,0,0,1-.29,4.71,4.67,4.67,0,0,1-2,1.76,6.32,6.32,0,0,1-2.9.63,8.16,8.16,0,0,1-2.41-.33,10,10,0,0,1-1.9-.76c-.54-.29-1-.54-1.29-.74l.58-1a10,10,0,0,0,1.33.8,10.61,10.61,0,0,0,1.72.68,6.4,6.4,0,0,0,1.84.27,5.34,5.34,0,0,0,2.09-.42,4.18,4.18,0,0,0,1.68-1.29,3.52,3.52,0,0,0,.66-2.19,3.24,3.24,0,0,0-.62-2.06,4.78,4.78,0,0,0-1.6-1.29,20.08,20.08,0,0,0-2.08-.9c-.57-.22-1.13-.44-1.7-.69a7.61,7.61,0,0,1-1.55-.87,3.88,3.88,0,0,1-1.11-1.24,3.45,3.45,0,0,1-.41-1.75,3.81,3.81,0,0,1,.64-2.22,4.49,4.49,0,0,1,1.77-1.49,6,6,0,0,1,2.54-.56,10.32,10.32,0,0,1,2.53.32,9.89,9.89,0,0,1,2.24.83Z" transform="translate(0 0)"/><path class="cls-9" d="M242.13,172.35h1.07v4h4v1h-4v4h-1.07v-4h-4v-1h4Z" transform="translate(0 0)"/><path class="cls-9" d="M197.21,200.65a4.53,4.53,0,0,0-1.62.31,5.33,5.33,0,0,0-1.47.87,4.08,4.08,0,0,0-1.06,1.31,3.54,3.54,0,0,0-.4,1.69,3.43,3.43,0,0,0,.62,2.06,4.28,4.28,0,0,0,1.68,1.39,5.24,5.24,0,0,0,2.3.5,5.48,5.48,0,0,0,2-.35,5.4,5.4,0,0,0,1.59-.93,3.38,3.38,0,0,0,1-1.25l.77.8a5.06,5.06,0,0,1-2.1,2,6.65,6.65,0,0,1-3.35.82,6.37,6.37,0,0,1-3-.68,5.27,5.27,0,0,1-2-1.81,4.58,4.58,0,0,1-.27-4.54,5.48,5.48,0,0,1,1.32-1.63,6.45,6.45,0,0,1,4-1.53Zm8.2,9H204l-9.22-12c-.14-.23-.28-.49-.44-.79a4.51,4.51,0,0,1-.39-1,4.13,4.13,0,0,1-.15-1.11,3.92,3.92,0,0,1,.53-2,3.71,3.71,0,0,1,1.46-1.4,4.44,4.44,0,0,1,2.14-.51,5.34,5.34,0,0,1,2.16.43,7.8,7.8,0,0,1,1.66,1l-.6.83a7.35,7.35,0,0,0-1.51-.88,3.9,3.9,0,0,0-1.54-.32,3,3,0,0,0-2.19.81,2.71,2.71,0,0,0-.86,2.06,3.14,3.14,0,0,0,.19,1.1,5.33,5.33,0,0,0,.37.85l.22.38Zm-1.13-10h1.2l-2.77,7.23-.88-.68Z" transform="translate(0 0)"/><path class="cls-9" d="M231.07,191.93v17.78h-1.22v-8.35h-10.7v8.35h-1.23V191.93h1.23v8.25h10.7v-8.25Z" transform="translate(0 0)"/><path class="cls-9" d="M235.31,191.93h11.62v1.17h-5.22v16.61h-1.23V193.1h-5.17Z" transform="translate(0 0)"/><path class="cls-9" d="M251.16,209.71V191.53h0L259.91,204l-.52-.07,8.72-12.35h0v18.18h-1.2v-15.4l.09.6-7.39,10.43h0L252.16,195l.2-.55v15.31Z" transform="translate(0 0)"/><path class="cls-9" d="M273.8,191.93h1.27V208.5h9.73v1.21h-11Z" transform="translate(0 0)"/><path class="cls-9" d="M53.73,235.43a6.84,6.84,0,0,1,2.89.56,4.24,4.24,0,0,1,1.93,1.72,5.34,5.34,0,0,1,.68,2.79,6.11,6.11,0,0,1-.31,1.94,4.68,4.68,0,0,1-1,1.69,5,5,0,0,1-1.75,1.2,6.59,6.59,0,0,1-2.56.45H50.86v7.45H49.63v-17.8Zm-.12,9.12a5.16,5.16,0,0,0,2.16-.41,3.66,3.66,0,0,0,1.35-1,4.19,4.19,0,0,0,.7-1.34,4.77,4.77,0,0,0,.21-1.3,4.09,4.09,0,0,0-.27-1.55,3.42,3.42,0,0,0-.77-1.21,3.8,3.8,0,0,0-1.32-.8,5.1,5.1,0,0,0-1.77-.29h-3v8Z" transform="translate(0 0)"/><path class="cls-9" d="M62.88,253.18v-19h1.19V246l-.07-.42a4.28,4.28,0,0,1,1.61-1.74,4.65,4.65,0,0,1,2.56-.71,3.06,3.06,0,0,1,2.23.81,2.85,2.85,0,0,1,.87,2.11v7.13h-1.2v-6.8a2.26,2.26,0,0,0-.6-1.58,2.22,2.22,0,0,0-1.67-.65,3.57,3.57,0,0,0-1.83.5A3.82,3.82,0,0,0,64.61,246a3.72,3.72,0,0,0-.51,1.93v5.25Z" transform="translate(0 0)"/><path class="cls-9" d="M74.73,248.23a5.13,5.13,0,0,1,2.57-4.47,5.54,5.54,0,0,1,5.33,0,5,5,0,0,1,1.85,1.87,5.29,5.29,0,0,1,0,5.2,5,5,0,0,1-1.86,1.88,5.19,5.19,0,0,1-2.69.69,5.33,5.33,0,0,1-2.65-.67,5,5,0,0,1-1.86-1.82A5.13,5.13,0,0,1,74.73,248.23Zm1.18,0a4.15,4.15,0,0,0,2,3.58,3.93,3.93,0,0,0,4,0,4.18,4.18,0,0,0,.08-7.1,3.8,3.8,0,0,0-2-.56,3.74,3.74,0,0,0-2.06.59,4.43,4.43,0,0,0-2,3.51Z" transform="translate(0 0)"/><path class="cls-9" d="M89.63,239.1h1.2v4.43h3v1h-3v8.7h-1.2v-8.7H87.56v-1h2.07Z" transform="translate(0 0)"/><path class="cls-9" d="M95.83,248.23a5.13,5.13,0,0,1,2.57-4.47,5.54,5.54,0,0,1,5.33,0,5,5,0,0,1,1.85,1.87,5.29,5.29,0,0,1,0,5.2,5,5,0,0,1-1.86,1.86,5.19,5.19,0,0,1-2.69.69,5.33,5.33,0,0,1-2.65-.67,5,5,0,0,1-1.86-1.82A5.08,5.08,0,0,1,95.83,248.23Zm1.18,0a4.15,4.15,0,0,0,2,3.58,3.93,3.93,0,0,0,4,0,4.26,4.26,0,0,0,1.45-5.67,4.2,4.2,0,0,0-1.38-1.43,3.8,3.8,0,0,0-2-.56,3.74,3.74,0,0,0-2.06.59,4.43,4.43,0,0,0-2,3.51Z" transform="translate(0 0)"/><path class="cls-9" d="M112.07,253.38a5.65,5.65,0,0,1-1.78-.32,3.14,3.14,0,0,1-1.5-1l.55-.77a3.81,3.81,0,0,0,1.19.83,3.51,3.51,0,0,0,2.55.15,1.72,1.72,0,0,0,.84-.56,1.65,1.65,0,0,0,.32-1.07,1.43,1.43,0,0,0-.38-1.08,3,3,0,0,0-1-.61c-.41-.17-.82-.31-1.24-.44a5,5,0,0,1-1.76-1,2.14,2.14,0,0,1-.69-1.7,2.58,2.58,0,0,1,.39-1.4,2.67,2.67,0,0,1,1.06-.94,3.38,3.38,0,0,1,1.53-.33,4.78,4.78,0,0,1,1.54.25,3.48,3.48,0,0,1,1.38.85l-.52.82a2,2,0,0,0-1.06-.75,4.65,4.65,0,0,0-1.17-.22,2.42,2.42,0,0,0-.88.17,2.11,2.11,0,0,0-.78.51,1.2,1.2,0,0,0-.31.89,1.4,1.4,0,0,0,.32.94,2.61,2.61,0,0,0,.84.59c.34.15.7.29,1.06.42a8.48,8.48,0,0,1,1.37.54,3.43,3.43,0,0,1,1,.82,2.17,2.17,0,0,1,.41,1.37,3.27,3.27,0,0,1-.38,1.53,2.63,2.63,0,0,1-1.11,1.08A4,4,0,0,1,112.07,253.38Z" transform="translate(0 0)"/><path class="cls-9" d="M119,253.18v-19h1.11V246l-.08-.42a4.28,4.28,0,0,1,1.61-1.74,4.66,4.66,0,0,1,2.57-.71,3,3,0,0,1,2.22.81,2.89,2.89,0,0,1,.88,2.11v7.13h-1.2v-6.8a2.38,2.38,0,0,0-.6-1.58,2.23,2.23,0,0,0-1.68-.65,3.54,3.54,0,0,0-1.82.5,3.93,3.93,0,0,0-1.37,1.35,3.72,3.72,0,0,0-.51,1.93v5.25Z" transform="translate(0 0)"/><path class="cls-9" d="M130.81,248.23a5.14,5.14,0,0,1,2.56-4.47,5.56,5.56,0,0,1,5.34,0,5,5,0,0,1,1.85,1.87,5.4,5.4,0,0,1,0,5.2,5,5,0,0,1-1.87,1.86,5.13,5.13,0,0,1-2.68.69,5.33,5.33,0,0,1-2.65-.67,5,5,0,0,1-1.86-1.82A5.08,5.08,0,0,1,130.81,248.23Zm1.17,0a4.16,4.16,0,0,0,2,3.58,4.07,4.07,0,0,0,4.08,0,4.28,4.28,0,0,0,1.45-5.67,4.37,4.37,0,0,0-1.44-1.43,3.87,3.87,0,0,0-4.07,0,4.6,4.6,0,0,0-2,3.51Z" transform="translate(0 0)"/><path class="cls-9" d="M150.13,253.38a5.06,5.06,0,0,1-2.62-.74,4.48,4.48,0,0,1-1.8-1.91l.2-.43v7.58h-1.18V243.33h1l.13,3.2-.23-.73a5.35,5.35,0,0,1,1.9-1.94,5.25,5.25,0,0,1,2.73-.76,4.84,4.84,0,0,1,2.52.68,5,5,0,0,1,1.79,1.83,5.31,5.31,0,0,1,.66,2.67,5.16,5.16,0,0,1-.68,2.63,5,5,0,0,1-1.85,1.82A5.36,5.36,0,0,1,150.13,253.38Zm-.2-1a4,4,0,0,0,2.09-.55,4.12,4.12,0,0,0,1.5-1.49,3.92,3.92,0,0,0,.56-2.08,4.14,4.14,0,0,0-2-3.6,3.93,3.93,0,0,0-2.06-.55,4,4,0,0,0-2,.5,3.92,3.92,0,0,0-1.45,1.35,4,4,0,0,0-.65,1.92v.8a3.84,3.84,0,0,0,.64,1.88,4.05,4.05,0,0,0,1.43,1.33,3.94,3.94,0,0,0,1.92.51Z" transform="translate(0 0)"/><path class="cls-9" d="M54.36,269.15a4.43,4.43,0,0,0-1.61.31,5,5,0,0,0-1.48.87,4.08,4.08,0,0,0-1.06,1.31,3.76,3.76,0,0,0,.22,3.75,4.41,4.41,0,0,0,1.64,1.39,5.24,5.24,0,0,0,2.3.5,5.48,5.48,0,0,0,2-.35A5.58,5.58,0,0,0,58,276a3.38,3.38,0,0,0,1-1.25l.77.8a5.06,5.06,0,0,1-2.1,2,6.63,6.63,0,0,1-3.35.82,6.37,6.37,0,0,1-3-.68,5.27,5.27,0,0,1-2.05-1.81,4.5,4.5,0,0,1-.75-2.54,4.35,4.35,0,0,1,.49-2,5.45,5.45,0,0,1,1.35-1.63,6.45,6.45,0,0,1,4-1.53Zm8.2,9H61.13l-9.22-12-.44-.79a5.27,5.27,0,0,1-.39-.95,4.13,4.13,0,0,1-.15-1.11,3.92,3.92,0,0,1,.53-2,3.85,3.85,0,0,1,1.46-1.4,4.44,4.44,0,0,1,2.14-.51,5.34,5.34,0,0,1,2.16.43,7.8,7.8,0,0,1,1.66,1l-.6.83a7.34,7.34,0,0,0-1.51-.94,3.9,3.9,0,0,0-1.54-.32,3,3,0,0,0-2.18.81,2.72,2.72,0,0,0-.87,2.06,3.44,3.44,0,0,0,.19,1.1,5.38,5.38,0,0,0,.38.85l.21.38Zm-1.13-10h1.2l-2.77,7.23L59,274.7Z" transform="translate(0 0)"/><path class="cls-9" d="M75.07,260.43H76.3v17.75H75.07Z" transform="translate(0 0)"/><path class="cls-9" d="M81.36,259.18h1.17v19H81.36Z" transform="translate(0 0)"/><path class="cls-9" d="M87,259.18h1.18v19H87Z" transform="translate(0 0)"/><path class="cls-9" d="M95.68,278.45a2.87,2.87,0,0,1-3.06-2.67h0V268.4h1.17v6.78a2.53,2.53,0,0,0,.62,1.57,2.29,2.29,0,0,0,1.68.68,3.4,3.4,0,0,0,1.78-.5,4,4,0,0,0,1.34-1.37,3.8,3.8,0,0,0,.51-2v-5.2h1.17v9.78h-1l-.12-3.08.17.68a3.34,3.34,0,0,1-.88,1.36,4.59,4.59,0,0,1-1.5,1A4.86,4.86,0,0,1,95.68,278.45Z" transform="translate(0 0)"/><path class="cls-9" d="M107.63,278.38a5.64,5.64,0,0,1-1.77-.32,3.14,3.14,0,0,1-1.5-1l.55-.77a3.88,3.88,0,0,0,1.18.83,3.51,3.51,0,0,0,2.55.15,1.61,1.61,0,0,0,.84-.56,1.66,1.66,0,0,0,.33-1.07,1.4,1.4,0,0,0-.39-1.08,3,3,0,0,0-1-.61c-.4-.16-.81-.31-1.24-.44a5,5,0,0,1-1.76-1,2.14,2.14,0,0,1-.69-1.7,2.57,2.57,0,0,1,.38-1.4,2.77,2.77,0,0,1,1.07-.94,3.44,3.44,0,0,1,1.52-.33,4.78,4.78,0,0,1,1.54.25,3.51,3.51,0,0,1,1.39.85l-.53.82a2,2,0,0,0-1.06-.75,4.66,4.66,0,0,0-1.16-.22,2.47,2.47,0,0,0-.89.17,2,2,0,0,0-.77.51,1.25,1.25,0,0,0-.32.89,1.4,1.4,0,0,0,.33.94,2.22,2.22,0,0,0,.83.59c.35.15.7.29,1.07.42a10.69,10.69,0,0,1,1.36.54,3.06,3.06,0,0,1,1,.82,2.17,2.17,0,0,1,.41,1.37,3.15,3.15,0,0,1-.37,1.53,2.63,2.63,0,0,1-1.11,1.08A4,4,0,0,1,107.63,278.38Z" transform="translate(0 0)"/><path class="cls-9" d="M115.51,264.1h1.2v4.43h3v1h-3v8.7h-1.2v-8.7h-2.08v-1h2.08Z" transform="translate(0 0)"/><path class="cls-9" d="M123.68,268.4l.13,3-.15-.37a3.88,3.88,0,0,1,1-1.55,5,5,0,0,1,1.57-1,4.12,4.12,0,0,1,1.66-.35l0,1.15a4.09,4.09,0,0,0-2,.5,3.86,3.86,0,0,0-1.45,1.33,3.41,3.41,0,0,0-.54,1.89v5.18h-1.17V268.4Z" transform="translate(0 0)"/><path class="cls-9" d="M134.88,278.38a5.13,5.13,0,0,1-2.54-.64,4.66,4.66,0,0,1-1.79-1.79,5.2,5.2,0,0,1-.67-2.67,5.34,5.34,0,0,1,.7-2.79,4.66,4.66,0,0,1,1.9-1.78,5.87,5.87,0,0,1,2.73-.61,4.4,4.4,0,0,1,2.46.78,4.26,4.26,0,0,1,1.66,1.95l-.17.35.15-2.78h1v9.78h-1.18v-3l.25.45a2.84,2.84,0,0,1-.6,1,5.7,5.7,0,0,1-1,.9,5.6,5.6,0,0,1-1.35.65A5.08,5.08,0,0,1,134.88,278.38Zm.25-1a4.21,4.21,0,0,0,2-.47,3.76,3.76,0,0,0,2.06-3.18v-1.4a3.62,3.62,0,0,0-.79-1.65,4.21,4.21,0,0,0-1.43-1.15,4,4,0,0,0-1.85-.43,4.1,4.1,0,0,0-2,.51,3.91,3.91,0,0,0-1.47,1.44,4.33,4.33,0,0,0,1.45,5.76A3.82,3.82,0,0,0,135.13,277.38Z" transform="translate(0 0)"/><path class="cls-9" d="M147.07,278.38a5.65,5.65,0,0,1-1.78-.32,3.14,3.14,0,0,1-1.5-1l.55-.77a3.81,3.81,0,0,0,1.19.83,3.51,3.51,0,0,0,2.55.15,1.72,1.72,0,0,0,.84-.56,1.65,1.65,0,0,0,.32-1.07,1.4,1.4,0,0,0-.39-1.08,2.87,2.87,0,0,0-1-.61c-.41-.17-.82-.31-1.24-.44a5,5,0,0,1-1.76-1,2.14,2.14,0,0,1-.69-1.7,2.58,2.58,0,0,1,.39-1.4,2.67,2.67,0,0,1,1.06-.94,3.38,3.38,0,0,1,1.53-.33,4.67,4.67,0,0,1,1.53.25,3.51,3.51,0,0,1,1.39.85l-.52.82a2,2,0,0,0-1.06-.75,4.65,4.65,0,0,0-1.17-.22,2.47,2.47,0,0,0-.89.17,2.21,2.21,0,0,0-.77.51,1.2,1.2,0,0,0-.31.89,1.4,1.4,0,0,0,.32.94,2.61,2.61,0,0,0,.84.59c.34.15.7.29,1.06.42a8.37,8.37,0,0,1,1.36.54A2.92,2.92,0,0,1,150,274a2.17,2.17,0,0,1,.41,1.37,3.27,3.27,0,0,1-.38,1.53,2.63,2.63,0,0,1-1.11,1.08A3.79,3.79,0,0,1,147.07,278.38Z" transform="translate(0 0)"/><path class="cls-9" d="M155,264.1h1.2v4.43h3v1h-3v8.7H155v-8.7h-2.07v-1H155Z" transform="translate(0 0)"/><path class="cls-9" d="M161.18,273.23a5.14,5.14,0,0,1,2.56-4.47,5.56,5.56,0,0,1,5.34,0,5,5,0,0,1,1.85,1.87,5.29,5.29,0,0,1,0,5.2,5,5,0,0,1-1.86,1.88,5.19,5.19,0,0,1-2.69.69,5.33,5.33,0,0,1-2.65-.67,5,5,0,0,1-1.86-1.82A5.13,5.13,0,0,1,161.18,273.23Zm1.18,0a4,4,0,0,0,3.83,4.16,4.05,4.05,0,0,0,2.25-.58,4.21,4.21,0,0,0,1.38-5.79,4.33,4.33,0,0,0-1.38-1.38,3.8,3.8,0,0,0-2-.56,3.74,3.74,0,0,0-2.06.59,4.5,4.5,0,0,0-2,3.54Z" transform="translate(0 0)"/><path class="cls-9" d="M176.13,268.4l.13,3-.15-.37a3.88,3.88,0,0,1,1-1.55,4.84,4.84,0,0,1,1.56-1,4.2,4.2,0,0,1,1.67-.35v1.15a4.09,4.09,0,0,0-2,.5,3.86,3.86,0,0,0-1.45,1.33,3.41,3.41,0,0,0-.54,1.89v5.18h-1.28V268.4Z" transform="translate(0 0)"/><path class="cls-9" d="M205.64,333.24l.13,3.08-.15-.6a3.67,3.67,0,0,1,1.61-2,4.91,4.91,0,0,1,2.64-.73,3,3,0,0,1,2.22.81,2.89,2.89,0,0,1,.88,2.11V343h-1.2v-6.8a2.38,2.38,0,0,0-.6-1.58,2.28,2.28,0,0,0-1.68-.65,3.62,3.62,0,0,0-1.82.48,3.69,3.69,0,0,0-1.37,1.32,3.8,3.8,0,0,0-.51,2v5.25h-1.17v-9.78Z" transform="translate(0 0)"/><path class="cls-9" d="M216.47,338.07a5.08,5.08,0,0,1,2.6-4.46,5.51,5.51,0,0,1,5.34,0,5,5,0,0,1,1.85,1.86,5.4,5.4,0,0,1,0,5.2,5,5,0,0,1-1.87,1.86,5.54,5.54,0,0,1-5.33,0,4.72,4.72,0,0,1-1.86-1.82A5.12,5.12,0,0,1,216.47,338.07Zm1.17,0a4.16,4.16,0,0,0,2,3.58,4.12,4.12,0,0,0,4.08-7.16h0a4,4,0,0,0-4.11,0,4.31,4.31,0,0,0-1.43,1.54,4.14,4.14,0,0,0-.54,2.06Z" transform="translate(0 0)"/><path class="cls-9" d="M234.39,343.22a4.79,4.79,0,0,1-2.5-.67,4.87,4.87,0,0,1-1.82-1.84,5.75,5.75,0,0,1,0-5.38,4.65,4.65,0,0,1,1.83-1.77,5.35,5.35,0,0,1,5.23.1,4.44,4.44,0,0,1,1.84,1.9l-.2.55V324H240v19h-1.2v-3l.25.55a4.84,4.84,0,0,1-1.87,1.91A5.34,5.34,0,0,1,234.39,343.22Zm.3-1a4.09,4.09,0,0,0,2-.49,3.84,3.84,0,0,0,1.45-1.32,4,4,0,0,0,.62-1.89v-1.25a3.71,3.71,0,0,0-.77-1.7,4.6,4.6,0,0,0-1.45-1.18,4,4,0,0,0-1.88-.44,4.11,4.11,0,0,0-2,.52,4,4,0,0,0-1.47,1.45,4.22,4.22,0,0,0,1.48,5.74,3.86,3.86,0,0,0,2.07.53Z" transform="translate(0 0)"/><path class="cls-9" d="M248.69,343.22a5.32,5.32,0,0,1-2.7-.68,4.92,4.92,0,0,1-1.84-1.84,5.2,5.2,0,0,1-.66-2.61,5,5,0,0,1,.7-2.6,5.29,5.29,0,0,1,1.89-1.87,5.09,5.09,0,0,1,2.64-.7,4.33,4.33,0,0,1,2.93,1,5.76,5.76,0,0,1,1.72,2.68l-8.55,3.3-.35-.85,7.82-3.06-.25.35a4.5,4.5,0,0,0-1.29-1.73,3.17,3.17,0,0,0-2.11-.72,3.7,3.7,0,0,0-2,.55,4.09,4.09,0,0,0-2,3.57,4.18,4.18,0,0,0,.51,2.05,4.07,4.07,0,0,0,1.44,1.53,4.17,4.17,0,0,0,3.66.27,5.13,5.13,0,0,0,1.32-.77l.6.85a6.77,6.77,0,0,1-1.62.9A5.15,5.15,0,0,1,248.69,343.22Z" transform="translate(0 0)"/><path class="cls-9" d="M256,341.57a.77.77,0,0,1,.57-.25.86.86,0,0,1,.85.85.8.8,0,0,1-.26.61.87.87,0,0,1-.59.24.85.85,0,0,1-.57-1.45Z" transform="translate(0 0)"/><path class="cls-9" d="M260.32,347.71l-.75-.73a4.78,4.78,0,0,0,1-1.62,5.9,5.9,0,0,0,.39-2.2v-9.93h1.2v9.9a7.21,7.21,0,0,1-.46,2.72A4.46,4.46,0,0,1,260.32,347.71Zm.42-18.08A.74.74,0,0,1,261,329a.9.9,0,0,1,1.2,0,.84.84,0,0,1-.54,1.44h-.06a.84.84,0,0,1-.6-.25.74.74,0,0,1-.28-.59Z" transform="translate(0 0)"/><path class="cls-9" d="M268.64,343.22a5.63,5.63,0,0,1-1.77-.31,3.14,3.14,0,0,1-1.5-1l.55-.77a3.88,3.88,0,0,0,1.18.83,3.54,3.54,0,0,0,1.47.32,3.92,3.92,0,0,0,1.08-.16,1.69,1.69,0,0,0,.84-.57,1.66,1.66,0,0,0,.33-1.07,1.4,1.4,0,0,0-.39-1.08,3,3,0,0,0-1-.61c-.4-.16-.81-.3-1.24-.44a4.71,4.71,0,0,1-1.76-.95,2.11,2.11,0,0,1-.69-1.7,2.47,2.47,0,0,1,1.45-2.33,3.32,3.32,0,0,1,1.52-.34,4.78,4.78,0,0,1,1.54.25,3.84,3.84,0,0,1,1.39.85l-.53.82a2,2,0,0,0-1.06-.75,4.66,4.66,0,0,0-1.16-.22,2.47,2.47,0,0,0-.89.17,2,2,0,0,0-.77.52,1.25,1.25,0,0,0-.32.88,1.31,1.31,0,0,0,.33.94,2.22,2.22,0,0,0,.83.59c.35.15.7.29,1.07.42a10.69,10.69,0,0,1,1.36.54,2.94,2.94,0,0,1,1.05.83,2.13,2.13,0,0,1,.41,1.36,3.16,3.16,0,0,1-.37,1.54,2.66,2.66,0,0,1-1.11,1.07A4,4,0,0,1,268.64,343.22Z" transform="translate(0 0)"/><path class="cls-9" d="M72.88,395.46h11v1.17H74.07v7.08h8.75v1.18H74.07v7.17H84.18v1.18H72.88Z" transform="translate(0 0)"/><path class="cls-9" d="M89.28,403.43l.13,3.08-.15-.6a3.67,3.67,0,0,1,1.61-2,4.92,4.92,0,0,1,2.64-.74,3,3,0,0,1,2.22.81,2.89,2.89,0,0,1,.88,2.11v7.13h-1.2v-6.8a2.38,2.38,0,0,0-.6-1.58,2.28,2.28,0,0,0-1.68-.65,3.68,3.68,0,0,0-3.7,3.68v5.37H88.26v-9.78Z" transform="translate(0 0)"/><path class="cls-9" d="M105.41,418a7,7,0,0,1-1.58-.18,5.21,5.21,0,0,1-1.47-.64,9,9,0,0,1-1.5-1.18l.7-.8a6.31,6.31,0,0,0,2,1.39,5,5,0,0,0,1.8.36,5.2,5.2,0,0,0,2.42-.48,3,3,0,0,0,1.3-1.3,4.42,4.42,0,0,0,.43-1.82v-3.17l.28.3a4.37,4.37,0,0,1-1.79,2.12,5.35,5.35,0,0,1-2.91.83,4.75,4.75,0,0,1-2.51-.69,5.12,5.12,0,0,1-1.82-1.85,5.41,5.41,0,0,1,0-5.26,5,5,0,0,1,1.9-1.81,5.33,5.33,0,0,1,2.65-.67,5.13,5.13,0,0,1,2.56.7,4.25,4.25,0,0,1,1.76,1.85l-.15.55.13-2.8h1v9.93a4.92,4.92,0,0,1-.54,2.26,4,4,0,0,1-1.7,1.71A6.19,6.19,0,0,1,105.41,418Zm-4.13-9.72a4,4,0,0,0,.55,2.09,4.45,4.45,0,0,0,1.49,1.5,4,4,0,0,0,2.09.56,4.18,4.18,0,0,0,3.47-1.8,3.47,3.47,0,0,0,.65-1.78v-1.45a3.89,3.89,0,0,0-.78-1.67,4.51,4.51,0,0,0-1.45-1.15,4.38,4.38,0,0,0-4,.1,3.91,3.91,0,0,0-1.49,1.45,4.3,4.3,0,0,0-.53,2.14Z" transform="translate(0 0)"/><path class="cls-9" d="M115.16,394.21h1.17v19h-1.17Z" transform="translate(0 0)"/><path class="cls-9" d="M120.53,399.83a.72.72,0,0,1,.28-.58.89.89,0,0,1,.6-.24.85.85,0,0,1,.6.24.79.79,0,0,1,.25.58.9.9,0,0,1-.25.62.87.87,0,0,1-1.2,0A.77.77,0,0,1,120.53,399.83Zm.25,3.6H122v9.78h-1.18Z" transform="translate(0 0)"/><path class="cls-9" d="M128.71,413.41a5.38,5.38,0,0,1-1.78-.31,3.32,3.32,0,0,1-1.5-1l.55-.77a3.84,3.84,0,0,0,1.19.84,3.67,3.67,0,0,0,2.55.15,1.73,1.73,0,0,0,.84-.57,1.65,1.65,0,0,0,.32-1.07,1.43,1.43,0,0,0-.38-1.08,3,3,0,0,0-1-.61c-.39-.16-.8-.3-1.24-.44a5,5,0,0,1-1.76-.95,2.11,2.11,0,0,1-.69-1.7,2.58,2.58,0,0,1,.39-1.4,2.65,2.65,0,0,1,1.06-.93,3.39,3.39,0,0,1,1.53-.34,4.67,4.67,0,0,1,1.53.25,3.51,3.51,0,0,1,1.39.85l-.52.82a2.06,2.06,0,0,0-1.06-.75,5.14,5.14,0,0,0-1.17-.22,2.7,2.7,0,0,0-.89.17,2,2,0,0,0-.77.52,1.24,1.24,0,0,0-.31.88,1.4,1.4,0,0,0,.32.94,2.61,2.61,0,0,0,.84.59c.34.15.7.29,1.06.42a8.37,8.37,0,0,1,1.36.54,3.18,3.18,0,0,1,1.06.83,2.13,2.13,0,0,1,.41,1.36,3.06,3.06,0,0,1-.38,1.54,2.61,2.61,0,0,1-1.11,1.07A3.9,3.9,0,0,1,128.71,413.41Z" transform="translate(0 0)"/><path class="cls-9" d="M135.61,413.21v-19h1.15V406l-.08-.42a4.38,4.38,0,0,1,1.62-1.74,4.65,4.65,0,0,1,2.56-.71,3,3,0,0,1,2.22.81A2.89,2.89,0,0,1,144,406v7.13h-1.2v-6.8a2.38,2.38,0,0,0-.6-1.58,2.28,2.28,0,0,0-1.68-.65,3.54,3.54,0,0,0-1.82.5A3.82,3.82,0,0,0,137.3,406a3.63,3.63,0,0,0-.52,1.93v5.25Z" transform="translate(0 0)"/><path class="cls-9" d="M122.4,143.06l-4.84.67,3.52,3.44-.83,4.84,4.32-2.25V138.65Z" transform="translate(0 0)"/><path class="cls-10" d="M131.62,143.71l-4.87-.71-2.18-4.41v11.12l4.35,2.29-.81-4.87Z" transform="translate(0 0)"/><path class="cls-9" d="M281.58,177.24a6.78,6.78,0,0,0-3,.7,5.78,5.78,0,0,1-.67-1.55,4.06,4.06,0,0,1-.06-1.3,9.72,9.72,0,0,1,.4-1.4c0-.06-.07-.34-.74-.35s-1.23.13-1.3.3a8.68,8.68,0,0,0-.27,1,24.43,24.43,0,0,1-2,3.87,3.84,3.84,0,0,1-.46-1.13,4.05,4.05,0,0,1,0-1.3,11.65,11.65,0,0,1,.39-1.4c0-.06-.07-.34-.74-.35s-1.23.13-1.3.3-.13.59-.27,1-1.75,4-2.17,4.91c-.21.47-.4.85-.53,1.11s0,0,0,0l-.18.34h0c-.09.17-.19.32-.23.32a2.11,2.11,0,0,1,0-1c.24-1.25.82-3.18.81-3.25s.11-.38-.37-.55a.59.59,0,0,0-.68.11l-.07.11s.52-2.19-1-2.19a4.52,4.52,0,0,0-2.91,2L262,178.71l-1.06.58-.08-.07c-1.84-2-5.24-3.36-5.1-6,0-1,.39-3.49,6.54-6.55,5-2.51,9.08-1.82,9.78-.29,1,2.19-2.16,6.26-7.4,6.84a4,4,0,0,1-3.31-.83c-.27-.31-.31-.32-.42-.26s-.06.36,0,.52a3.12,3.12,0,0,0,1.9,1.49,10,10,0,0,0,6.13-.61c3.18-1.23,5.65-4.64,4.93-7.49s-5.56-3.86-10.11-2.24a23,23,0,0,0-7.76,4.45c-2.51,2.34-2.91,4.39-2.74,5.24.59,3,4.76,5,6.44,6.47a1.71,1.71,0,0,0-.23.13c-.84.41-4,2.07-4.83,3.84-.9,2,.15,3.43.84,3.62a5.11,5.11,0,0,0,5.54-2.24,5.54,5.54,0,0,0,.5-5.12h0l.66-.39c.42-.25.84-.48,1.21-.68a7.4,7.4,0,0,0-.43,2.19,4.58,4.58,0,0,0,1,3.18,1.08,1.08,0,0,0,.79.26c.71,0,1-.59,1.39-1.29.43-.86.82-1.85.82-1.85s-.48,2.69.84,2.69c.48,0,1-.63,1.18-1h0v-.07l.08-.12h0c.19-.34.62-1.1,1.27-2.37.83-1.64,1.62-3.68,1.62-3.68a11.55,11.55,0,0,0,.32,1.32,11.27,11.27,0,0,0,.69,1.55c-.19.27-.31.42-.31.42h0l-.51.64a18,18,0,0,0-1.55,1.94.54.54,0,0,0,.14.71,1.36,1.36,0,0,0,.82.13,3.56,3.56,0,0,0,1.21-.28,4.24,4.24,0,0,0,1-.55,2.33,2.33,0,0,0,1-2,4.32,4.32,0,0,0-.38-1.45l.17-.26a26.85,26.85,0,0,0,1.8-3.12,12.25,12.25,0,0,0,.32,1.33,9.11,9.11,0,0,0,.58,1.32,5.69,5.69,0,0,0-1.75,2.28c-.38,1.09-.09,1.59.47,1.7a1.68,1.68,0,0,0,.88-.18A3.89,3.89,0,0,0,278,182a2.55,2.55,0,0,0,1.23-2,3.82,3.82,0,0,0-.28-1.2,6.3,6.3,0,0,1,3.19-.37c2.87.34,3.44,2.13,3.33,2.87a2,2,0,0,1-.91,1.29c-.2.12-.27.17-.25.26s.12.13.29.1a2.21,2.21,0,0,0,1.56-2c.08-1.77-1.6-3.7-4.58-3.68Zm-22.1,7.47c-.94,1-2.27,1.43-2.84,1.09s-.37-1.88.79-3a15,15,0,0,1,2.23-1.66l.59-.36h.07l.14-.09a4.1,4.1,0,0,1-1,4ZM266.4,180c-.32.81-1,2.87-1.44,2.76s-.58-1.66-.07-3.21a7.06,7.06,0,0,1,1.1-2.06c.52-.58,1.09-.78,1.23-.54a12.53,12.53,0,0,1-.85,3Zm5.67,2.71c-.14.07-.27.13-.32.09s0-.13,0-.13.72-.76,1-1.12c.16-.2.36-.44.56-.71v.08a2.38,2.38,0,0,1-1.24,1.79Zm4.41-1c-.11-.08-.09-.32.26-1.06a3.73,3.73,0,0,1,1-1.26,1.49,1.49,0,0,1,.1.55,1.81,1.81,0,0,1-1.32,1.77Z" transform="translate(0 0)"/><polygon class="cls-9" points="124.56 281.75 126.69 286.1 131.49 286.79 128.01 290.17 128.84 294.95 124.56 292.69 120.25 294.95 121.08 290.17 117.61 286.79 122.39 286.1 124.56 281.75"/></svg>