<svg id="Layer_1" data-name="Layer 1" xmlns="http://www.w3.org/2000/svg" xmlns:xlink="http://www.w3.org/1999/xlink" viewBox="0 0 478.05 414.5"><defs><style>.cls-1{fill:url(#linear-gradient);}.cls-2{fill:url(#linear-gradient-2);}.cls-12,.cls-13,.cls-17,.cls-18,.cls-19,.cls-3,.cls-6,.cls-9{fill:none;}.cls-14,.cls-19,.cls-20,.cls-3{stroke:#69c9d0;}.cls-10,.cls-11,.cls-12,.cls-13,.cls-14,.cls-15,.cls-16,.cls-17,.cls-18,.cls-19,.cls-20,.cls-21,.cls-3,.cls-9{stroke-miterlimit:10;}.cls-3,.cls-9{stroke-width:3px;}.cls-4{fill:#69c9d0;}.cls-21,.cls-5{fill:#d8d7db;}.cls-10,.cls-11,.cls-14,.cls-15,.cls-16,.cls-20,.cls-7{fill:#fff;}.cls-8{fill:#0f0f0f;}.cls-12,.cls-13,.cls-9{stroke:#fff;}.cls-10,.cls-11,.cls-15,.cls-16,.cls-17,.cls-18{stroke:#000;}.cls-10{stroke-width:9.07px;}.cls-11{stroke-width:40px;}.cls-12,.cls-21{stroke-width:2px;}.cls-13{stroke-width:1.5px;}.cls-14{stroke-width:3.06px;}.cls-15,.cls-17{stroke-width:13.13px;}.cls-16,.cls-18,.cls-20{stroke-width:2.98px;}.cls-19{stroke-width:3.01px;}.cls-21{stroke:#080808;}.cls-22{fill:#080808;}</style><linearGradient id="linear-gradient" x1="26.19" y1="2939.91" x2="26.19" y2="2939.91" gradientTransform="translate(33.81 -2623.91)" gradientUnits="userSpaceOnUse"><stop offset="0" stop-color="#fff"/><stop offset="1"/></linearGradient><linearGradient id="linear-gradient-2" x1="-35.54" y1="2832.91" x2="-35.54" y2="2832.91" xlink:href="#linear-gradient"/></defs><title>svgSkillsImage2</title><path class="cls-1" d="M60,316" transform="translate(0)"/><path class="cls-2" d="M-1.73,209" transform="translate(0)"/><polygon class="cls-3" points="39.84 142 1.73 208 62.93 314 139.14 314 39.84 142"/><polygon class="cls-3" points="381.63 244 284.06 413 357.96 413 418.58 308 381.63 244"/><polygon class="cls-3" points="84.29 349 121.24 413 242.49 413 279.44 349 84.29 349"/><polygon class="cls-3" points="415.69 103 341.79 103 439.36 272 476.32 208 415.69 103"/><path class="cls-4" d="M356.81,4l36.95,64H198.61L235.56,4H356.81m1.73-3H233.83L233,2.5l-37,64L193.4,71H399l-2.6-4.5-36.95-64Z" transform="translate(0)"/><path class="cls-5" d="M200.34,0" transform="translate(0)"/><path class="cls-5" d="M97.6,178" transform="translate(0)"/><path class="cls-5" d="M57.16,108" transform="translate(0)"/><path class="cls-5" d="M119.51,0" transform="translate(0)"/><polyline class="cls-6" points="120.66 2 196.88 2 97.57 174 59.47 108"/><path class="cls-4" d="M195.14,3,97.57,172,60.62,108,121.27,3h73.9m5.2-3H119.51l-.87,1.5L58,106.5l-.86,1.5.86,1.5,37,64,2.6,4.5,2.6-4.5,97.57-169Z" transform="translate(0)"/><polygon class="cls-7" points="116.31 104.32 121.15 104.64 124.16 100.83 125.35 105.53 129.91 107.21 125.8 109.8 125.61 114.65 121.88 111.55 117.2 112.87 119 108.36 116.31 104.32"/><polygon class="cls-7" points="124.54 90.07 129.38 90.39 132.38 86.57 133.58 91.28 138.13 92.96 134.03 95.55 133.84 100.4 130.1 97.3 125.43 98.61 127.23 94.11 124.54 90.07"/><polygon class="cls-7" points="132.76 75.82 137.61 76.13 140.61 72.32 141.81 77.02 146.36 78.71 142.26 81.3 142.07 86.15 138.33 83.05 133.66 84.36 135.46 79.85 132.76 75.82"/><polygon class="cls-8" points="149.22 47.31 154.07 47.63 157.07 43.81 158.27 48.52 162.82 50.2 158.72 52.79 158.53 57.64 154.79 54.54 150.12 55.86 151.92 51.35 149.22 47.31"/><polygon class="cls-7" points="262.69 50.8 264.88 55.23 269.77 55.95 266.23 59.4 267.06 64.26 262.69 61.97 258.31 64.26 259.15 59.4 255.61 55.95 260.5 55.23 262.69 50.8"/><polygon class="cls-7" points="279.44 50.8 281.63 55.23 286.52 55.95 282.98 59.4 283.82 64.26 279.44 61.97 275.07 64.26 275.9 59.4 272.37 55.95 277.26 55.23 279.44 50.8"/><polygon class="cls-7" points="296.2 50.8 298.39 55.23 303.28 55.95 299.74 59.4 300.57 64.26 296.2 61.97 291.82 64.26 292.66 59.4 289.12 55.95 294.01 55.23 296.2 50.8"/><polygon class="cls-7" points="312.95 50.8 315.14 55.23 320.03 55.95 316.49 59.4 317.33 64.26 312.95 61.97 308.58 64.26 309.41 59.4 305.88 55.95 310.77 55.23 312.95 50.8"/><polygon class="cls-8" points="329.71 50.8 331.9 55.23 336.79 55.95 333.25 59.4 334.08 64.26 329.71 61.97 325.33 64.26 326.17 59.4 322.63 55.95 327.52 55.23 329.71 50.8"/><polygon class="cls-7" points="389.44 151.32 386.69 155.43 388.53 160.03 383.77 158.69 379.96 161.85 379.77 156.91 375.59 154.27 380.23 152.55 381.44 147.76 384.51 151.64 389.44 151.32"/><polygon class="cls-7" points="397.82 165.84 395.08 169.95 396.91 174.55 392.15 173.2 388.35 176.36 388.15 171.42 383.97 168.78 388.61 167.07 389.83 162.28 392.89 166.16 397.82 165.84"/><polygon class="cls-7" points="406.2 180.36 403.46 184.47 405.29 189.06 400.53 187.72 396.73 190.88 396.53 185.94 392.35 183.3 396.99 181.59 398.21 176.8 401.27 180.68 406.2 180.36"/><polygon class="cls-7" points="414.59 194.87 411.84 198.99 413.67 203.58 408.91 202.24 405.11 205.4 404.91 200.46 400.73 197.82 405.37 196.11 406.59 191.31 409.65 195.2 414.59 194.87"/><path class="cls-7" d="M418,209.71l-3-3.88-1.24,4.78-4.65,1.73L413.3,215l9.68-5.59Z" transform="translate(0)"/><path class="cls-8" d="M422.1,218.1l-1.83-4.6,2.75-4.11L413.34,215l.2,4.94,3.8-3.16Z" transform="translate(0)"/><polygon class="cls-7" points="88.82 265.71 91.55 261.61 89.73 257.05 94.47 258.38 98.25 255.24 98.44 260.15 102.6 262.78 97.99 264.48 96.78 269.25 93.73 265.38 88.82 265.71"/><polygon class="cls-7" points="80.48 251.26 83.22 247.17 81.39 242.6 86.13 243.94 89.91 240.79 90.11 245.71 94.26 248.33 89.65 250.04 88.44 254.8 85.39 250.94 80.48 251.26"/><polygon class="cls-7" points="72.15 236.82 74.88 232.73 73.06 228.16 77.79 229.5 81.57 226.35 81.77 231.27 85.93 233.89 81.31 235.6 80.1 240.36 77.05 236.5 72.15 236.82"/><polygon class="cls-7" points="63.81 222.38 66.54 218.29 64.72 213.72 69.45 215.05 73.23 211.91 73.43 216.82 77.59 219.45 72.98 221.16 71.76 225.92 68.72 222.06 63.81 222.38"/><path class="cls-7" d="M60.38,207.61l3,3.86,1.22-4.77,4.61-1.7-4.11-2.62-9.62,5.56Z" transform="translate(0)"/><path class="cls-8" d="M56.38,199.28l1.82,4.57-2.73,4.09,9.63-5.56-.19-4.91-3.81,3.14Z" transform="translate(0)"/><polygon class="cls-7" points="149.02 396.8 151.16 401.15 155.96 401.84 152.49 405.22 153.31 410 149.02 407.74 144.73 410 145.55 405.22 142.08 401.84 146.87 401.15 149.02 396.8"/><polygon class="cls-7" points="165.44 396.8 167.59 401.15 172.38 401.84 168.91 405.22 169.73 410 165.44 407.74 161.15 410 161.97 405.22 158.5 401.84 163.3 401.15 165.44 396.8"/><polygon class="cls-7" points="181.87 396.8 184.01 401.15 188.81 401.84 185.34 405.22 186.16 410 181.87 407.74 177.58 410 178.4 405.22 174.93 401.84 179.72 401.15 181.87 396.8"/><polygon class="cls-8" points="214.72 396.8 216.86 401.15 221.66 401.84 218.19 405.22 219.01 410 214.72 407.74 210.43 410 211.25 405.22 207.78 401.84 212.57 401.15 214.72 396.8"/><polygon class="cls-7" points="354.81 379.31 359.72 379.63 362.76 375.77 363.98 380.53 368.59 382.24 364.43 384.86 364.24 389.78 360.45 386.63 355.72 387.97 357.54 383.4 354.81 379.31"/><polygon class="cls-7" points="363.15 364.87 368.06 365.19 371.1 361.32 372.31 366.09 376.93 367.8 372.77 370.42 372.57 375.34 368.79 372.19 364.06 373.53 365.88 368.96 363.15 364.87"/><polygon class="cls-7" points="371.48 350.42 376.39 350.74 379.44 346.88 380.65 351.65 385.27 353.35 381.11 355.98 380.91 360.89 377.13 357.75 372.4 359.08 374.22 354.51 371.48 350.42"/><polygon class="cls-8" points="388.16 321.54 393.07 321.86 396.11 318 397.33 322.77 401.94 324.47 397.78 327.1 397.59 332.01 393.81 328.87 389.07 330.2 390.89 325.63 388.16 321.54"/><polygon class="cls-8" points="380.45 335.55 385.36 335.87 388.4 332.01 389.62 336.78 394.23 338.48 390.07 341.11 389.88 346.02 386.1 342.88 381.36 344.21 383.18 339.64 380.45 335.55"/><path class="cls-9" d="M283.21,286.42" transform="translate(0)"/><path class="cls-10" d="M158.71,189.37" transform="translate(0)"/><path class="cls-11" d="M164.76,190.79" transform="translate(0)"/><path class="cls-11" d="M181.58,262.33" transform="translate(0)"/><path class="cls-10" d="M182.6,233.12" transform="translate(0)"/><path class="cls-10" d="M176.12,263.5" transform="translate(0)"/><path class="cls-12" d="M175.36,217.31a2.6,2.6,0,0,0-2-2.25,2.77,2.77,0,0,1-2-3.36v0h0a2.76,2.76,0,0,1,1-1.48,2.76,2.76,0,0,0-2.51-4.88,2.77,2.77,0,0,1-3.48-1.76,2.9,2.9,0,0,1,0-1.84,2.76,2.76,0,0,0-4.72-2.72,2.77,2.77,0,0,1-3.9.38h0a2.7,2.7,0,0,1-.94-1.54,2.76,2.76,0,0,0-5.44.27,2.75,2.75,0,0,1-3,2.43,2.72,2.72,0,0,1-1.65-.8,2.77,2.77,0,0,0-4.44,3.17,2.76,2.76,0,0,1-1.25,3.7,2.73,2.73,0,0,1-1.82.22,2.76,2.76,0,0,0-2,5.11,2.75,2.75,0,0,1,.94,3.79h0a2.82,2.82,0,0,1-1.41,1.16,2.76,2.76,0,0,0,1.05,5.34,2.74,2.74,0,0,1,2.84,2.64h0a2.68,2.68,0,0,1-.56,1.77,2.76,2.76,0,0,0,3.77,3.94,2.76,2.76,0,0,1,3.84.71h0a2.72,2.72,0,0,1,.48,1.77,2.76,2.76,0,0,0,5.3,1.28A2.75,2.75,0,0,1,157,232.8h0a2.71,2.71,0,0,1,1.41,1.28,2.76,2.76,0,0,0,5.15-1.79,2.77,2.77,0,0,1,2.27-3.19h0a2.72,2.72,0,0,1,1.77.29l.23.11a2.64,2.64,0,0,0,3-.52,2.73,2.73,0,0,0,.17-3.84h0a2.74,2.74,0,0,1,.14-3.89h0a2.79,2.79,0,0,1,1.69-.73,2.7,2.7,0,0,0,2.53-2.85h0A1.34,1.34,0,0,0,175.36,217.31Zm-20,4.89a6.47,6.47,0,1,1,6.14-6.79A6.46,6.46,0,0,1,155.36,222.2Z" transform="translate(0)"/><path class="cls-13" d="M226,192.81a2.78,2.78,0,0,0,.12-5.52,2.78,2.78,0,0,1-.89-5.21,2.78,2.78,0,0,0-2-5.14,3.48,3.48,0,0,1-.79.09,2.79,2.79,0,0,1-2.68-2.9h0a2.8,2.8,0,0,1,.63-1.64,2.78,2.78,0,0,0-3.82-4,2.78,2.78,0,0,1-4.34-3,2.78,2.78,0,0,0-5-2.21,2.78,2.78,0,0,1-5.17-1.11,2.78,2.78,0,0,0-5.52-.12,2.78,2.78,0,0,1-3.15,2.35,2.74,2.74,0,0,1-2.06-1.45,2.78,2.78,0,0,0-5.1,2.05,2.63,2.63,0,0,1,.09.79,2.76,2.76,0,0,1-2.83,2.69h0a2.81,2.81,0,0,1-1.68-.63,2.78,2.78,0,0,0-4,3.82,2.78,2.78,0,0,1-3,4.33,3.28,3.28,0,0,0-.82-.14,2.8,2.8,0,0,0-1.39,5.2,2.7,2.7,0,0,1,1.28,2.38,2.77,2.77,0,0,1-2.51,2.73,2.78,2.78,0,0,0-.12,5.52,2.78,2.78,0,0,1,2.35,3.15,2.74,2.74,0,0,1-1.45,2.06,2.67,2.67,0,0,0-1.49,2.33,2.77,2.77,0,0,0,2.62,2.91,2.84,2.84,0,0,0,.87-.1,2.78,2.78,0,0,1,2.85,4.46,2.78,2.78,0,0,0,3.82,4,2.78,2.78,0,0,1,4.33,3,4.54,4.54,0,0,0-.14.82,3.79,3.79,0,0,0,.05.58,2.79,2.79,0,0,0,5.1.86h0a2.79,2.79,0,0,1,5.17,1.11,2.78,2.78,0,0,0,5.52.12,2.79,2.79,0,0,1,5.21-.9,2.78,2.78,0,0,0,5.14-2,2.79,2.79,0,0,1,2-3.39,2.73,2.73,0,0,1,2.46.54,2.78,2.78,0,0,0,4-3.81,2.78,2.78,0,0,1,3-4.34,2.78,2.78,0,0,0,2.22-5.06,2.78,2.78,0,0,1-1-3.79h0a2.74,2.74,0,0,1,2.16-1.36Zm-27.52,4.76a8.13,8.13,0,1,1,8.29-8v0a8.12,8.12,0,0,1-8.29,7.95Z" transform="translate(0)"/><path class="cls-12" d="M335.65,209.65c3.33-.2,6-5.67,0-5.3-3,.19-3.43-4.45-.51-5.21a2.53,2.53,0,0,0,2-2.52,2.61,2.61,0,0,0-2.5-2.71h-.5a2.66,2.66,0,0,1-1.52-5,2.65,2.65,0,0,0-2-4.89,2.66,2.66,0,0,1-2.47-4.63,2.66,2.66,0,0,0-3-4.4,2.65,2.65,0,0,1-3.32-4.05,2.66,2.66,0,0,0-3.75-3.75,2.65,2.65,0,0,1-4.05-3.33,2.65,2.65,0,1,0-4.41-2.94h0a2.65,2.65,0,0,1-4.62-2.47,2.8,2.8,0,0,0,.17-.95,2.67,2.67,0,0,0-5.07-1.08,2.53,2.53,0,0,1-2.34,1.5,2.63,2.63,0,0,1-2.69-2.56,1.62,1.62,0,0,1,0-.44,2.66,2.66,0,0,0-5.2-1,2.66,2.66,0,0,1-5.22-.52,2.66,2.66,0,0,0-5.3,0,2.65,2.65,0,0,1-5.21.52,2.66,2.66,0,0,0-5.2,1,2.65,2.65,0,0,1-5,1.52,2.52,2.52,0,0,0-2.32-1.51,2.65,2.65,0,0,0-2.73,2.56,2.82,2.82,0,0,0,.15,1,2.65,2.65,0,0,1-4.62,2.47A2.66,2.66,0,0,0,250,163.9a2.65,2.65,0,0,1-4,3.33,2.66,2.66,0,0,0-3.75,3.75,2.65,2.65,0,0,1-3.32,4,2.66,2.66,0,1,0-3,4.4,2.66,2.66,0,0,1-2.47,4.63,2.63,2.63,0,0,0-1-.17,2.67,2.67,0,0,0-1.08,5.06,2.66,2.66,0,0,1-1.52,5,2.66,2.66,0,0,0-1,5.2,2.54,2.54,0,0,1,2,2.54,2.6,2.6,0,0,1-2.5,2.67,2.66,2.66,0,0,0,0,5.3,2.66,2.66,0,0,1,.52,5.22,2.65,2.65,0,0,0,1,5.19,2.65,2.65,0,0,1,1.85,4.83h0a1.87,1.87,0,0,1-.31.17,2.66,2.66,0,0,0,2,4.9,2.65,2.65,0,0,1,2.47,4.62,2.67,2.67,0,0,0,3,4.41h0a2.55,2.55,0,0,1,3.07.28,2.6,2.6,0,0,1,.35,3.66l-.1.11a2.67,2.67,0,0,0,3.78,3.75,2.65,2.65,0,0,1,4,3.33A2.65,2.65,0,0,0,254.4,253a2.55,2.55,0,0,1,2.06-1.06,2.66,2.66,0,0,1,2.71,2.59h0a2.51,2.51,0,0,1-.15.94,2.66,2.66,0,0,0,4.9,2,2.56,2.56,0,0,1,2.34-1.5,2.63,2.63,0,0,1,2.7,2.56h0a3.23,3.23,0,0,1,0,.44,3.09,3.09,0,0,0,0,.43,2.66,2.66,0,0,0,5.23.61,2.65,2.65,0,0,1,5.21.49,2.65,2.65,0,0,0,5.3,0,2.66,2.66,0,0,1,5.22-.51,2.54,2.54,0,0,0,2.52,2,2.61,2.61,0,0,0,2.71-2.51h0a2,2,0,0,0,0-.49,2.81,2.81,0,0,1,0-.41,2.65,2.65,0,0,1,5-1.11,2.52,2.52,0,0,0,2.31,1.51,2.66,2.66,0,0,0,2.75-2.55,2.62,2.62,0,0,0-.16-1,2.65,2.65,0,0,1,4.62-2.47,2.57,2.57,0,0,0,2.06,1.08,2.68,2.68,0,0,0,2.71-2.63h0a2.75,2.75,0,0,0-.36-1.37,2.65,2.65,0,0,1,4.07-3.36A2.65,2.65,0,0,0,321.9,243a2.63,2.63,0,0,1,2-4.41,2.68,2.68,0,0,1,1.35.36,2.67,2.67,0,1,0,3.41-4.11h0l-.2-.15-.21-.15a2.65,2.65,0,0,1,2.47-4.62,2.66,2.66,0,0,0,2-4.9,2.66,2.66,0,0,1,1.52-5,2.65,2.65,0,0,0,1-5.19,2.66,2.66,0,0,1,.48-5.23ZM282,191.45a15.52,15.52,0,0,1,15.33,13h0a15.56,15.56,0,0,1-18.73,17.74,15.24,15.24,0,0,1-6.19-2.92A15.55,15.55,0,0,1,282,191.46Z" transform="translate(0)"/><path class="cls-9" d="M165.34,169.22" transform="translate(0)"/><path class="cls-9" d="M273.36,180.17" transform="translate(0)"/><path class="cls-9" d="M301.85,180.17" transform="translate(0)"/><path class="cls-14" d="M230.44,228.32" transform="translate(0)"/><path class="cls-14" d="M223.39,251.91" transform="translate(0)"/><path class="cls-15" d="M263.34,253.6" transform="translate(0)"/><path class="cls-15" d="M241.44,260.07" transform="translate(0)"/><path class="cls-16" d="M262.93,254.06" transform="translate(0)"/><path class="cls-16" d="M240.24,260.79" transform="translate(0)"/><path class="cls-15" d="M242.5,221.58" transform="translate(0)"/><path class="cls-15" d="M259.7,231.29" transform="translate(0)"/><path class="cls-17" d="M260.38,233.29" transform="translate(0)"/><path class="cls-17" d="M256,252.79" transform="translate(0)"/><path class="cls-17" d="M256.12,253.18" transform="translate(0)"/><path class="cls-16" d="M241.3,220.88" transform="translate(0)"/><path class="cls-18" d="M259.12,230.93" transform="translate(0)"/><path class="cls-18" d="M259.82,233" transform="translate(0)"/><path class="cls-18" d="M248.44,232.64" transform="translate(0)"/><path class="cls-18" d="M255.28,253.17" transform="translate(0)"/><path class="cls-18" d="M255.43,253.62" transform="translate(0)"/><path class="cls-19" d="M253.35,255.25" transform="translate(0)"/><path class="cls-20" d="M244.87,235.54" transform="translate(0)"/><path class="cls-21" d="M299.7,233.16,298,218.7l-.7-5.73,6.92-.84,14.95-1.82a23,23,0,0,0-12.95-9.84h0a22.86,22.86,0,0,0-27.5,13.08h0L237,219.25l-40.48,4.92a22.84,22.84,0,0,0-40.09,6.47L178.21,228l2.46,20.19-21.41,2.62A22.86,22.86,0,0,0,199.35,246l39.88-4.85L281,235.5h0a22.87,22.87,0,0,0,31.85,5.63h0a22.62,22.62,0,0,0,4.89-4.63,23,23,0,0,0,3.37-5.95Z" transform="translate(0)"/><path class="cls-22" d="M214,229.67a9.65,9.65,0,0,0-1.72-.65,4.5,4.5,0,0,0-1.63-.18,4.11,4.11,0,0,0-.85.16,1.9,1.9,0,0,0-.63.33,1.31,1.31,0,0,0-.4.5,1.62,1.62,0,0,0-.12.69,1.28,1.28,0,0,0,.41.9,3.26,3.26,0,0,0,1.06.66,11.17,11.17,0,0,0,1.37.49,8.31,8.31,0,0,1,1.66.69,3.66,3.66,0,0,1,1.34,1.25,3.92,3.92,0,0,1,.54,2.22,4.07,4.07,0,0,1-1.31,3.07,4.89,4.89,0,0,1-1.57,1,6.29,6.29,0,0,1-2.18.49,8,8,0,0,1-1.7-.06,8.31,8.31,0,0,1-1.71-.39,8.49,8.49,0,0,1-1.64-.78l1.26-2.37a7.15,7.15,0,0,0,1.13.59,6.79,6.79,0,0,0,1.24.37,4.43,4.43,0,0,0,1.15.09,4.27,4.27,0,0,0,1-.23,2,2,0,0,0,.87-.57,1.35,1.35,0,0,0,.35-1,1.1,1.1,0,0,0-.3-.79,2.59,2.59,0,0,0-.79-.6,5.28,5.28,0,0,0-1.07-.45c-.45-.14-.92-.31-1.4-.5a7.73,7.73,0,0,1-1.36-.73,3.38,3.38,0,0,1-1-1.16,3.65,3.65,0,0,1-.4-1.77,4.77,4.77,0,0,1,.55-2.28,4.38,4.38,0,0,1,1.59-1.61,6.21,6.21,0,0,1,2.4-.77,8.87,8.87,0,0,1,2.06,0,7.63,7.63,0,0,1,1.56.41,11.62,11.62,0,0,1,1.28.62Z" transform="translate(0)"/><path class="cls-22" d="M220.65,230.23l-.08.76.44-.63,4.71-6.09,3.74-.5-6,7.46,6.13,7.4-3.66.48-4.58-5.74-.7.82v5.61l-2.92.38-.13-14.85,2.92-.39Z" transform="translate(0)"/><path class="cls-22" d="M231.61,223.49l3-.39.13,14.86-3,.39Z" transform="translate(0)"/><path class="cls-22" d="M238.38,222.6l2.88-.38.11,12,6.87-.9v2.82l-9.75,1.29Z" transform="translate(0)"/><path class="cls-22" d="M251.06,220.93l2.88-.38.1,12,6.88-.9v2.82l-9.73,1.32Z" transform="translate(0)"/><path class="cls-22" d="M271.7,222.07a9.55,9.55,0,0,0-1.71-.65,4.5,4.5,0,0,0-1.63-.18,4.11,4.11,0,0,0-.85.16,2,2,0,0,0-.64.33,1.39,1.39,0,0,0-.39.51,1.79,1.79,0,0,0-.13.68,1.24,1.24,0,0,0,.42.9,3.58,3.58,0,0,0,1.05.66,14,14,0,0,0,1.37.49,8.4,8.4,0,0,1,1.67.69,3.66,3.66,0,0,1,1.34,1.25,4.73,4.73,0,0,1,.22,3.86,4.16,4.16,0,0,1-.95,1.43,5.34,5.34,0,0,1-1.57,1.05,6.51,6.51,0,0,1-2.18.48,9.77,9.77,0,0,1-1.71,0,9.23,9.23,0,0,1-1.71-.4,7.05,7.05,0,0,1-1.64-.78l1.27-2.37a7.15,7.15,0,0,0,1.13.59,5.9,5.9,0,0,0,1.24.37,4.36,4.36,0,0,0,1.14.09,3.82,3.82,0,0,0,1-.23,2,2,0,0,0,.88-.56,1.46,1.46,0,0,0,.35-1,1.07,1.07,0,0,0-.31-.79,2.59,2.59,0,0,0-.79-.6,5,5,0,0,0-1.06-.45c-.45-.14-.92-.31-1.4-.5a6.36,6.36,0,0,1-1.36-.73,3.4,3.4,0,0,1-1.39-2.93,4.52,4.52,0,0,1,.55-2.28,4.38,4.38,0,0,1,1.59-1.61,6.21,6.21,0,0,1,2.4-.77,8.87,8.87,0,0,1,2.06,0,7.06,7.06,0,0,1,1.56.42,8.29,8.29,0,0,1,1.27.62Z" transform="translate(0)"/><path class="cls-7" d="M237.33,42.06a8.8,8.8,0,0,1-.87,4,6.32,6.32,0,0,1-2.33,2.56,6.57,6.57,0,0,1-3.28,1V48.21a5,5,0,0,0,3.58-1.71,6.54,6.54,0,0,0,1.43-4.5V24h1.47Z" transform="translate(0)"/><path class="cls-7" d="M248.25,45.51a6.27,6.27,0,0,1-3.05-.76A5.61,5.61,0,0,1,243,42.6a6.32,6.32,0,0,1-.79-3.21A6.47,6.47,0,0,1,243,36a5.64,5.64,0,0,1,2.29-2.12,7.08,7.08,0,0,1,3.26-.74,5.57,5.57,0,0,1,5,3.27l-.2.42.17-3.33h1.26V45.27h-1.4V41.64l.3.54a3.94,3.94,0,0,1-.73,1.19,6,6,0,0,1-1.24,1.07,6.57,6.57,0,0,1-1.62.79A6.09,6.09,0,0,1,248.25,45.51Zm.29-1.2a5.09,5.09,0,0,0,2.39-.56,4.66,4.66,0,0,0,1.73-1.54,4.75,4.75,0,0,0,.75-2.28V38.25a4.81,4.81,0,0,0-.95-2,5.16,5.16,0,0,0-1.73-1.38,5.06,5.06,0,0,0-4.65.11,4.64,4.64,0,0,0-1.77,1.72,5.09,5.09,0,0,0-.65,2.61,4.86,4.86,0,0,0,.65,2.5,5,5,0,0,0,1.79,1.81A4.66,4.66,0,0,0,248.54,44.31Z" transform="translate(0)"/><path class="cls-7" d="M264.26,45.72l-5.94-12.18H260l4.89,10.65H264l4.71-10.62h1.56l-5.82,12.18Z" transform="translate(0)"/><path class="cls-7" d="M278.31,45.51a6.27,6.27,0,0,1-3.05-.76,5.72,5.72,0,0,1-2.16-2.15,7,7,0,0,1,0-6.56,5.61,5.61,0,0,1,2.28-2.12,7.15,7.15,0,0,1,3.27-.74,5.19,5.19,0,0,1,3,.93,5.3,5.3,0,0,1,2,2.34l-.21.42.18-3.33h1.26V45.27h-1.41V41.64l.3.54a3.75,3.75,0,0,1-.73,1.19,6,6,0,0,1-1.24,1.07,6.57,6.57,0,0,1-1.62.79A5.93,5.93,0,0,1,278.31,45.51Zm.3-1.2a5,5,0,0,0,2.38-.56,4.43,4.43,0,0,0,1.73-1.54,4.55,4.55,0,0,0,.75-2.28V38.25a4.73,4.73,0,0,0-1-2,5.16,5.16,0,0,0-1.73-1.38,4.84,4.84,0,0,0-2.21-.51,4.91,4.91,0,0,0-2.43.62,4.64,4.64,0,0,0-1.77,1.72,5.07,5.07,0,0,0-.66,2.61,4.87,4.87,0,0,0,.66,2.5,5.06,5.06,0,0,0,1.78,1.81A4.69,4.69,0,0,0,278.61,44.31Z" transform="translate(0)"/><path class="cls-7" d="M301.58,26.37a14.16,14.16,0,0,0-2.28-.84,9.53,9.53,0,0,0-2.7-.39,5.06,5.06,0,0,0-3.35,1.05A3.26,3.26,0,0,0,292,28.83a2.84,2.84,0,0,0,.72,2,5.83,5.83,0,0,0,1.88,1.34c.79.38,1.62.73,2.49,1.07.71.26,1.4.55,2.09.87A9.41,9.41,0,0,1,301,35.28,5,5,0,0,1,302.38,37a5.74,5.74,0,0,1,.5,2.52,6.09,6.09,0,0,1-.84,3.14,5.74,5.74,0,0,1-2.34,2.11,7.65,7.65,0,0,1-3.49.75,10.08,10.08,0,0,1-2.89-.39,12.46,12.46,0,0,1-2.28-.91c-.65-.35-1.16-.65-1.54-.89l.68-1.2a12.71,12.71,0,0,0,1.61,1,12,12,0,0,0,2,.81,7.6,7.6,0,0,0,2.22.33,6.36,6.36,0,0,0,2.51-.51,4.89,4.89,0,0,0,2-1.54,4.2,4.2,0,0,0,.8-2.63,3.87,3.87,0,0,0-.75-2.48,5.86,5.86,0,0,0-1.92-1.54,23,23,0,0,0-2.5-1.08c-.67-.26-1.36-.53-2-.82a9.5,9.5,0,0,1-1.86-1.06A4.53,4.53,0,0,1,291,31.08a4.27,4.27,0,0,1-.49-2.1,4.6,4.6,0,0,1,.77-2.67,5.41,5.41,0,0,1,2.12-1.79,7.38,7.38,0,0,1,3-.67,13.15,13.15,0,0,1,5.74,1.38Z" transform="translate(0)"/><path class="cls-7" d="M316.71,44.13a6.39,6.39,0,0,1-1.83,1,6.5,6.5,0,0,1-2.14.36,6.33,6.33,0,0,1-3.21-.8,5.86,5.86,0,0,1-2.22-2.17,6.12,6.12,0,0,1-.81-3.15,5.91,5.91,0,0,1,.84-3.15A6.27,6.27,0,0,1,309.58,34a6.14,6.14,0,0,1,3.05-.79,7,7,0,0,1,2.27.36,5.72,5.72,0,0,1,1.83,1l-.75,1a5.5,5.5,0,0,0-1.47-.84,5,5,0,0,0-1.8-.33,4.56,4.56,0,0,0-2.41.66,5.08,5.08,0,0,0-1.74,6.77,4.86,4.86,0,0,0,4.27,2.44,4.61,4.61,0,0,0,1.68-.29,5.34,5.34,0,0,0,1.41-.76Z" transform="translate(0)"/><path class="cls-7" d="M321.87,33.54l.14,3.6-.18-.45a4.66,4.66,0,0,1,1.23-1.86,6.21,6.21,0,0,1,1.88-1.2,5.27,5.27,0,0,1,2-.42l-.05,1.38a5,5,0,0,0-2.45.6,4.86,4.86,0,0,0-1.74,1.6,4.16,4.16,0,0,0-.65,2.27v6.21h-1.41V33.54Z" transform="translate(0)"/><path class="cls-7" d="M330.59,29.22a.9.9,0,0,1,.33-.7,1.13,1.13,0,0,1,.72-.29,1,1,0,0,1,.72.29.93.93,0,0,1,.31.7,1,1,0,0,1-.31.74,1,1,0,0,1-.72.28,1,1,0,0,1-.72-.3A.94.94,0,0,1,330.59,29.22Zm.3,4.32h1.41V45.27h-1.41Z" transform="translate(0)"/><path class="cls-7" d="M344.12,45.51a6,6,0,0,1-3.15-.88,5.51,5.51,0,0,1-2.16-2.3l.24-.51v9.09h-1.41V33.45h1.26l.15,3.84-.27-.87a6.26,6.26,0,0,1,2.28-2.32,6.08,6.08,0,0,1,3.27-.92,5.75,5.75,0,0,1,3,.81,5.89,5.89,0,0,1,2.15,2.2,6.38,6.38,0,0,1,.79,3.2,6.08,6.08,0,0,1-.82,3.17,5.86,5.86,0,0,1-2.22,2.17A6.35,6.35,0,0,1,344.12,45.51Zm-.24-1.17a4.91,4.91,0,0,0,2.51-.66,5,5,0,0,0,1.8-1.78,4.82,4.82,0,0,0,.67-2.51,5,5,0,0,0-2.41-4.32,4.8,4.8,0,0,0-2.48-.66,4.87,4.87,0,0,0-4.14,2.22,5,5,0,0,0-.78,2.31v1a4.66,4.66,0,0,0,.77,2.25,4.77,4.77,0,0,0,1.74,1.6A4.67,4.67,0,0,0,343.88,44.34Z" transform="translate(0)"/><path class="cls-7" d="M355.67,28.38h1.44v5.31h3.63v1.14h-3.63V45.27h-1.44V34.83h-2.49V33.69h2.49Z" transform="translate(0)"/><path class="cls-7" d="M334,377.74l3.28,1.71-.72-.2a4.43,4.43,0,0,1-1.12-2.88,5.84,5.84,0,0,1,.81-3.19,3.71,3.71,0,0,1,2.18-1.82,3.41,3.41,0,0,1,2.72.35l7.41,4.28-.72,1.25-7.07-4.08a2.75,2.75,0,0,0-2-.32,2.66,2.66,0,0,0-1.69,1.35,4.46,4.46,0,0,0,0,4.39,4.59,4.59,0,0,0,1.75,1.72l5.45,3.15-.7,1.22-10.16-5.87Z" transform="translate(0)"/><path class="cls-7" d="M345.49,369.38a6,6,0,0,1-2.28-2.27,6.11,6.11,0,0,1-.82-3.07,6.35,6.35,0,0,1,.89-3.18,6.19,6.19,0,0,1,2.32-2.36,6,6,0,0,1,3-.81,6.07,6.07,0,0,1,3.11.86,6.31,6.31,0,0,1,2.3,2.26,6,6,0,0,1,.81,3.05,6.18,6.18,0,0,1-.9,3.21,6.35,6.35,0,0,1-2.27,2.36,6,6,0,0,1-3,.84A6.18,6.18,0,0,1,345.49,369.38Zm.73-1.2a5,5,0,0,0,4.91.08,4.62,4.62,0,0,0,1.8-1.79,4.69,4.69,0,0,0,.65-2.45,4.94,4.94,0,0,0-.68-2.4,5,5,0,0,0-1.85-1.81,4.84,4.84,0,0,0-2.49-.69,5.14,5.14,0,0,0-2.43.6,4.66,4.66,0,0,0-1.8,1.78,4.47,4.47,0,0,0-.63,2.5,5,5,0,0,0,.74,2.42A4.85,4.85,0,0,0,346.22,368.18Z" transform="translate(0)"/><path class="cls-7" d="M361.6,353.85a5.78,5.78,0,0,1-5.17,2.95,6.89,6.89,0,0,1-5.58-3.24,5.62,5.62,0,0,1-.74-3,6.35,6.35,0,0,1,.89-3,6.26,6.26,0,0,1,2.35-2.33,5.29,5.29,0,0,1,3.08-.77l.45.54-12.58-7.26.71-1.22,19.74,11.4-.72,1.24-3.11-1.8.72.07a5.85,5.85,0,0,1,.86,3.1A6.47,6.47,0,0,1,361.6,353.85Zm-.89-.93a4.83,4.83,0,0,0,.71-2.4,4.69,4.69,0,0,0-.5-2.3,4.55,4.55,0,0,0-1.59-1.78l-1.3-.75a4.57,4.57,0,0,0-2.23-.22,5.27,5.27,0,0,0-2.1.8,4.71,4.71,0,0,0-1.58,1.68,4.92,4.92,0,0,0-.69,2.45,4.8,4.8,0,0,0,.62,2.4,5.09,5.09,0,0,0,1.91,1.86,4.8,4.8,0,0,0,2.5.68,5,5,0,0,0,2.45-.64A4.66,4.66,0,0,0,360.71,352.92Z" transform="translate(0)"/><path class="cls-7" d="M370.18,339a6.44,6.44,0,0,1-2.32,2.4,5.75,5.75,0,0,1-3,.81,6.22,6.22,0,0,1-3.12-.88,6.09,6.09,0,0,1-2.28-2.28,6.56,6.56,0,0,1-.81-3.09,6.07,6.07,0,0,1,.85-3.16,5.18,5.18,0,0,1,2.83-2.44,7,7,0,0,1,3.81-.17L364.43,341l-1.1-.15,1.53-10,.21.47a5.44,5.44,0,0,0-2.56.31,3.75,3.75,0,0,0-2,1.76,4.62,4.62,0,0,0-.65,2.43,4.93,4.93,0,0,0,2.53,4.2,5.22,5.22,0,0,0,2.44.7,5,5,0,0,0,2.45-.58,4.67,4.67,0,0,0,1.87-1.87,4.84,4.84,0,0,0,.61-1.77,5.62,5.62,0,0,0,0-1.83l1.25-.12a7.51,7.51,0,0,1,0,2.22A6.14,6.14,0,0,1,370.18,339Z" transform="translate(0)"/><path class="cls-7" d="M372.83,330.43a1,1,0,0,1,.09-.74,1,1,0,0,1,.61-.46.93.93,0,0,1,.78.08,1,1,0,0,1,.48.64,1,1,0,0,1-.11.76,1,1,0,0,1-1.37.35h0A1,1,0,0,1,372.83,330.43Z" transform="translate(0)"/><path class="cls-7" d="M363.3,318.32a.87.87,0,0,1-.44-.64,1.08,1.08,0,0,1,.11-.77,1,1,0,0,1,.61-.48.93.93,0,0,1,.76.09,1,1,0,0,1,.39,1.36l0,0a1,1,0,0,1-.62.47A1,1,0,0,1,363.3,318.32Zm18.53,11.28-1.2.35a5.8,5.8,0,0,0-1.07-2.06,7.07,7.07,0,0,0-2.05-1.72l-10.31-5.95.71-1.25,10.29,5.94a8.48,8.48,0,0,1,2.54,2.11A5.22,5.22,0,0,1,381.83,329.6Z" transform="translate(0)"/><path class="cls-7" d="M382.15,318.25a6.54,6.54,0,0,1-1.39,1.66,3.77,3.77,0,0,1-1.95.95l-.48-1a4.27,4.27,0,0,0,1.59-.73,4.14,4.14,0,0,0,1.2-1.33,4.2,4.2,0,0,0,.48-1.23,1.91,1.91,0,0,0-1-2.19,1.74,1.74,0,0,0-1.35-.24,3.35,3.35,0,0,0-1.22.65c-.4.31-.8.65-1.2,1a6.33,6.33,0,0,1-2,1.26,2.51,2.51,0,0,1-2.18-.31,3,3,0,0,1-1.23-1.24,3.08,3.08,0,0,1-.33-1.66,3.92,3.92,0,0,1,.56-1.79,5.87,5.87,0,0,1,1.18-1.45,4.18,4.18,0,0,1,1.72-.93l.54,1a2.39,2.39,0,0,0-1.42.65,6.39,6.39,0,0,0-.93,1.08,3.22,3.22,0,0,0-.35,1,2.5,2.5,0,0,0,.07,1.12,1.49,1.49,0,0,0,.73.85,1.66,1.66,0,0,0,1.17.23,2.74,2.74,0,0,0,1.12-.52c.36-.26.72-.55,1.08-.85a11.91,11.91,0,0,1,1.37-1.09,3.66,3.66,0,0,1,1.49-.6A2.49,2.49,0,0,1,381,313a4,4,0,0,1,1.38,1.31,3.24,3.24,0,0,1,.45,1.8A4.9,4.9,0,0,1,382.15,318.25Z" transform="translate(0)"/><path class="cls-7" d="M121.36,353.51a7.47,7.47,0,0,1,3.13.61,4.73,4.73,0,0,1,2.09,1.82,5.71,5.71,0,0,1,.74,3A6.57,6.57,0,0,1,127,361a4.85,4.85,0,0,1-1.08,1.83,5.31,5.31,0,0,1-1.9,1.31,7.34,7.34,0,0,1-2.78.48h-3v8.08h-1.33V353.51Zm-.14,9.9a5.41,5.41,0,0,0,2.35-.45,4,4,0,0,0,1.46-1.14,4.38,4.38,0,0,0,.76-1.45A5.35,5.35,0,0,0,126,359a4.62,4.62,0,0,0-.3-1.68,3.56,3.56,0,0,0-.88-1.32,4.13,4.13,0,0,0-1.42-.86,5.5,5.5,0,0,0-1.93-.31h-3.25v8.62Z" transform="translate(0)"/><path class="cls-7" d="M131.28,372.76v-20.6h1.25V365l-.08-.46a4.59,4.59,0,0,1,1.75-1.88,5,5,0,0,1,2.78-.78,3.4,3.4,0,0,1,2.41.88,3.15,3.15,0,0,1,1,2.3v7.72H139v-7.37a2.57,2.57,0,0,0-.65-1.71,2.46,2.46,0,0,0-1.82-.71,3.91,3.91,0,0,0-2,.55,4.14,4.14,0,0,0-1.48,1.46,4,4,0,0,0-.55,2.09v5.69Z" transform="translate(0)"/><path class="cls-7" d="M144.13,367.39a5.56,5.56,0,0,1,2.75-4.82,6,6,0,0,1,5.79,0,5.48,5.48,0,0,1,2,2,5.83,5.83,0,0,1,0,5.64,5.48,5.48,0,0,1-2,2,6.12,6.12,0,0,1-5.79,0A5.56,5.56,0,0,1,144.13,367.39Zm1.28,0a4.44,4.44,0,0,0,2.15,3.88,4.37,4.37,0,0,0,4.42,0,4.51,4.51,0,0,0,1.58-1.61A4.58,4.58,0,0,0,152,363.5a4.09,4.09,0,0,0-2.21-.61,4,4,0,0,0-2.23.64A4.55,4.55,0,0,0,146,365.2a4.42,4.42,0,0,0-.57,2.22Z" transform="translate(0)"/><path class="cls-7" d="M160.29,357.5h1.31v4.8h3.28v1H161.6v9.43h-1.31V363.3H158v-1h2.25Z" transform="translate(0)"/><path class="cls-7" d="M167,367.39a5.54,5.54,0,0,1,2.78-4.84,6,6,0,0,1,5.79,0,5.48,5.48,0,0,1,2,2,5.83,5.83,0,0,1,0,5.64,5.48,5.48,0,0,1-2,2,6.1,6.1,0,0,1-5.78,0,5.33,5.33,0,0,1-2-2A5.53,5.53,0,0,1,167,367.39Zm1.27,0a4.47,4.47,0,0,0,2.16,3.88,4.37,4.37,0,0,0,4.42,0,4.57,4.57,0,0,0,0-7.77,4.29,4.29,0,0,0-4.45,0,4.54,4.54,0,0,0-2.11,3.89Z" transform="translate(0)"/><path class="cls-7" d="M184.62,373a6,6,0,0,1-1.93-.34,3.36,3.36,0,0,1-1.62-1.1l.59-.84a4,4,0,0,0,2.88,1.25,3.93,3.93,0,0,0,1.18-.18,1.75,1.75,0,0,0,.9-.61A1.73,1.73,0,0,0,187,370a1.53,1.53,0,0,0-.42-1.17,3.26,3.26,0,0,0-1.06-.66c-.43-.17-.87-.33-1.34-.48a5.3,5.3,0,0,1-1.91-1,2.29,2.29,0,0,1-.75-1.84,2.71,2.71,0,0,1,.42-1.52,3,3,0,0,1,1.15-1,3.68,3.68,0,0,1,1.66-.36,5.25,5.25,0,0,1,1.66.27,3.92,3.92,0,0,1,1.51.92l-.57.89a2.24,2.24,0,0,0-1.15-.81,5.4,5.4,0,0,0-1.26-.24,2.65,2.65,0,0,0-1,.19,2.05,2.05,0,0,0-.84.55,1.42,1.42,0,0,0-.34,1,1.47,1.47,0,0,0,.36,1,2.43,2.43,0,0,0,.91.64c.37.16.75.32,1.15.46a11.08,11.08,0,0,1,1.48.58,3.2,3.2,0,0,1,1.13.9,2.26,2.26,0,0,1,.45,1.48,3.32,3.32,0,0,1-.41,1.66,2.82,2.82,0,0,1-1.2,1.17A4.34,4.34,0,0,1,184.62,373Z" transform="translate(0)"/><path class="cls-7" d="M192.1,372.76v-20.6h1.25V365l-.08-.46a4.59,4.59,0,0,1,1.75-1.88,5,5,0,0,1,2.78-.78,3.4,3.4,0,0,1,2.41.88,3.17,3.17,0,0,1,.95,2.3v7.72h-1.3v-7.37a2.57,2.57,0,0,0-.65-1.71,2.46,2.46,0,0,0-1.82-.71,3.91,3.91,0,0,0-2,.55,4.22,4.22,0,0,0-1.48,1.46,4,4,0,0,0-.55,2.09v5.69Z" transform="translate(0)"/><path class="cls-7" d="M205,367.39a5.47,5.47,0,0,1,.75-2.82,5.64,5.64,0,0,1,2-2,5.74,5.74,0,0,1,2.89-.74,5.65,5.65,0,0,1,2.9.74,5.48,5.48,0,0,1,2,2,5.83,5.83,0,0,1,0,5.64,5.48,5.48,0,0,1-2,2,6.12,6.12,0,0,1-5.79,0A5.56,5.56,0,0,1,205,367.39Zm1.28,0a4.44,4.44,0,0,0,2.15,3.88,4.37,4.37,0,0,0,4.42,0,4.42,4.42,0,0,0,2.16-3.88,4.47,4.47,0,0,0-2.16-3.89,4.09,4.09,0,0,0-2.21-.61,4,4,0,0,0-2.23.64,4.55,4.55,0,0,0-1.56,1.67,4.45,4.45,0,0,0-.62,2.22Z" transform="translate(0)"/><path class="cls-7" d="M225.92,373a5.41,5.41,0,0,1-2.85-.8,4.87,4.87,0,0,1-1.95-2.07l.21-.46v8.21h-1.27v-15.8h1.14l.13,3.47-.24-.79a5.68,5.68,0,0,1,2.06-2.1,5.56,5.56,0,0,1,3-.82,5.25,5.25,0,0,1,2.73.73,5.32,5.32,0,0,1,1.94,2,5.72,5.72,0,0,1,.72,2.89,5.48,5.48,0,0,1-2.74,4.86A5.67,5.67,0,0,1,225.92,373Zm-.22-1.06a4.39,4.39,0,0,0,2.26-.59,4.6,4.6,0,0,0,1.63-1.62,4.26,4.26,0,0,0,.61-2.26,4.55,4.55,0,0,0-2.18-3.91,4.29,4.29,0,0,0-2.24-.59,4.37,4.37,0,0,0-3.74,2,4.73,4.73,0,0,0-.71,2.09v.87a4.35,4.35,0,0,0,.69,2,4.4,4.4,0,0,0,1.58,1.45,4.16,4.16,0,0,0,2.1.54Z" transform="translate(0)"/><path class="cls-7" d="M122,384.21a4.93,4.93,0,0,0-1.74.33,5.61,5.61,0,0,0-1.6.94,4.56,4.56,0,0,0-1.16,1.42,3.88,3.88,0,0,0-.43,1.83,3.82,3.82,0,0,0,.68,2.24,4.65,4.65,0,0,0,1.81,1.51,5.69,5.69,0,0,0,2.5.54,5.87,5.87,0,0,0,2.15-.38,5.75,5.75,0,0,0,1.73-1,3.81,3.81,0,0,0,1-1.35l.84.87a5.67,5.67,0,0,1-2.27,2.18,7.21,7.21,0,0,1-3.64.88,6.91,6.91,0,0,1-3.22-.73,5.74,5.74,0,0,1-2.23-2,4.89,4.89,0,0,1-.81-2.75,4.83,4.83,0,0,1,.53-2.21,5.7,5.7,0,0,1,1.42-1.78,7.36,7.36,0,0,1,2-1.19,6.68,6.68,0,0,1,2.3-.46Zm8.9,9.78h-1.55l-10-13c-.15-.25-.31-.54-.48-.85a5.87,5.87,0,0,1-.42-1,4.47,4.47,0,0,1-.16-1.21,4.16,4.16,0,0,1,.57-2.18,4.08,4.08,0,0,1,1.59-1.52,4.75,4.75,0,0,1,2.31-.56,5.75,5.75,0,0,1,2.35.48,7.45,7.45,0,0,1,1.8,1.07l-.65.89a8.88,8.88,0,0,0-1.64-1,4.2,4.2,0,0,0-1.67-.35,3.35,3.35,0,0,0-2.37.88,3,3,0,0,0-.93,2.24,3.2,3.2,0,0,0,.2,1.19,4.46,4.46,0,0,0,.41.92l.23.41Zm-1.22-10.87H131L128,391l-1-.74Z" transform="translate(0)"/><path class="cls-7" d="M144.51,374.74h1.33V394h-1.33Z" transform="translate(0)"/><path class="cls-7" d="M151.32,373.39h1.27V394h-1.27Z" transform="translate(0)"/><path class="cls-7" d="M157.42,373.39h1.28V394h-1.28Z" transform="translate(0)"/><path class="cls-7" d="M166.86,394.29a3.13,3.13,0,0,1-3.33-2.92h0v-8h1.28v7.35a2.63,2.63,0,0,0,.66,1.71,2.56,2.56,0,0,0,1.83.73,3.65,3.65,0,0,0,1.93-.54,4.28,4.28,0,0,0,1.45-1.48,4,4,0,0,0,.55-2.13v-5.64h1.28V394h-1.14l-.14-3.33.19.73a3.67,3.67,0,0,1-1,1.48,5.26,5.26,0,0,1-3.59,1.42Z" transform="translate(0)"/><path class="cls-7" d="M179.82,394.21a6,6,0,0,1-1.93-.34,3.36,3.36,0,0,1-1.62-1.1l.59-.84a4,4,0,0,0,2.88,1.25,3.93,3.93,0,0,0,1.18-.18,1.75,1.75,0,0,0,.9-.61,1.73,1.73,0,0,0,.36-1.16,1.53,1.53,0,0,0-.42-1.17,3.26,3.26,0,0,0-1.06-.66c-.43-.17-.87-.33-1.34-.48a5.43,5.43,0,0,1-1.92-1,2.32,2.32,0,0,1-.74-1.84,2.71,2.71,0,0,1,.42-1.52,3,3,0,0,1,1.15-1,3.68,3.68,0,0,1,1.66-.36,5.25,5.25,0,0,1,1.66.27,3.92,3.92,0,0,1,1.51.92l-.57.9a2.22,2.22,0,0,0-1.15-.82,5.4,5.4,0,0,0-1.26-.24,2.65,2.65,0,0,0-1,.19,2.05,2.05,0,0,0-.84.55,1.42,1.42,0,0,0-.34,1,1.47,1.47,0,0,0,.36,1,2.4,2.4,0,0,0,.9.64c.37.16.76.32,1.16.46a11.08,11.08,0,0,1,1.48.58,3.2,3.2,0,0,1,1.13.9,2.26,2.26,0,0,1,.45,1.48,3.36,3.36,0,0,1-.41,1.67,2.86,2.86,0,0,1-1.2,1.16A4.39,4.39,0,0,1,179.82,394.21Z" transform="translate(0)"/><path class="cls-7" d="M188.36,378.73h1.3v4.8h3.28v1h-3.28V394h-1.3v-9.43h-2.25v-1h2.25Z" transform="translate(0)"/><path class="cls-7" d="M197.23,383.39l.13,3.26-.16-.41a4.23,4.23,0,0,1,1.11-1.68,5.74,5.74,0,0,1,1.7-1.09,4.84,4.84,0,0,1,1.8-.38l-.06,1.25a4.6,4.6,0,0,0-2.21.54,4.55,4.55,0,0,0-1.57,1.45,3.7,3.7,0,0,0-.58,2.05V394h-1.28V383.4Z" transform="translate(0)"/><path class="cls-7" d="M209.37,394.21a5.51,5.51,0,0,1-2.75-.69,5.11,5.11,0,0,1-2-1.94,6.27,6.27,0,0,1,0-5.92,5,5,0,0,1,2.06-1.93,6.48,6.48,0,0,1,3-.66A5,5,0,0,1,214.2,386l-.19.38.16-3h1.14V394H214v-3.28l.27.49a3.45,3.45,0,0,1-.65,1.07,5.33,5.33,0,0,1-4.25,1.93Zm.28-1.08a4.59,4.59,0,0,0,2.15-.5,4.13,4.13,0,0,0,2.24-3.46v-1.52a4.14,4.14,0,0,0-.86-1.79,4.7,4.7,0,0,0-1.55-1.25,4.6,4.6,0,0,0-4.21.1,4.35,4.35,0,0,0-1.6,1.56,4.43,4.43,0,0,0-.59,2.36,4.39,4.39,0,0,0,.59,2.26,4.6,4.6,0,0,0,1.62,1.63A4.3,4.3,0,0,0,209.65,393.13Z" transform="translate(0)"/><path class="cls-7" d="M221.2,378.73h1.3v4.8h3.28v1H222.5V394h-1.3v-9.43H219v-1h2.25Z" transform="translate(0)"/><path class="cls-7" d="M227.92,388.63a5.52,5.52,0,0,1,2.75-4.83,6,6,0,0,1,5.79,0,5.48,5.48,0,0,1,2,2,5.85,5.85,0,0,1,0,5.65,5.48,5.48,0,0,1-2,2,5.74,5.74,0,0,1-2.92.74,5.67,5.67,0,0,1-2.87-.72,5.33,5.33,0,0,1-2-2A5.54,5.54,0,0,1,227.92,388.63Zm1.28,0a4.44,4.44,0,0,0,2.15,3.88,4.37,4.37,0,0,0,4.42,0,4.49,4.49,0,0,0,1.57-1.61,4.58,4.58,0,0,0-1.57-6.16,4.29,4.29,0,0,0-4.45,0,4.6,4.6,0,0,0-1.55,1.67,4.39,4.39,0,0,0-.57,2.21Z" transform="translate(0)"/><path class="cls-7" d="M244.14,383.39l.13,3.26-.16-.41a4.23,4.23,0,0,1,1.11-1.68,5.74,5.74,0,0,1,1.7-1.09,4.84,4.84,0,0,1,1.8-.38l-.05,1.25a4.49,4.49,0,0,0-2.21.54,4.31,4.31,0,0,0-1.58,1.45,3.7,3.7,0,0,0-.58,2.05V394H243V383.4Z" transform="translate(0)"/><path class="cls-7" d="M90.28,98.78a8.51,8.51,0,0,1,1.49-1.89,6.75,6.75,0,0,1,2-1.34,5.58,5.58,0,0,1,2.42-.42,5.86,5.86,0,0,1,2.66.84,7.93,7.93,0,0,1,1.83,1.48,5.47,5.47,0,0,1,1.17,2,5.75,5.75,0,0,1,.2,2.54,8.52,8.52,0,0,1-1.12,3l-1.65,2.85,7.74,4.47-.74,1.28L87.85,103Zm9.39,5.63a6.87,6.87,0,0,0,.93-2.51,4.25,4.25,0,0,0-.19-2,4.42,4.42,0,0,0-.93-1.52,5.4,5.4,0,0,0-1.32-1.06,4.64,4.64,0,0,0-1.73-.6,4.33,4.33,0,0,0-1.79.13A4.59,4.59,0,0,0,93,97.7a5.52,5.52,0,0,0-1.36,1.6l-1.8,3.12,8.27,4.77Zm2.1-2.32,11.35-.27-.86,1.48-11.33.31Z" transform="translate(0)"/><path class="cls-7" d="M97.34,86.54l6.57-11.38,1.22.71L99.3,86l7.33,4.23,5.25-9.09,1.22.7-5.25,9.1,7.45,4.3,6-10.47,1.22.71-6.78,11.74Z" transform="translate(0)"/><path class="cls-7" d="M124.44,82.2,109.69,63.29l.06-.1,23.75,3.32-.82,1.43-21.14-3.17V63.6l13.63,17.33Zm-5.12-8L124,66l1.41.32-5.12,8.86Z" transform="translate(0)"/><path class="cls-7" d="M142.08,48.84a11.73,11.73,0,0,1-.1,1.78,9.81,9.81,0,0,1-.45,2,11.27,11.27,0,0,1-1,2.14,11.12,11.12,0,0,1-2.94,3.39,10.19,10.19,0,0,1-3.73,1.77,10.56,10.56,0,0,1-4,.17,11,11,0,0,1-4-1.4,11.71,11.71,0,0,1-3.36-2.87,10.56,10.56,0,0,1-.83-12,10.73,10.73,0,0,1,2-2.5A12.33,12.33,0,0,1,126,39.66l.86,1.22a11.84,11.84,0,0,0-2.15,1.5A9,9,0,0,0,121.78,48a9.2,9.2,0,0,0,.29,3.58,9.65,9.65,0,0,0,4.52,5.75,10,10,0,0,0,3.47,1.25,8.93,8.93,0,0,0,3.53-.11A8.53,8.53,0,0,0,136.8,57a9.56,9.56,0,0,0,2.55-2.93,8.82,8.82,0,0,0,1.05-2.7,10,10,0,0,0,.22-2.56Z" transform="translate(0)"/><path class="cls-7" d="M126.71,35.67l7-12.08,1.22.71-3.14,5.43L149,39.67l-.74,1.27L131,31l-3.11,5.38Z" transform="translate(0)"/><path class="cls-7" d="M143.62,65.66l-1.86,4.54,4.76-1.32L150.35,72l.2-5-9.68-5.59Z" transform="translate(0)"/><path class="cls-8" d="M148.84,57.92l-3.07,3.88-4.93-.33,9.69,5.58,4.18-2.64-4.63-1.71Z" transform="translate(0)"/><path class="cls-7" d="M412.29,140a8.66,8.66,0,0,1-1.1-.72,7.16,7.16,0,0,1-1.13-1,8.94,8.94,0,0,1-2.08-4.54,7.24,7.24,0,0,1,.24-3,7.88,7.88,0,0,1,3.74-4.65,8.46,8.46,0,0,1,3-1.09,7.8,7.8,0,0,1,3.08.16,8.09,8.09,0,0,1,2.76,1.32,8.19,8.19,0,0,1,2.1,2.4,7.77,7.77,0,0,1,.87,2.18,8.49,8.49,0,0,1,.24,2.13l-1.1.1a8.26,8.26,0,0,0-.16-1.92,6.2,6.2,0,0,0-.75-2,6.44,6.44,0,0,0-1.78-2,6.9,6.9,0,0,0-2.4-1.14,7.13,7.13,0,0,0-2.68-.15,7.21,7.21,0,0,0-2.66.92,7.6,7.6,0,0,0-2.08,1.75,6.57,6.57,0,0,0-1.23,2.3,6.45,6.45,0,0,0-.22,2.62,6.8,6.8,0,0,0,.94,2.7A6.47,6.47,0,0,0,411.3,138a7.62,7.62,0,0,0,1.56,1.08Z" transform="translate(0)"/><path class="cls-7" d="M429.4,143.85a13.21,13.21,0,0,0-.3-1.76,8,8,0,0,0-.75-1.87,3.73,3.73,0,0,0-1.91-1.76,2.43,2.43,0,0,0-2.15.17,2.1,2.1,0,0,0-1,1.19,4.48,4.48,0,0,0-.17,1.71c.05.63.13,1.29.24,2,.09.55.16,1.1.21,1.66a6.85,6.85,0,0,1-.05,1.63,3.83,3.83,0,0,1-.6,1.48,4.74,4.74,0,0,1-3.74,1.87,4.3,4.3,0,0,1-2.22-.72,5.64,5.64,0,0,1-1.76-2,7.27,7.27,0,0,1-.82-2,8.41,8.41,0,0,1-.26-1.8v-1.31h1a8,8,0,0,0,0,1.38,8.82,8.82,0,0,0,.24,1.61,5.39,5.39,0,0,0,.61,1.54,4.56,4.56,0,0,0,1.25,1.41A3.53,3.53,0,0,0,419,149a3.13,3.13,0,0,0,2-.46,2.83,2.83,0,0,0,1.3-1.39,4.25,4.25,0,0,0,.28-1.8,14.94,14.94,0,0,0-.23-2c-.08-.53-.16-1.07-.22-1.61a7,7,0,0,1,0-1.58,3.67,3.67,0,0,1,.46-1.4,3.19,3.19,0,0,1,1.16-1.09,3.35,3.35,0,0,1,2-.48,3.82,3.82,0,0,1,1.92.69,5.39,5.39,0,0,1,1.56,1.7,8.88,8.88,0,0,1,.87,2.09,9.25,9.25,0,0,1,.36,2.08Z" transform="translate(0)"/><path class="cls-7" d="M435.83,155a13.08,13.08,0,0,0-.3-1.77,7.33,7.33,0,0,0-.75-1.86,3.69,3.69,0,0,0-1.91-1.76,2.4,2.4,0,0,0-2.15.16,2.16,2.16,0,0,0-1,1.2,4.48,4.48,0,0,0-.17,1.71c.05.63.13,1.3.24,2,.09.54.16,1.1.21,1.65a6.67,6.67,0,0,1,0,1.67,3.87,3.87,0,0,1-.6,1.49,4.07,4.07,0,0,1-1.43,1.24,4.2,4.2,0,0,1-4.53-.09,5.68,5.68,0,0,1-1.76-1.95,7.59,7.59,0,0,1-.82-2,9.89,9.89,0,0,1-.26-1.8v-1.31h1a8,8,0,0,0,0,1.38,8.82,8.82,0,0,0,.24,1.61,5.69,5.69,0,0,0,.61,1.54,4.69,4.69,0,0,0,1.25,1.41,3.54,3.54,0,0,0,1.73.72,3.13,3.13,0,0,0,2-.46,2.86,2.86,0,0,0,1.3-1.4,4.21,4.21,0,0,0,.28-1.79,14.94,14.94,0,0,0-.23-2c-.08-.53-.16-1.07-.22-1.61a7,7,0,0,1,0-1.58A3.64,3.64,0,0,1,429,150a3,3,0,0,1,1.16-1.09,3.51,3.51,0,0,1,2-.49,3.93,3.93,0,0,1,1.92.7,5.25,5.25,0,0,1,1.56,1.69,8.88,8.88,0,0,1,.87,2.09,8.25,8.25,0,0,1,.36,2.09Z" transform="translate(0)"/><path class="cls-7" d="M437.18,163.39l.47.82-3,1.76,1.76,3.05-.81.47-1.76-3.05-3.09,1.78-.47-.82,3.09-1.78-1.76-3.05.8-.47,1.76,3.05Z" transform="translate(0)"/><path class="cls-7" d="M398.24,140.58a4,4,0,0,0-.95-1.09,4.38,4.38,0,0,0-1.31-.75,3.74,3.74,0,0,0-1.48-.24,3.32,3.32,0,0,0-2.78,1.84,3.71,3.71,0,0,0-.32,1.89,4.69,4.69,0,0,0,.63,2,4.86,4.86,0,0,0,2.57,2.18,3.13,3.13,0,0,0,1.39.19l-.27,1a4.62,4.62,0,0,1-2.48-.72,5.94,5.94,0,0,1-2.1-2.21,5.5,5.5,0,0,1-.8-2.58,4.72,4.72,0,0,1,.48-2.37,4.12,4.12,0,0,1,1.61-1.7,3.84,3.84,0,0,1,1.78-.53,4.79,4.79,0,0,1,1.84.28,5.9,5.9,0,0,1,1.66.93,5.65,5.65,0,0,1,1.27,1.44ZM395,150.87l-.14-.24-.21-.38-.28-.47,5.14-12.4.41-.69a3.89,3.89,0,0,1,.56-.71,3.29,3.29,0,0,1,.78-.61,3.48,3.48,0,0,1,1.78-.49,3.37,3.37,0,0,1,1.72.5,3.86,3.86,0,0,1,1.34,1.41,4.56,4.56,0,0,1,.62,1.86,6.12,6.12,0,0,1,0,1.71l-.9-.1a6.61,6.61,0,0,0,0-1.54,3.47,3.47,0,0,0-.43-1.33,2.77,2.77,0,0,0-1.59-1.32,2.39,2.39,0,0,0-2,.26,2.72,2.72,0,0,0-.76.63,3.53,3.53,0,0,0-.49.66c-.11.19-.18.3-.19.33Zm7.19-5.3.53.92L396,147.56l.14-1Z" transform="translate(0)"/><path class="cls-7" d="M419.93,162.7l-13.61,7.86-.54-.94,6.4-3.7-4.74-8.2-6.4,3.69-.54-.94,13.61-7.86.54.94-6.32,3.66,4.73,8.2,6.33-3.65Z" transform="translate(0)"/><path class="cls-7" d="M421.8,165.94l5.15,8.91-.9.52-2.31-4L411,178.7l-.54-.93,12.71-7.34-2.29-4Z" transform="translate(0)"/><path class="cls-7" d="M415.21,186l13.92-8h0l-5.66,12.22-.17-.44L436.63,191h0l-13.91,8-.54-.92,11.82-6.8-.42.34-11.27-1.05h0L427,180.24l.51-.09-11.71,6.76Z" transform="translate(0)"/><path class="cls-7" d="M438.85,195.46l.54.94-12.71,7.34L431,211.2l-.91.52-4.84-8.4Z" transform="translate(0)"/><path class="cls-7" d="M449.46,196.25A6.08,6.08,0,0,0,447.9,194a5.5,5.5,0,0,1,1.1-1,3.7,3.7,0,0,1,1.05-.48,7.83,7.83,0,0,1,1.28-.14s.26-.17,0-.72-.51-1-.68-1a6.88,6.88,0,0,0-.9.1,20.76,20.76,0,0,1-3.85-.38,3.24,3.24,0,0,1,1.83-1.22A7.74,7.74,0,0,1,449,189s.25-.17,0-.72-.52-1-.68-1-.53.08-.9.1-3.84-.12-4.75-.16a4.44,4.44,0,0,1-1.09-.07h-.34c-.16,0-.32,0-.34-.09a2.05,2.05,0,0,1,.85-.32c1.1-.22,2.88-.38,2.94-.41s.34,0,.32-.49a.53.53,0,0,0-.31-.52h-.11s2-.29,1.46-1.54a4,4,0,0,0-2.59-1.74l-1.73-1.42-.83-.69v-.08c1-2.16,1-5.42,3.24-6.17.8-.28,3-.84,7.54,3.2,3.73,3.32,4.5,6.86,3.47,7.94-1.47,1.54-5.85.3-8.07-3.81a3.5,3.5,0,0,1-.4-3c.15-.33.15-.36.07-.43s-.32.07-.43.17a2.81,2.81,0,0,0-.59,2.05,8.85,8.85,0,0,0,2.52,4.84c2.06,2.2,5.68,3.11,7.78,1.57s1.34-5.84-1.5-9a20.28,20.28,0,0,0-6.21-4.91c-2.76-1.28-4.57-.94-5.21-.52-2.3,1.49-2.54,5.57-3.19,7.43l-.18-.15c-.62-.55-3-2.62-4.75-2.69-1.94-.08-2.78,1.25-2.71,1.89A4.56,4.56,0,0,0,436,182a4.92,4.92,0,0,0,4.37-1.29h0l.54.42c.35.26.67.53,1,.76a7.56,7.56,0,0,0-1.94.37,4.07,4.07,0,0,0-2.29,1.86,1,1,0,0,0,0,.74c.24.58.82.65,1.52.71s1.79.07,1.79.07-2.37.49-1.93,1.57c.16.4.83.59,1.17.66h.18c.34,0,1.11.15,2.37.26,1.62.14,3.56.12,3.56.12a10,10,0,0,0-1,.7,11.32,11.32,0,0,0-1,1.08l-.46-.12h0l-.7-.2a15.37,15.37,0,0,0-2.1-.63c-.29,0-.46.09-.53.35a1.1,1.1,0,0,0,.16.71,3.32,3.32,0,0,0,.63.9,3.38,3.38,0,0,0,.79.67,2,2,0,0,0,2,.15,3.76,3.76,0,0,0,1.06-.79h.27a24,24,0,0,0,3.16.45,10,10,0,0,0-1,.7,7.82,7.82,0,0,0-.9.92,4.92,4.92,0,0,0-2.45-.69c-1,.05-1.33.45-1.24,1a1.51,1.51,0,0,0,.44.67,3.41,3.41,0,0,0,.84.72,2.23,2.23,0,0,0,2.07.34,3.32,3.32,0,0,0,.9-.63,5.66,5.66,0,0,1,1.36,2.51c.67,2.46-.61,3.52-1.26,3.67a1.66,1.66,0,0,1-1.36-.32c-.17-.12-.23-.16-.29-.11s-.07.14,0,.27a2,2,0,0,0,2.15.62c1.48-.52,2.51-2.54,1.51-5ZM436,180.56c-1.17-.43-1.93-1.4-1.84-2s1.42-.93,2.71-.34a12.68,12.68,0,0,1,2.11,1.29l.48.36h.06l.12.09a3.66,3.66,0,0,1-3.64.53Zm6.15,4.13c-.77,0-2.7.11-2.74-.27s1.17-1,2.61-1.12a6.56,6.56,0,0,1,2.07.24c.65.24,1,.64.85.84a9.8,9.8,0,0,1-2.75.31Zm-.35,5.59c-.11-.09-.19-.18-.18-.24s.12,0,.12,0,.86.33,1.25.45l.77.22h-.06a2.09,2.09,0,0,1-1.9-.47Zm2.28,3.29c0-.11.22-.18.95-.14a3.23,3.23,0,0,1,1.36.39,1.41,1.41,0,0,1-.42.26,1.6,1.6,0,0,1-1.85-.51Z" transform="translate(0)"/><path class="cls-7" d="M67.79,289.15l-6.57-11.38,1.22-.71,5.84,10.11,7.32-4.23-5.25-9.09,1.22-.71,5.25,9.1,7.46-4.31-6-10.47,1.23-.7,6.78,11.74Z" transform="translate(0)"/><path class="cls-7" d="M66.24,267.32l3.12-2-.54.51a4.36,4.36,0,0,1-3-.47,5.72,5.72,0,0,1-2.35-2.3,3.68,3.68,0,0,1-.49-2.8,3.45,3.45,0,0,1,1.67-2.17l7.4-4.28.72,1.25-7.07,4.08a2.86,2.86,0,0,0-1.27,1.57,2.63,2.63,0,0,0,.33,2.13,4.46,4.46,0,0,0,1.59,1.61,4.34,4.34,0,0,0,2.19.62,4.47,4.47,0,0,0,2.36-.65l5.46-3.15.7,1.22L66.9,268.36Z" transform="translate(0)"/><path class="cls-7" d="M71.68,241.83a8,8,0,0,1,.75,1.75,6.56,6.56,0,0,1,.23,1.92,12.32,12.32,0,0,1-.33,2.26l-1.25-.25a7.94,7.94,0,0,0,.25-2.91,5.71,5.71,0,0,0-.71-2.08,6.13,6.13,0,0,0-2-2.23,3.57,3.57,0,0,0-2.13-.57,5.07,5.07,0,0,0-2.14.64L61,242.24l.14-.46a5.19,5.19,0,0,1,3.28.58A6.3,6.3,0,0,1,67,244.89a5.76,5.76,0,0,1,.79,3,6.21,6.21,0,0,1-.83,3,6.11,6.11,0,0,1-8.3,2.36h0l-.2-.11a6.45,6.45,0,0,1-2.28-2.36,6,6,0,0,1-.81-3.08,5,5,0,0,1,.87-2.94l.66-.17-3,1.55L53.33,245l10.32-6a5.85,5.85,0,0,1,2.67-.8,4.93,4.93,0,0,1,2.8.74A7.58,7.58,0,0,1,71.68,241.83ZM64.05,252a4.9,4.9,0,0,0,1.84-1.83,5,5,0,0,0,.67-2.44,4.82,4.82,0,0,0-.67-2.51,5,5,0,0,0-4-2.53,4.17,4.17,0,0,0-2.23.39l-1.51.87a4.73,4.73,0,0,0-1.27,1.82A5.1,5.1,0,0,0,59.09,252a4.72,4.72,0,0,0,2.4.67A5,5,0,0,0,64.05,252Z" transform="translate(0)"/><path class="cls-7" d="M41.13,246l-.71-1.23,19.75-11.4.7,1.23Z" transform="translate(0)"/><path class="cls-7" d="M43.75,237a.89.89,0,0,1-.78.07,1.08,1.08,0,0,1-.61-.48,1,1,0,0,1-.11-.76,1,1,0,0,1,1.21-.73h0a1,1,0,0,1,.71,1.22v0A.87.87,0,0,1,43.75,237Zm3.59-2.41-.71-1.23,10.16-5.86.71,1.22Z" transform="translate(0)"/><path class="cls-7" d="M53,220.37a6.27,6.27,0,0,1,.74,2,4,4,0,0,1-.15,2.16l-1.14-.1a4.45,4.45,0,0,0,.16-1.74A4.25,4.25,0,0,0,52,221a4.38,4.38,0,0,0-.82-1,1.92,1.92,0,0,0-2.4-.23,1.72,1.72,0,0,0-.89,1,3.56,3.56,0,0,0,0,1.38c.07.5.17,1,.29,1.55a6.06,6.06,0,0,1,.07,2.4,2.56,2.56,0,0,1-1.36,1.74,2.92,2.92,0,0,1-1.68.43,3,3,0,0,1-1.61-.54,4,4,0,0,1-1.27-1.38,5.7,5.7,0,0,1-.66-1.75,4.23,4.23,0,0,1,0-2h1.17a2.39,2.39,0,0,0-.14,1.56,5.9,5.9,0,0,0,.46,1.34,3.28,3.28,0,0,0,.71.82,2.34,2.34,0,0,0,1,.49,1.5,1.5,0,0,0,1.11-.2,1.61,1.61,0,0,0,.78-.9,3,3,0,0,0,.11-1.23,7.33,7.33,0,0,0-.2-1.36,11.29,11.29,0,0,1-.26-1.73,3.75,3.75,0,0,1,.23-1.59,2.54,2.54,0,0,1,1.17-1.25,3.77,3.77,0,0,1,1.82-.53,3.16,3.16,0,0,1,1.79.51A4.76,4.76,0,0,1,53,220.37Z" transform="translate(0)"/><path class="cls-7" d="M48.6,213.31l-19.74,11.4-.69-1.19,12.29-7.1-.4.34a5.25,5.25,0,0,1-2.77-.63A5.68,5.68,0,0,1,35,213.89a3.68,3.68,0,0,1-.49-2.8,3.47,3.47,0,0,1,1.67-2.18l7.4-4.27.72,1.24L37.24,210A2.88,2.88,0,0,0,36,211.53a2.7,2.7,0,0,0,.33,2.13,4.26,4.26,0,0,0,1.61,1.6,4.68,4.68,0,0,0,2.22.61,4.39,4.39,0,0,0,2.31-.63l5.46-3.15Z" transform="translate(0)"/><polygon class="cls-7" points="198.3 396.8 200.44 401.15 205.24 401.84 201.77 405.22 202.59 410 198.3 407.74 194.01 410 194.83 405.22 191.36 401.84 196.15 401.15 198.3 396.8"/></svg>